<svg width="101" height="28" viewBox="0 0 101 28" fill="none" xmlns="http://www.w3.org/2000/svg">
<path d="M13.3209 13.2993C13.3209 12.438 13.9472 11.7461 14.7406 11.7461C15.5201 11.7461 16.1604 12.438 16.1604 13.2993C16.1604 14.1606 15.5341 14.8525 14.7406 14.8525C13.9612 14.8525 13.3209 14.1606 13.3209 13.2993Z" fill="black"/>
<path d="M8.24023 13.2993C8.24023 12.438 8.86661 11.7461 9.66002 11.7461C10.4534 11.7461 11.0937 12.438 11.0798 13.2993C11.0798 14.1606 10.4534 14.8525 9.66002 14.8525C8.88053 14.8525 8.24023 14.1606 8.24023 13.2993Z" fill="black"/>
<path fill-rule="evenodd" clip-rule="evenodd" d="M2.8535 0H21.5056C23.0786 0 24.3592 1.29904 24.3731 2.8946V28L21.3665 25.3596L19.6822 23.7922L17.9005 22.1261L18.6382 24.71H2.8535C1.2806 24.71 0 23.411 0 21.8154V2.8946C0 1.29904 1.2806 0 2.8535 0ZM15.214 17.1558C15.6316 17.6783 16.1327 18.2854 16.1327 18.2854C19.0471 18.1918 20.2499 16.3618 20.3684 16.1816C20.3749 16.1716 20.3782 16.1674 20.3782 16.1674C20.3782 11.6631 18.3738 8.00605 18.3738 8.00605C16.3833 6.49521 14.4763 6.53757 14.4763 6.53757L14.2814 6.76349C16.6477 7.48361 17.7474 8.54261 17.7474 8.54261C16.2998 7.75189 14.88 7.35653 13.5576 7.20121C12.5554 7.08825 11.595 7.11649 10.7459 7.22945C10.673 7.22945 10.6107 7.24021 10.5404 7.25234C10.5302 7.2541 10.5198 7.2559 10.5092 7.25769C10.0221 7.31417 8.83889 7.48361 7.3495 8.14725C6.83448 8.37317 6.52825 8.54261 6.52825 8.54261C6.52825 8.54261 7.66965 7.42713 10.1752 6.70701L10.036 6.53757C10.036 6.53757 8.14292 6.49521 6.13851 8.00605C6.13851 8.00605 4.1341 11.6631 4.1341 16.1674C4.1341 16.1674 5.30334 18.2007 8.37955 18.2995C8.37955 18.2995 8.89457 17.6783 9.31216 17.1417C7.54438 16.6051 6.87624 15.4897 6.87624 15.4897C6.87624 15.4897 7.01544 15.5885 7.26599 15.7297C7.27459 15.7297 7.28319 15.7351 7.29508 15.7426C7.30243 15.7472 7.31103 15.7526 7.32166 15.7579C7.34254 15.7721 7.36342 15.7827 7.3843 15.7932C7.40518 15.8038 7.42606 15.8144 7.44694 15.8285C7.79493 16.0262 8.14292 16.1815 8.46306 16.3086C9.03376 16.5487 9.71582 16.7605 10.5092 16.9158C11.5532 17.1135 12.7781 17.1841 14.1144 16.9299C14.7686 16.8028 15.4367 16.6193 16.1327 16.3227C16.6199 16.1392 17.1628 15.8709 17.7335 15.4897C17.7335 15.4897 17.0375 16.6334 15.214 17.1558Z" fill="black"/>
<path d="M32.5299 6.04337H37.1512C39.6289 6.04337 41.9534 7.32829 41.9395 10.2653V14.473C41.9395 17.3535 39.6149 18.6102 37.1373 18.5961H32.516V15.6167H37.2486C38.3204 15.6167 38.8076 15.0661 38.8076 14.2471V10.3359C38.8076 9.51689 38.2926 9.00857 37.2486 9.00857H35.6061V14.12L32.5299 11.3101V6.04337Z" fill="black"/>
<path d="M61.3711 10.1523V14.473C61.3711 15.9839 64.169 16.4075 64.8371 14.6707L67.5653 15.9415C66.5353 17.9748 64.6701 18.7514 63.1111 18.7514C60.6891 18.7514 58.2392 17.3253 58.2392 14.473V10.1523C58.2392 7.32829 60.6891 5.87393 63.1668 5.87393C64.684 5.87393 66.5074 6.52345 67.5096 8.75441L64.9624 9.7993C64.1272 8.24609 61.3711 8.59909 61.3711 10.1523Z" fill="black"/>
<path d="M51.3073 9.57337C51.3491 10.1805 51.9894 10.5335 52.9498 10.7453C55.1491 11.1548 57.3484 11.9314 57.2092 14.9955C57.1118 17.4241 54.5923 18.7514 52.3235 18.7514C50.848 18.7514 49.2751 17.9889 48.1198 16.4781L50.0963 14.6001C51.3352 16.1251 54.0634 16.1957 54.1469 14.8543C54.1748 14.1483 53.0473 13.7388 52.0311 13.5976C50.0407 13.2869 48.2311 12.002 48.2311 9.61573C48.2311 7.15885 50.4304 5.85981 52.6993 5.85981C54.1887 5.85981 55.6363 6.28341 56.9169 7.86485L54.8707 9.46041C53.5762 8.06253 51.363 8.11901 51.3073 9.57337Z" fill="black"/>
<path d="M46.7417 18.5819H43.6238V6.04337H46.7417V18.5819Z" fill="black"/>
<path d="M91.5765 6.04337H96.1978C98.6754 6.04337 101 7.32829 101 10.2653V14.473C101 17.3535 98.6754 18.6102 96.1978 18.5961H91.5626V15.6167H96.2952C97.367 15.6167 97.8542 15.0661 97.8542 14.2471V10.3359C97.8542 9.51689 97.3392 9.00857 96.2952 9.00857H94.6527V14.12L91.5765 11.3101V6.04337Z" fill="black"/>
<path fill-rule="evenodd" clip-rule="evenodd" d="M68.4144 10.1805C68.4144 7.28593 70.9617 5.87393 73.5229 5.87393C76.0841 5.87393 78.6592 7.30005 78.6592 10.1805V14.4589C78.6592 17.3253 76.1119 18.7655 73.5507 18.7655C70.9756 18.7655 68.4144 17.3253 68.4144 14.4589V10.1805ZM73.5368 15.8285C74.5251 15.8285 75.5273 15.3626 75.5273 14.4589V10.1805C75.5273 9.20625 74.4972 8.76853 73.4811 8.76853C72.5068 8.76853 71.5324 9.26273 71.5324 10.1805V14.4589C71.5324 15.3908 72.5346 15.8285 73.5368 15.8285Z" fill="black"/>
<path fill-rule="evenodd" clip-rule="evenodd" d="M85.257 6.05749C87.8043 6.05749 89.7809 7.24357 89.8505 10.1805C89.8505 12.4962 88.9179 13.8094 87.4285 14.2895L90.797 18.5961H86.8995L84.0321 14.6142H83.4753V18.5961H80.3156V6.05749H85.257ZM83.4753 11.8749H85.3127C87.2754 11.8749 87.2754 9.00857 85.3127 9.00857H83.4753V11.8749Z" fill="black"/>
</svg>
