<svg width="18" height="20" viewBox="0 0 18 20" fill="none" xmlns="http://www.w3.org/2000/svg">
<path fill-rule="evenodd" clip-rule="evenodd" d="M14 11.25C14.4142 11.25 14.75 11.5858 14.75 12V19C14.75 19.4142 14.4142 19.75 14 19.75C13.5858 19.75 13.25 19.4142 13.25 19V12C13.25 11.5858 13.5858 11.25 14 11.25Z" fill="white"/>
<path fill-rule="evenodd" clip-rule="evenodd" d="M14 0.25C14.4142 0.25 14.75 0.585787 14.75 1V4C14.75 4.41421 14.4142 4.75 14 4.75C13.5858 4.75 13.25 4.41421 13.25 4V1C13.25 0.585786 13.5858 0.25 14 0.25Z" fill="white"/>
<path fill-rule="evenodd" clip-rule="evenodd" d="M4 8.75C3.58579 8.75 3.25 8.41421 3.25 8V1C3.25 0.585786 3.58579 0.25 4 0.25C4.41421 0.25 4.75 0.585786 4.75 1V8C4.75 8.41421 4.41421 8.75 4 8.75Z" fill="white"/>
<path fill-rule="evenodd" clip-rule="evenodd" d="M4 19.75C3.58579 19.75 3.25 19.4142 3.25 19V16C3.25 15.5858 3.58579 15.25 4 15.25C4.41421 15.25 4.75 15.5858 4.75 16V19C4.75 19.4142 4.41421 19.75 4 19.75Z" fill="white"/>
<path fill-rule="evenodd" clip-rule="evenodd" d="M6.10416 13.8746C6.21092 13.7715 6.25 13.6284 6.25 13C6.25 12.4392 6.21562 12.2763 6.09467 12.1553C5.94856 12.0092 5.4763 11.75 4 11.75C2.5237 11.75 2.05144 12.0092 1.90533 12.1553C1.78439 12.2763 1.75 12.4392 1.75 13C1.75 13.6284 1.78908 13.7715 1.89584 13.8746C2.03742 14.0112 2.50552 14.25 4 14.25C5.49448 14.25 5.96258 14.0112 6.10416 13.8746ZM7.14584 14.9539C6.53742 15.5411 5.50552 15.75 4 15.75C2.49448 15.75 1.46258 15.5411 0.854159 14.9539C0.244489 14.3654 0.24778 13.5649 0.249784 13.0776C0.249894 13.0507 0.250001 13.0248 0.250001 13C0.250001 12.9792 0.249923 12.9575 0.249843 12.9349C0.248232 12.4819 0.245428 11.6939 0.84467 11.0947C1.44856 10.4908 2.4763 10.25 4 10.25C5.5237 10.25 6.55144 10.4908 7.15533 11.0947C7.75457 11.6939 7.75177 12.4819 7.75016 12.9349C7.75008 12.9575 7.75 12.9792 7.75 13C7.75 13.0248 7.75011 13.0507 7.75022 13.0776C7.75222 13.5649 7.75551 14.3654 7.14584 14.9539Z" fill="white"/>
<path fill-rule="evenodd" clip-rule="evenodd" d="M16.1042 7.87456C16.2109 7.77152 16.25 7.62844 16.25 7C16.25 6.43918 16.2156 6.27628 16.0947 6.15533C15.9486 6.00922 15.4763 5.75 14 5.75C12.5237 5.75 12.0514 6.00922 11.9053 6.15533C11.7844 6.27628 11.75 6.43918 11.75 7C11.75 7.62844 11.7891 7.77152 11.8958 7.87456C12.0374 8.01121 12.5055 8.25 14 8.25C15.4945 8.25 15.9626 8.01121 16.1042 7.87456ZM17.1458 8.95387C16.5374 9.54108 15.5055 9.75 14 9.75C12.4945 9.75 11.4626 9.54108 10.8542 8.95387C10.2445 8.36545 10.2478 7.56493 10.2498 7.07756C10.2499 7.05073 10.25 7.02485 10.25 7C10.25 6.97919 10.2499 6.95748 10.2498 6.93494C10.2482 6.48194 10.2454 5.69391 10.8447 5.09467C11.4486 4.49078 12.4763 4.25 14 4.25C15.5237 4.25 16.5514 4.49078 17.1553 5.09467C17.7546 5.69391 17.7518 6.48194 17.7502 6.93494C17.7501 6.95748 17.75 6.97919 17.75 7C17.75 7.02485 17.7501 7.05073 17.7502 7.07756C17.7522 7.56493 17.7555 8.36545 17.1458 8.95387Z" fill="white"/>
</svg>
