<svg width="95" height="18" viewBox="0 0 95 18" fill="none" xmlns="http://www.w3.org/2000/svg">
<path d="M47.9821 15.9909C47.9821 16.3077 47.9821 16.3797 48.2046 16.5741L49.4507 17.7549V17.8053H43.9249V15.5373C43.3688 17.0321 41.8979 18.0206 40.2608 17.9997C37.42 17.9997 35.358 15.8397 35.358 11.8654C35.358 8.14306 37.5831 5.65911 40.7058 5.65911C42.09 5.57453 43.3781 6.34839 43.9175 7.58866V2.58475C43.9585 2.35303 43.8608 2.11872 43.6653 1.97995L42.4785 0.871177V0.820777L47.9821 0.1944V15.9909ZM43.9249 15.2709V7.80469C43.5244 7.32185 42.9167 7.04552 42.2783 7.05588C40.9357 7.05588 39.6377 8.23669 39.6377 11.743C39.6377 15.0262 40.7577 16.1853 42.1522 16.1853C42.8592 16.1713 43.5173 15.8319 43.9249 15.2709L43.9249 15.2709ZM51.6463 17.8053V7.72546C51.6816 7.50037 51.598 7.27311 51.4237 7.12066L50.1999 5.89671V5.84631H55.7257V16.0701C55.7257 16.3869 55.7257 16.4589 55.9482 16.6533L57.1647 17.7621V17.8125L51.6463 17.8053ZM51.446 2.15995C51.446 0.967057 52.4422 0 53.6712 0C54.9001 0 55.8963 0.967057 55.8963 2.15995C55.8963 3.35287 54.9001 4.31993 53.6712 4.31993C52.4422 4.31993 51.446 3.35287 51.446 2.15995ZM70.6344 15.9693C70.6344 16.2861 70.6344 16.3797 70.8569 16.5741L72.103 17.7549V17.8053H66.5475V15.2205C66.0416 16.8549 64.5004 17.9805 62.7425 17.9997C60.2799 17.9997 58.9596 16.2573 58.9596 12.9598C58.9596 11.3686 58.9596 9.62624 59.0116 7.66786C59.0523 7.44865 58.967 7.2253 58.7891 7.08466L57.5652 5.89671V5.84631H63.0466V12.4198C63.0466 14.5797 63.3729 16.0197 64.7673 16.0197C65.5163 15.9743 66.1911 15.5655 66.5623 14.9325V7.73269C66.5977 7.50759 66.5141 7.28033 66.3398 7.12788L65.1086 5.89673V5.84633H70.6344L70.6344 15.9693ZM89.4445 17.8053C89.4445 17.4165 89.5186 12.463 89.5186 11.3254C89.5186 9.16544 89.1701 7.67506 87.605 7.67506C86.8175 7.69865 86.0883 8.0833 85.6395 8.71186C85.7964 9.38522 85.8711 10.0739 85.862 10.7638C85.862 12.2614 85.8101 14.1693 85.7878 16.0773C85.7471 16.2965 85.8323 16.5199 86.0103 16.6605L87.2564 17.7693V17.8197H81.6786C81.6786 17.4597 81.7528 12.4774 81.7528 11.3398C81.7528 9.14384 81.4042 7.68946 79.8614 7.68946C79.1009 7.71596 78.407 8.11789 78.0219 8.75506V16.0989C78.0219 16.4157 78.0219 16.4877 78.2445 16.6821L79.4609 17.7909V17.8413H73.9425V7.76146C73.9778 7.53637 73.8942 7.30911 73.7199 7.15666L72.4961 5.89671V5.84631H78.0219V8.40946C78.5343 6.71717 80.1672 5.58034 81.9827 5.65191C83.8222 5.65191 85.0683 6.64548 85.5949 8.53186C86.1798 6.7921 87.8635 5.62472 89.7486 5.65191C92.2111 5.65191 93.6056 7.41586 93.6056 10.7494C93.6056 12.3406 93.5536 14.1549 93.5314 16.0629C93.4882 16.2887 93.5872 16.5179 93.7836 16.6461L95 17.7549V17.8053H89.4445ZM20.0266 16.2357L21.6658 17.7549V17.8053H13.351V17.7549L15.0199 16.2357C15.1979 16.0951 15.2831 15.8717 15.2424 15.6525V5.93991C15.2424 5.52951 15.2424 4.97511 15.3166 4.49991L9.70918 17.9997H9.64242L3.83472 5.57991C3.70862 5.27031 3.67153 5.24871 3.58995 5.03991V13.183C3.52036 13.7277 3.61563 14.2801 3.86438 14.7741L6.2008 17.7549V17.8053H0V17.7549L2.33643 14.7669C2.58334 14.2749 2.67857 13.7253 2.61087 13.183V4.18313C2.64887 3.74 2.51087 3.29952 2.22517 2.95193L0.571125 0.871201V0.820801H6.50492L11.4745 11.3398L15.8506 0.820753H21.6583V0.871153L20.0266 2.63513C19.831 2.7739 19.7333 3.00819 19.7743 3.23993V15.6525C19.7311 15.8783 19.8302 16.1075 20.0266 16.2357ZM26.5315 11.3686V11.419C26.5315 14.5005 28.1707 15.7389 30.0917 15.7389C31.6959 15.7921 33.1804 14.919 33.8745 13.5142H33.9264C33.2589 16.5597 31.3156 17.9997 28.408 17.9997C25.2705 17.9997 22.3111 16.1637 22.3111 11.9086C22.3111 7.43746 25.278 5.65191 28.5564 5.65191C31.1969 5.65191 34.008 6.86149 34.008 10.7494V11.3686L26.5315 11.3686ZM26.5315 10.7494H30.1882V10.123C30.1882 6.95508 29.5132 6.11268 28.497 6.11268C27.2658 6.11268 26.5166 7.37269 26.5166 10.7494L26.5315 10.7494Z" fill="black"/>
</svg>
