<svg width="22" height="18" viewBox="0 0 22 18" fill="none" xmlns="http://www.w3.org/2000/svg">
<path d="M20.0266 15.4149L21.6658 16.9341V16.9845H13.351V16.9341L15.0199 15.4149C15.1979 15.2744 15.2831 15.051 15.2424 14.8318V5.11916C15.2424 4.70876 15.2424 4.15435 15.3166 3.67915L9.70918 17.1789H9.64242L3.83472 4.75916C3.70862 4.44955 3.67153 4.42796 3.58995 4.21915V12.3622C3.52036 12.9069 3.61563 13.4593 3.86438 13.9534L6.2008 16.9341V16.9845H0V16.9341L2.33643 13.9462C2.58334 13.4541 2.67857 12.9045 2.61087 12.3622V3.36238C2.64887 2.91924 2.51087 2.47877 2.22517 2.13118L0.571125 0.0504481V4.79817e-05H6.50492L11.4745 10.5191L15.8506 0H21.6583V0.0504L20.0266 1.81438C19.831 1.95315 19.7333 2.18743 19.7743 2.41918V14.8317C19.7311 15.0576 19.8302 15.2867 20.0266 15.4149Z" fill="#F1F1F2"/>
</svg>
