<svg width="16" height="18" viewBox="0 0 16 18" fill="none" xmlns="http://www.w3.org/2000/svg">
<path d="M6.95738 15.251C6.72762 14.9063 6.26197 14.8132 5.91732 15.043C5.57267 15.2727 5.47954 15.7384 5.70931 16.083L6.95738 15.251ZM10.2907 16.083C10.5205 15.7384 10.4273 15.2727 10.0827 15.043C9.73805 14.8132 9.2724 14.9063 9.04264 15.251L10.2907 16.083ZM6.33334 15.667C5.70931 16.083 5.7095 16.0833 5.70969 16.0836C5.70975 16.0837 5.70995 16.084 5.71008 16.0842C5.71035 16.0846 5.71063 16.085 5.71092 16.0854C5.7115 16.0863 5.71211 16.0872 5.71276 16.0882C5.71407 16.0901 5.71552 16.0922 5.71713 16.0946C5.72035 16.0992 5.72419 16.1047 5.72864 16.111C5.73753 16.1235 5.74892 16.1391 5.76281 16.1573C5.79055 16.1937 5.82855 16.241 5.87695 16.2955C5.97324 16.4038 6.11381 16.544 6.30001 16.6837C6.67467 16.9647 7.24533 17.2503 8.00001 17.2503V15.7503C7.64358 15.7503 7.38091 15.6193 7.20001 15.4837C7.10844 15.415 7.04067 15.3469 6.99807 15.2989C6.97702 15.2753 6.96295 15.2574 6.95596 15.2483C6.95249 15.2437 6.95086 15.2414 6.95107 15.2417C6.95118 15.2419 6.95176 15.2427 6.95281 15.2442C6.95333 15.245 6.95398 15.2459 6.95474 15.247C6.95512 15.2476 6.95553 15.2482 6.95597 15.2489C6.95619 15.2492 6.95642 15.2495 6.95665 15.2499C6.95677 15.2501 6.95695 15.2503 6.95701 15.2504C6.9572 15.2507 6.95738 15.251 6.33334 15.667ZM8.00001 17.2503C8.75469 17.2503 9.32535 16.9647 9.70001 16.6837C9.88621 16.544 10.0268 16.4038 10.1231 16.2955C10.1715 16.241 10.2095 16.1937 10.2372 16.1573C10.2511 16.1391 10.2625 16.1235 10.2714 16.111C10.2758 16.1047 10.2797 16.0992 10.2829 16.0946C10.2845 16.0922 10.286 16.0901 10.2873 16.0882C10.2879 16.0872 10.2885 16.0863 10.2891 16.0854C10.2894 16.085 10.2897 16.0846 10.2899 16.0842C10.2901 16.084 10.2903 16.0837 10.2903 16.0836C10.2905 16.0833 10.2907 16.083 9.66668 15.667C9.04264 15.251 9.04282 15.2507 9.04301 15.2504C9.04307 15.2503 9.04325 15.2501 9.04337 15.2499C9.0436 15.2495 9.04383 15.2492 9.04405 15.2489C9.04449 15.2482 9.0449 15.2476 9.04528 15.247C9.04604 15.2459 9.04669 15.245 9.04721 15.2442C9.04826 15.2427 9.04884 15.2419 9.04895 15.2417C9.04916 15.2414 9.04753 15.2437 9.04406 15.2483C9.03707 15.2574 9.023 15.2753 9.00195 15.2989C8.95935 15.3469 8.89158 15.415 8.80001 15.4837C8.61911 15.6193 8.35644 15.7503 8.00001 15.7503V17.2503Z" fill="white"/>
<path d="M3.75001 6.5C3.75001 5.4098 4.11425 4.34413 4.81057 3.56077C5.49461 2.79122 6.53687 2.25 8.00001 2.25L8.00001 0.75C6.12983 0.75 4.67208 1.45878 3.68946 2.56423C2.7191 3.65587 2.25001 5.0902 2.25001 6.5H3.75001ZM8.00001 2.25C9.46316 2.25 10.5054 2.79122 11.1895 3.56077C11.8858 4.34413 12.25 5.4098 12.25 6.5H13.75C13.75 5.0902 13.2809 3.65587 12.3106 2.56423C11.3279 1.45878 9.8702 0.75 8.00001 0.75L8.00001 2.25ZM12.25 6.5C12.25 7.59255 12.8088 8.39856 13.2093 8.99936C13.6421 9.64856 13.9167 10.0926 13.9167 10.6667H15.4167C15.4167 9.57411 14.8579 8.76811 14.4574 8.16731C14.0246 7.51811 13.75 7.07411 13.75 6.5H12.25ZM13.9167 10.6667C13.9167 11.4528 13.359 12.0951 12.1648 12.5749C10.9904 13.0468 9.42916 13.25 8.00001 13.25V14.75C9.53382 14.75 11.3059 14.5366 12.7241 13.9668C14.1225 13.4049 15.4167 12.3806 15.4167 10.6667H13.9167ZM8.00001 13.25C6.57086 13.25 5.0096 13.0468 3.83518 12.5749C2.64099 12.0951 2.08334 11.4528 2.08334 10.6667H0.583344C0.583344 12.3806 1.87755 13.4049 3.27595 13.9668C4.69413 14.5366 6.4662 14.75 8.00001 14.75V13.25ZM2.08334 10.6667C2.08334 10.1038 2.34491 9.71684 2.78266 9.08663C3.20252 8.48217 3.75001 7.68728 3.75001 6.5H2.25001C2.25001 7.18053 1.96417 7.63564 1.5507 8.2309C1.15511 8.8004 0.583344 9.56285 0.583344 10.6667H2.08334Z" fill="white"/>
</svg>
