<svg width="18" height="18" viewBox="0 0 18 18" fill="none" xmlns="http://www.w3.org/2000/svg">
<path d="M17.0001 6V6.75C17.3034 6.75 17.5769 6.56727 17.693 6.28701C17.8091 6.00676 17.7449 5.68417 17.5304 5.46967L17.0001 6ZM12.5304 0.469671C12.2375 0.176777 11.7626 0.176776 11.4697 0.469669C11.1769 0.762562 11.1769 1.23744 11.4697 1.53033L12.5304 0.469671ZM3.00006 5.25C2.58585 5.25 2.25006 5.58579 2.25006 6C2.25006 6.41421 2.58585 6.75 3.00006 6.75V5.25ZM1 12V11.25C0.696654 11.25 0.423176 11.4327 0.307091 11.713C0.191005 11.9932 0.255171 12.3158 0.469669 12.5303L1 12ZM5.46965 17.5303C5.76255 17.8232 6.23742 17.8232 6.53031 17.5303C6.82321 17.2374 6.82321 16.7626 6.53032 16.4697L5.46965 17.5303ZM15 12.75C15.4142 12.75 15.75 12.4142 15.75 12C15.75 11.5858 15.4142 11.25 15 11.25V12.75ZM17.5304 5.46967L12.5304 0.469671L11.4697 1.53033L16.4697 6.53033L17.5304 5.46967ZM3.00006 6.75H17.0001V5.25H3.00006V6.75ZM0.469669 12.5303L5.46965 17.5303L6.53032 16.4697L1.53033 11.4697L0.469669 12.5303ZM15 11.25H1V12.75H15V11.25Z" fill="#1E1A22"/>
</svg>
