<svg width="20" height="16" viewBox="0 0 20 16" fill="none" xmlns="http://www.w3.org/2000/svg">
<path d="M20 1.89399C19.2642 2.2153 18.4733 2.43236 17.6434 2.53001C18.4905 2.03013 19.1412 1.23858 19.4475 0.295323C18.6546 0.758287 17.7765 1.09436 16.8418 1.27549C16.0934 0.490429 15.027 0 13.8468 0C11.5808 0 9.74348 1.80845 9.74348 4.0391C9.74348 4.35569 9.77979 4.66401 9.84978 4.95962C6.43958 4.79119 3.41617 3.18307 1.39237 0.739286C1.03917 1.33583 0.836767 2.02964 0.836767 2.76992C0.836767 4.17131 1.56117 5.40762 2.66217 6.13195C1.98957 6.11098 1.35687 5.92926 0.803667 5.62675C0.803201 5.64358 0.803201 5.66051 0.803201 5.67755C0.803201 7.63454 2.2176 9.26698 4.09471 9.63829C3.75041 9.73063 3.38791 9.77995 3.0137 9.77995C2.7493 9.77995 2.49231 9.75455 2.24171 9.7075C2.76391 11.3122 4.27921 12.48 6.07481 12.5125C4.67051 13.5959 2.90131 14.2417 0.978802 14.2417C0.647601 14.2417 0.321001 14.2225 0 14.1852C1.8159 15.3313 3.97271 16 6.28991 16C13.8372 16 17.9645 9.84521 17.9645 4.50738C17.9645 4.33226 17.9605 4.15812 17.9526 3.98477C18.7542 3.41539 19.4498 2.70406 19.9999 1.89399H20Z" fill="#F1F1F2"/>
</svg>
