<svg width="108" height="24" viewBox="0 0 108 24" fill="none" xmlns="http://www.w3.org/2000/svg">
<path d="M41.7723 18.8527C40.4088 18.4855 39.1577 17.4498 38.5175 16.1588C38.027 15.1693 38.0276 15.1762 38.0264 10.6287C37.9683 6.69504 37.9905 6.56811 38.2528 6.18873C38.8099 5.25993 40.0383 5.06158 40.8437 5.7704C41.4092 6.26805 41.4541 6.43705 41.4541 8.06537V9.47749H43.8298C45.283 9.47749 46.3439 9.50716 46.5619 9.55389C47.8016 9.81972 48.2723 11.302 47.4115 12.2299C47.31 12.3392 47.1011 12.4966 46.9472 12.5797C46.677 12.7254 46.5767 12.7314 44.0607 12.7521L41.4541 12.7735V13.4032C41.4541 14.3191 41.5492 14.6188 41.9744 15.044C42.4709 15.5404 42.6035 15.5638 44.9314 15.5656C46.7374 15.567 46.8998 15.5774 47.1921 15.7097C48.3008 16.2115 48.577 17.5475 47.7595 18.4542C47.2816 18.9841 47.25 18.9895 44.603 18.9864C42.5369 18.9841 42.2011 18.9682 41.7723 18.8527ZM52.3515 18.8828C51.275 18.622 50.164 17.8042 49.4849 16.7729C48.8591 15.8225 48.7372 15.1537 48.7339 12.6559C48.7312 10.5018 48.7744 10.2305 49.1889 9.80386C49.5726 9.40891 49.817 9.30654 50.3814 9.30443C50.8124 9.30273 50.9212 9.33007 51.2192 9.51431C51.4313 9.64542 51.6424 9.85638 51.7735 10.0683C52.0361 10.5232 51.9879 10.7139 52.0203 12.585C52.0546 14.7146 52.0587 14.765 52.2194 15.0234C52.7622 15.8962 53.8845 16.0249 54.629 15.2995C55.0588 14.8808 55.0992 14.6348 55.0992 12.4353C55.0992 10.6268 55.1073 10.5051 55.247 10.2268C55.5269 9.66922 55.9327 9.37409 56.5324 9.2919C57.1742 9.20394 57.8664 9.5822 58.198 10.2021C58.3458 10.4784 58.3546 10.5918 58.388 12.6311C58.3761 14.3276 58.4559 14.8241 58.616 15.0616C59.1281 15.8346 60.2044 16.0009 60.8766 15.4108C61.3583 14.9879 61.3581 14.9894 61.3977 12.6257C61.4317 10.5969 61.4411 10.4777 61.5877 10.2021C62.2033 9.04547 63.7615 8.97256 64.4389 10.0687C64.8772 10.6761 64.6854 11.9615 64.6854 12.7904C64.7172 13.8811 64.6532 15.2797 64.4624 15.7108C63.9434 17.1753 62.7875 18.3385 61.3969 18.7956C60.7661 19.003 59.376 19.0527 58.7497 18.8904C58.1459 18.7339 57.6234 18.4941 57.1261 18.1453L56.7086 17.8525L56.2912 18.1453C55.7865 18.4993 55.2755 18.739 54.7171 18.884C54.1966 19.019 52.9113 19.0184 52.3515 18.8828ZM66.8845 18.893C66.5657 18.7542 66.1676 18.3794 65.9936 18.0543C65.8415 17.7702 65.8403 17.7388 65.8403 14.1649C65.8403 10.7257 65.8466 10.5493 65.9776 10.2851C66.5225 9.18636 67.9295 8.93908 68.7827 9.79207C69.3133 10.3226 69.3118 10.3094 69.289 14.2779C69.2694 17.7031 69.2662 17.7731 69.1177 18.0477C68.9223 18.4091 68.5674 18.7468 68.2392 18.8837C67.9217 19.0161 67.1789 19.0211 66.8845 18.893ZM74.2276 18.8536C72.6721 18.4459 71.3179 17.2172 70.7461 15.6949C70.4375 14.8734 70.4131 14.4548 70.4366 10.387C70.4583 6.63495 70.461 6.56964 70.6097 6.29426C71.3508 4.92101 73.3794 5.09485 73.8194 6.56932C73.8936 6.81808 73.9224 7.27005 73.9224 8.18946V9.46459L75.5843 9.48991C77.1209 9.51332 77.2672 9.52651 77.5261 9.66486C78.7423 10.315 78.7478 11.9281 77.536 12.5755C77.2643 12.7207 77.1416 12.7319 75.5785 12.7536L73.9109 12.7769L73.9341 13.5933C73.9612 14.5461 74.0698 14.8316 74.5426 15.194C74.9566 15.5114 75.2173 15.5632 76.4065 15.5644C77.3606 15.5653 77.4883 15.5804 77.8099 15.7302C79.1538 16.3559 79.1524 18.2505 77.8075 18.8613C77.3918 19.0501 74.9573 19.0448 74.2276 18.8536ZM83.1361 18.8569C81.374 18.375 79.9273 16.895 79.471 15.1075C79.3588 14.668 79.3464 14.2244 79.3459 10.6319C79.3725 6.90279 79.1875 7.04861 79.5368 6.28114C79.939 5.51851 80.769 5.18247 81.6479 5.42645C82.0143 5.52816 82.6307 6.1445 82.7325 6.51082C82.7748 6.66329 82.8085 7.37913 82.8087 8.13077L82.8091 9.47752H84.2341C85.8662 9.47752 86.2995 9.53796 86.6927 9.82043C87.5442 10.432 87.5635 11.8025 86.7293 12.4067C86.3131 12.7081 85.9195 12.7657 84.2752 12.7657H82.8091V13.3993C82.8091 14.2339 82.905 14.5848 83.2353 14.96C83.6857 15.4716 83.8528 15.5204 85.299 15.5624C86.5578 15.5989 86.5661 15.6002 86.9084 15.8115C87.3004 16.0535 87.6631 16.5883 87.7334 17.0283C87.8353 17.6652 87.5016 18.3824 86.926 18.7635L86.6335 18.9572L85.1237 18.9724C83.8348 18.9853 83.5439 18.9685 83.1361 18.8569ZM91.8708 18.8886C90.8479 18.6124 90.0941 18.1585 89.3562 17.3743C88.46 16.4218 88.0559 15.3719 88.0584 14.0029C88.06 13.1666 88.2033 12.5129 88.5365 11.8212C88.8884 11.0906 89.2744 10.6141 89.843 10.2085C91.4987 9.02726 94.4415 8.95345 96.2952 10.0466C96.9587 10.438 97.6487 11.1785 97.9849 11.8603C98.6648 13.2388 98.5963 14.4874 97.8187 14.8933C97.5496 15.0338 97.4242 15.0402 94.5824 15.0591L91.6259 15.0788V15.2623C91.6259 15.5485 92.0816 15.9362 92.5831 16.0769C92.925 16.1728 93.3375 16.1939 94.8844 16.1942C95.931 16.1942 96.8816 16.2258 97.0222 16.2649C98.2268 16.5994 98.4682 18.1944 97.4083 18.8155C97.065 19.0475 96.8578 18.9892 94.6637 18.9876C92.8446 18.9842 92.1314 18.9589 91.8708 18.8886ZM94.9472 12.6782C94.8154 12.2368 94.4378 11.9755 93.7471 11.8478C93.0125 11.7121 91.9853 12.0159 91.7872 12.4276C91.6999 12.6088 91.6166 12.8152 91.6166 12.8152C91.6166 12.8152 92.2279 12.8356 93.3122 12.8356H94.9942L94.9472 12.6782ZM100.228 18.8575C99.8671 18.6616 99.483 18.2067 99.3916 17.867C99.3381 17.6685 99.3209 16.8917 99.3385 15.4669C99.3642 13.3915 99.3674 13.3518 99.556 12.7857C100.053 11.2943 101.382 10.0574 102.927 9.64735C103.495 9.49662 106.117 9.4244 106.689 9.54373C107.484 9.70943 108 10.3223 108 11.0999C108 11.763 107.699 12.2762 107.134 12.5745C106.868 12.7149 106.716 12.7299 105.201 12.7638C103.631 12.799 103.545 12.808 103.293 12.9647C102.96 13.1715 102.717 13.4903 102.619 13.8501C102.573 14.0189 102.543 14.8532 102.542 15.9527C102.542 17.775 102.542 17.7755 102.36 18.1404C102.237 18.3868 102.072 18.5785 101.853 18.7306C101.567 18.9284 101.463 18.9581 101.003 18.9746C100.59 18.9894 100.424 18.9643 100.228 18.8575ZM66.7986 8.24687C65.6878 7.69343 65.4858 6.23171 66.4084 5.42188C66.7677 5.10641 67.0569 5 67.5547 5C68.2508 5 68.7915 5.32516 69.1041 5.93177C69.8517 7.38223 68.2637 8.97682 66.7986 8.24687Z" fill="black"/>
<path d="M30 2.84099C28.8963 3.32295 27.7099 3.64854 26.4651 3.79502C27.7357 3.0452 28.7118 1.85787 29.1712 0.442984C27.9819 1.13743 26.6647 1.64154 25.2627 1.91324C24.1401 0.735644 22.5405 0 20.7702 0C17.3712 0 14.6152 2.71267 14.6152 6.05866C14.6152 6.53353 14.6697 6.99601 14.7747 7.43943C9.65937 7.18679 5.12426 4.7746 2.08855 1.10893C1.55875 2.00375 1.25515 3.04447 1.25515 4.15487C1.25515 6.25697 2.34175 8.11143 3.99325 9.19792C2.98435 9.16647 2.0353 8.89389 1.2055 8.44013C1.2048 8.46538 1.2048 8.49077 1.2048 8.51632C1.2048 11.4518 3.32641 13.9005 6.14206 14.4574C5.62561 14.5959 5.08186 14.6699 4.52056 14.6699C4.12396 14.6699 3.73846 14.6318 3.36256 14.5612C4.14586 16.9683 6.41881 18.72 9.11222 18.7687C7.00576 20.3938 4.35196 21.3625 1.4682 21.3625C0.971401 21.3625 0.481501 21.3337 0 21.2777C2.72385 22.9969 5.95906 24 9.43487 24C20.7558 24 26.9468 14.7678 26.9468 6.76108C26.9468 6.49839 26.9408 6.23718 26.9289 5.97715C28.1313 5.12308 29.1748 4.05608 30 2.84099Z" fill="black"/>
</svg>
