<svg width="22" height="20" viewBox="0 0 22 20" fill="none" xmlns="http://www.w3.org/2000/svg">
<path d="M3 9C3 2.5 5 1 12 1C19 1 21 2.5 21 9C21 15.5 19 17 12 17C11.4706 17 10.9712 16.99 10.5 16.9694" stroke="white" stroke-width="1.5" stroke-linecap="round" stroke-linejoin="round"/>
<path d="M4 13.25C3.58579 13.25 3.25 13.5858 3.25 14C3.25 14.4142 3.58579 14.75 4 14.75V13.25ZM8 14.75C8.41421 14.75 8.75 14.4142 8.75 14C8.75 13.5858 8.41421 13.25 8 13.25V14.75ZM5.25 16C5.25 16.4142 5.58579 16.75 6 16.75C6.41421 16.75 6.75 16.4142 6.75 16H5.25ZM6.75 12C6.75 11.5858 6.41421 11.25 6 11.25C5.58579 11.25 5.25 11.5858 5.25 12H6.75ZM4 14.75H6V13.25H4V14.75ZM6 14.75H8V13.25H6V14.75ZM6.75 16V14H5.25V16H6.75ZM6.75 14V12H5.25V14H6.75ZM10.25 14C10.25 16.3472 8.34721 18.25 6 18.25V19.75C9.17564 19.75 11.75 17.1756 11.75 14H10.25ZM6 18.25C3.65279 18.25 1.75 16.3472 1.75 14H0.25C0.25 17.1756 2.82436 19.75 6 19.75V18.25ZM1.75 14C1.75 11.6528 3.65279 9.75 6 9.75V8.25C2.82436 8.25 0.25 10.8244 0.25 14H1.75ZM6 9.75C8.34721 9.75 10.25 11.6528 10.25 14H11.75C11.75 10.8244 9.17564 8.25 6 8.25V9.75Z" fill="white"/>
<path d="M20.5 13.75C20.9142 13.75 21.25 13.4142 21.25 13C21.25 12.5858 20.9142 12.25 20.5 12.25L20.5 13.75ZM20.5 6.75C20.9142 6.75 21.25 6.41421 21.25 6C21.25 5.58579 20.9142 5.25 20.5 5.25L20.5 6.75ZM15.5 9.5L16.25 9.5L15.5 9.5ZM16.25 9.5C16.25 8.73256 16.4137 8.22421 16.6332 7.87857C16.8508 7.53584 17.1595 7.29573 17.5506 7.12462C18.3804 6.76157 19.4629 6.75 20.5 6.75L20.5 5.25C19.5371 5.25 18.1196 5.23842 16.9494 5.75038C16.3405 6.01677 15.7742 6.43291 15.3668 7.07456C14.9613 7.71329 14.75 8.51744 14.75 9.5L16.25 9.5ZM20.5 12.25C19.4629 12.25 18.3804 12.2384 17.5506 11.8754C17.1595 11.7043 16.8508 11.4642 16.6332 11.1214C16.4137 10.7758 16.25 10.2674 16.25 9.5L14.75 9.5C14.75 10.4826 14.9613 11.2867 15.3668 11.9254C15.7742 12.5671 16.3405 12.9832 16.9494 13.2496C18.1196 13.7616 19.5371 13.75 20.5 13.75L20.5 12.25Z" fill="white"/>
<circle cx="18.5" cy="9.5" r="0.5" fill="white" stroke="white"/>
</svg>
