<svg width="16" height="16" viewBox="0 0 16 16" fill="none" xmlns="http://www.w3.org/2000/svg">
<circle cx="8" cy="8" r="8" fill="#DF1931"/>
<path fill-rule="evenodd" clip-rule="evenodd" d="M8.80856 4.03772C8.36999 4.03772 8.01445 4.39885 8.01445 4.84433V9.32548C8.01445 9.77095 8.36999 10.1321 8.80856 10.1321C9.24714 10.1321 9.60268 9.77095 9.60268 9.32548V4.84433C9.60268 4.39885 9.24714 4.03772 8.80856 4.03772ZM5.89687 6.09901C5.89687 5.65354 6.25241 5.29241 6.69099 5.29241C7.12956 5.29241 7.4851 5.65354 7.4851 6.09901V9.32544C7.4851 9.77092 7.12956 10.132 6.69099 10.132C6.25241 10.132 5.89687 9.77092 5.89687 9.32544V6.09901ZM3.7793 6.45761C3.7793 6.01213 4.13483 5.651 4.57341 5.651C5.01198 5.651 5.36752 6.01213 5.36752 6.45761V8.78781C5.36752 9.23328 5.01198 9.59441 4.57341 9.59441C4.13483 9.59441 3.7793 9.23328 3.7793 8.78781V6.45761ZM10.1321 5.74062C10.1321 5.29514 10.4877 4.93401 10.9262 4.93401C11.3648 4.93401 11.7204 5.29514 11.7204 5.74062V9.32554C11.7204 9.77101 11.3648 10.1321 10.9262 10.1321C10.4877 10.1321 10.1321 9.77101 10.1321 9.32554V5.74062ZM8.27927 10.849C7.84069 10.849 7.48516 11.2102 7.48516 11.6557C7.48516 12.1011 7.84069 12.4623 8.27927 12.4623H10.9263C11.3649 12.4623 11.7204 12.1011 11.7204 11.6557C11.7204 11.2102 11.3649 10.849 10.9263 10.849H8.27927Z" fill="#DF1931"/>
<path fill-rule="evenodd" clip-rule="evenodd" d="M8.80868 3.5C9.48252 3.5 10.0388 4.0115 10.1216 4.6731C10.3446 4.49936 10.6236 4.39609 10.9264 4.39609C11.6573 4.39609 12.2499 4.99798 12.2499 5.74044V9.32536C12.2499 9.82335 11.9833 10.2581 11.5872 10.4904C11.9833 10.7227 12.25 11.1575 12.25 11.6555C12.25 12.3979 11.6574 12.9998 10.9264 12.9998H8.27938C7.54842 12.9998 6.95586 12.3979 6.95586 11.6555C6.95586 11.027 7.3804 10.4993 7.95406 10.352C7.87817 10.2868 7.8096 10.213 7.74981 10.1322C7.50833 10.4585 7.12398 10.6696 6.6911 10.6696C6.12271 10.6696 5.638 10.3057 5.45051 9.7947C5.21701 10.0047 4.90992 10.1322 4.57352 10.1322C3.84256 10.1322 3.25 9.53028 3.25 8.78782V6.45763C3.25 5.71516 3.84256 5.11328 4.57352 5.11328C4.93662 5.11328 5.26557 5.2618 5.5047 5.50228C5.72109 5.05913 6.17107 4.75449 6.6911 4.75449C6.98903 4.75449 7.26396 4.85448 7.48516 5.02322V4.84434C7.48516 4.10188 8.07772 3.5 8.80868 3.5ZM9.70873 10.3111H10.0264C9.9684 10.2564 9.9152 10.1965 9.86756 10.1321C9.81994 10.1965 9.76675 10.2564 9.70873 10.3111ZM7.48516 6.08889V9.32549L7.48518 9.33322C7.48098 9.77503 7.12707 10.1319 6.6911 10.1319C6.25252 10.1319 5.89699 9.77074 5.89699 9.32527V8.80035L5.89704 8.78782V6.45763L5.89699 6.4451V6.09884C5.89699 5.65336 6.25252 5.29223 6.6911 5.29223C7.12641 5.29223 7.47991 5.648 7.48516 6.08889ZM8.0146 9.33333C8.01874 9.7752 8.37268 10.1321 8.80868 10.1321C9.24725 10.1321 9.60279 9.77097 9.60279 9.32549V4.84434C9.60279 4.39887 9.24725 4.03774 8.80868 4.03774C8.3701 4.03774 8.01456 4.39887 8.01456 4.84434V6.08589L8.01462 6.09884V9.32527L8.0146 9.33333ZM5.36758 8.79759V6.44786C5.36243 6.00688 5.00889 5.65102 4.57352 5.65102C4.13495 5.65102 3.77941 6.01215 3.77941 6.45763V8.78782C3.77941 9.2333 4.13495 9.59443 4.57352 9.59443C5.00889 9.59443 5.36243 9.23856 5.36758 8.79759ZM10.9264 4.93383C10.4878 4.93383 10.1322 5.29496 10.1322 5.74044V9.32536C10.1322 9.77084 10.4878 10.132 10.9264 10.132C11.3649 10.132 11.7205 9.77084 11.7205 9.32536V5.74044C11.7205 5.29496 11.3649 4.93383 10.9264 4.93383ZM7.48527 11.6555C7.48527 11.21 7.84081 10.8489 8.27938 10.8489H10.9264C11.365 10.8489 11.7205 11.21 11.7205 11.6555C11.7205 12.101 11.365 12.4621 10.9264 12.4621H8.27938C7.84081 12.4621 7.48527 12.101 7.48527 11.6555Z" fill="white"/>
</svg>
