<svg width="24" height="24" viewBox="0 0 24 24" fill="none" xmlns="http://www.w3.org/2000/svg">
<path d="M19.4012 4.11719H4.58283V17.5853H19.4012V4.11719Z" fill="white"/>
<path fill-rule="evenodd" clip-rule="evenodd" d="M23.992 11.9997C23.992 18.6183 18.6231 23.9837 12 23.9837C5.37699 23.9837 0.00798035 18.6183 0.00798035 11.9997C0.00798035 5.38106 5.37699 0.015625 12 0.015625C18.6231 0.015625 23.992 5.38106 23.992 11.9997ZM8.6018 16.7687H6.27449C5.78545 16.7687 5.54389 16.7687 5.3966 16.6746C5.23751 16.5715 5.14029 16.4007 5.12851 16.2123C5.11966 16.0387 5.24046 15.8266 5.48203 15.4027L11.2285 5.28055C11.473 4.85072 11.5967 4.6358 11.7528 4.55632C11.9208 4.47094 12.1211 4.47094 12.289 4.55632C12.4451 4.6358 12.5689 4.85072 12.8134 5.28055L13.9947 7.34135L14.0008 7.35187C14.2648 7.81299 14.3988 8.04683 14.4572 8.29226C14.522 8.56017 14.522 8.84279 14.4572 9.1107C14.3983 9.35799 14.2658 9.59352 13.9977 10.0616L10.9792 15.3938L10.9714 15.4075C10.7056 15.8724 10.5708 16.1081 10.3841 16.2858C10.1809 16.4802 9.93634 16.6214 9.66825 16.7011C9.42373 16.7687 9.14976 16.7687 8.6018 16.7687ZM14.479 16.7687H17.8138C18.3058 16.7687 18.5533 16.7687 18.7007 16.6717C18.8597 16.5686 18.9598 16.3948 18.9688 16.2065C18.9772 16.0385 18.8591 15.8347 18.6275 15.4354C18.6196 15.4218 18.6116 15.408 18.6034 15.3939L16.933 12.5382L16.914 12.5061C16.6793 12.1094 16.5608 11.9091 16.4086 11.8317C16.2408 11.7463 16.0433 11.7463 15.8754 11.8317C15.7222 11.9112 15.5985 12.1202 15.354 12.5412L13.6895 15.3969L13.6838 15.4067C13.4402 15.827 13.3184 16.0371 13.3272 16.2094C13.339 16.3979 13.4362 16.5715 13.5952 16.6746C13.7396 16.7687 13.9871 16.7687 14.479 16.7687Z" fill="#E84142"/>
</svg>
