<svg width="221" height="222" viewBox="0 0 221 222" fill="none" xmlns="http://www.w3.org/2000/svg">
<path fill-rule="evenodd" clip-rule="evenodd" d="M131.045 17.5579C129.352 18.43 127.902 19.3357 127.824 19.5719C127.746 19.8069 128.619 20.1514 129.765 20.3363C131.842 20.6721 131.84 20.6751 129 21.6971C127.434 22.2609 125.182 23.3879 123.996 24.2008C122.503 25.2242 123.363 25.1594 126.786 23.9903C134.609 21.3195 142.67 18.704 143.734 18.4897C144.327 18.3707 144.55 17.8301 144.303 17.1111C144.036 16.3342 145.917 15.4805 149.784 14.6226C153.963 13.6955 155.711 13.7086 155.809 14.668C155.897 15.5191 156.122 15.8712 156.418 15.6172C156.676 15.3945 157.111 15.503 157.384 15.8585C157.657 16.2129 159.53 16.7492 161.546 17.0502C163.563 17.3512 165.699 17.9947 166.293 18.4801C166.887 18.9642 167.274 18.909 167.152 18.3569C166.849 16.9784 166.076 16.3087 161.896 13.8013C161.372 13.4874 160.362 12.7671 159.653 12.2016C158.125 10.983 135.644 15.1926 131.045 17.5579ZM62.6923 34.0616C61.7816 34.9725 61.824 35.0203 63.3996 34.8591C65.0588 34.6883 65.4349 34.0666 64.2662 33.4248C63.9332 33.2416 63.2252 33.5285 62.6923 34.0616ZM60.3442 35.2086C60.1419 35.4711 59.1661 36.2335 58.1754 36.9025C57.185 37.5715 56.4627 38.5207 56.571 39.0134C56.6791 39.5048 57.0494 39.6174 57.394 39.2622C57.8743 38.7675 58.0071 38.9328 57.964 39.9732C57.921 41.0033 58.1444 41.2452 58.8942 40.9783C59.7941 40.6591 59.8036 40.5602 59.0012 39.8525L58.1215 39.0767L58.9163 38.7489C59.3533 38.5692 59.8519 38.9015 60.0244 39.4881C60.2022 40.0938 61.0773 39.9786 62.0535 39.2199C63.9049 37.7835 63.7663 37.3243 61.6174 37.7743C60.8715 37.9296 60.4562 37.7341 60.6943 37.3389C61.1035 36.6602 61.2844 34.0443 60.8893 34.5163C60.7917 34.6334 60.5463 34.9449 60.3442 35.2086ZM138.101 18.1549C137.383 18.5623 136.065 18.856 135.171 18.8086C134.278 18.7624 134.865 18.4285 136.477 18.0698C138.088 17.7098 138.819 17.7488 138.101 18.1549ZM141.226 17.3635C141.146 17.7352 140.892 17.7914 140.663 17.4885C140.434 17.1867 140.5 16.8832 140.81 16.8144C141.12 16.7457 141.308 16.993 141.226 17.3635ZM158.623 14.7767C158.543 15.1484 158.289 15.2046 158.06 14.9017C157.831 14.5999 157.897 14.2964 158.207 14.2276C158.517 14.1589 158.705 14.4062 158.623 14.7767ZM160.204 14.4185C160.124 14.7848 159.825 14.8729 159.538 14.6134C159.251 14.3538 159.316 14.0543 159.682 13.9475C160.049 13.8407 160.283 14.0521 160.204 14.4185ZM64.0047 37.0741C64.2888 37.3318 64.644 37.253 64.7936 36.8991C64.9435 36.5464 64.7111 36.3358 64.2772 36.4321C63.8434 36.5283 63.7209 36.8177 64.0047 37.0741ZM66.1388 36.5663C66.368 36.8693 66.6216 36.813 66.7023 36.4413C66.7835 36.0708 66.596 35.8235 66.2861 35.8923C65.9762 35.961 65.9101 36.2646 66.1388 36.5663ZM23.4283 48.1437C23.4877 48.7235 22.3817 49.3367 20.9703 49.506C18.4099 49.8156 14.413 52.5756 14.0188 54.3073C13.8868 54.8863 14.0739 56.3363 14.5297 58.2676C15.3055 61.5544 15.3663 61.6644 16.8829 62.5166C18.1242 63.2147 18.6395 65.1595 17.5771 65.1368C16.8699 65.1219 16.8721 65.3989 17.6039 68.4435C18.3031 71.3528 18.3248 71.7858 17.778 71.9236C16.9952 72.1228 16.9546 73.2631 17.6138 76.558C18.0427 78.7014 18.3165 79.249 19.1956 79.7208C20.6187 80.4855 20.9229 82.1781 19.8257 83.227C18.959 84.0556 18.6764 88.7023 19.3701 90.722C19.5425 91.2246 19.4585 92.0641 19.1832 92.5871C18.7504 93.4085 18.7774 93.7614 19.3823 95.1913C19.7671 96.1011 20.2181 96.8244 20.3841 96.7977C20.6118 96.7625 20.6655 97.0446 20.6031 97.9467C20.545 98.7842 20.9069 99.1735 21.8134 99.2486C23.0912 99.3545 23.1171 99.4023 23.9942 103.295C24.4827 105.462 24.8058 107.251 24.7129 107.272C24.6201 107.292 24.784 108.401 25.0774 109.736C25.4728 111.535 25.4598 112.241 25.0274 112.466C24.5189 112.73 24.5246 112.821 25.0734 113.185C25.8752 113.714 27.7896 116.752 27.3849 116.852C27.2137 116.894 27.3012 117.673 27.5848 118.632C28.3341 121.165 28.193 122.652 27.033 124.452C25.995 126.061 25.6931 127.416 26.4079 127.258C26.6146 127.212 26.9637 127.993 27.1838 128.994C27.4951 130.41 27.2835 130.881 26.2315 131.115C24.7732 131.438 24.8292 133.856 26.2942 133.819C26.8398 133.805 27.0266 134.04 26.7844 134.436C26.5688 134.786 26.4962 135.544 26.623 136.121C26.7497 136.697 26.7256 137.563 26.5697 138.045C26.4136 138.527 26.4491 139.396 26.6477 139.974C26.8467 140.553 26.7898 141.618 26.5215 142.341C26.1001 143.477 26.2679 143.624 27.7563 143.426C29.5251 143.191 29.8705 144.455 28.5734 146.415C27.9981 147.283 27.9977 147.706 28.57 149.184C29.1137 150.588 29.2157 150.612 29.0928 149.311C28.9737 148.053 29.132 148.209 29.804 150.009C30.5959 152.131 30.6471 152.434 30.4182 153.63C30.2041 154.746 30.3678 154.99 31.5542 155.325C32.798 155.675 32.9242 155.877 32.786 157.299C32.7015 158.17 32.2684 159.346 31.8235 159.91C30.4409 161.665 30.6617 163.133 32.2721 162.892L33.7594 162.667L32.6963 166.972L31.6333 171.276L32.8937 171.633L34.1541 171.99L33.187 173.926C32.5114 175.28 32.3855 176.164 32.7689 176.863C33.0709 177.413 33.5309 177.865 33.7914 177.867C34.2617 177.871 34.2633 177.878 34.0249 178.909C33.8504 179.662 34.2491 180.146 35.4762 180.672C37.0085 181.327 37.0917 181.455 36.3616 182.031C35.9183 182.38 35.5716 183.197 35.5905 183.846C35.612 184.577 36.6569 184.835 38.3399 184.524C40.4364 184.136 40.9745 184.331 40.7025 185.378C40.4987 186.165 40.5503 187.643 40.8256 188.895C41.2108 190.647 41.0014 191.574 39.7189 193.793C38.8489 195.298 38.3717 196.686 38.6581 196.875C39.0749 197.152 39.1632 197.449 39.1 198.363C39.0422 199.203 39.1723 199.481 39.5929 199.417C39.9074 199.369 40.4257 199.805 40.7448 200.385C41.3894 201.558 41.3611 201.887 40.4705 203.559C40.2275 204.015 40.1438 205.174 40.2845 206.135C40.4981 207.597 40.9292 207.7 42.9378 206.763C44.71 205.938 45.3238 206.013 45.29 207.051C45.2516 208.237 45.3086 208.411 45.6529 208.164C46.3347 207.672 46.585 208.024 46.5077 209.364C46.4576 210.233 46.8054 210.268 47.5956 209.474C49.0416 208.019 48.9529 208.026 53.1767 209.054C55.7651 209.684 59.2307 209.111 66.5213 206.851C72.5727 204.974 78.3895 203.867 81.6095 203.977C92.2227 204.345 93.2617 204.305 92.9426 203.539C92.7637 203.109 91.5023 202.694 90.1396 202.617C88.7774 202.541 87.4587 202.012 87.2103 201.443C86.5906 200.024 106.025 195.834 113.205 195.838C117.323 195.841 147.357 190.971 157.663 188.63C159.962 188.107 169.665 184.346 170.036 183.834C170.341 183.41 170.593 183.617 170.668 184.356C170.737 185.031 170.895 185.56 171.019 185.532C171.143 185.505 171.187 184.922 171.117 184.238C170.95 182.606 171.786 182.44 172.136 184.035C172.438 185.407 177.781 184.307 181.38 182.133C183.029 181.137 183.652 181.184 183.99 182.326C184.234 183.153 184.581 183.796 184.761 183.756C184.941 183.716 184.906 183.151 184.683 182.501C184.459 181.851 184.439 181.184 184.639 181.021C184.838 180.857 185.126 180.568 185.279 180.377C185.433 180.188 186.101 179.842 186.765 179.61C187.501 179.352 187.77 178.818 187.455 178.244C186.943 177.31 188.338 176.026 192.53 173.574C194.638 172.341 195.226 170.121 193.428 170.187C192.854 170.207 192.255 170.12 192.097 169.992C191.939 169.864 190.816 169.836 189.601 169.93L187.393 170.098L188.65 168.829C189.342 168.13 190.867 167.167 192.04 166.689C193.213 166.21 194.129 165.386 194.075 164.857C194.02 164.328 194.179 163.85 194.427 163.795C194.675 163.74 194.719 163.233 194.525 162.667C194.328 162.095 193.841 162.179 193.429 162.855C192.597 164.218 191.631 164.729 191.601 163.822C191.561 162.604 195.278 157.236 195.748 157.831C196.023 158.179 196.113 157.611 195.955 156.53C195.756 155.167 196.007 154.477 196.821 154.148L197.968 153.687L196.571 153.246C195.472 152.898 195.269 152.621 195.622 151.946C195.868 151.473 196.646 151.384 197.351 151.747C198.056 152.11 198.631 152.291 198.63 152.15C198.628 152.008 198.192 150.687 197.661 149.213C197.021 147.438 196.709 146.958 196.737 147.789C196.764 148.622 196.445 148.671 195.791 147.933C194.035 145.954 194.122 145.401 196.189 145.407C197.631 145.41 198.088 145.033 197.768 144.102C197.491 143.296 197.509 142.705 197.815 142.568C198.257 142.368 195.509 140.436 193.427 139.482C192.993 139.283 193.379 138.862 194.285 138.546C195.191 138.23 195.967 137.407 196.011 136.719C196.077 135.681 196.012 135.478 195.631 135.531C195.379 135.565 194.893 135.05 194.553 134.387C194.099 133.505 194.266 133.323 195.172 133.711C196.791 134.403 196.854 133.278 195.395 129.723C194.749 128.148 194.37 126.902 194.527 126.867C194.68 126.834 194.622 126.274 194.399 125.623C194.175 124.973 193.566 124.527 193.044 124.632C192.522 124.736 191.818 124.287 191.479 123.632C191.036 122.776 191.243 122.589 192.22 122.971C193.601 123.508 193.701 121.791 192.369 120.421C191.699 119.732 191.686 119.684 191.876 118.449C192.031 117.448 191.929 117.327 191.388 117.869C190.608 118.652 189.08 116.247 189.428 114.786C189.538 114.329 189.809 113.915 190.031 113.866C190.254 113.817 190.382 112.929 190.317 111.894C190.223 110.415 190.138 110.025 189.92 110.073C189.766 110.107 189.522 109.311 189.373 108.285C189.199 107.097 188.957 106.437 188.696 106.437C188.359 106.437 188.329 106.252 188.522 105.343C188.738 104.326 188.688 104.164 187.823 103.042C187.312 102.38 186.747 101.868 186.569 101.908C186.392 101.947 186.126 101.434 185.979 100.766C185.832 100.099 186.284 99.3701 186.983 99.1476L188.253 98.7424L186.997 97.0624C185.635 95.2417 184.945 92.8942 185.182 90.8907C185.264 90.1942 186.381 88.9855 187.664 88.2046C188.948 87.4249 189.905 86.3638 189.791 85.8468C189.677 85.3299 189.185 84.4211 188.696 83.8256C187.954 82.9215 188.072 82.67 189.422 82.2865C190.337 82.0262 190.919 81.3027 190.768 80.6147C190.621 79.9473 190.292 79.4476 190.037 79.5042C189.782 79.5608 189.518 79.0721 189.451 78.4176C189.384 77.763 189.546 77.5019 189.811 77.8377C190.075 78.1723 190.179 77.9342 190.041 77.3081C189.903 76.6807 189.175 75.6664 188.423 75.0532C187.261 74.1069 187.578 73.8839 190.521 73.5748L193.987 73.2118L190.569 71.6437C184.588 68.8994 184.702 68.9798 185.115 67.8051C185.452 66.8485 185.44 66.7697 184.958 66.7594C184.234 66.7432 183.599 64.6888 184.078 63.9106C184.297 63.5527 184.04 63.2879 183.497 63.3116C182.961 63.3352 182.369 62.8237 182.183 62.1752C181.997 61.5266 180.581 60.8076 179.035 60.579C176.283 60.1715 176.238 60.128 176.849 58.4616C177.247 57.3768 178.731 56.5844 180.947 56.2721C184.155 55.8214 184.407 55.5963 184.224 53.3577C184.049 51.224 184.354 50.8078 186.745 49.9057C188.914 49.0886 189.388 48.5316 189.086 47.1592C188.878 46.2127 188.62 45.4581 188.512 45.482C188.195 45.5523 183.545 42.7495 182.959 42.1352C181.849 40.9714 181.968 39.2931 183.189 38.881C184.441 38.4582 184.442 38.4451 183.332 37.6504C182.715 37.2083 181.382 36.9541 180.371 37.0868C178.57 37.3208 175.812 36.2032 176.348 35.4544C176.859 34.7417 174.166 33.5817 172.592 33.8366C171.22 34.0582 170.869 33.72 169.831 31.1734L168.642 28.2557L169.565 27.9363L170.488 27.617L169.456 26.5951C168.887 26.0339 168.295 25.8778 168.138 26.2473C167.981 26.6168 167.753 26.4651 167.631 25.9093C167.509 25.3536 167.176 24.688 166.892 24.4303C166.608 24.1738 166.803 23.7297 167.326 23.4458L168.276 22.9283L167.059 22.2336C163.083 19.9646 139.143 23.536 132.04 27.4584C130.011 28.5791 127.323 29.738 126.066 30.0334C124.453 30.414 123.845 31.0261 124 32.1142C124.165 33.2752 124.096 33.3172 123.72 32.2808C123.298 31.1196 118.314 30.7807 118.124 31.8996C117.937 32.9934 58.533 46.0331 54.3046 45.9085C51.491 45.8251 48.28 45.7357 47.1692 45.7098C46.0584 45.6839 42.8126 45.8821 39.9572 46.1529C37.1013 46.4225 33.6672 46.5277 32.326 46.3874C28.4476 45.9803 23.3105 46.9939 23.4283 48.1437ZM137.651 22.0012C137.891 22.3158 138.076 22.229 138.062 21.8095C138.048 21.3901 137.852 21.1332 137.626 21.2381C137.377 21.3546 137.386 21.654 137.651 22.0012ZM131.832 24.5647C132.072 24.8793 132.257 24.7925 132.243 24.373C132.229 23.9536 132.033 23.6967 131.807 23.8016C131.558 23.9181 131.567 24.2175 131.832 24.5647ZM133.635 24.1647C133.875 24.4793 134.06 24.3925 134.046 23.973C134.033 23.5535 133.837 23.2967 133.61 23.4016C133.361 23.518 133.371 23.8175 133.635 24.1647ZM61.8081 42.6735C62.1506 42.9004 62.6068 42.7992 62.8223 42.4485C63.0376 42.0966 62.7573 41.9106 62.1994 42.0344C61.6416 42.1581 61.4653 42.4454 61.8081 42.6735ZM108.509 37.34C108.43 37.7064 108.13 37.7945 107.843 37.5349C107.556 37.2754 107.621 36.9759 107.988 36.8691C108.354 36.7623 108.589 36.9737 108.509 37.34ZM166.301 24.4532C166.315 24.8726 166.13 24.9595 165.89 24.6449C165.625 24.2977 165.616 23.9982 165.865 23.8817C166.091 23.7769 166.287 24.0337 166.301 24.4532ZM133.187 34.0595C133.355 34.4562 132.703 35.0208 131.738 35.3149C130.773 35.6079 127.459 36.6996 124.372 37.7394C121.285 38.7805 110.249 41.9606 99.8475 44.8089C89.4458 47.6573 80.4638 50.4809 79.8879 51.0859C78.8295 52.1962 77.1312 51.5625 77.0817 50.0375C77.0532 49.1593 79.1372 48.4603 91.005 45.3732C95.5343 44.1941 98.3402 42.9862 98.1852 42.2812C98.0454 41.6454 98.1385 41.388 98.3922 41.7097C99.0928 42.5978 106.562 40.7639 111.758 38.4277C116.838 36.1427 132.701 32.91 133.187 34.0595ZM138.84 31.6868C138.87 32.5952 135.029 33.5579 134.679 32.7295C134.518 32.3491 135.384 31.816 136.603 31.5455C137.821 31.2751 138.828 31.3381 138.84 31.6868ZM139.745 31.617C139.759 32.0364 139.574 32.1233 139.335 31.8086C139.07 31.4614 139.06 31.162 139.31 31.0455C139.536 30.9406 139.732 31.1975 139.745 31.617ZM122.917 36.7539C123.261 36.9818 123.664 36.8808 123.813 36.5297C123.962 36.1785 123.68 35.9916 123.187 36.1149C122.694 36.2383 122.573 36.5261 122.917 36.7539ZM153.714 29.9766C153.881 30.4639 152.616 31.1746 150.903 31.5546C149.19 31.9346 147.622 31.8523 147.419 31.373C147.216 30.8937 148.481 30.1831 150.23 29.7951C151.979 29.4071 153.547 29.4894 153.714 29.9766ZM154.943 30.0222C154.64 31.5833 154.467 31.6218 154.154 30.1972C154.007 29.5298 154.174 28.9607 154.525 28.9312C155.091 28.8858 155.139 29.0089 154.943 30.0222ZM113.947 39.9858C114.187 40.3005 114.372 40.2136 114.358 39.7942C114.344 39.3747 114.148 39.1178 113.922 39.2227C113.673 39.3392 113.682 39.6386 113.947 39.9858ZM115.301 39.739C115.765 39.9185 116.373 39.7787 116.651 39.4269C116.928 39.0738 116.548 38.9265 115.806 39.0988C115.063 39.2699 114.836 39.5583 115.301 39.739ZM70.4239 52.6649C70.3803 53.2409 70.1854 53.4266 69.9915 53.079C69.7976 52.7313 69.6743 51.9747 69.7176 51.3988C69.7612 50.8228 69.9561 50.6371 70.15 50.9847C70.3439 51.3324 70.4672 52.089 70.4239 52.6649ZM74.2778 50.7384C74.3928 51.2614 73.7373 51.7873 72.8211 51.9078C71.5847 52.0701 71.2782 51.8543 71.6324 51.0707C72.2427 49.7187 74.0052 49.4983 74.2778 50.7384ZM76.3472 49.3987C76.6321 50.6946 75.806 52.7423 75.288 52.0236C74.8642 51.4355 74.8268 51.0582 75.1114 50.229C75.5511 48.9453 76.1581 48.5383 76.3472 49.3987ZM69.4226 52.8845C69.4884 53.5291 68.7607 54.2225 67.8052 54.4243C66.8493 54.6249 66.0979 54.3627 66.135 53.8403C66.2377 52.3935 69.2815 51.5083 69.4226 52.8845ZM141.399 36.4068C141.319 36.7731 141.02 36.8612 140.733 36.6017C140.446 36.3421 140.511 36.0426 140.877 35.9358C141.244 35.8291 141.478 36.0404 141.399 36.4068ZM157.453 34.1816C157.237 34.5323 156.781 34.6336 156.438 34.4066C156.096 34.1785 156.272 33.8913 156.83 33.7675C157.388 33.6438 157.668 33.8298 157.453 34.1816ZM21.1957 81.3273C21.3424 81.9947 21.4178 82.5506 21.363 82.5628C21.3083 82.5749 21.0809 82.0527 20.8576 81.4023C20.6342 80.7519 20.559 80.1959 20.6902 80.1668C20.8214 80.1377 21.049 80.6599 21.1957 81.3273ZM24.8537 127.199C25.0933 127.514 25.2782 127.427 25.2645 127.007C25.2508 126.588 25.0548 126.331 24.8287 126.436C24.5789 126.552 24.5888 126.852 24.8537 127.199ZM189.607 112.184C189.621 112.603 189.436 112.69 189.196 112.375C188.931 112.028 188.922 111.729 189.171 111.612C189.397 111.507 189.593 111.764 189.607 112.184ZM31.8523 150.229C31.999 150.897 32.0115 151.467 31.8803 151.496C31.7492 151.525 31.5843 150.989 31.5142 150.304C31.4441 149.62 31.4313 149.05 31.4861 149.038C31.5409 149.026 31.7055 149.562 31.8523 150.229ZM102.937 153.634C103.644 155.693 103.466 156.202 102.716 154.265C102.285 153.152 102.115 152.459 102.264 152.426C102.396 152.396 102.699 152.94 102.937 153.634ZM117.887 153.451C117.923 152.976 117.782 152.092 117.574 151.487C117.357 150.854 117.769 150.259 118.543 150.087C119.321 149.914 120.049 150.343 120.265 151.102C120.472 151.825 121.181 152.601 121.841 152.824C123.485 153.384 123.565 155.326 121.939 155.202C120.96 155.127 120.717 155.52 120.984 156.738C121.437 158.799 120.635 159.082 120.033 157.074C119.774 156.209 119.781 156.506 120.051 157.781C120.306 158.991 120.371 159.722 120.195 159.405C120.018 159.089 119.939 159.932 120.018 161.278C120.187 164.152 119.217 164.827 118.647 162.234C118.355 160.906 118.105 160.705 117.602 161.387C117.082 162.091 116.883 161.913 116.676 160.558C116.532 159.608 116.569 158.855 116.76 158.884C116.951 158.913 117.07 158.107 117.025 157.093C116.953 155.492 116.867 155.381 116.361 156.252C116.041 156.803 115.666 157.545 115.528 157.902C115.39 158.259 115.103 158.047 114.892 157.432C114.681 156.816 114.937 155.818 115.462 155.216C115.987 154.612 116.381 153.379 116.337 152.475C116.273 151.128 116.399 151.145 117.04 152.572C117.47 153.531 117.851 153.926 117.887 153.451ZM149.374 145.012C149.593 146.009 148.325 146.816 148.005 145.884C147.819 145.342 148.027 144.819 148.468 144.721C148.91 144.623 149.317 144.754 149.374 145.012ZM109.822 161.449C110.225 164.209 109.643 162.914 108.981 159.579C108.158 155.432 108.156 155.397 108.874 157.531C109.238 158.615 109.665 160.378 109.822 161.449ZM124.795 153.353C124.716 153.719 124.416 153.807 124.129 153.548C123.842 153.288 123.907 152.988 124.273 152.882C124.64 152.775 124.875 152.986 124.795 153.353ZM132.503 152.145C131.362 153.85 126.213 154.946 125.503 153.633C125.107 152.903 126.32 152.266 129.105 151.74C131.977 151.199 133.051 151.326 132.503 152.145ZM137.091 150.701C136.811 151.055 136.254 151.178 135.851 150.976C135.449 150.774 135.678 150.485 136.36 150.334C137.042 150.183 137.371 150.348 137.091 150.701ZM139.218 150.161C139.137 150.532 138.884 150.589 138.655 150.286C138.426 149.984 138.492 149.68 138.802 149.612C139.112 149.543 139.299 149.79 139.218 150.161ZM141.472 149.661C141.391 150.032 141.138 150.089 140.908 149.786C140.68 149.484 140.746 149.18 141.056 149.112C141.366 149.043 141.553 149.29 141.472 149.661ZM103.319 159.177C103.707 160.944 103.68 164.831 103.28 164.884C102.832 164.943 102.814 164.852 102.821 162.516L102.827 160.088L101.758 159.835C100.82 159.613 100.841 159.522 101.939 159.084C102.626 158.809 103.247 158.851 103.319 159.177ZM104.415 159.08C104.429 159.5 104.244 159.587 104.004 159.272C103.739 158.925 103.73 158.625 103.979 158.509C104.205 158.404 104.401 158.661 104.415 159.08ZM118.331 156.497C118.478 157.164 118.705 157.687 118.837 157.657C118.968 157.628 118.893 157.072 118.669 156.422C118.446 155.772 118.219 155.249 118.164 155.262C118.109 155.274 118.184 155.83 118.331 156.497ZM188.714 140.379C188.728 140.799 188.543 140.885 188.303 140.571C188.038 140.224 188.029 139.924 188.278 139.808C188.504 139.703 188.7 139.96 188.714 140.379ZM190.425 140.073C190.344 140.445 190.091 140.501 189.861 140.198C189.633 139.897 189.699 139.593 190.009 139.524C190.319 139.456 190.506 139.703 190.425 140.073ZM93.8628 162.694C93.8765 163.113 93.6916 163.2 93.452 162.885C93.187 162.538 93.1772 162.239 93.427 162.122C93.6531 162.017 93.849 162.274 93.8628 162.694ZM100.339 162C100.464 162.804 100.485 163.732 100.385 164.063C100.284 164.403 100.146 164.091 100.07 163.349C99.9938 162.61 99.66 161.851 99.3082 161.618C98.8619 161.323 98.8873 161.107 99.3963 160.871C99.8628 160.654 100.191 161.047 100.339 162ZM107.707 161.399C107.931 162.809 108.2 163.835 108.339 163.804C108.471 163.775 108.679 164.206 108.801 164.762C109.148 166.338 108.066 165.788 107.483 164.091C107.08 162.917 106.922 162.913 106.785 164.076C106.687 164.902 106.417 165.238 106.185 164.822C105.717 163.981 106.312 159.431 106.929 159.13C107.223 158.987 107.412 159.539 107.707 161.399ZM150.041 150.735C150.264 151.385 150.34 151.941 150.208 151.971C150.077 152 149.85 151.477 149.703 150.81C149.556 150.143 149.481 149.587 149.536 149.575C149.59 149.562 149.818 150.085 150.041 150.735ZM152.033 149.582C152.098 149.877 152.124 150.477 152.09 150.917C152.057 151.357 151.902 151.138 151.747 150.432C151.592 149.725 151.566 149.124 151.69 149.097C151.814 149.069 151.968 149.287 152.033 149.582ZM185.059 142.529C184.98 142.895 184.68 142.983 184.393 142.724C184.106 142.464 184.171 142.165 184.538 142.058C184.904 141.951 185.139 142.162 185.059 142.529ZM186.276 142.193C186.29 142.612 186.105 142.699 185.865 142.384C185.6 142.037 185.591 141.738 185.84 141.621C186.066 141.516 186.262 141.773 186.276 142.193ZM97.5645 163.649C97.7879 164.3 97.8631 164.856 97.7319 164.885C97.6007 164.914 97.3731 164.392 97.2264 163.724C97.0797 163.057 97.0043 162.501 97.0591 162.489C97.1138 162.477 97.3412 162.999 97.5645 163.649ZM124.108 157.257C124.121 157.676 123.936 157.763 123.697 157.449C123.432 157.101 123.422 156.802 123.672 156.685C123.898 156.58 124.094 156.837 124.108 157.257ZM125.235 157.007C125.248 157.426 125.063 157.513 124.824 157.198C124.559 156.851 124.549 156.552 124.799 156.435C125.025 156.33 125.221 156.587 125.235 157.007ZM127.563 157.63C127.783 158.632 128.065 159.428 128.189 159.401C128.313 159.373 128.264 158.669 128.08 157.834C127.832 156.708 128.264 156.309 129.752 156.285C130.965 156.265 131.807 156.727 131.881 157.455C131.949 158.116 131.758 158.391 131.457 158.066C131.156 157.741 130.798 158.368 130.66 159.457C130.438 161.211 130.356 161.232 129.938 159.641C129.411 157.633 128.329 157.391 128.527 159.326C128.665 160.676 127.813 161.231 127.335 160.102C126.856 158.97 126.509 155.955 126.849 155.88C127.022 155.842 127.343 156.629 127.563 157.63ZM148.3 153.03C148.401 154.624 148.512 154.892 149.024 154.778C149.369 154.702 149.683 155.177 149.756 155.889C149.826 156.573 149.669 157.181 149.408 157.239C149.147 157.296 149.091 157.719 149.285 158.176C149.478 158.633 150.421 158.657 151.379 158.23C152.936 157.536 153.154 157.674 153.424 159.519C153.623 160.877 153.781 161.372 153.886 160.965C153.973 160.624 153.885 159.737 153.689 158.993C153.492 158.249 153.592 157.583 153.909 157.513C154.236 157.44 154.541 157.923 154.613 158.629C154.683 159.313 154.848 159.85 154.979 159.82C155.111 159.791 155.098 159.221 154.951 158.554C154.507 156.535 155.495 157.008 156.118 159.113C156.438 160.193 156.705 161.266 156.713 161.499C156.72 161.73 155.76 162.291 154.578 162.744C153.009 163.345 152.314 163.164 152.002 162.072C151.767 161.25 151.374 160.62 151.129 160.675C150.884 160.729 150.866 161.306 151.09 161.956C151.326 162.645 151.208 163.202 150.806 163.291C150.427 163.376 149.997 162.898 149.85 162.231C149.703 161.564 149.208 161.101 148.749 161.203C147.837 161.405 147.527 159.439 148.329 158.54C148.686 158.141 148.639 157.177 148.141 154.656C147.735 152.601 147.615 151.273 147.83 151.226C148.116 151.162 148.202 151.494 148.3 153.03ZM170.942 149.033C171.267 149.326 171.038 149.617 170.434 149.681C169.831 149.745 169.231 149.316 169.102 148.728C168.973 148.14 169.164 147.98 169.526 148.372C170.03 148.916 170.057 148.706 169.639 147.478C169.209 146.215 169.227 146.153 169.722 147.186C170.069 147.909 170.618 148.74 170.942 149.033ZM142.686 154.912C142.756 155.596 142.718 156.177 142.601 156.203C142.484 156.229 142.269 155.704 142.122 155.037C141.975 154.37 142.014 153.788 142.207 153.746C142.4 153.703 142.616 154.228 142.686 154.912ZM118.947 161.451C119.719 162.874 119.958 162.821 119.624 161.301C119.477 160.633 119.13 160.146 118.854 160.218C118.447 160.325 118.465 160.56 118.947 161.451ZM140.251 157.277C140.467 158.262 140.942 159.142 141.347 159.306C141.919 159.537 141.902 159.75 141.258 160.383C140.528 161.101 140.403 160.927 139.853 158.423C139.518 156.9 139.386 155.644 139.558 155.606C139.729 155.568 140.04 156.32 140.251 157.277ZM147.082 155.02C147.216 155.629 146.925 156.248 146.435 156.396C145.944 156.543 145.501 156.256 145.45 155.758C145.312 154.407 146.8 153.733 147.082 155.02ZM77.1774 171.99C77.4007 172.64 77.4252 173.207 77.232 173.25C77.0389 173.293 76.7606 172.782 76.6139 172.115C76.4672 171.447 76.4425 170.88 76.5592 170.854C76.676 170.828 76.954 171.339 77.1774 171.99ZM121.935 162.136C122.09 162.842 122.022 163.071 121.783 162.643C121.545 162.215 121.426 162.637 121.52 163.58C121.655 164.938 121.593 164.852 121.221 163.173C120.929 161.854 120.921 161.013 121.201 160.951C121.449 160.896 121.779 161.43 121.935 162.136ZM125.008 161.061C125.118 161.561 124.964 162.025 124.666 162.091C124.368 162.157 124.081 161.791 124.029 161.278C123.976 160.765 124.13 160.301 124.37 160.248C124.611 160.194 124.898 160.561 125.008 161.061ZM168.013 151.839C168.083 152.523 167.91 153.093 167.628 153.107C167.134 153.131 167.123 153.091 167.337 151.989C167.641 150.415 167.862 150.366 168.013 151.839ZM184.58 148.163C184.726 148.831 185.077 149.335 185.358 149.282C185.639 149.232 186.138 149.685 186.466 150.29C186.906 151.102 186.811 151.518 186.104 151.872C185.577 152.137 184.839 152.648 184.463 153.007C184.087 153.368 180.315 154.599 176.081 155.744C171.847 156.888 168.902 157.281 169.536 156.618C170.171 155.955 171.122 154.96 171.651 154.408C173.682 152.286 176.479 151.23 176.891 152.428C177.119 153.093 177.333 153.267 177.367 152.815C177.402 152.364 177.817 152.625 178.29 153.396C178.764 154.166 179.248 154.359 179.367 153.824C179.485 153.288 180.29 152.593 181.155 152.279C182.02 151.965 182.716 151.336 182.701 150.881C182.686 150.427 183.086 150.281 183.59 150.556C184.319 150.955 184.418 150.653 184.072 149.079C183.833 147.991 183.789 147.066 183.975 147.025C184.161 146.984 184.433 147.496 184.58 148.163ZM191.277 146.996C191.649 148.186 191.702 148.174 191.54 146.937C191.323 145.275 193.09 144.338 193.607 145.843C193.774 146.33 193.423 146.637 192.825 146.524C192.147 146.396 191.849 146.82 192.032 147.654C192.477 149.678 191.324 149.489 190.717 147.438C190.073 145.26 190.603 144.84 191.277 146.996ZM139.203 159.502C139.273 160.187 139.049 160.768 138.706 160.796C138.147 160.84 138.104 160.722 138.302 159.702C138.609 158.115 139.051 158.017 139.203 159.502ZM160.391 154.802C160.461 155.486 160.727 156 160.982 155.943C161.238 155.887 161.326 155.294 161.18 154.627C160.865 153.194 161.373 153.421 162.119 155.047C162.804 156.538 162.255 159.56 161.434 158.817C161.117 158.53 160.92 158.903 160.996 159.648C161.072 160.392 160.982 161.034 160.796 161.075C160.61 161.116 160.397 160.547 160.321 159.81C160.226 158.882 159.921 158.798 159.33 159.537C158.811 160.186 158.373 160.142 158.216 159.424C158.073 158.775 158.466 157.791 159.091 157.239C159.715 156.687 160.135 155.654 160.024 154.944C159.914 154.236 159.923 153.633 160.043 153.607C160.164 153.58 160.321 154.118 160.391 154.802ZM166.814 153.278C166.771 153.912 166.392 154.294 165.972 154.126C165.385 153.891 165.303 154.375 165.618 156.232C165.842 157.558 165.939 158.662 165.834 158.685C165.591 158.739 164.984 154.73 165.045 153.471C165.07 152.951 165.497 152.436 165.993 152.326C166.608 152.19 166.869 152.492 166.814 153.278ZM87.7099 172.049C88.0277 173.495 87.41 174.842 86.9904 173.62C86.8069 173.086 86.7236 172.345 86.8049 171.972C87.0462 170.867 87.4578 170.903 87.7099 172.049ZM90.6713 171.541C90.8181 172.209 90.8428 172.776 90.726 172.802C90.6092 172.828 90.3312 172.317 90.1078 171.666C89.8845 171.016 89.86 170.449 90.0532 170.406C90.2463 170.363 90.5246 170.874 90.6713 171.541ZM94.6994 170.509C95.1028 172.344 93.5428 173.1 92.5689 171.542C91.7157 170.177 91.7518 170.044 93.0546 169.748C93.8287 169.572 94.5687 169.915 94.6994 170.509ZM95.495 170.821C95.7861 172.279 95.4152 172.066 94.9744 170.523C94.7487 169.733 94.7338 169.278 94.9413 169.512C95.1487 169.746 95.3978 170.335 95.495 170.821ZM98.3312 174.201C98.4755 174.817 98.1747 174.311 97.6623 173.077C97.0309 171.556 96.7496 170.537 96.7895 169.913C96.8423 169.077 97.6666 171.369 98.3312 174.201ZM99.2258 169.144C99.8929 169.989 100.327 171.945 99.8694 172.046C99.6763 172.089 99.6897 172.624 99.8995 173.234C100.109 173.846 100.058 174.309 99.786 174.262C99.2769 174.177 98.5553 171.242 98.6103 169.481C98.6463 168.328 98.6017 168.352 99.2258 169.144ZM187.818 149.99C187.965 150.658 187.905 151.234 187.686 151.273C187.346 151.332 187.299 151.159 187.367 150.09C187.467 148.515 187.493 148.51 187.818 149.99ZM102.027 171.004C101.731 172.406 101.762 172.695 102.259 173.132C102.724 173.542 102.731 173.689 102.299 173.905C101.991 174.058 101.448 173.254 101.017 172.004C100.333 170.018 100.358 169.817 101.321 169.609C102.361 169.383 102.367 169.396 102.027 171.004ZM105.433 171.715C106.086 174.253 106.105 174.593 105.563 174.089C105.216 173.767 104.52 173.568 104.018 173.649C103.279 173.769 103.128 173.54 103.229 172.456C103.297 171.72 103.188 170.637 102.986 170.049C102.785 169.462 103.081 168.931 103.645 168.868C104.544 168.768 104.765 169.12 105.433 171.715ZM112.017 170.068C112.63 171.739 112.796 171.883 112.757 170.709C112.688 168.605 113.214 168.705 113.694 170.888C114.006 172.307 113.803 172.751 112.777 172.9C112.053 173.006 111.526 172.788 111.607 172.418C111.953 170.83 111.175 169.538 110.026 169.793C108.685 170.09 108.756 172.135 110.126 172.668C110.648 172.871 110.497 173.175 109.726 173.474C109.03 173.743 108.292 173.388 108.044 172.667C107.726 171.741 107.616 171.766 107.648 172.755C107.673 173.511 107.541 174.162 107.355 174.203C107.105 174.259 107.005 173.908 106.97 172.861C106.945 172.081 106.695 170.668 106.414 169.72C105.983 168.263 106.316 167.991 108.566 167.956C110.799 167.921 111.354 168.26 112.017 170.068ZM116.966 168.572C117.266 169.927 115.68 170.012 115.218 168.665C114.977 167.967 115.205 167.537 115.792 167.584C116.327 167.626 116.855 168.072 116.966 168.572ZM124.999 166.396C125.137 167.025 125.223 167.897 125.19 168.335C125.084 169.731 118.863 170.481 118.05 169.196C117.637 168.544 120.154 166.674 122.368 165.99C123.733 165.569 124.855 165.741 124.999 166.396ZM135.038 164.907C135.557 166.133 135.226 166.661 133.259 167.743C131.242 168.853 128.62 167.814 128.16 165.722C127.926 164.655 134.598 163.866 135.038 164.907ZM143.191 163.662C141.891 164.684 140.684 164.412 140.78 163.118C140.812 162.68 141.64 162.409 142.619 162.517L144.4 162.712L143.191 163.662ZM146.878 161.618C147.025 162.285 147.1 162.841 147.046 162.853C146.991 162.865 146.764 162.343 146.54 161.693C146.317 161.042 146.242 160.486 146.373 160.457C146.504 160.428 146.732 160.95 146.878 161.618ZM151.95 160.492C152.02 161.177 152.235 161.702 152.429 161.659C152.622 161.616 152.66 161.035 152.513 160.367C152.367 159.7 152.151 159.175 152.034 159.201C151.918 159.227 151.88 159.808 151.95 160.492ZM198.593 149.742C198.833 150.056 199.018 149.969 199.004 149.55C198.99 149.13 198.794 148.874 198.568 148.978C198.318 149.095 198.328 149.394 198.593 149.742ZM146.119 162.939C146.182 163.559 145.969 163.826 145.644 163.532C144.832 162.797 144.736 162.093 145.427 161.94C145.744 161.869 146.055 162.319 146.119 162.939ZM157.705 160.058C157.624 160.43 157.371 160.486 157.141 160.183C156.913 159.881 156.979 159.578 157.289 159.509C157.599 159.44 157.786 159.688 157.705 160.058ZM168.073 157.758C167.993 158.13 167.739 158.186 167.51 157.883C167.281 157.581 167.347 157.278 167.657 157.209C167.967 157.14 168.154 157.388 168.073 157.758ZM198.363 156.559C198.587 157.209 198.814 157.732 198.869 157.72C198.924 157.707 198.848 157.151 198.701 156.484C198.555 155.817 198.327 155.294 198.196 155.324C198.065 155.353 198.14 155.909 198.363 156.559ZM204.21 154.859C204.449 155.173 204.634 155.086 204.62 154.667C204.607 154.248 204.411 153.991 204.185 154.096C203.935 154.212 203.945 154.511 204.21 154.859ZM115.416 190.55C115.526 191.05 113.54 191.813 111.002 192.247C107.808 192.791 106.932 192.692 108.154 191.924C110.69 190.331 115.18 189.481 115.416 190.55ZM117.768 190.495C117.824 190.75 117.375 191.002 116.768 191.054C115.82 191.135 115.735 191.011 116.16 190.171C116.622 189.258 117.537 189.443 117.768 190.495ZM106.116 193.137C106.035 193.509 105.782 193.565 105.552 193.262C105.324 192.96 105.39 192.657 105.7 192.588C106.01 192.519 106.197 192.767 106.116 193.137ZM86.2854 200.25C86.5632 200.768 85.7449 201.458 84.4427 201.801C83.1543 202.142 82.0628 202.056 82.0171 201.609C81.8923 200.389 85.7092 199.175 86.2854 200.25ZM189.545 178.474C189.784 178.788 189.969 178.702 189.955 178.282C189.942 177.863 189.746 177.606 189.52 177.711C189.27 177.827 189.28 178.127 189.545 178.474ZM173.317 183.246C173.331 183.665 173.146 183.752 172.906 183.437C172.641 183.09 172.632 182.791 172.881 182.674C173.108 182.569 173.303 182.826 173.317 183.246ZM95.555 203.223C96.9277 203.142 99.1594 202.648 100.514 202.124C101.869 201.599 100.745 201.665 98.0177 202.269C95.2902 202.873 94.182 203.302 95.555 203.223ZM115.882 199.314C116.144 199.934 116.5 200.186 116.672 199.872C116.905 199.45 116.781 199.157 116.195 198.744C115.684 198.383 115.574 198.586 115.882 199.314ZM185.611 183.164C185.851 183.479 186.036 183.392 186.022 182.972C186.009 182.553 185.813 182.296 185.586 182.401C185.337 182.518 185.346 182.817 185.611 183.164ZM117.803 199.51C118.147 199.738 118.55 199.637 118.699 199.286C118.848 198.935 118.566 198.748 118.073 198.871C117.58 198.994 117.459 199.282 117.803 199.51ZM120.958 198.81C121.303 199.038 121.706 198.937 121.855 198.586C122.003 198.235 121.722 198.048 121.229 198.171C120.736 198.294 120.614 198.582 120.958 198.81ZM127.952 197.282C128.416 197.461 129.024 197.321 129.302 196.969C129.579 196.616 129.199 196.469 128.457 196.641C127.714 196.812 127.487 197.101 127.952 197.282ZM131.217 196.548C131.621 196.75 132.127 196.63 132.341 196.281C132.555 195.932 132.224 195.766 131.606 195.912C130.988 196.059 130.813 196.345 131.217 196.548ZM160.734 189.963C161.018 190.221 161.373 190.142 161.523 189.788C161.672 189.436 161.44 189.225 161.006 189.321C160.572 189.418 160.45 189.707 160.734 189.963ZM164.446 189.106C164.675 189.408 164.928 189.352 165.009 188.981C165.09 188.61 164.903 188.363 164.593 188.431C164.283 188.5 164.217 188.804 164.446 189.106Z" fill="#DF1931"/>
<path fill-rule="evenodd" clip-rule="evenodd" d="M60.8353 76.3465C59.2394 76.7664 57.0533 78.7626 56.4356 80.3635C56.0314 81.411 55.9468 82.5087 56.0277 85.6391C56.1256 89.4254 56.1693 89.6554 57.0637 91.0902C58.0837 92.7257 60.3998 94.244 61.8944 94.2568L62.7343 94.2638L62.8177 121.457L62.9011 148.65L63.625 150.105C64.4222 151.708 65.8211 152.921 67.5942 153.547C69.303 154.151 146.679 154.151 148.388 153.547C150.161 152.921 151.56 151.708 152.357 150.105L153.081 148.65L153.165 121.457L153.248 94.2638H154.102C154.571 94.2638 155.705 93.818 156.621 93.2735C157.906 92.5097 158.483 91.9098 159.147 90.649C159.957 89.1088 160.006 88.7925 160 85.1647C159.994 82.0852 159.879 81.0673 159.426 80.0789C158.686 78.4656 156.623 76.7417 154.928 76.3191C153.151 75.8764 62.5213 75.9026 60.8353 76.3465ZM154.634 81.301C155.338 81.9975 155.39 82.2626 155.39 85.1659C155.39 87.947 155.318 88.3593 154.72 88.9885L154.051 89.6935H108.034H62.0175L61.305 89.0311C60.6494 88.4211 60.5928 88.1177 60.5928 85.2085C60.5928 82.2598 60.6432 81.9987 61.3484 81.301L62.1037 80.553H107.991H153.879L154.634 81.301ZM148.464 121.179V147.941L147.601 148.676L146.737 149.412H107.991H69.2451L68.3815 148.676L67.5179 147.941L67.436 121.488C67.3907 106.938 67.4212 94.8603 67.5037 94.6477C67.6237 94.3381 75.6602 94.2769 108.059 94.3387L148.464 94.4161V121.179ZM84.3144 103.293C83.7155 104.047 83.6764 104.483 83.6764 110.412C83.6764 116.341 83.7155 116.777 84.3144 117.531L84.9522 118.334H107.991H131.03L131.668 117.531C132.267 116.777 132.306 116.341 132.306 110.412C132.306 104.483 132.267 104.047 131.668 103.293L131.03 102.49H107.991H84.9522L84.3144 103.293ZM127.689 110.412V113.764H107.991H88.2931V110.412V107.06H107.991H127.689V110.412Z" fill="white"/>
</svg>
