<svg width="18" height="16" viewBox="0 0 18 16" fill="none" xmlns="http://www.w3.org/2000/svg">
<path d="M8.5 9.66666C8.5 9.9428 8.72386 10.1667 9 10.1667C9.27614 10.1667 9.5 9.9428 9.5 9.66666L8.5 9.66666ZM9.5 6.33332C9.5 6.05718 9.27614 5.83332 9 5.83332C8.72386 5.83332 8.5 6.05718 8.5 6.33332L9.5 6.33332ZM9.5 9.66666L9.5 6.33332L8.5 6.33332L8.5 9.66666L9.5 9.66666Z" fill="#DF1931"/>
<path d="M9.86189 1.96529L9.43093 2.2188L9.86189 1.96529ZM1.98408 13.4132L8.56899 2.2188L7.70706 1.71178L1.12214 12.9061L1.98408 13.4132ZM9.43093 2.2188L16.0158 13.4132L16.8778 12.9061L10.2929 1.71178L9.43093 2.2188ZM15.5849 14.1667H2.41504V15.1667H15.5849V14.1667ZM8.56899 2.2188C8.76232 1.89014 9.2376 1.89014 9.43093 2.2188L10.2929 1.71178C9.71289 0.725819 8.28704 0.725816 7.70706 1.71178L8.56899 2.2188ZM1.12214 12.9061C0.533936 13.9061 1.25492 15.1667 2.41504 15.1667V14.1667C2.02833 14.1667 1.78801 13.7465 1.98408 13.4132L1.12214 12.9061ZM16.0158 13.4132C16.2119 13.7465 15.9716 14.1667 15.5849 14.1667V15.1667C16.745 15.1667 17.466 13.9061 16.8778 12.9061L16.0158 13.4132Z" fill="#DF1931"/>
<path d="M8.99992 12.5833C9.23004 12.5833 9.41658 12.3968 9.41658 12.1667C9.41658 11.9365 9.23004 11.75 8.99992 11.75C8.7698 11.75 8.58325 11.9365 8.58325 12.1667C8.58325 12.3968 8.7698 12.5833 8.99992 12.5833Z" fill="#DF1931" stroke="#DF1931" stroke-linecap="round" stroke-linejoin="round"/>
</svg>
