<svg width="116" height="116" viewBox="0 0 116 116" fill="none" xmlns="http://www.w3.org/2000/svg">
<path fill-rule="evenodd" clip-rule="evenodd" d="M68.784 9.17409C67.8951 9.62974 67.1342 10.103 67.0932 10.2264C67.052 10.3492 67.5106 10.5292 68.112 10.6258C69.2024 10.8013 69.2012 10.8029 67.7106 11.3369C66.8885 11.6315 65.7065 12.2204 65.0837 12.6452C64.3004 13.1799 64.7517 13.1461 66.5484 12.5352C70.6546 11.1396 74.8858 9.77292 75.444 9.66095C75.7556 9.59878 75.8725 9.31629 75.7429 8.94061C75.6028 8.53465 76.5899 8.08858 78.6197 7.64031C80.8132 7.1559 81.7307 7.16273 81.7824 7.66401C81.8281 8.10875 81.9464 8.29275 82.1018 8.16004C82.2372 8.04367 82.4654 8.10034 82.6088 8.28612C82.752 8.47126 83.7352 8.75153 84.7936 8.9088C85.852 9.06606 86.9732 9.40229 87.2851 9.65593C87.5969 9.9089 87.7999 9.88004 87.7362 9.59155C87.5771 8.87127 87.1713 8.52136 84.9771 7.21118C84.702 7.04717 84.1722 6.67077 83.7998 6.3753C82.9976 5.73854 71.1978 7.93814 68.784 9.17409ZM32.9064 17.7976C32.4284 18.2736 32.4507 18.2986 33.2777 18.2144C34.1486 18.1251 34.346 17.8002 33.7325 17.4649C33.5578 17.3692 33.1861 17.5191 32.9064 17.7976ZM31.6739 18.397C31.5677 18.5341 31.0556 18.9325 30.5356 19.2821C30.0157 19.6316 29.6366 20.1276 29.6935 20.3851C29.7502 20.6418 29.9446 20.7007 30.1254 20.5151C30.3775 20.2566 30.4472 20.3429 30.4246 20.8866C30.402 21.4248 30.5193 21.5512 30.9128 21.4118C31.3852 21.245 31.3902 21.1933 30.969 20.8235L30.5073 20.4181L30.9244 20.2469C31.1539 20.153 31.4155 20.3266 31.5061 20.6331C31.5994 20.9496 32.0587 20.8894 32.5711 20.493C33.5429 19.7424 33.4702 19.5024 32.3422 19.7376C31.9507 19.8187 31.7327 19.7166 31.8577 19.5101C32.0725 19.1555 32.1674 17.7886 31.9601 18.0352C31.9088 18.0964 31.78 18.2592 31.6739 18.397ZM72.4874 9.486C72.1107 9.69887 71.4187 9.85235 70.9498 9.82757C70.4809 9.80344 70.7891 9.62899 71.6348 9.44155C72.4805 9.25347 72.8641 9.2738 72.4874 9.486ZM74.128 9.07249C74.0856 9.26671 73.9525 9.2961 73.8322 9.13781C73.7121 8.98013 73.7468 8.82152 73.9095 8.78559C74.0722 8.74967 74.1706 8.87889 74.128 9.07249ZM83.2594 7.72084C83.2171 7.91505 83.084 7.94444 82.9637 7.78616C82.8436 7.62847 82.8783 7.46986 83.041 7.43394C83.2037 7.39801 83.3021 7.52723 83.2594 7.72084ZM84.089 7.53364C84.0473 7.72506 83.8899 7.77111 83.7393 7.63549C83.5886 7.49986 83.6228 7.34336 83.8152 7.28757C84.0076 7.23178 84.1307 7.34223 84.089 7.53364ZM33.5953 19.3717C33.7444 19.5064 33.9309 19.4652 34.0094 19.2803C34.088 19.096 33.9661 18.986 33.7383 19.0363C33.5106 19.0866 33.4463 19.2377 33.5953 19.3717ZM34.7154 19.1064C34.8358 19.2647 34.9689 19.2353 35.0112 19.0411C35.0538 18.8475 34.9554 18.7183 34.7928 18.7542C34.6301 18.7901 34.5954 18.9487 34.7154 19.1064ZM12.2973 25.1558C12.3285 25.4588 11.7479 25.7792 11.0071 25.8677C9.66321 26.0295 7.56526 27.4716 7.35836 28.3765C7.28906 28.679 7.38727 29.4367 7.62651 30.4458C8.03371 32.1633 8.06563 32.2207 8.86167 32.666C9.51324 33.0308 9.78369 34.047 9.22607 34.0352C8.85485 34.0274 8.85603 34.1721 9.24013 35.763C9.60712 37.2832 9.61849 37.5094 9.33152 37.5814C8.9206 37.6855 8.89932 38.2813 9.2453 40.003C9.47042 41.1229 9.61414 41.4091 10.0756 41.6556C10.8225 42.0552 10.9822 42.9396 10.4063 43.4877C9.95142 43.9206 9.80307 46.3486 10.1672 47.404C10.2577 47.6666 10.2136 48.1052 10.0691 48.3785C9.8419 48.8077 9.85607 48.9921 10.1736 49.7393C10.3756 50.2147 10.6123 50.5926 10.6994 50.5787C10.8189 50.5603 10.8471 50.7077 10.8144 51.179C10.7838 51.6167 10.9738 51.8201 11.4496 51.8593C12.1203 51.9147 12.1339 51.9396 12.5943 53.9738C12.8507 55.1062 13.0203 56.0409 12.9716 56.0517C12.9228 56.0624 13.0088 56.6419 13.1629 57.3393C13.3704 58.279 13.3636 58.6482 13.1366 58.7655C12.8697 58.9036 12.8727 58.9515 13.1608 59.1412C13.5816 59.418 14.5865 61.0055 14.374 61.0577C14.2842 61.0795 14.3301 61.4863 14.479 61.9874C14.8723 63.311 14.7982 64.088 14.1893 65.0284C13.6445 65.8696 13.4861 66.5775 13.8612 66.4947C13.9697 66.4707 14.153 66.8791 14.2685 67.4022C14.4319 68.1421 14.3208 68.3881 13.7687 68.51C13.0032 68.6791 13.0326 69.9427 13.8016 69.9231C14.0879 69.9157 14.186 70.0384 14.0588 70.2453C13.9457 70.4286 13.9076 70.8247 13.9741 71.1259C14.0406 71.427 14.028 71.8793 13.9462 72.1315C13.8642 72.383 13.8829 72.837 13.9871 73.1392C14.0915 73.4419 14.0617 73.9985 13.9209 74.376C13.6997 74.9695 13.7878 75.0464 14.569 74.9431C15.4974 74.8205 15.6787 75.4807 14.9979 76.5048C14.6959 76.9585 14.6957 77.1793 14.9961 77.9515C15.2815 78.6851 15.335 78.6979 15.2705 78.0179C15.208 77.3607 15.2911 77.4421 15.6438 78.383C16.0595 79.4914 16.0863 79.6498 15.9662 80.2748C15.8538 80.8582 15.9397 80.9855 16.5624 81.1605C17.2153 81.3435 17.2816 81.4492 17.209 82.192C17.1646 82.6474 16.9373 83.2615 16.7038 83.5564C15.9781 84.4734 16.094 85.2404 16.9393 85.1143L17.7199 84.9971L17.1619 87.2462L16.604 89.4953L17.2655 89.6817L17.9271 89.8681L17.4195 90.8799C17.0649 91.5873 16.9988 92.0494 17.2 92.4146C17.3586 92.7021 17.6 92.938 17.7367 92.9391C17.9836 92.9411 17.9844 92.9449 17.8593 93.4839C17.7677 93.8771 17.977 94.1302 18.621 94.4049C19.4254 94.7473 19.469 94.8141 19.0858 95.1148C18.8531 95.2972 18.6711 95.7244 18.6811 96.0634C18.6923 96.4452 19.2408 96.5801 20.1242 96.4176C21.2246 96.2151 21.507 96.317 21.3643 96.8639C21.2573 97.2752 21.2844 98.0472 21.4289 98.7016C21.6311 99.6171 21.5212 100.102 20.848 101.261C20.3913 102.047 20.1409 102.772 20.2912 102.871C20.51 103.016 20.5563 103.171 20.5232 103.649C20.4928 104.088 20.5611 104.233 20.7819 104.199C20.9469 104.174 21.219 104.402 21.3865 104.706C21.7248 105.318 21.71 105.49 21.2425 106.364C21.115 106.602 21.071 107.208 21.1449 107.71C21.257 108.474 21.4833 108.528 22.5375 108.038C23.4677 107.607 23.7899 107.646 23.7722 108.189C23.752 108.808 23.782 108.899 23.9627 108.77C24.3205 108.513 24.4519 108.697 24.4113 109.397C24.385 109.851 24.5676 109.869 24.9824 109.455C25.7414 108.695 25.6948 108.698 27.9118 109.235C29.2704 109.564 31.0895 109.265 34.9162 108.084C38.0925 107.103 41.1457 106.525 42.8358 106.582C48.4066 106.775 48.9519 106.754 48.7844 106.353C48.6905 106.129 48.0284 105.912 47.3132 105.872C46.5982 105.832 45.906 105.555 45.7756 105.258C45.4503 104.517 55.651 102.327 59.4196 102.33C61.5814 102.331 77.3456 99.7864 82.7553 98.5631C83.9622 98.29 89.055 96.3247 89.2495 96.057C89.4099 95.8354 89.5419 95.9439 89.5817 96.3301C89.6179 96.6825 89.7008 96.9588 89.7658 96.9444C89.8309 96.9301 89.854 96.6257 89.8172 96.2681C89.7295 95.4157 90.1682 95.3288 90.3521 96.1619C90.5105 96.879 93.3147 96.3043 95.2043 95.1682C96.0695 94.6479 96.3963 94.6722 96.5737 95.2694C96.7021 95.7012 96.8843 96.0373 96.9788 96.0165C97.0734 95.9956 97.0547 95.7005 96.9375 95.3606C96.8202 95.0208 96.8098 94.6726 96.9144 94.587C97.019 94.5014 97.1703 94.3503 97.2507 94.2508C97.3312 94.1519 97.6822 93.9713 98.0307 93.8498C98.4168 93.7153 98.5583 93.436 98.3928 93.1361C98.1241 92.6482 98.856 91.9772 101.057 90.6959C102.163 90.0519 102.472 88.8918 101.528 88.926C101.227 88.9367 100.912 88.8911 100.829 88.8243C100.746 88.7575 100.157 88.7427 99.5193 88.7918L98.36 88.8795L99.02 88.2164C99.3831 87.8517 100.184 87.3483 100.8 87.0986C101.415 86.8483 101.896 86.4177 101.867 86.1413C101.839 85.865 101.922 85.6152 102.052 85.5865C102.182 85.5577 102.205 85.2926 102.103 84.9966C102 84.6982 101.745 84.742 101.528 85.095C101.092 85.8072 100.584 86.0742 100.569 85.6002C100.548 84.9638 102.499 82.159 102.746 82.4702C102.89 82.6519 102.937 82.3548 102.854 81.7899C102.75 81.0782 102.882 80.7173 103.309 80.5458L103.911 80.3044L103.178 80.074C102.601 79.8923 102.494 79.7475 102.679 79.3948C102.808 79.1475 103.217 79.1012 103.587 79.2908C103.957 79.4804 104.259 79.5753 104.258 79.5016C104.257 79.4273 104.028 78.7371 103.75 77.9668C103.414 77.0395 103.25 76.7884 103.265 77.2228C103.279 77.6578 103.111 77.6835 102.768 77.2978C101.846 76.2638 101.892 75.9751 102.977 75.9782C103.734 75.9799 103.974 75.7828 103.806 75.2965C103.661 74.8751 103.67 74.5664 103.83 74.4945C104.062 74.39 102.62 73.3806 101.527 72.8824C101.3 72.7785 101.502 72.5582 101.978 72.3933C102.453 72.2278 102.861 71.798 102.884 71.4385C102.918 70.8963 102.884 70.7901 102.684 70.8176C102.552 70.8355 102.297 70.5666 102.118 70.2198C101.88 69.759 101.968 69.6639 102.443 69.8668C103.293 70.2283 103.326 69.6405 102.56 67.7828C102.221 66.9599 102.022 66.309 102.105 66.2908C102.185 66.2731 102.155 65.9805 102.037 65.6407C101.92 65.3008 101.6 65.0676 101.326 65.1228C101.052 65.1773 100.683 64.9424 100.505 64.6C100.272 64.1527 100.381 64.0555 100.894 64.2548C101.619 64.5356 101.671 63.6382 100.972 62.9222C100.62 62.5624 100.614 62.5372 100.713 61.8921C100.794 61.3688 100.741 61.3055 100.457 61.589C100.048 61.9979 99.2456 60.7413 99.4285 59.9781C99.4858 59.7394 99.6283 59.523 99.745 59.4973C99.8619 59.4714 99.9293 59.0077 99.8948 58.4667C99.8455 57.6943 99.8008 57.49 99.6865 57.5153C99.6058 57.5331 99.4779 57.1172 99.3992 56.5813C99.3079 55.9604 99.1811 55.6154 99.0441 55.6157C98.8672 55.6155 98.8517 55.5185 98.9528 55.044C99.0659 54.5124 99.0401 54.4276 98.5861 53.8416C98.3175 53.4953 98.0212 53.2283 97.9279 53.2489C97.8345 53.2695 97.6951 53.0011 97.6181 52.6523C97.5411 52.3036 97.7779 51.9228 98.1447 51.8065L98.8114 51.5948L98.1523 50.717C97.4377 49.7656 97.0753 48.539 97.1996 47.4922C97.2428 47.1282 97.8292 46.4966 98.5027 46.0886C99.1762 45.6812 99.6784 45.1267 99.6188 44.8566C99.5591 44.5865 99.3007 44.1116 99.0443 43.8005C98.6544 43.328 98.7164 43.1966 99.4251 42.9962C99.9055 42.8602 100.211 42.4822 100.132 42.1227C100.055 41.7739 99.882 41.5128 99.7481 41.5424C99.6142 41.572 99.4758 41.3166 99.4406 40.9746C99.4054 40.6326 99.4903 40.4962 99.6291 40.6717C99.7679 40.8465 99.8224 40.7221 99.7502 40.3949C99.6778 40.0671 99.2955 39.5371 98.9006 39.2167C98.2911 38.7222 98.4575 38.6057 100.002 38.4442L101.821 38.2545L100.027 37.4351C96.8879 36.0012 96.9477 36.0432 97.1646 35.4294C97.3412 34.9295 97.335 34.8884 97.0823 34.883C96.7021 34.8745 96.369 33.801 96.6203 33.3944C96.7353 33.2074 96.6002 33.069 96.3152 33.0814C96.0336 33.0937 95.7234 32.8265 95.6257 32.4876C95.5281 32.1487 94.7845 31.773 93.9733 31.6536C92.5286 31.4407 92.5051 31.4179 92.8256 30.5472C93.0346 29.9804 93.8136 29.5663 94.9769 29.4031C96.6606 29.1676 96.7927 29.05 96.6967 27.8803C96.6051 26.7654 96.7649 26.5479 98.0201 26.0765C99.1584 25.6496 99.4074 25.3585 99.249 24.6414C99.1398 24.1469 99.0042 23.7526 98.9476 23.7651C98.7813 23.8018 96.3405 22.3373 96.0326 22.0163C95.45 21.4081 95.5124 20.5312 96.1534 20.3159C96.8105 20.0949 96.8112 20.0881 96.2285 19.6729C95.9045 19.4419 95.2052 19.309 94.6745 19.3784C93.7293 19.5007 92.2817 18.9167 92.5629 18.5254C92.8309 18.153 91.4174 17.5469 90.5914 17.6801C89.8714 17.7958 89.6869 17.6191 89.1422 16.2885L88.518 14.7639L89.0026 14.597L89.4872 14.4302L88.945 13.8962C88.6469 13.603 88.3358 13.5214 88.2535 13.7145C88.1712 13.9075 88.0514 13.8283 87.9873 13.5379C87.9232 13.2475 87.7486 12.8997 87.5995 12.765C87.4505 12.631 87.5528 12.399 87.8271 12.2506L88.3257 11.9802L87.6872 11.6172C85.6004 10.4316 73.0343 12.2977 69.3061 14.3473C68.2411 14.9329 66.8301 15.5384 66.1703 15.6928C65.3239 15.8917 65.0049 16.2115 65.086 16.7801C65.1726 17.3867 65.1364 17.4087 64.9388 16.8671C64.7174 16.2604 62.1017 16.0833 62.0016 16.668C61.9039 17.2395 30.7232 24.053 28.5039 23.9879C27.027 23.9443 25.3416 23.8976 24.7586 23.8841C24.1755 23.8705 22.4718 23.9741 20.9731 24.1156C19.474 24.2565 17.6715 24.3114 16.9676 24.2381C14.9318 24.0254 12.2355 24.5551 12.2973 25.1558ZM72.2514 11.4958C72.3772 11.6602 72.4742 11.6148 72.467 11.3956C72.4598 11.1765 72.357 11.0422 72.2383 11.097C72.1072 11.1579 72.1123 11.3144 72.2514 11.4958ZM69.1971 12.8353C69.3229 12.9997 69.4199 12.9543 69.4127 12.7351C69.4055 12.516 69.3027 12.3817 69.184 12.4365C69.0529 12.4974 69.058 12.6539 69.1971 12.8353ZM70.1436 12.6263C70.2693 12.7907 70.3664 12.7453 70.3592 12.5261C70.352 12.3069 70.2491 12.1727 70.1304 12.2275C69.9993 12.2884 70.0045 12.4448 70.1436 12.6263ZM32.4423 22.2976C32.6221 22.4161 32.8615 22.3632 32.9747 22.18C33.0877 21.9961 32.9405 21.8989 32.6477 21.9636C32.3549 22.0283 32.2624 22.1784 32.4423 22.2976ZM56.9552 19.5107C56.9134 19.7021 56.7561 19.7482 56.6054 19.6125C56.4547 19.4769 56.4889 19.3204 56.6813 19.2646C56.8737 19.2088 56.9969 19.3193 56.9552 19.5107ZM87.2893 12.777C87.2965 12.9962 87.1995 13.0416 87.0737 12.8772C86.9346 12.6958 86.9295 12.5393 87.0606 12.4784C87.1793 12.4236 87.2821 12.5578 87.2893 12.777ZM69.9081 17.7965C69.9962 18.0038 69.654 18.2988 69.1477 18.4525C68.6412 18.6056 66.9014 19.176 65.2811 19.7194C63.6611 20.2634 57.8683 21.925 52.4087 23.4133C46.949 24.9017 42.2345 26.3771 41.9322 26.6932C41.3766 27.2734 40.4852 26.9423 40.4592 26.1454C40.4443 25.6865 41.5381 25.3213 47.7674 23.7082C50.1448 23.0921 51.6175 22.4609 51.5362 22.0926C51.4628 21.7603 51.5117 21.6258 51.6448 21.7939C52.0126 22.258 55.933 21.2998 58.6603 20.079C61.3266 18.8851 69.6529 17.1959 69.9081 17.7965ZM72.8753 16.5567C72.8909 17.0314 70.8751 17.5344 70.6913 17.1016C70.6067 16.9028 71.0611 16.6242 71.7009 16.4829C72.3407 16.3416 72.8691 16.3746 72.8753 16.5567ZM73.3506 16.5203C73.3578 16.7394 73.2608 16.7848 73.135 16.6204C72.9959 16.439 72.9908 16.2825 73.1219 16.2217C73.2405 16.1669 73.3434 16.3011 73.3506 16.5203ZM64.5175 19.2044C64.6981 19.3235 64.9098 19.2707 64.9879 19.0873C65.066 18.9038 64.9181 18.8061 64.6594 18.8705C64.4007 18.935 64.3369 19.0854 64.5175 19.2044ZM80.6824 15.6631C80.7701 15.9177 80.1063 16.2891 79.2071 16.4877C78.308 16.6862 77.485 16.6432 77.3785 16.3928C77.2719 16.1423 77.9356 15.771 78.8536 15.5683C79.7716 15.3655 80.5946 15.4086 80.6824 15.6631ZM81.3274 15.6869C81.1686 16.5027 81.0777 16.5228 80.9133 15.7784C80.8363 15.4297 80.9241 15.1323 81.1084 15.1169C81.4055 15.0931 81.4303 15.1575 81.3274 15.6869ZM59.8095 20.8932C59.9353 21.0576 60.0324 21.0122 60.0252 20.793C60.0179 20.5738 59.9151 20.4396 59.7964 20.4944C59.6653 20.5553 59.6705 20.7118 59.8095 20.8932ZM60.5199 20.7642C60.7636 20.858 61.0825 20.7849 61.2284 20.6011C61.3742 20.4166 61.1746 20.3397 60.7851 20.4297C60.3953 20.5191 60.2761 20.6698 60.5199 20.7642ZM36.9646 27.5183C36.9417 27.8192 36.8395 27.9163 36.7377 27.7346C36.6359 27.553 36.5712 27.1576 36.5939 26.8567C36.6168 26.5558 36.7191 26.4587 36.8209 26.6404C36.9227 26.822 36.9874 27.2173 36.9646 27.5183ZM38.9875 26.5116C39.0479 26.7849 38.7038 27.0597 38.2229 27.1227C37.574 27.2075 37.4131 27.0947 37.599 26.6853C37.9193 25.9788 38.8444 25.8636 38.9875 26.5116ZM40.0737 25.8116C40.2232 26.4888 39.7896 27.5587 39.5177 27.1832C39.2953 26.8759 39.2757 26.6787 39.425 26.2454C39.6559 25.5747 39.9744 25.3621 40.0737 25.8116ZM36.439 27.633C36.4736 27.9698 36.0917 28.3321 35.5901 28.4376C35.0884 28.5424 34.694 28.4054 34.7135 28.1325C34.7674 27.3765 36.365 26.9139 36.439 27.633ZM74.2185 19.023C74.1768 19.2145 74.0194 19.2605 73.8687 19.1249C73.7181 18.9893 73.7522 18.8328 73.9446 18.777C74.1371 18.7212 74.2602 18.8316 74.2185 19.023ZM82.6449 17.8603C82.5318 18.0436 82.2922 18.0965 82.1125 17.9779C81.9327 17.8587 82.0251 17.7086 82.3179 17.644C82.6107 17.5793 82.7578 17.6765 82.6449 17.8603ZM11.1254 42.495C11.2024 42.8437 11.242 43.1342 11.2132 43.1406C11.1845 43.1469 11.0652 42.8741 10.9479 42.5342C10.8307 42.1944 10.7912 41.9039 10.8601 41.8886C10.9289 41.8734 11.0484 42.1463 11.1254 42.495ZM13.0455 66.464C13.1712 66.6284 13.2683 66.5831 13.2611 66.3639C13.2539 66.1447 13.151 66.0105 13.0323 66.0653C12.9012 66.1262 12.9064 66.2826 13.0455 66.464ZM99.5223 58.6181C99.5296 58.8373 99.4325 58.8827 99.3067 58.7183C99.1676 58.5369 99.1625 58.3804 99.2936 58.3195C99.4123 58.2647 99.5151 58.399 99.5223 58.6181ZM16.7189 78.498C16.7959 78.8467 16.8025 79.1445 16.7336 79.1597C16.6648 79.1749 16.5782 78.8948 16.5414 78.5372C16.5047 78.1796 16.498 77.8818 16.5267 77.8755C16.5555 77.8691 16.6419 78.1493 16.7189 78.498ZM54.0303 80.2771C54.4014 81.3528 54.3082 81.6188 53.9144 80.6066C53.688 80.0249 53.5986 79.6629 53.6772 79.6455C53.7463 79.6303 53.9053 79.9144 54.0303 80.2771ZM61.8773 80.1813C61.8962 79.9331 61.8223 79.4713 61.7131 79.1549C61.5992 78.8243 61.8155 78.5132 62.2218 78.4235C62.63 78.3333 63.012 78.5576 63.1257 78.954C63.2342 79.3317 63.6063 79.7369 63.9528 79.8539C64.8159 80.1461 64.8579 81.1608 64.0041 81.0961C63.4905 81.0572 63.3626 81.2623 63.5032 81.8989C63.741 82.9755 63.3197 83.1238 63.0037 82.0744C62.8676 81.6223 62.8716 81.7777 63.013 82.4441C63.1472 83.0761 63.1813 83.4582 63.0886 83.2925C62.996 83.1274 62.9543 83.5675 62.9958 84.2712C63.0845 85.7731 62.5754 86.1255 62.2762 84.7706C62.123 84.0769 61.9921 83.9715 61.7275 84.3279C61.455 84.6959 61.3504 84.6027 61.242 83.8951C61.166 83.3986 61.1858 83.0052 61.2859 83.0203C61.3861 83.0354 61.4486 82.614 61.4249 82.0846C61.3874 81.2477 61.3418 81.19 61.0763 81.6449C60.9084 81.9327 60.7115 82.3206 60.639 82.5069C60.5666 82.6937 60.4164 82.5826 60.3055 82.2613C60.1944 81.9394 60.329 81.4183 60.6045 81.1034C60.8799 80.7879 61.0867 80.1438 61.0639 79.6714C61.03 78.9673 61.0964 78.9766 61.4327 79.7222C61.6584 80.223 61.8585 80.4295 61.8773 80.1813ZM78.4044 75.772C78.5194 76.2925 77.8536 76.7142 77.6857 76.2273C77.5881 75.9443 77.6977 75.6707 77.9292 75.6196C78.1607 75.5685 78.3746 75.6369 78.4044 75.772ZM57.644 84.3606C57.8559 85.8026 57.5503 85.126 57.2029 83.3834C56.7709 81.2166 56.7698 81.1982 57.1466 82.3133C57.3379 82.8795 57.5617 83.8009 57.644 84.3606ZM65.5034 80.1299C65.4617 80.3213 65.3043 80.3674 65.1537 80.2317C65.003 80.0961 65.0372 79.9396 65.2296 79.8838C65.422 79.828 65.5451 79.9385 65.5034 80.1299ZM69.5494 79.499C68.9504 80.39 66.2478 80.9623 65.8747 80.2767C65.6669 79.895 66.3038 79.5622 67.7655 79.2872C69.2731 79.0048 69.8368 79.0712 69.5494 79.499ZM71.9574 78.7445C71.8105 78.9292 71.5178 78.9939 71.3067 78.8882C71.0956 78.7825 71.2159 78.6316 71.5738 78.5526C71.9317 78.4735 72.1043 78.5598 71.9574 78.7445ZM73.0738 78.462C73.0314 78.6563 72.8983 78.6856 72.778 78.5274C72.6579 78.3697 72.6926 78.2111 72.8553 78.1751C73.018 78.1392 73.1164 78.2684 73.0738 78.462ZM74.2568 78.2008C74.2145 78.395 74.0814 78.4244 73.9611 78.2661C73.841 78.1084 73.8757 77.9498 74.0384 77.9139C74.2011 77.8779 74.2995 78.0072 74.2568 78.2008ZM54.2306 83.1733C54.4345 84.0965 54.4205 86.1278 54.2102 86.1556C53.9751 86.1862 53.9657 86.1384 53.9692 84.9181L53.9728 83.6492L53.4117 83.5171C52.9189 83.4012 52.9304 83.3534 53.5063 83.1245C53.8671 82.981 54.1929 83.0028 54.2306 83.1733ZM54.8062 83.1227C54.8134 83.3419 54.7163 83.3873 54.5906 83.2229C54.4515 83.0414 54.4463 82.885 54.5774 82.8241C54.6961 82.7693 54.799 82.9035 54.8062 83.1227ZM62.1105 81.7729C62.1875 82.1216 62.307 82.3945 62.3758 82.3793C62.4447 82.3641 62.4052 82.0736 62.288 81.7337C62.1707 81.3939 62.0514 81.121 62.0227 81.1274C61.9939 81.1337 62.0335 81.4242 62.1105 81.7729ZM99.0536 73.351C99.0608 73.5701 98.9638 73.6155 98.838 73.4511C98.6989 73.2697 98.6938 73.1132 98.8249 73.0524C98.9436 72.9976 99.0464 73.1318 99.0536 73.351ZM99.9515 73.1912C99.9092 73.3855 99.7761 73.4148 99.6558 73.2566C99.5357 73.0989 99.5704 72.9403 99.7331 72.9043C99.8958 72.8684 99.9942 72.9976 99.9515 73.1912ZM49.2674 85.0109C49.2746 85.2301 49.1775 85.2754 49.0518 85.111C48.9127 84.9296 48.9075 84.7732 49.0386 84.7123C49.1573 84.6575 49.2602 84.7917 49.2674 85.0109ZM52.6668 84.6485C52.7324 85.0682 52.7434 85.5532 52.691 85.7264C52.6376 85.9037 52.5652 85.7409 52.5253 85.3534C52.4855 84.9671 52.3103 84.5703 52.1256 84.4488C51.8914 84.2944 51.9047 84.1817 52.1719 84.0582C52.4167 83.945 52.5888 84.1504 52.6668 84.6485ZM56.5343 84.3343C56.6518 85.0711 56.793 85.6071 56.8656 85.5911C56.935 85.5758 57.0443 85.801 57.1084 86.0914C57.2903 86.915 56.7223 86.6275 56.4165 85.7408C56.2048 85.1273 56.1221 85.1256 56.05 85.7333C55.9987 86.1649 55.8571 86.3405 55.7352 86.1227C55.4894 85.6836 55.8017 83.3058 56.1256 83.1485C56.2798 83.0739 56.3792 83.3625 56.5343 84.3343ZM78.7546 78.7622C78.8718 79.102 78.9113 79.3925 78.8425 79.4077C78.7736 79.4229 78.6542 79.1501 78.5771 78.8014C78.5001 78.4526 78.4605 78.1621 78.4893 78.1558C78.518 78.1494 78.6374 78.4223 78.7546 78.7622ZM79.8003 78.1595C79.8343 78.3136 79.8477 78.6272 79.8302 78.8571C79.8128 79.087 79.7317 78.9726 79.6502 78.6036C79.5687 78.2346 79.5551 77.9204 79.6202 77.906C79.6853 77.8917 79.7662 78.0054 79.8003 78.1595ZM97.1353 74.4742C97.0935 74.6656 96.9362 74.7116 96.7855 74.576C96.6348 74.4404 96.669 74.2839 96.8614 74.2281C97.0538 74.1723 97.177 74.2828 97.1353 74.4742ZM97.7739 74.2985C97.7812 74.5177 97.6841 74.5631 97.5583 74.3987C97.4192 74.2173 97.4141 74.0608 97.5452 73.9999C97.6639 73.9451 97.7667 74.0794 97.7739 74.2985ZM51.2104 85.5101C51.3276 85.8499 51.3671 86.1404 51.2982 86.1556C51.2294 86.1708 51.1099 85.898 51.0329 85.5493C50.9559 85.2005 50.9163 84.9101 50.9451 84.9037C50.9738 84.8974 51.0932 85.1702 51.2104 85.5101ZM65.1425 82.17C65.1497 82.3891 65.0526 82.4345 64.9268 82.2701C64.7878 82.0887 64.7826 81.9322 64.9137 81.8713C65.0324 81.8165 65.1353 81.9508 65.1425 82.17ZM65.734 82.0393C65.7412 82.2585 65.6442 82.3039 65.5184 82.1395C65.3793 81.958 65.3742 81.8016 65.5053 81.7407C65.6239 81.6859 65.7268 81.8201 65.734 82.0393ZM66.9563 82.3652C67.0718 82.8883 67.2196 83.3045 67.2847 83.2901C67.3497 83.2758 67.3241 82.9077 67.2277 82.4715C67.0975 81.8832 67.324 81.6749 68.1052 81.6619C68.7419 81.6517 69.1837 81.8932 69.2227 82.2736C69.2583 82.6189 69.1581 82.7627 69.0001 82.5927C68.8423 82.4228 68.654 82.7503 68.5818 83.3195C68.4655 84.2363 68.422 84.2472 68.2029 83.4158C67.9263 82.3664 67.3581 82.2399 67.4621 83.2509C67.5348 83.9564 67.0872 84.2467 66.8365 83.6564C66.585 83.0649 66.4031 81.4899 66.5815 81.4505C66.6721 81.4305 66.8408 81.8421 66.9563 82.3652ZM77.8407 79.9614C77.8938 80.7942 77.9521 80.9343 78.2208 80.875C78.4021 80.8349 78.5665 81.0832 78.6048 81.4551C78.6416 81.8127 78.5596 82.1301 78.4224 82.1604C78.2852 82.1907 78.2562 82.4112 78.3577 82.6501C78.4593 82.889 78.9539 82.9015 79.457 82.6786C80.2741 82.316 80.3886 82.3878 80.5303 83.352C80.6346 84.0617 80.7174 84.32 80.7725 84.1077C80.8185 83.9293 80.7722 83.4661 80.6692 83.0772C80.5662 82.6884 80.6184 82.3404 80.7848 82.3036C80.9565 82.2657 81.1166 82.5183 81.1545 82.8869C81.1913 83.2445 81.2778 83.5247 81.3467 83.5095C81.4155 83.4943 81.409 83.1965 81.3319 82.8478C81.0989 81.7927 81.6176 82.0399 81.9445 83.14C82.1121 83.7042 82.2525 84.265 82.2565 84.3864C82.2604 84.5073 81.7562 84.8002 81.1359 85.0369C80.3126 85.3511 79.9477 85.2568 79.7837 84.6858C79.6603 84.2563 79.4541 83.9274 79.3256 83.9558C79.197 83.9842 79.1877 84.2855 79.305 84.6253C79.4293 84.9855 79.3674 85.2765 79.1562 85.3232C78.9572 85.3671 78.7313 85.1178 78.6543 84.769C78.5773 84.4203 78.3173 84.1785 78.0765 84.2317C77.5979 84.3373 77.4352 83.31 77.8562 82.8407C78.0433 82.6318 78.0188 82.1285 77.7574 80.8111C77.5442 79.737 77.481 79.0434 77.5939 79.0185C77.7441 78.9853 77.7895 79.1588 77.8407 79.9614ZM89.7253 77.8728C89.8956 78.026 89.7756 78.1782 89.4589 78.2116C89.1422 78.2449 88.8273 78.0205 88.7596 77.7137C88.6916 77.4062 88.7919 77.3228 88.9821 77.5275C89.2465 77.8116 89.2605 77.7021 89.0412 77.0603C88.8159 76.4006 88.8252 76.3679 89.0851 76.9077C89.2669 77.2858 89.555 77.7195 89.7253 77.8728ZM74.8938 80.9447C74.9306 81.3023 74.9107 81.606 74.8494 81.6195C74.7881 81.633 74.6751 81.3588 74.5981 81.01C74.5211 80.6613 74.5411 80.3576 74.6425 80.3353C74.7439 80.3129 74.8571 80.5871 74.8938 80.9447ZM62.434 84.3614C62.8389 85.1052 62.9644 85.0774 62.7889 84.283C62.7119 83.9343 62.53 83.6798 62.3848 83.7172C62.1714 83.773 62.1807 83.896 62.434 84.3614ZM73.6158 82.1805C73.7295 82.6954 73.9789 83.155 74.1911 83.2404C74.4916 83.3616 74.4823 83.4727 74.1448 83.8033C73.7611 84.1786 73.6958 84.0879 73.4068 82.7793C73.2311 81.9836 73.1622 81.3271 73.2523 81.3072C73.3418 81.2875 73.5053 81.6803 73.6158 82.1805ZM77.2017 81.0009C77.272 81.3192 77.119 81.6429 76.8618 81.7204C76.6043 81.7972 76.3719 81.647 76.3451 81.3869C76.2725 80.6808 77.0533 80.3288 77.2017 81.0009ZM40.5095 89.8682C40.6267 90.2081 40.6395 90.5045 40.5381 90.5268C40.4368 90.5492 40.2907 90.2823 40.2137 89.9335C40.1367 89.5848 40.1237 89.2884 40.185 89.2749C40.2463 89.2614 40.3922 89.5284 40.5095 89.8682ZM64.002 84.7193C64.0835 85.0883 64.0479 85.2079 63.9225 84.9842C63.7973 84.7605 63.7352 84.981 63.7845 85.4742C63.8554 86.1833 63.8225 86.1387 63.6273 85.2615C63.4739 84.5719 63.4699 84.1326 63.6171 84.1001C63.7472 84.0713 63.9205 84.3503 64.002 84.7193ZM65.615 84.1576C65.6727 84.4188 65.592 84.6614 65.4355 84.6959C65.2791 84.7305 65.1285 84.539 65.101 84.2711C65.0734 84.0032 65.154 83.7607 65.2804 83.7328C65.4067 83.7048 65.5574 83.8963 65.615 84.1576ZM88.1878 79.3388C88.2246 79.6964 88.1336 79.9944 87.9857 80.0018C87.7263 80.0139 87.7209 79.9931 87.8329 79.4171C87.9929 78.5952 88.1087 78.5696 88.1878 79.3388ZM96.8835 77.4184C96.9606 77.7671 97.1444 78.0304 97.2919 78.0031C97.4395 77.9765 97.7012 78.2133 97.8734 78.5297C98.1044 78.9542 98.0547 79.1713 97.6837 79.3563C97.4072 79.4945 97.0195 79.7616 96.8221 79.9495C96.6249 80.138 94.6452 80.7814 92.4229 81.3792C90.2005 81.9771 88.6546 82.1828 88.9875 81.836C89.3205 81.4898 89.8199 80.9699 90.0973 80.6812C91.1635 79.5727 92.6318 79.021 92.8477 79.6469C92.9674 79.9942 93.0801 80.085 93.0979 79.849C93.116 79.6136 93.3338 79.7497 93.5823 80.1523C93.8307 80.555 94.0849 80.6557 94.1472 80.376C94.2094 80.0963 94.632 79.733 95.0861 79.5689C95.5402 79.4047 95.9052 79.0761 95.8974 78.8384C95.8896 78.6014 96.0997 78.5251 96.3642 78.6688C96.7468 78.8769 96.7986 78.7192 96.617 77.8968C96.4914 77.3281 96.4684 76.8451 96.5661 76.8235C96.6637 76.802 96.8065 77.0697 96.8835 77.4184ZM100.399 76.8083C100.594 77.4302 100.622 77.424 100.537 76.7778C100.423 75.9093 101.351 75.4198 101.622 76.2057C101.71 76.4603 101.525 76.6208 101.211 76.5617C100.855 76.4947 100.699 76.7167 100.795 77.1523C101.029 78.2099 100.423 78.1109 100.105 77.0394C99.7668 75.9012 100.045 75.6821 100.399 76.8083ZM73.0661 83.3433C73.1028 83.7009 72.9852 84.0048 72.8048 84.0194C72.5117 84.0422 72.4889 83.9808 72.5928 83.4478C72.7543 82.6182 72.9862 82.5669 73.0661 83.3433ZM84.1871 80.8873C84.2239 81.2449 84.3637 81.5133 84.4976 81.4837C84.6315 81.4541 84.6782 81.1446 84.6012 80.7958C84.4358 80.047 84.7024 80.1657 85.0943 81.0154C85.4539 81.7945 85.1655 83.3736 84.7347 82.9854C84.5683 82.8352 84.4647 83.0303 84.5048 83.4191C84.5447 83.808 84.4976 84.1435 84.4 84.1651C84.3024 84.1867 84.1901 83.8889 84.1505 83.504C84.1006 83.019 83.9407 82.9752 83.6301 83.3616C83.3581 83.7003 83.1282 83.6773 83.0454 83.3026C82.9705 82.9633 83.177 82.4489 83.5046 82.1605C83.8323 81.872 84.0528 81.3325 83.9947 80.9617C83.9367 80.5915 83.9413 80.2766 84.0047 80.2626C84.0682 80.2486 84.1503 80.5297 84.1871 80.8873ZM87.5587 80.0908C87.5359 80.4223 87.3369 80.6219 87.1166 80.5342C86.8083 80.4115 86.7654 80.6643 86.9306 81.6346C87.0485 82.3274 87.0995 82.904 87.0441 82.9162C86.9164 82.9444 86.598 80.8496 86.63 80.1915C86.6432 79.9199 86.8671 79.6511 87.1274 79.5936C87.4503 79.5223 87.5874 79.6802 87.5587 80.0908ZM46.0379 89.8994C46.2046 90.6546 45.8804 91.3586 45.6602 90.7203C45.5639 90.441 45.5201 90.0537 45.5628 89.8587C45.6895 89.2815 45.9055 89.3003 46.0379 89.8994ZM47.5923 89.634C47.6693 89.9827 47.6822 90.2791 47.6209 90.2926C47.5597 90.3061 47.4137 90.0391 47.2965 89.6993C47.1792 89.3594 47.1664 89.063 47.2678 89.0406C47.3692 89.0183 47.5152 89.2852 47.5923 89.634ZM49.7065 89.0946C49.9183 90.0532 49.0995 90.4482 48.5883 89.6341C48.1405 88.9211 48.1594 88.8517 48.8432 88.6967C49.2495 88.605 49.6379 88.7839 49.7065 89.0946ZM50.1241 89.2577C50.2769 90.0192 50.0822 89.908 49.8509 89.1019C49.7324 88.6892 49.7246 88.4515 49.8335 88.5738C49.9424 88.696 50.0731 89.0036 50.1241 89.2577ZM51.6128 91.0236C51.6886 91.3453 51.5307 91.0809 51.2617 90.4361C50.9303 89.6415 50.7826 89.1089 50.8036 88.7831C50.8313 88.3461 51.264 89.5439 51.6128 91.0236ZM52.0824 88.381C52.4325 88.823 52.6601 89.8447 52.4202 89.8977C52.3188 89.9201 52.3259 90.1998 52.436 90.5186C52.5461 90.8381 52.5194 91.08 52.3764 91.0557C52.1092 91.011 51.7305 89.4775 51.7593 88.5574C51.7782 87.9548 51.7548 87.9673 52.0824 88.381ZM98.5833 78.3729C98.6603 78.7217 98.6291 79.0231 98.5142 79.0432C98.3354 79.074 98.3109 78.9837 98.3467 78.4252C98.3991 77.6024 98.4125 77.5994 98.5833 78.3729ZM53.5529 89.353C53.3972 90.0855 53.4138 90.2368 53.6744 90.4652C53.9184 90.6793 53.9223 90.7562 53.6955 90.8688C53.5336 90.9491 53.2489 90.5286 53.0227 89.8757C52.6634 88.8379 52.6768 88.7332 53.1819 88.6243C53.7279 88.5064 53.7313 88.5129 53.5529 89.353ZM55.3406 89.7249C55.6834 91.0509 55.6932 91.2283 55.4088 90.9653C55.2264 90.7967 54.8614 90.6931 54.5978 90.7354C54.2099 90.7978 54.1308 90.6783 54.1836 90.112C54.2194 89.7271 54.1622 89.1612 54.0563 88.8541C53.9505 88.5476 54.1062 88.2699 54.4022 88.2371C54.8739 88.1848 54.9899 88.3686 55.3406 89.7249ZM58.7964 88.8639C59.1181 89.7371 59.2051 89.8123 59.1849 89.199C59.1488 88.0999 59.4247 88.152 59.6766 89.2926C59.8403 90.0338 59.734 90.2661 59.1953 90.3438C58.8151 90.3992 58.5388 90.2853 58.5813 90.0917C58.7629 89.2623 58.3541 88.5872 57.7511 88.7204C57.0473 88.8758 57.0847 89.9441 57.8037 90.2229C58.0778 90.3286 57.9984 90.4878 57.5938 90.6436C57.2285 90.7842 56.8412 90.599 56.7112 90.2221C56.5443 89.7383 56.486 89.7512 56.5031 90.2681C56.516 90.6629 56.4468 91.0033 56.3492 91.0249C56.218 91.0539 56.1654 90.8707 56.1474 90.3234C56.134 89.9161 56.0027 89.1777 55.8554 88.6822C55.6292 87.9209 55.8039 87.7786 56.9849 87.7605C58.1572 87.7423 58.4486 87.9193 58.7964 88.8639ZM61.3939 88.0821C61.5513 88.7902 60.719 88.835 60.4763 88.1312C60.3502 87.766 60.4697 87.5415 60.7777 87.5659C61.0585 87.5883 61.3359 87.821 61.3939 88.0821ZM65.6103 86.9455C65.6829 87.2739 65.7278 87.7295 65.7104 87.9587C65.6549 88.6878 62.3898 89.0797 61.9629 88.4086C61.7459 88.0676 63.0672 87.0909 64.2296 86.7331C64.9461 86.513 65.5347 86.6031 65.6103 86.9455ZM70.8799 86.1674C71.1521 86.8082 70.9783 87.084 69.9458 87.6491C68.8873 88.2293 67.511 87.6861 67.2696 86.593C67.1465 86.0357 70.6487 85.6233 70.8799 86.1674ZM75.1591 85.517C74.4766 86.0507 73.8434 85.9086 73.8934 85.2326C73.9103 85.0035 74.3449 84.8623 74.859 84.9183L75.7939 85.0204L75.1591 85.517ZM77.0945 84.4485C77.1716 84.7972 77.2111 85.0877 77.1824 85.0941C77.1536 85.1004 77.0343 84.8276 76.9171 84.4877C76.7998 84.1479 76.7604 83.8573 76.8292 83.8421C76.8981 83.8269 77.0175 84.0998 77.0945 84.4485ZM79.7565 83.8606C79.7933 84.2183 79.9064 84.4925 80.0078 84.4701C80.1092 84.4477 80.1293 84.1441 80.0523 83.7953C79.9752 83.4466 79.8622 83.1723 79.8009 83.1859C79.7396 83.1994 79.7197 83.503 79.7565 83.8606ZM104.239 78.243C104.365 78.4075 104.462 78.3621 104.455 78.1429C104.447 77.9237 104.345 77.7895 104.226 77.8443C104.095 77.9052 104.1 78.0616 104.239 78.243ZM76.6959 85.139C76.7292 85.4628 76.6171 85.6026 76.4468 85.4487C76.0205 85.0647 75.97 84.6969 76.3325 84.6168C76.499 84.58 76.6626 84.8152 76.6959 85.139ZM82.7773 83.6337C82.735 83.8279 82.6019 83.8573 82.4816 83.699C82.3615 83.5414 82.3962 83.3828 82.5589 83.3468C82.7215 83.3109 82.8199 83.4401 82.7773 83.6337ZM88.2195 82.4319C88.1772 82.6261 88.0441 82.6555 87.9238 82.4972C87.8037 82.3395 87.8384 82.1809 88.0011 82.145C88.1637 82.109 88.2621 82.2383 88.2195 82.4319ZM104.118 81.8053C104.236 82.1452 104.355 82.4181 104.384 82.4117C104.412 82.4054 104.373 82.1149 104.296 81.7662C104.219 81.4174 104.099 81.1446 104.03 81.1598C103.962 81.175 104.001 81.4655 104.118 81.8053ZM107.187 80.9168C107.313 81.0812 107.41 81.0359 107.403 80.8167C107.395 80.5975 107.293 80.4633 107.174 80.5181C107.043 80.579 107.048 80.7354 107.187 80.9168ZM60.5803 99.5663C60.6381 99.8275 59.5957 100.227 58.2638 100.453C56.5873 100.737 56.1271 100.685 56.7687 100.284C58.0998 99.4518 60.4567 99.0077 60.5803 99.5663ZM61.8151 99.5376C61.8445 99.6708 61.6084 99.8027 61.2902 99.8298C60.7926 99.8718 60.7479 99.8072 60.9711 99.3683C61.2136 98.8911 61.6937 98.9879 61.8151 99.5376ZM55.6989 100.918C55.6565 101.112 55.5234 101.142 55.4031 100.984C55.283 100.826 55.3177 100.667 55.4804 100.631C55.6431 100.595 55.7415 100.725 55.6989 100.918ZM45.2901 104.635C45.436 104.906 45.0064 105.266 44.3229 105.445C43.6467 105.623 43.0738 105.578 43.0498 105.345C42.9842 104.708 44.9877 104.073 45.2901 104.635ZM99.4895 93.2563C99.6152 93.4207 99.7123 93.3753 99.7051 93.1561C99.6979 92.937 99.595 92.8027 99.4764 92.8575C99.3452 92.9184 99.3504 93.0749 99.4895 93.2563ZM90.972 95.7498C90.9792 95.9689 90.8821 96.0143 90.7563 95.8499C90.6173 95.6685 90.6121 95.512 90.7432 95.4512C90.8619 95.3964 90.9648 95.5306 90.972 95.7498ZM50.1556 106.188C50.8761 106.146 52.0475 105.888 52.7585 105.614C53.4695 105.34 52.88 105.374 51.4483 105.69C50.0166 106.005 49.4349 106.23 50.1556 106.188ZM60.8249 104.146C60.9626 104.47 61.1495 104.601 61.2399 104.437C61.3618 104.217 61.2967 104.064 60.9894 103.848C60.7213 103.659 60.6632 103.765 60.8249 104.146ZM97.4251 95.7071C97.5508 95.8715 97.6479 95.8261 97.6407 95.607C97.6335 95.3878 97.5306 95.2536 97.4119 95.3084C97.2808 95.3692 97.286 95.5257 97.4251 95.7071ZM61.8332 104.248C62.0138 104.367 62.2255 104.315 62.3036 104.131C62.3817 103.948 62.2338 103.85 61.9751 103.914C61.7164 103.979 61.6526 104.129 61.8332 104.248ZM63.4895 103.882C63.6702 104.002 63.8819 103.949 63.96 103.765C64.038 103.582 63.8902 103.484 63.6314 103.549C63.3727 103.613 63.3089 103.763 63.4895 103.882ZM67.1603 103.084C67.404 103.178 67.7229 103.104 67.8688 102.921C68.0145 102.736 67.815 102.659 67.4254 102.749C67.0357 102.839 66.9165 102.989 67.1603 103.084ZM68.8743 102.701C69.0862 102.806 69.3516 102.743 69.4639 102.561C69.5763 102.379 69.4028 102.292 69.0784 102.368C68.7542 102.445 68.6623 102.594 68.8743 102.701ZM84.3671 99.2598C84.5162 99.3945 84.7026 99.3533 84.7811 99.1684C84.8598 98.9841 84.7379 98.8741 84.5101 98.9244C84.2824 98.9746 84.2181 99.1258 84.3671 99.2598ZM86.3154 98.8116C86.4357 98.9699 86.5688 98.9405 86.6111 98.7463C86.6538 98.5527 86.5554 98.4235 86.3927 98.4594C86.23 98.4953 86.1953 98.6539 86.3154 98.8116Z" fill="#4C4355"/>
</svg>
