<svg width="709" height="693" viewBox="0 0 709 693" fill="none" xmlns="http://www.w3.org/2000/svg">
<g opacity="0.05">
<path d="M136.412 288.835C134.608 276.03 133.862 263.098 134.18 250.171C134.782 225.834 138.907 200.123 128.365 178.153C144.908 196.671 171.145 203.847 195.981 203.677C234.356 203.414 267.918 179.875 292.745 151.933C292.092 159.118 288.263 168.898 282.305 176.38C314.992 131.117 346.942 136.596 365.836 127.036C357.017 143.739 334.074 145.257 326.791 158.762C346.95 145.257 363.952 152.663 389.976 143.739C414.286 135.4 433.775 118.723 453.17 101.877C439.827 124.678 426.212 147.819 407.003 165.972C402.769 170.154 398.01 173.769 392.845 176.728C383.941 181.58 373.747 183.327 363.833 185.49C353.919 187.654 343.767 190.436 335.949 196.891C328.132 203.346 323.217 214.382 326.799 223.883C328.327 211.821 338.513 201.379 350.566 199.555C339.226 204.101 335.423 218.454 336.238 230.644C336.254 232.18 336.58 233.698 337.197 235.106C338.146 236.729 339.519 238.063 341.17 238.965C347.638 243.028 357.552 245.751 364.529 241.96C371.956 237.888 377.456 228.896 383.797 223.349C393.371 214.976 402.326 215.188 414.201 213.611C426.534 211.973 440.573 202.21 443.06 191.556C447.254 198.605 445.768 218.276 437.119 225.088C450.963 219.82 453.042 218.395 462.277 209.149C471.512 199.903 471.088 175.388 476.894 163.715C482.7 152.043 492.622 143.73 503.776 141.796C485.654 160.034 486.511 182.751 493.115 199.292C496.145 186.61 499.557 173.216 508.86 164.072C515.854 157.184 525.361 153.562 533.399 147.955C539.73 143.463 545.105 137.758 549.21 131.171C553.315 124.584 556.068 117.247 557.31 109.588C561.316 125.068 553.915 140.973 546.462 155.131C539.01 169.289 531.184 184.82 534.256 200.505C537.151 215.137 548.805 226.92 563.964 222.322C580.44 217.334 588.402 198.011 592.764 183.081C599.02 161.688 583.801 138.522 588.775 116.798C590.138 111.025 592.707 105.605 596.313 100.893C599.918 96.1814 604.48 92.2847 609.698 89.4582C605.522 98.7891 601.482 107.67 603.027 117.773C608.119 104.702 621.115 96.3037 632.302 87.8211C647.665 76.1574 660.1 57.9621 657.826 38.8082C656.977 31.9288 654.345 25.3632 653.582 18.4498C652.818 11.5364 654.71 3.66451 660.593 0C655.687 22.4536 676.584 38.5877 670.914 77.0905C668.75 91.774 627.625 140.558 620.639 153.664C613.654 166.769 610.971 183.141 617.669 196.382C619.366 199.673 621.862 202.905 625.452 203.745C631.971 205.264 637.335 198.282 639.118 191.869C642.394 180.079 640.349 167.533 641.019 155.309C641.69 143.086 646.418 129.513 657.698 124.772C650.322 135.799 650.161 149.838 651.375 163.079C652.588 176.321 655.398 189.571 653.921 202.778C652.444 215.986 645.543 229.66 633.159 234.52C628.525 236.336 623.483 236.794 618.611 237.854C592.637 243.537 572.41 268.901 572.656 295.477C572.656 291.727 574.999 288.801 577.07 285.679C582.632 277.299 590.105 270.359 598.876 265.431C602.526 263.378 606.515 261.665 610.708 261.69C614.901 261.716 619.281 263.862 620.894 267.704C613.9 266.415 607.805 272.506 603.409 278.096C600.072 282.351 597.118 286.893 594.581 291.668C591.364 297.708 588.809 304.138 584.845 309.711C577.206 320.399 565.127 326.99 552.854 331.621C540.58 336.253 527.695 339.298 515.803 344.837C503.911 350.377 492.75 358.817 487.725 370.956C485.068 377.343 484.652 385.597 489.677 390.355C493.7 394.173 500.134 394.486 505.32 392.501C510.507 390.517 514.708 386.631 518.647 382.721C526.846 374.586 534.562 365.883 543.593 358.681C552.624 351.479 563.285 345.754 574.804 344.744C564.983 349.596 558.906 357.655 553.83 367.35C548.754 377.046 545.163 387.48 539.909 397.082C525.038 424.269 496.323 443.414 465.494 446.689C469.484 447.707 473.185 448.962 477.064 450.353C486.784 453.838 497.243 454.741 507.417 452.974C489.923 463.154 467.565 464.095 447.321 464.002C440.149 464.002 432.595 463.705 426.483 459.956C416.298 453.729 413.216 439.852 403.498 432.964C394.364 426.492 380.283 428.578 373.416 437.409C348.8 432.107 323.073 431.725 298.534 426.271C261.679 418.077 228.321 398.609 197.526 376.834C189.089 370.896 180.754 364.695 173.411 357.443C163.031 347.179 154.789 334.938 147.693 322.18C142.464 312.781 137.685 302.356 138.95 291.643C137.125 291.804 138.186 288.699 136.412 288.835Z" fill="#FF0000"/>
<path d="M354.802 424.557C360.871 413.471 375.716 410.196 388.16 412.436C400.603 414.675 411.926 421.054 424.013 424.659C444.059 430.545 465.581 428.749 484.372 419.621C469.467 416.032 455.36 405.505 451.574 390.661C448.357 378.064 453.102 364.364 461.514 354.465C469.925 344.566 481.588 337.916 493.565 332.843C505.541 327.77 518.061 324.038 529.936 318.728C539.545 314.427 549.204 308.549 553.864 299.141C557.429 291.931 557.59 283.584 559.05 275.67C562.98 254.412 587.273 228.599 596.627 225.622C574.88 227.878 564.101 240.501 542.872 235.487C530.912 232.663 512.425 212.525 517 174.047C506.699 191.19 501.082 210.736 500.712 230.729C494.363 226.08 480.654 201.395 481.189 190.86C477.089 200.556 475.986 213.763 470.341 224.4C464.697 235.038 455.912 244.445 444.631 248.44C440.018 250.017 435.17 250.794 430.295 250.739C427.748 250.739 417.953 250.502 415.22 245.2C408.429 232.052 431.245 229.456 429.268 218.293C421.841 227.624 401.104 223.696 392.506 239.661C388.016 248.016 383.593 256.626 377.066 263.497C368.527 272.514 355.345 277.714 343.241 274.898C330.942 272.039 322.242 261.707 318.872 249.874C316.521 257.279 318.473 267.102 320.748 269.622C305.8 250.629 303.313 223.722 312.998 201.582C314.74 197.467 316.98 193.581 319.67 190.012C325.089 183.035 332.407 177.769 340.746 174.845C321.681 175.625 303.322 182.403 289.214 195.203C281.091 202.592 274.072 211.872 263.827 215.841C266.747 212.499 265.448 206.706 265.567 202.269C253.683 216.155 237.463 225.664 209.045 232.188C199.003 234.486 194.946 247.923 194.717 258.212C187.247 265.177 177.121 265.669 169.363 272.311C158.49 281.642 157.921 298.081 159.474 312.306C160.773 324.241 163.056 336.338 168.989 346.78C174.923 357.222 184.039 365.264 193.376 372.703C208.798 384.977 225.197 395.971 241.571 406.947C251.578 413.657 261.645 420.401 272.612 425.406C285.59 431.344 299.604 434.737 313.736 436.696C316.103 437.16 318.534 437.183 320.909 436.764C323.243 436.221 325.306 434.872 327.377 433.651C335.542 428.892 345.465 425.932 354.802 424.557Z" fill="#FFA300"/>
<path d="M223.236 247.143C237.638 245.894 251.086 239.422 261.042 228.947L264.658 237.769C268.342 234.003 270.922 229.287 274.071 225.088C279.257 218.155 285.969 212.507 293.687 208.58C291.71 213.178 292.092 218.429 292.745 223.4C294.443 236.471 297.779 249.416 303.627 261.224C309.475 273.032 317.929 283.703 328.777 291.193C337.197 297.004 347.841 300.88 357.636 297.979C362.638 296.44 367.191 293.709 370.903 290.022L384.934 276.374C385.827 281.621 385.688 286.991 384.527 292.186C391.122 285.756 395.638 278.291 397.114 269.206C397.326 267.432 397.632 265.671 398.031 263.93C398.713 261.584 399.979 259.45 401.712 257.727C403.444 256.005 405.586 254.75 407.937 254.081C407.996 269.053 436.881 265.524 450.182 259.332C458.008 255.685 465.613 251.163 471.351 244.708C477.089 238.253 480.815 229.643 479.924 221.05C486.673 227.097 491.772 234.759 494.744 243.317C497.656 251.689 497.893 261.13 494.651 269.367C500.075 263.904 504.251 257.025 507.697 250.154C509.464 246.854 510.887 243.38 511.941 239.788C513.902 232.4 513.028 224.596 512.136 217.012C521.609 227.412 518.511 244.801 529.426 251.333C536.59 255.625 545.197 250.697 560.391 246.718C544.9 255.99 523.833 270.673 519.241 280.157C517.84 283.05 516.949 286.663 518.715 289.344C520.633 292.262 535.173 295.341 543.899 280.42C543.397 285.665 541.938 290.774 539.595 295.494C538.297 297.996 529.808 305.461 526.625 307.429C515.167 314.486 474.891 322.248 464.994 326.752C456.503 330.517 449.492 336.975 445.047 345.126C440.803 353.278 439.682 363.168 442.704 371.863C441.405 371.77 433.851 387.76 435.913 394.919C437.976 402.078 442.763 408.228 448.467 413.021C438.035 413.488 427.672 411.452 417.426 409.433C407.181 407.414 396.597 405.31 386.869 401.264C377.142 397.218 367.882 391.051 362.05 382.229C351.135 365.747 331.901 355.933 318.354 341.563C301.734 323.894 286.099 305.147 267.255 289.819C260.83 284.594 253.853 279.546 249.999 272.217C246.816 266.152 245.628 258.399 239.814 254.726C237.046 252.962 233.677 252.495 230.528 251.545C227.379 250.595 224.374 250.239 223.236 247.143Z" fill="#FFFF00"/>
<path d="M293.815 346.941L500.975 553.918C517.467 570.4 501.926 612.635 466.284 648.254C430.643 683.873 388.381 699.396 371.888 682.923L164.728 475.928C153.524 464.733 145.629 450.664 141.912 435.271C137.032 415.006 129.91 386.436 124.868 370.234C116.992 345.007 68.7538 293.415 62.5405 286.807C70.1798 285.162 80.6031 280.242 89.3034 271.539C98.0037 262.835 102.884 252.427 104.582 244.818C111.194 251.087 162.802 299.226 188.045 307.073C204.257 312.111 232.845 319.228 253.123 324.106C268.532 327.829 282.613 335.731 293.815 346.941Z" fill="#262B24"/>
<path d="M68.9404 284.95C68.9404 284.95 127.406 349.486 131.141 369.098L135.572 364.67L134.485 355.78L165.297 376.893L205.997 384.265L210.241 352.497L196.482 347.654L190.651 338.187L181.942 336.227C181.942 336.227 191.279 335.71 184.37 328.508L164.143 318.151C148.978 307.74 134.383 296.524 120.421 284.551L114.199 280.157L107.612 279.572C107.612 279.572 96.0004 279.071 92.9022 277.519C89.8041 275.967 85.9081 274.533 85.9081 274.533L68.9404 284.95Z" fill="#475B18"/>
<path d="M79.0327 279.674C84.6688 284.314 87.0115 296.546 91.4508 301.729C95.89 306.911 110.838 315.962 110.838 315.962C110.838 315.962 106.475 316.251 105.897 318.719C105.32 321.188 123.281 341.707 125.632 352.082L120.14 348.409L99.4041 317.803L81.4094 299.828L68.9404 284.95C68.9404 284.95 72.5224 284.916 79.0327 279.674Z" fill="#262B24"/>
<path d="M417.52 417.703C410.916 411.129 399.483 415.388 382.625 429.919C365.768 444.449 324.431 387.047 324.431 387.047L351.941 380.074L401.231 392.747L417.52 417.72V417.703Z" fill="#262B24"/>
<path d="M370.666 676.069C370.666 676.069 376.378 683.389 380.681 684.025C384.985 684.662 416.535 692.364 465.375 643.258C514.216 594.152 501.721 560.747 501.721 560.747L493.895 552.926C493.895 552.926 503.597 584.015 454.112 635.666C404.626 687.317 370.666 676.069 370.666 676.069Z" fill="#475B18"/>
<path d="M474.076 616.088C486.018 601.582 487.733 606.884 490.449 602.388C491.833 600.098 499.396 588.146 499.396 588.146L500.94 569.959L499.446 559.949L495.703 558.16C495.703 558.16 494.065 590.012 474.076 616.088Z" fill="#262B24"/>
<path d="M222.532 318.677C219.671 317.404 216.777 316.276 214.044 314.817C213.507 314.541 213.026 314.167 212.626 313.714C203.408 311.288 194.801 308.913 188.299 306.877C172.792 302.051 147.361 282.032 128.501 265.855C127.712 266.069 126.879 266.061 126.094 265.832C125.309 265.603 124.603 265.162 124.053 264.557C123.086 263.573 122.075 262.479 121.031 261.444C119.963 261.269 118.965 260.802 118.145 260.096C116.686 258.696 114.36 256.889 112.204 257.831C109.87 258.866 111.075 261.555 111.737 262.148C131.837 280.149 165.577 308.413 185.821 314.741C193.503 317.133 203.841 319.958 214.808 322.808C215.24 322.808 221.462 324.437 224.204 324.352C225.621 324.309 227.48 324.776 228.321 323.622C230.027 321.315 224.212 319.423 222.532 318.677Z" fill="#475B18"/>
<path d="M256.62 324.784L257.197 325.633C258.725 327.931 257.469 331.019 255.339 332.359C255.07 332.524 254.786 332.66 254.49 332.767C267.231 336.366 278.842 343.157 288.221 352.497L495.373 559.551C500.873 565.039 500.983 576.465 495.678 590.937C489.524 607.656 477.098 625.894 460.69 642.299C426.102 676.849 389.289 688.292 377.923 676.917L170.763 469.94C160.624 459.822 153.482 447.098 150.129 433.176C145.087 412.283 138.025 383.976 132.932 367.613C126.142 345.991 71.9537 284.118 71.8179 284.22C69.3479 285.696 65.2821 285.348 62.7866 286.629C77.7341 302.975 118.545 349.036 125.106 370.065C130.156 386.267 137.269 414.828 142.159 435.101C145.87 450.494 153.766 464.561 164.975 475.75L372.109 682.736C388.601 699.218 430.846 683.703 466.505 648.076C502.163 612.449 517.679 570.222 501.187 553.749L294.027 346.704C283.636 336.325 270.757 328.779 256.62 324.784Z" fill="#475B18"/>
<path d="M474.611 552.748C467.089 556.342 459.859 560.514 452.983 565.226C446.091 569.856 439.439 574.833 433.053 580.138C420.305 590.786 408.66 602.688 398.294 615.663C388.109 628.608 378.593 642.554 373.271 657.89C372.915 658.84 372.677 659.807 372.423 660.774L372.024 662.199C371.932 662.597 371.861 662.999 371.812 663.404C371.645 665.034 371.893 666.68 372.533 668.188C373.204 669.695 374.266 670.994 375.61 671.952C376.953 672.91 378.528 673.49 380.172 673.634C384.084 673.823 388.001 673.405 391.784 672.396C395.715 671.399 399.561 670.091 403.285 668.485L405.212 672.989C401.256 674.723 397.169 676.141 392.989 677.231C388.674 678.408 384.2 678.901 379.731 678.69C377.816 678.537 375.952 678.001 374.25 677.112C372.547 676.224 371.042 675.002 369.822 673.519C368.603 672.036 367.695 670.323 367.153 668.481C366.611 666.64 366.446 664.708 366.668 662.802C366.744 662.171 366.855 661.546 366.999 660.927L367.457 659.332C367.771 658.297 368.051 657.237 368.433 656.228C374.282 639.898 384 625.69 394.661 612.652C405.451 599.645 417.523 587.754 430.693 577.161C437.229 571.804 444.167 566.958 451.447 562.664C458.704 558.482 466.453 554.851 474.611 552.748Z" fill="#475B18"/>
<path d="M407.555 623.171C411.259 615.972 416.136 609.439 421.984 603.839C424.878 601.002 427.954 598.358 431.194 595.924C434.396 593.444 437.891 591.368 441.6 589.74C438.358 592.133 435.387 594.771 432.408 597.375C429.428 599.979 426.551 602.753 423.724 605.552C418.036 611.145 412.639 617.025 407.555 623.171Z" fill="#475B18"/>
<path d="M355.752 439.648C348.181 450.989 336.323 460.007 323.353 467.819C309.647 475.916 295.111 482.522 279.996 487.524C264.158 492.716 247.156 496.855 227.99 497.814C223.016 498.063 218.031 497.983 213.068 497.576C207.555 497.169 202.115 496.078 196.873 494.327C193.972 493.352 191.204 492.021 188.631 490.366C186.141 488.775 183.968 486.735 182.222 484.352C180.927 482.583 180.004 480.569 179.511 478.433C179.018 476.296 178.964 474.082 179.353 471.925C180.762 464.638 185.134 458.912 190.048 453.712C195.232 448.459 200.982 443.796 207.194 439.809C219.858 431.505 234.288 424.727 249.634 418.984C265.79 412.922 282.551 408.613 299.629 406.133C309.08 404.751 318.639 404.245 328.183 404.623C333.508 404.833 338.798 405.583 343.971 406.863C349.327 408.228 355.498 410.756 359.682 414.989L355.133 416.855C352.493 414.243 348.215 412.419 343.708 411.333C339.159 410.291 334.52 409.697 329.855 409.56C320.854 409.311 311.848 409.902 302.957 411.325C286.422 413.954 270.195 418.245 254.524 424.133C239.525 429.791 225.452 436.476 213.229 444.551C207.263 448.394 201.705 452.837 196.643 457.81C191.907 462.662 187.85 468.082 186.627 474.173C186.306 475.718 186.301 477.313 186.612 478.861C186.922 480.409 187.543 481.879 188.435 483.181C190.337 485.964 193.868 488.271 198.154 489.713C206.812 492.69 216.582 493.106 225.554 492.767C243.701 491.918 260.567 488.169 276.321 483.359C284.24 480.976 291.854 478.219 299.239 475.208C306.512 472.316 313.632 469.051 320.569 465.427C333.963 458.2 346.679 450.141 355.752 439.648Z" fill="#475B18"/>
<path d="M456.701 638.27C419.048 675.899 375.258 691.091 357.008 672.854L362.22 667.654C377.032 682.456 417.91 666.619 451.489 633.07C485.068 599.521 500.907 558.66 486.095 543.858L491.307 538.649C509.547 556.887 494.345 600.641 456.701 638.27Z" fill="#475B18"/>
<path d="M469.102 650.671C431.449 688.292 387.701 703.518 369.511 685.34L162.343 478.304C150.663 466.623 142.439 451.946 138.576 435.89C133.594 415.184 126.591 387.124 121.6 371.091C113.961 346.559 65.5789 294.891 60.1126 289.081C59.6709 288.61 59.3611 288.031 59.2143 287.403C59.0676 286.775 59.0891 286.119 59.2767 285.501C59.4643 284.884 59.8114 284.327 60.2829 283.886C60.7545 283.445 61.334 283.136 61.963 282.99C68.5243 281.582 78.5232 277.095 86.8925 268.731C95.2617 260.367 99.7349 250.4 101.144 243.834C101.281 243.198 101.585 242.61 102.025 242.13C102.464 241.65 103.023 241.295 103.645 241.102C104.266 240.909 104.928 240.884 105.563 241.03C106.197 241.176 106.781 241.488 107.255 241.934C133.568 266.687 170.916 297.623 189.335 303.374C205.377 308.362 233.473 315.36 254.175 320.339C270.24 324.201 284.927 332.42 296.616 344.091L503.793 551.136C522.016 569.323 506.738 613.042 469.102 650.671ZM69.5259 288.411C83.9556 304.019 121.464 346.05 128.594 368.894C133.687 385.122 140.69 413.343 145.706 434.16C149.26 448.895 156.818 462.364 167.546 473.078L374.706 680.14C389.475 694.9 430.32 679.029 463.899 645.472C497.477 611.914 513.367 571.096 498.589 556.336L291.429 349.308C280.706 338.586 267.226 331.036 252.478 327.49C231.648 322.477 203.408 315.445 187.171 310.389C164.55 303.34 122.296 265.787 106.627 251.358C103.462 259.831 98.511 267.525 92.1096 273.918C85.7083 280.311 78.0063 285.253 69.5259 288.411Z" fill="#262B24"/>
<path d="M47.2619 229.108C36.499 239.839 30.2264 251.935 30.5574 259.833C30.6321 261.279 31.0488 262.688 31.7732 263.942C32.4976 265.197 33.5092 266.263 34.725 267.051C38.0809 269.22 41.2318 271.69 44.1383 274.431C46.1506 276.498 47.9375 278.773 49.4688 281.217C50.5915 283.027 52.1749 284.505 54.057 285.502C55.939 286.499 58.0524 286.979 60.1808 286.892C68.4397 286.451 79.8222 281.005 89.4901 271.344C103.623 257.22 108.75 239.449 102.383 233.087L84.0322 214.756C77.8699 208.563 61.3946 214.985 47.2619 229.108Z" fill="#475B18"/>
<path d="M92.1128 273.931C82.377 283.669 70.2221 290.048 60.4014 290.557C57.6215 290.679 54.8589 290.061 52.3966 288.766C49.9342 287.471 47.8605 285.545 46.3876 283.185C45.0087 280.971 43.4014 278.907 41.5918 277.027C38.848 274.461 35.8762 272.15 32.7133 270.122C31.0122 269.012 29.599 267.514 28.5897 265.752C27.5804 263.99 27.0039 262.013 26.9075 259.985C26.5255 250.824 33.5112 237.676 44.69 226.504C60.7579 210.446 78.812 204.28 86.689 212.152L105.032 230.483C113.291 238.762 107.391 258.662 92.1128 273.931ZM49.8677 231.704C38.7229 242.833 33.9865 253.759 34.2242 259.697C34.277 260.563 34.5356 261.404 34.9784 262.151C35.4212 262.897 36.0356 263.527 36.7706 263.989C40.3493 266.286 43.7028 268.916 46.7865 271.844C48.9918 274.094 50.9496 276.574 52.6263 279.241C53.4009 280.5 54.4955 281.531 55.7986 282.23C57.1017 282.929 58.5669 283.27 60.0449 283.219C68.0067 282.795 78.5659 277.112 86.9521 268.731C100.762 254.921 103.86 239.695 99.837 235.648L81.4858 217.351C77.8699 213.763 64.1022 217.479 49.8677 231.704Z" fill="#262B24"/>
<path d="M86.672 212.151C87.9578 213.57 88.8605 215.292 89.2948 217.156C89.6776 218.775 89.7895 220.446 89.6259 222.102C89.3113 225.016 88.5349 227.862 87.3256 230.533C85.0616 235.489 82.0973 240.094 78.5235 244.207C75.1135 248.304 71.2525 252.003 67.0137 255.235C62.7366 258.302 58.0804 260.802 53.1611 262.674C57.7687 260.285 62.0482 257.312 65.8932 253.827C69.57 250.273 72.8358 246.318 75.6291 242.036C78.4418 237.908 80.6512 233.401 82.1903 228.65C82.9025 226.459 83.2551 224.168 83.2344 221.864C83.1834 219.735 82.4789 218.089 81.5368 217.36L86.672 212.151Z" fill="#262B24"/>
<path d="M62.559 245.772C72.3509 235.986 78.002 225.768 75.1811 222.949C72.3602 220.129 62.1355 225.777 52.3436 235.563C42.5517 245.348 36.9006 255.567 39.7215 258.386C42.5423 261.205 52.7671 255.557 62.559 245.772Z" fill="#262B24"/>
<path d="M234.016 349.723C233.889 349.859 233.762 350.003 233.643 350.156C231.563 352.854 232.998 357.434 236.843 360.386C240.467 363.16 244.94 363.499 247.173 361.234C247.311 361.1 247.439 360.956 247.555 360.802C249.626 358.104 248.191 353.524 244.355 350.58C240.73 347.798 236.257 347.459 234.016 349.732V349.723Z" fill="#63891A"/>
<path d="M217.982 341.724C217.882 341.823 217.791 341.931 217.71 342.047C216.666 343.54 217.473 345.906 219.518 347.34C221.403 348.655 223.678 348.722 224.84 347.569C224.938 347.467 225.029 347.36 225.112 347.246C226.156 345.754 225.341 343.387 223.296 341.953C221.411 340.63 219.136 340.562 217.982 341.724Z" fill="#63891A"/>
<path d="M365.318 462.509C371.892 467.053 378.185 471.991 384.162 477.294C390.143 482.52 395.94 487.929 401.554 493.522C407.167 499.114 412.583 504.908 417.8 510.903C423.111 516.871 428.049 523.16 432.586 529.734C426.008 525.199 419.715 520.264 413.743 514.957C407.762 509.732 401.964 504.32 396.351 498.721C390.737 493.123 385.325 487.326 380.113 481.332C374.804 475.363 369.864 469.077 365.318 462.509Z" fill="#475B18"/>
<path d="M350.057 428.952C360.365 436.553 370.281 444.673 379.765 453.28C389.331 461.762 398.549 470.534 407.572 479.534C416.595 488.534 425.397 497.754 433.885 507.314C442.501 516.787 450.623 526.697 458.22 537.004C447.894 529.411 437.964 521.293 428.469 512.684C418.912 504.201 409.694 495.422 400.671 486.388C391.648 477.354 382.846 468.158 374.409 458.598C365.795 449.134 357.667 439.239 350.057 428.952Z" fill="#475B18"/>
<path d="M389.109 655.68C390.475 654.315 387.546 649.175 382.567 644.199C377.588 639.224 372.445 636.297 371.079 637.661C369.714 639.026 372.643 644.166 377.621 649.142C382.6 654.117 387.743 657.045 389.109 655.68Z" fill="#63891A"/>
<path d="M441.583 652.232C446.048 648.517 450.072 644.598 454.112 640.543C456.132 638.541 458.093 636.48 460.054 634.419C462.014 632.357 463.941 630.262 465.809 628.023C464.764 630.756 463.335 633.327 461.564 635.657C459.834 638.004 457.933 640.221 455.877 642.291C453.822 644.359 451.611 646.267 449.265 647.999C446.917 649.766 444.331 651.191 441.583 652.232Z" fill="#262B24"/>
<path d="M457.686 645.947C459.748 642.969 462.091 640.484 464.272 637.863C466.454 635.242 468.567 632.663 470.85 629.864C470.203 633.434 468.571 636.754 466.14 639.449C463.823 642.198 460.939 644.415 457.686 645.947Z" fill="#262B24"/>
<path d="M379.621 680.183C383.423 679.759 387.022 679.555 390.655 679.139C392.463 678.987 394.246 678.732 396.054 678.486C397.861 678.24 399.661 677.909 401.588 677.706C398.439 679.927 394.751 681.263 390.91 681.574C389.011 681.777 387.096 681.777 385.197 681.574C383.278 681.398 381.397 680.929 379.621 680.183Z" fill="#262B24"/>
<path d="M411.044 674.711C411.315 675.415 409.838 676.62 407.75 677.409C405.662 678.198 403.752 678.257 403.506 677.57C403.26 676.883 404.72 675.661 406.808 674.873C408.896 674.084 410.823 674.016 411.044 674.711Z" fill="#262B24"/>
<path d="M65.3584 267.204C67.1974 265.924 68.9655 264.545 70.655 263.073C72.3526 261.614 73.9823 260.163 75.578 258.628C77.1738 257.093 78.7526 255.557 80.3059 253.98C81.8771 252.379 83.3429 250.679 84.6942 248.89C84.1702 251.162 83.1787 253.299 81.7828 255.167C80.4497 257.066 78.9283 258.825 77.2417 260.418C75.558 262.008 73.7213 263.429 71.7584 264.659C69.8109 265.915 67.637 266.78 65.3584 267.204Z" fill="#262B24"/>
<path d="M84.6348 259.756C86.57 257.033 88.4035 254.599 90.135 251.995C90.9838 250.722 91.8326 249.407 92.6815 248.084C93.5301 246.729 94.2736 245.311 94.9053 243.843C95.1976 245.524 95.0304 247.253 94.4215 248.848C93.8748 250.435 93.1213 251.944 92.1807 253.335C90.3648 256.182 87.7362 258.418 84.6348 259.756Z" fill="#262B24"/>
<path d="M77.2418 228.184C77.8699 226.385 79.0243 223.561 80.7304 223.535C84.0323 223.433 81.7405 233.273 79.7882 236.446C78.6502 238.125 77.974 240.073 77.8275 242.095L80.1193 241.154C80.1193 241.154 83.6163 236.336 85.959 235.733C88.3018 235.131 89.227 239.296 91.0519 239.55C92.8768 239.805 94.6763 238.55 97.4943 241.943C100.312 245.336 101.467 248.33 100.109 251.528C99.6941 252.368 99.5095 253.302 99.5736 254.237C99.6377 255.171 99.9482 256.071 100.474 256.847C100.474 256.847 107.799 242.155 103.266 234.122L83.6418 214.501L79.1007 212.983L75.1792 222.95L77.2418 228.184Z" fill="#262B24"/>
<path d="M34.8013 263.947C32.883 261.741 33.1037 256.609 35.404 255.252C37.7042 253.895 38.587 255.583 39.0029 256.813C39.4188 258.043 41.5493 255.888 41.5493 255.888C41.684 254.686 41.7322 253.475 41.6936 252.266C41.5239 252.164 33.3838 248.211 33.3838 248.211C33.3838 248.211 29.9886 255.422 30.5064 258.933C31.0241 262.445 31.3552 264.659 33.5536 266.203C35.752 267.747 34.8013 263.947 34.8013 263.947Z" fill="#262B24"/>
<path d="M378.814 454.204C382.303 457.691 402.36 475.123 404.542 473.087C406.723 471.051 390.961 455.002 387.031 451.227C383.101 447.452 385.426 445.561 385.426 445.561L414.939 474.037L470.961 530.616C470.961 530.616 446.031 511.369 442.543 507.713C439.054 504.057 421.968 485.997 419.786 488.203C417.605 490.408 429.454 504.32 430.931 506.017C432.408 507.713 426.984 505.889 426.984 505.889L394.729 473.655L377.388 456.325L378.814 454.204Z" fill="#475B18"/>
<path d="M200.234 373.653C189.912 377.284 167.835 355.797 167.835 355.797L123.629 353.074C123.629 353.074 140.928 375.689 148.635 406.625C156.342 437.561 160.841 440.912 160.841 440.912C162.36 442.77 164.974 444.034 169.38 444.619C163.2 433.685 161.817 424.574 162.224 415.71C162.292 422.318 169.566 438.299 173.42 444.967C175.525 449.921 181.857 456.978 184.972 460.091L356.015 631.026C357.095 632.104 358.559 632.71 360.085 632.71C361.612 632.71 363.076 632.104 364.155 631.026C365.235 629.947 365.841 628.484 365.841 626.958C365.841 625.433 365.235 623.969 364.155 622.891L199.343 458.174C195.051 453.883 191.106 449.26 187.544 444.348C180.109 435.152 172.266 420.672 169.176 410.018C174.379 422.377 185.388 435.992 192.094 443.601C206.846 440.836 223.949 433.982 237.182 421.309C264.073 395.589 268.979 396.505 260.202 381.737C251.425 366.969 210.555 370.022 200.234 373.653Z" fill="#63891A"/>
<path d="M157.776 310.466C157.776 310.466 171.154 319.177 178.479 320.764C178.479 320.764 175.533 316.353 175.44 314.894L157.776 310.466Z" fill="#475B18"/>
<path d="M190.337 307.514L187.782 292.839L216.904 292.771L239.576 320.568L190.337 307.514Z" fill="#262B24"/>
<path d="M432.34 436.009C435.829 418.577 432.917 395.912 429.14 392.137C425.363 388.362 394.441 379.939 394.441 379.939C394.441 379.939 369.639 352.438 360.141 345.245C350.643 338.051 343.317 334.938 334.558 329.365C317.997 318.838 290.776 295.434 287.245 277.46C287.02 276.165 286.473 274.947 285.654 273.918C284.836 272.89 283.772 272.083 282.56 271.573C277.993 269.723 270.982 266.483 267.493 262.734C262.07 256.923 222.507 231.348 206.244 225.927C199.852 211.405 160.119 190.682 154.466 184.286C148.813 177.89 138.874 156.989 121.38 142.28C116.533 138.217 84.5501 143.442 82.0376 145.571C71.7586 141.118 48.0853 135.307 41.7193 139.76C35.3532 144.214 34.8354 146.445 34.5469 148.676C34.2583 150.907 33.5792 168.042 27.8583 174.531C23.8858 175.014 18.5214 174.531 17.0105 188.476C11.5781 192.353 9.25241 196.221 8.52243 198.401C7.79246 200.581 8.13198 204.212 7.59723 207.172C7.06248 210.133 5.39882 212.16 5.09325 213.763C4.78768 215.366 8.16593 220.023 8.16593 220.023C8.16593 220.023 0.000411034 236.607 5.69591 240.823C11.3914 245.039 23.1813 245.064 29.6747 246.88C36.1681 248.695 45.836 254.624 45.836 254.624C45.836 254.624 51.1665 255.303 63.228 244.114C75.2896 232.926 76.0196 222.908 76.0196 222.908L78.218 218.853C78.4049 218.502 78.6774 218.203 79.0103 217.985C79.3431 217.767 79.7256 217.637 80.1223 217.605C80.5191 217.574 80.9173 217.643 81.2803 217.806C81.6432 217.97 81.9591 218.222 82.1989 218.539C86.358 224.044 95.4148 235.547 101.195 239.364C108.902 244.454 120.191 246.532 126.006 250.391C131.82 254.251 166.477 297.301 217.906 306.589C217.906 306.589 255.67 340.842 266.135 349.367C276.601 357.892 291.336 378.03 300.249 381.907C309.161 385.783 395.799 396.819 410.916 411.155C426.034 425.491 432.34 436.009 432.34 436.009Z" fill="#827A59"/>
<path d="M434.08 446.061L429.182 437.909C429.123 437.807 422.884 427.543 408.387 413.793C398.668 404.581 352.671 396.03 325.204 390.89C309.925 388.048 301.777 386.504 298.806 385.215C292.864 382.628 285.581 374.705 277.874 366.315C272.993 360.997 267.952 355.5 263.843 352.158C255.661 345.499 231.478 323.732 220.699 313.986C218.67 312.154 216.998 315.097 216.115 314.3C173.106 306.131 138.712 276.688 125.454 263.599C123.205 261.376 115.811 253.878 111.873 252.444C110.082 251.791 110.294 247.694 108.41 246.939C105.197 245.722 102.117 244.182 99.2172 242.341C93.5896 238.634 85.5514 228.811 80.5435 222.297L79.6438 223.993C79.1769 226.894 76.8427 236.497 65.7912 246.761C53.4241 258.221 47.1175 258.424 45.4199 258.221L44.6474 258.119L43.9684 257.712C43.8835 257.652 34.6315 252.045 28.6899 250.357C26.2114 249.758 23.7004 249.302 21.1694 248.992C14.9986 248.084 8.00445 247.058 3.51426 243.724C-3.14888 238.77 1.2819 226.284 3.93017 220.32C0.908421 215.655 1.31585 213.721 1.48561 212.94C1.75741 211.865 2.1623 210.828 2.69091 209.853C3.28102 208.789 3.71551 207.646 3.9811 206.46C4.14592 205.265 4.23382 204.061 4.24423 202.854C4.23709 200.96 4.48839 199.074 4.99118 197.247C5.57686 195.5 7.5376 191.106 13.4793 186.466C15.2787 173.852 20.6686 171.698 25.8124 171.053C28.1721 167.439 29.8018 160.322 30.6676 149.846C30.7355 149.074 30.7864 148.498 30.8289 148.192C31.3297 144.35 32.866 141.406 39.5376 136.741C48.2209 130.735 73.4305 138.267 82.1223 141.66C90.8225 138.768 117.772 134.51 123.714 139.48C136.37 150.109 145.299 163.978 151.207 173.148C153.046 176.183 155.064 179.107 157.25 181.902C158.829 183.692 164.889 187.67 171.332 191.886C185.609 201.217 203.205 212.762 208.866 223.001C226.428 229.515 264.378 254.064 270.175 260.274C272.433 262.691 277.45 265.584 283.926 268.205C285.705 268.946 287.27 270.12 288.479 271.619C289.689 273.118 290.505 274.895 290.852 276.789C294.01 292.906 319.457 315.453 336.518 326.303C339.659 328.296 342.672 330.018 345.6 331.681C351.425 334.846 357.021 338.415 362.347 342.36C371.2 349.036 392.191 372.05 396.444 376.698C406.528 379.472 427.85 385.673 431.729 389.566C437.153 394.978 439.368 419.68 435.973 436.755L434.08 446.061ZM76.0448 215.638C76.6568 215.029 77.3922 214.558 78.2016 214.257C79.011 213.956 79.8755 213.832 80.737 213.893C81.5984 213.954 82.4367 214.199 83.1955 214.611C83.9542 215.023 84.6158 215.593 85.1355 216.283C92.7154 226.318 99.4804 233.791 103.224 236.251C106.967 238.711 111.78 240.492 116.44 242.189C120.819 243.775 124.928 245.276 128.043 247.329C129.358 248.177 131.192 250.018 134.231 253.021C147.107 265.745 177.257 295.511 218.559 302.975L219.595 303.162L220.376 303.866C220.749 304.214 258.19 338.153 268.461 346.517C272.985 350.198 278.214 355.899 283.264 361.404C289.791 368.512 297.193 376.571 301.717 378.539C304.051 379.548 314.967 381.576 326.528 383.73C366.379 391.136 403.014 398.6 413.446 408.491C419.37 414.05 424.884 420.029 429.946 426.381C431.109 411.579 428.503 396.98 426.551 394.758C424.293 392.773 407.623 387.361 393.499 383.51L392.463 383.23L391.742 382.432C391.495 382.161 367.058 355.101 357.951 348.23C352.875 344.47 347.543 341.069 341.993 338.051C338.997 336.355 335.899 334.582 332.605 332.487C315.018 321.298 287.474 297.606 283.663 278.197C283.549 277.504 283.265 276.849 282.835 276.292C282.406 275.735 281.844 275.294 281.201 275.008C275.862 272.845 268.682 269.401 264.828 265.278C259.667 259.748 220.546 234.597 205.114 229.456L203.561 228.939L202.907 227.446C199.113 218.836 179.99 206.315 167.342 198.028C158.812 192.446 153.889 189.163 151.758 186.746C149.318 183.686 147.081 180.47 145.061 177.118C139.052 167.787 130.818 155.012 119.011 145.104C115.251 142.907 88.709 146.402 84.2103 148.548L82.657 149.863L80.5605 148.956C68.9488 143.917 47.9833 139.879 43.8156 142.789C38.536 146.453 38.3578 147.827 38.188 149.159C38.188 149.405 38.1201 149.855 38.0692 150.474C37.3477 159.008 35.8029 171.053 30.5572 176.957L29.7084 178.009L27.4082 178.28C24.3949 178.586 21.7976 178.849 20.6771 188.884L19.1663 191.428C13.6235 195.381 12.2485 198.876 12.0363 199.529C11.7858 200.72 11.6606 201.934 11.6628 203.151C11.6256 204.706 11.4838 206.256 11.2384 207.791C10.8606 209.651 10.2144 211.445 9.3201 213.118C9.1758 213.407 8.99755 213.763 8.87023 214.052C9.50992 215.372 10.2715 216.63 11.145 217.809L12.4522 219.599L11.4846 221.593C7.84317 229.057 6.48508 236.768 7.92805 237.837C10.9328 240.068 16.9509 240.959 22.2644 241.731C25.1231 242.084 27.9577 242.611 30.7525 243.308C36.3885 244.903 43.9599 249.17 46.761 250.807C48.3567 250.417 52.9063 248.729 60.8257 241.391C71.5292 231.475 72.4459 222.661 72.4544 222.568L72.5223 221.839L75.0687 217.063C75.3228 216.543 75.6517 216.063 76.0448 215.638Z" fill="#262B24"/>
<path d="M215.139 308.99L207.703 294.238L220.673 304.146L215.139 308.99Z" fill="#262B24"/>
<path d="M393.558 383.51C386.328 381.849 379.216 379.71 372.27 377.105C365.338 374.586 358.538 371.715 351.899 368.504C338.592 362.195 325.818 354.819 313.702 346.449C301.612 338.096 290.122 328.907 279.317 318.948C268.61 308.954 258.904 297.94 250.339 286.061C261.501 295.545 272.179 305.232 283.4 314.274C294.511 323.392 306.093 331.92 318.099 339.824C330.074 347.676 342.55 354.737 355.447 360.963C368.382 367.011 381.658 372.533 395.298 376.342L393.558 383.51Z" fill="#262B24"/>
<path d="M201.21 245.717C210.547 247.524 219.638 250.807 228.372 254.463C237.106 258.119 245.687 262.403 254.125 266.788C262.562 271.174 270.821 275.899 278.944 280.861C283.009 283.347 287.075 285.823 291.031 288.496C293.017 289.81 294.995 291.193 296.972 292.618C299.108 294.109 301.123 295.765 302.999 297.572L297.626 302.594C296.344 301.457 294.409 300.049 292.533 298.726C290.657 297.402 288.747 296.088 286.787 294.807C282.882 292.262 278.961 289.666 274.997 287.172C267.041 282.184 259.011 277.296 250.908 272.506C242.827 267.688 234.594 263.175 226.343 258.628C218.093 254.081 209.859 249.687 201.21 245.717Z" fill="#262B24"/>
<path d="M299.315 331.341C308.142 337.831 309.068 335.49 311.3 336.94C313.532 338.391 317.938 338.543 313.524 333.844C309.11 329.144 292.304 314.453 292.304 314.453C292.304 314.453 307.684 323.868 314.084 329.679C320.484 335.49 347.773 361.913 347.773 361.913C347.773 361.913 311.173 342.199 299.315 331.341Z" fill="#262B24"/>
<path d="M20.6431 188.824C19.6435 193.175 18.9598 197.591 18.5975 202.04C18.2834 206.511 18.1051 211.074 19.4038 215.494C16.9593 211.541 15.8388 206.833 14.9221 202.252C14.0503 197.589 13.5141 192.869 13.3179 188.129L20.6431 188.824Z" fill="#262B24"/>
<path d="M152.242 187.212C145.231 181.767 118.29 162.528 114.394 160.289C112.153 159.44 101 159.839 81.3924 161.485C79.3553 161.654 77.8104 161.781 77.0041 161.832C75.4168 161.926 70.3834 165.225 67.056 167.448C62.812 170.247 58.4491 173.14 54.5701 174.658C46.2433 177.924 34.3091 178.102 27.8921 178.204L27.7817 170.858C33.7234 170.765 44.8003 170.595 51.8879 167.821C55.0369 166.583 59.0857 163.911 62.9987 161.323C69.2035 157.226 73.1844 154.698 76.5797 154.495C77.3521 154.495 78.846 154.325 80.8237 154.156C105.439 152.103 114.818 152.035 118.095 153.91C122.551 156.454 150.103 176.202 156.8 181.41L152.242 187.212Z" fill="#262B24"/>
<path d="M98.1986 159.474C98.0967 159.398 87.3848 151.882 80.5688 148.973L83.4548 142.186C90.9922 145.401 101.976 153.121 102.443 153.443L98.1986 159.474Z" fill="#262B24"/>
<path d="M83.2852 173.479L116.957 176.202C117.103 176.214 117.246 176.248 117.382 176.304L118.103 176.626C130.241 184.379 142.289 192.234 154.245 200.191C160.187 204.186 166.171 208.216 172.07 212.355C175.013 214.419 177.927 216.529 180.813 218.683C182.248 219.76 183.674 220.872 185.057 222C186.493 223.09 187.772 224.371 188.86 225.809C187.666 224.479 186.292 223.322 184.777 222.373C183.3 221.366 181.801 220.388 180.278 219.438C177.248 217.538 174.167 215.697 171.069 213.899C164.872 210.294 158.617 206.79 152.344 203.33C139.782 196.419 127.146 189.633 114.436 182.971L115.582 183.404L83.2852 173.479Z" fill="#262B24"/>
<path d="M120.59 219.752C127.865 224.842 134.884 230.211 142.099 235.173C145.724 237.608 149.331 240.059 153.134 242.129C156.732 244.295 160.602 245.972 164.643 247.117C173.279 249.163 181.783 251.729 190.108 254.802C198.392 257.949 206.787 261.351 214.01 266.636C205.845 263.166 197.365 260.884 188.928 258.433C180.491 255.981 172.037 253.844 163.379 251.859C154.144 249.204 146.776 243.766 139.816 238.219C132.935 232.574 126.507 226.4 120.59 219.752Z" fill="#262B24"/>
<path d="M34.0967 197.324C38.6262 195.06 43.3023 193.102 48.0935 191.462C52.9757 189.871 58.0257 188.849 63.1429 188.417C73.4049 187.475 83.4293 188.256 93.4707 188.553C98.592 188.769 103.695 189.304 108.749 190.156C113.841 191.092 118.806 192.618 123.544 194.703C133.034 198.825 141.225 205.085 148.516 212.007C139.968 206.68 131.378 201.497 122.126 198.248C112.874 195 103.215 193.82 93.267 193.447C83.319 193.074 73.2097 192.073 63.389 192.217C58.4655 192.286 53.5587 192.806 48.7301 193.77C43.8325 194.728 38.9943 196.094 34.0967 197.324Z" fill="#262B24"/>
<path d="M52.8216 252.147C52.8216 252.147 35.9303 239.466 26.9924 214.824C27.2046 220.278 32.1786 232.009 32.1786 232.009C32.1786 232.009 24.1573 223.179 22.4852 219.328C22.8417 223.179 26.6274 229.575 29.6067 233.273C26.4067 232.111 21.8571 227.454 19.0645 223.942C21.1356 228.65 25.804 235.615 29.9717 237.557C25.6767 237.625 16.2295 232.247 16.2295 232.247C16.2295 232.247 25.0995 239.949 31.6438 242.129C38.1881 244.309 50.1563 253.488 50.1563 253.488L52.8216 252.147Z" fill="#262B24"/>
<path d="M11.0941 217.826C12.3928 219.574 13.5471 221.287 14.693 223.052C15.8389 224.816 16.9254 226.589 17.9355 228.387C16.0766 227.471 14.2177 226.64 12.3333 225.843C10.449 225.045 8.53918 224.316 6.69727 223.688L11.0941 217.826Z" fill="#262B24"/>
<path d="M87.1475 208.818C91.3915 209.013 95.3724 211.032 98.9119 213.314C102.435 215.66 105.728 218.332 108.75 221.296C114.776 227.14 120.115 233.528 125.446 239.618C127.942 242.628 130.663 245.444 133.586 248.042C135.988 250.273 139.841 251.757 143.457 253.555C150.85 256.948 158.447 260.155 165.925 263.548C180.975 270.198 196.007 276.959 210.827 284.203C218.229 287.842 225.605 291.566 232.811 295.604L238.21 298.658L243.489 301.924C247.01 304.105 250.318 306.613 253.369 309.414C250.005 307.075 246.457 305.013 242.759 303.247L237.217 300.592L231.597 298.047C224.094 294.739 216.523 291.558 208.926 288.436L163.26 269.774C155.621 266.67 148.066 263.429 140.478 260.062C138.56 259.154 136.701 258.365 134.732 257.347C133.738 256.804 132.754 256.355 131.761 255.727C130.763 255.064 129.8 254.35 128.875 253.589C125.667 250.695 122.711 247.534 120.039 244.14C114.776 237.65 110.082 230.991 105.015 224.672C102.551 221.493 99.8893 218.473 97.0446 215.629C94.1331 212.915 91.0689 210.277 87.1475 208.818Z" fill="#262B24"/>
<path d="M164.864 273.897C162.232 281.175 190.481 300.397 213.942 301.957L220.214 308.659L214.061 306.029C214.061 306.029 182.748 301.135 161.961 283.584C141.174 266.033 126.005 250.366 126.005 250.366L128.654 248.491C128.654 248.491 134.001 254.319 140.376 256.126C146.75 257.932 176.093 271.615 176.093 271.615L193.205 278.978L192.357 280.734C192.357 280.734 167.631 268.816 164.864 273.897Z" fill="#262B24"/>
<path d="M50.9287 152.595C55.3105 153.504 59.7484 154.119 64.2125 154.435C68.6603 154.826 73.142 155.097 77.5728 155.284L76.9531 160.144C72.5054 159.135 68.1425 158.058 63.7712 156.862C59.401 155.723 55.1108 154.298 50.9287 152.595Z" fill="#262B24"/>
<path d="M54.0947 156.929C57.1825 157.466 60.3009 157.809 63.4316 157.956L68.1085 158.185L72.8618 158.354L71.9621 163.173L67.4889 161.807L62.9648 160.365C59.9401 159.403 56.9777 158.256 54.0947 156.929Z" fill="#262B24"/>
<path d="M57.2944 161.34C60.8573 161.638 64.4367 161.686 68.0064 161.485L67.1066 166.26C63.7245 164.852 60.4456 163.208 57.2944 161.34Z" fill="#262B24"/>
<path d="M40.5308 160.679C43.8726 160.235 47.2721 160.611 50.4363 161.773C53.9634 163.032 56.8914 165.565 58.6443 168.873L54.0777 170.646C53.3918 167.89 51.6875 165.496 49.3074 163.945C46.6904 162.16 43.6781 161.04 40.5308 160.679Z" fill="#262B24"/>
<path d="M41.5239 164.878C44.0281 164.425 46.5982 164.486 49.0783 165.056C51.8647 165.655 54.3917 167.115 56.3017 169.229L52.2189 171.935C51.3896 170.006 49.9651 168.392 48.1531 167.329C46.1327 166.071 43.8772 165.237 41.5239 164.878Z" fill="#262B24"/>
<path d="M42.5083 169.077C46.0634 168.168 49.7973 168.226 53.3221 169.246L50.9879 173.555C48.6201 171.322 45.689 169.773 42.5083 169.077Z" fill="#262B24"/>
<path d="M65.5791 191.598C69.1441 191.598 80.6964 196.391 87.6481 196.068C94.5998 195.746 96.5436 193.405 100.16 193.201C110.15 192.752 132.007 228.472 171.782 238.694C171.782 238.694 151.572 230.024 134.901 216.639C118.231 203.253 115.812 197.561 115.812 197.561L113.74 193.532L105.388 191.98L97.0529 191.199L88.5648 190.784L74.2284 190.19H66.6401L65.5791 191.598Z" fill="#262B24"/>
<path d="M73.0825 197.493C76.2995 197.434 79.2788 197.587 82.326 197.799C85.3732 198.011 88.3356 198.393 91.5016 198.842C90.0598 199.569 88.4928 200.015 86.8841 200.157C85.3084 200.329 83.7202 200.358 82.1393 200.242C80.5598 200.108 78.9966 199.824 77.4708 199.394C75.9103 199.015 74.426 198.373 73.0825 197.493Z" fill="#262B24"/>
<path d="M48.8662 209.683C53.417 206.863 58.5533 205.122 63.8816 204.593C69.2376 203.949 74.6445 204.526 79.7373 205.238C84.8302 205.951 90.0758 206.782 95.1347 208.538C100.194 210.294 105.252 212.915 108.368 217.241C103.894 214.467 99.0307 213.22 94.1501 212.245C89.2694 211.269 84.202 210.777 79.0498 210.107C74.0882 209.226 69.0759 208.66 64.0429 208.411C58.9535 208.307 53.8672 208.733 48.8662 209.683Z" fill="#262B24"/>
<path d="M121.303 240.272L119.843 239.542C118.146 238.736 116.397 237.981 114.666 237.243C111.214 235.796 107.737 234.424 104.234 233.129C107.363 235.165 110.441 237.255 113.469 239.398C114.971 240.475 116.465 241.569 117.908 242.689C119.707 244.164 121.408 245.753 123.001 247.448L124.164 243.487C123.219 242.412 122.265 241.34 121.303 240.272Z" fill="#262B24"/>
<path d="M115.667 233.901C115.081 233.222 114.513 232.535 113.969 231.848C112.433 231.212 110.897 230.618 109.352 230.041C107.807 229.465 106.033 228.837 104.361 228.269C102.689 227.7 101.025 227.132 99.2681 226.708C100.821 227.514 102.298 228.464 103.792 229.38C105.286 230.296 106.738 231.263 108.189 232.238C109.64 233.214 111.075 234.198 112.433 235.207C113.795 236.177 115.101 237.222 116.346 238.337L117.764 236.386C117.135 235.564 116.38 234.741 115.667 233.901Z" fill="#262B24"/>
<path d="M107.994 224.18C106.653 223.722 105.32 223.281 103.979 222.865C100.796 221.898 97.596 220.973 94.3535 220.32C97.3159 221.779 100.159 223.45 102.969 225.147C105.778 226.843 108.546 228.642 111.058 230.542L111.83 229.202C110.54 227.514 109.276 225.843 107.994 224.18Z" fill="#262B24"/>
<path d="M106.101 221.762C104.684 219.973 103.232 218.217 101.688 216.52C97.5963 215.502 93.4965 214.645 89.4053 213.865C94.9959 216.486 100.434 219.42 105.694 222.653L106.101 221.762Z" fill="#262B24"/>
<path d="M140.902 229.592C146.546 234.018 152.503 238.03 158.727 241.595C161.808 243.393 164.941 245.107 168.115 246.684C171.161 248.258 174.354 249.531 177.647 250.485L176.272 255.184C172.779 253.76 169.44 251.984 166.307 249.882C163.234 247.914 160.272 245.819 157.369 243.656C151.546 239.374 146.042 234.673 140.902 229.592Z" fill="#262B24"/>
<path d="M113.876 193.719C116.788 196.849 119.767 199.953 122.797 202.982C124.317 204.5 125.853 205.993 127.432 207.435C128.953 208.948 130.665 210.257 132.525 211.329C130.473 210.61 128.522 209.633 126.719 208.419C124.868 207.282 123.06 206.086 121.261 204.873C117.67 202.447 114.148 199.945 110.634 197.375L113.876 193.719Z" fill="#262B24"/>
<path d="M111.644 191.539C116.839 195.901 122.256 199.992 127.873 203.796C121.403 201.39 115.062 198.649 108.876 195.585L111.644 191.539Z" fill="#262B24"/>
<path d="M84.261 217.156C81.6467 213.967 77.7846 208.945 74.0753 206.977C74.0753 206.977 59.1958 206.129 56.4032 207.461C56.4032 207.461 56.208 208.25 57.9056 208.105C59.6032 207.961 64.9252 209.658 64.9761 229.651C62.557 226.411 60.0106 219.65 60.0106 219.65C59.9756 225.197 61.37 230.66 64.0594 235.513C57.9056 230.618 53.3984 219.15 53.1098 215.222C52.8891 223.866 53.4918 231.882 63.7284 243.707C63.7284 243.707 75.6117 233.163 76.07 222.925C76.07 222.925 78.1921 217.428 79.8133 217.648C80.9675 217.906 82.021 218.496 82.8435 219.345L84.261 217.156Z" fill="#262B24"/>
<path d="M52.8215 251.426C50.4278 245.98 47.9408 240.441 45.3011 235.25C44.692 234.02 44.0205 232.823 43.2894 231.662C42.5085 230.525 41.5918 229.371 40.692 228.218C38.8586 225.826 36.7111 223.662 35.0984 220.049C34.6506 219.024 34.4222 217.918 34.4278 216.8C34.4536 215.869 34.5702 214.943 34.7758 214.035C35.1153 212.434 35.5634 210.858 36.117 209.318C37.2074 206.291 38.6489 203.401 40.4119 200.708C42.1898 197.987 44.4995 195.653 47.2024 193.846C49.8662 192.076 52.9763 191.093 56.1743 191.013C50.8769 193.481 46.5526 197.641 43.8835 202.838C42.5228 205.349 41.4684 208.015 40.743 210.777C40.3775 212.125 40.1108 213.497 39.9451 214.883C39.8591 215.461 39.8307 216.047 39.8602 216.63C39.8964 217.031 40.0273 217.418 40.2422 217.759C41.2692 219.642 43.4676 221.864 45.4708 224.138C46.4979 225.291 47.5419 226.47 48.552 227.785C49.5333 229.117 50.4401 230.501 51.2682 231.933C54.323 237.301 57.0884 242.828 59.5525 248.491L52.8215 251.426Z" fill="#262B24"/>
<path d="M39.6987 195.704C40.5475 195.398 43.9428 196.942 41.8377 199.758L42.6865 200.954C42.6865 200.954 45.0292 195.805 52.5157 192.192L51.1152 191.963C51.1152 191.963 44.5284 193.507 42.9751 194.228C41.9449 194.685 40.8733 195.043 39.7751 195.296L39.6987 195.704Z" fill="#262B24"/>
<path d="M148.227 183.226C144.73 178.569 141.03 173.895 137.193 169.441C135.283 167.202 133.314 165.005 131.251 162.876C129.25 160.729 127.085 158.741 124.775 156.929C127.464 158.251 130.044 159.782 132.491 161.51C134.969 163.206 137.388 164.979 139.756 166.812C144.518 170.485 149.093 174.293 153.668 178.297L148.227 183.226Z" fill="#262B24"/>
<path d="M144.62 176.83C141.225 172.249 137.515 167.685 133.713 163.308C131.811 161.111 129.859 158.965 127.813 156.904C125.803 154.797 123.619 152.862 121.286 151.119C123.968 152.353 126.54 153.812 128.976 155.479C131.455 157.107 133.857 158.872 136.217 160.619C140.953 164.191 145.554 167.914 150.035 171.85L144.62 176.83Z" fill="#262B24"/>
<path d="M140.24 170.68C138.924 168.585 137.422 166.438 135.92 164.343C134.417 162.248 132.838 160.187 131.192 158.202C127.881 154.223 124.401 150.372 120.047 147.361C124.97 149.295 129.469 152.34 133.73 155.547C135.877 157.158 137.974 158.855 139.977 160.636C141.98 162.418 143.983 164.157 145.969 166.108L140.24 170.68Z" fill="#262B24"/>
<path d="M85.5938 145.537C88.8715 145.049 92.1911 144.901 95.4993 145.096C98.7022 145.193 101.89 145.579 105.023 146.25C101.878 146.396 98.7536 146.824 95.6861 147.531C92.7164 148.131 89.8155 149.032 87.0282 150.22L85.5938 145.537Z" fill="#262B24"/>
<path d="M89.0654 147.531C92.2281 147.149 95.4198 147.07 98.5975 147.293C101.68 147.425 104.747 147.793 107.773 148.396C104.75 148.61 101.747 149.058 98.7928 149.736C95.9204 150.317 93.1096 151.169 90.3981 152.281L89.0654 147.531Z" fill="#262B24"/>
<path d="M92.52 149.524C95.5678 149.228 98.6363 149.211 101.687 149.473C104.645 149.657 107.59 150.014 110.506 150.542C107.598 150.828 104.71 151.287 101.857 151.916C99.0874 152.456 96.3717 153.242 93.7423 154.266L92.52 149.524Z" fill="#262B24"/>
<path d="M95.9746 151.517C98.9116 151.291 101.863 151.325 104.794 151.619C107.654 151.865 110.472 152.23 113.282 152.688C110.472 153.044 107.688 153.536 104.955 154.062C102.29 154.575 99.674 155.319 97.1375 156.285L95.9746 151.517Z" fill="#262B24"/>
<path d="M372.465 376.104C370.503 373.172 368.303 370.406 365.887 367.834C363.468 365.128 360.862 362.532 358.248 359.937C352.968 354.796 347.459 349.825 341.832 345.007C336.204 340.189 330.432 335.532 324.406 331.146C318.464 326.617 312.582 321.858 307.905 316.022C312.998 321.442 319.228 325.65 325.45 329.636C331.816 333.513 338.029 337.746 344.123 342.114C350.218 346.483 356.151 351.047 361.948 355.839C364.834 358.265 367.712 360.7 370.487 363.33C373.399 365.97 376.088 368.847 378.526 371.931L372.465 376.104Z" fill="#262B24"/>
<path d="M340.89 349.206C342.898 350.484 344.994 351.617 347.162 352.599C349.31 353.626 351.491 354.601 353.673 355.551C358.053 357.443 362.475 359.258 366.897 360.988L364.741 365.391C360.599 362.846 356.542 360.301 352.51 357.706C350.495 356.388 348.515 355.039 346.568 353.659C344.575 352.307 342.678 350.819 340.89 349.206Z" fill="#262B24"/>
<path d="M329.906 338.229C334.199 340.996 338.704 343.421 343.377 345.482C348.011 347.654 352.714 349.723 357.323 352.217L354.683 356.348C350.685 353.312 346.407 350.495 342.163 347.603C337.836 344.806 333.738 341.672 329.906 338.229Z" fill="#262B24"/>
<path d="M112.892 301.839C118.349 304.146 124.113 305.478 129.52 308.014C134.434 310.321 138.958 313.536 143.949 315.572C144.628 315.844 145.248 314.919 144.892 314.351C139.052 305.028 112.544 301.694 112.892 301.839Z" fill="#63891A"/>
<path d="M130.657 317.964C129.036 317.413 124.809 317.574 125.505 317.761C130.224 319.008 134.29 322.206 137.617 325.658C140.656 328.805 142.71 332.894 146.012 335.727C146.127 335.827 146.262 335.903 146.407 335.95C146.552 335.997 146.705 336.014 146.858 336.001C147.01 335.987 147.157 335.943 147.292 335.871C147.427 335.8 147.546 335.701 147.642 335.583C148.329 336.431 149.034 337.279 149.772 338.128C152.607 341.275 155.349 343.845 157.53 347.569C158.057 348.476 156.8 339.977 154.577 337.144C152.03 333.92 148.525 332.224 145.927 329.289C147.005 329.289 150.833 327.524 149.849 326.744C143.678 322.138 130.717 317.964 130.657 317.964Z" fill="#63891A"/>
<path d="M137.184 328.865L135.555 327.864C135.207 327.643 134.816 328.076 135.003 328.415C136.701 331.562 139.069 333.751 141.793 335.998C145.435 338.959 147.735 342.157 150.137 346.178C150.68 347.094 151.241 347.984 151.835 348.875C150.918 348.205 150.018 347.526 149.186 346.805C145.46 343.548 141.895 340.155 138.296 336.762C137.897 336.38 141.776 351.284 147.548 355.042C153.04 358.622 161.825 360.658 168.166 361.921C168.329 361.959 168.499 361.944 168.653 361.876C168.806 361.809 168.933 361.694 169.015 361.548C169.194 361.437 169.348 361.289 169.467 361.114C169.586 360.94 169.667 360.743 169.705 360.535C169.743 360.328 169.738 360.115 169.689 359.909C169.641 359.704 169.55 359.511 169.422 359.343C166.986 356.297 163.336 355.814 160.365 353.405C156.478 350.266 154.627 345.686 152.726 341.232C149.73 334.319 144.662 330.018 137.184 328.865Z" fill="#63891A"/>
<path d="M100.159 294.416C97.1544 293.051 94.1327 291.66 91.1533 290.234C90.5337 289.938 89.7868 290.743 90.3724 291.252C95.1003 295.4 101.95 301.321 108.792 299.09C108.904 299.058 109.005 298.993 109.081 298.904C109.158 298.816 109.207 298.707 109.222 298.59C109.237 298.474 109.218 298.356 109.167 298.251C109.117 298.145 109.036 298.057 108.936 297.996C106.101 296.503 103.028 295.723 100.159 294.416Z" fill="#63891A"/>
<path d="M93.2756 283.448C93.1631 283.365 93.022 283.33 92.8835 283.351C92.7451 283.371 92.6205 283.446 92.5372 283.559C92.4539 283.671 92.4187 283.812 92.4394 283.95C92.4601 284.089 92.535 284.213 92.6475 284.297C94.4317 285.981 96.5201 287.311 98.8014 288.216C101.144 289.191 103.741 290.472 106.322 290.184C106.432 290.181 106.538 290.146 106.629 290.084C106.72 290.022 106.79 289.935 106.833 289.834C106.875 289.732 106.887 289.621 106.867 289.513C106.847 289.405 106.796 289.305 106.721 289.225C103.224 285.535 97.3075 286.019 93.2756 283.448Z" fill="#63891A"/>
<path d="M177.282 357.723C176.722 357.485 191.253 375.146 202.508 375.859L202.873 376.138C203.139 376.286 203.438 376.361 203.742 376.358C204.045 376.355 204.343 376.272 204.605 376.119C204.867 375.966 205.085 375.747 205.237 375.484C205.388 375.221 205.469 374.924 205.471 374.62C204.121 362.38 186.152 361.531 177.282 357.723Z" fill="#63891A"/>
<path d="M181.569 349.579C180.72 349.24 193.995 361.158 201.269 361.022C201.813 361.022 202.33 360.335 201.957 359.835C197.569 353.863 188.13 352.183 181.569 349.579Z" fill="#63891A"/>
<path d="M173.445 340.757C172.894 340.638 184.836 349.35 191.27 350.156C192.195 350.275 192.433 349.062 191.958 348.459C187.748 343.438 179.54 342.064 173.445 340.757Z" fill="#63891A"/>
<path d="M113.545 311.636C116.525 312.965 119.663 313.909 122.882 314.444C126.117 315.059 129.445 314.99 132.652 314.24C129.587 313.053 126.761 311.925 123.926 310.737C121.091 309.549 118.307 308.37 115.54 307.157C112.773 305.944 110.014 304.68 107.247 303.383L98.7588 299.336C100.436 302.158 102.637 304.635 105.244 306.631C107.788 308.643 110.578 310.325 113.545 311.636Z" fill="#262B24"/>
<path d="M211.183 349.876L197.696 346.093L192.213 337.254L191.763 336.541L190.914 336.414C189.437 336.202 187.977 335.854 186.517 335.515C187.092 335.106 187.561 334.565 187.884 333.937C188.266 333.146 188.359 332.245 188.147 331.392C187.989 330.692 187.701 330.027 187.298 329.433C185.937 327.453 184.078 325.868 181.908 324.835C179.956 323.775 177.97 322.944 176.085 322.095C172.41 320.314 168.556 318.397 164.974 316.404C161.38 314.34 157.905 312.074 154.568 309.617C141.089 299.862 129.265 287.732 115.311 277.748L114.216 279.317C113.577 279.037 113 278.633 112.518 278.13C111.542 278.13 110.574 278.13 109.598 278.13C107.374 278.13 105.142 278.087 102.918 277.977C100.694 277.867 98.4704 277.697 96.2635 277.392C94.0401 277.138 91.853 276.631 89.7446 275.882C91.714 277.019 93.8072 277.927 95.9834 278.588C98.1478 279.309 100.355 279.903 102.57 280.42C104.785 280.937 107.026 281.413 109.267 281.811C110.719 282.074 112.162 282.32 113.622 282.541C115.749 284.034 117.849 285.58 119.92 287.181L117.984 287.562C114.907 287.975 111.802 288.134 108.698 288.037C111.734 288.946 114.84 289.601 117.984 289.997C120.166 290.319 122.347 290.574 124.546 290.803C125.479 291.558 126.422 292.304 127.347 293.068C126.184 293.161 125.021 293.229 123.85 293.28C120.684 293.407 117.492 293.382 114.309 293.212C111.121 293.041 107.947 292.678 104.802 292.126C101.632 291.609 98.5443 290.677 95.6184 289.352C98.3938 291.059 101.382 292.394 104.505 293.322C107.624 294.291 110.799 295.07 114.012 295.655C117.232 296.249 120.48 296.69 123.756 296.978C126.635 297.224 129.526 297.312 132.414 297.241C138.874 302.594 145.384 307.997 152.37 312.858C155.873 315.326 159.514 317.592 163.277 319.644C167.096 321.671 170.831 323.436 174.77 325.251C176.739 326.099 178.657 326.854 180.423 327.796C182.188 328.737 183.818 329.772 184.667 331.189C185.117 331.884 185.21 332.436 185.091 332.648C184.921 332.901 184.701 333.117 184.444 333.282C184.187 333.447 183.899 333.557 183.597 333.606C182.507 333.881 181.372 333.93 180.261 333.751C176.15 332.324 172.149 330.594 168.293 328.576C161.745 325.098 155.653 320.824 150.154 315.852C149.356 314.631 148.533 313.418 147.676 312.23C149.027 317.415 150.691 322.514 152.658 327.499C153.122 328.866 153.731 330.18 154.475 331.418C155.128 332.504 155.799 333.505 156.452 334.506L156.376 334.59L156.597 334.718C156.625 334.77 156.656 334.821 156.69 334.87C158.181 336.942 159.534 339.11 160.739 341.36C161.329 342.412 161.834 343.51 162.25 344.642C162.623 345.652 163.031 347.187 163.548 348.451C164.571 351.112 165.972 353.612 167.708 355.873C171.18 360.16 175.496 363.688 180.389 366.239C176.926 362.083 173.395 358.104 170.874 353.744C170.201 352.524 169.592 351.27 169.049 349.986C170.627 350.716 172.215 351.411 173.802 352.056C177.367 353.498 180.94 354.839 184.556 356.085C181.297 354.101 178.097 352.039 174.956 349.902C173.403 348.824 171.867 347.73 170.39 346.602C169.6 345.991 168.803 345.338 168.081 344.685C168.302 344.77 168.514 344.871 168.726 344.948C171.458 345.914 174.237 346.741 177.053 347.425C174.566 345.983 172.155 344.439 169.864 342.785C168.726 341.936 167.623 341.088 166.604 340.24C166 339.692 165.433 339.106 164.906 338.484C166.494 339.044 168.081 339.604 169.677 340.07C167.818 338.687 166.01 337.254 164.295 335.752C162.621 334.373 161.108 332.808 159.788 331.087L159.695 331.189C159.152 330.485 158.583 329.789 158.099 329.111C157.386 328.109 156.742 327.061 156.172 325.972C154.944 323.71 153.663 321.479 152.327 319.279C153.734 320.817 155.24 322.262 156.834 323.605C160.016 326.31 163.423 328.736 167.02 330.858C173.96 335.133 181.592 338.17 189.573 339.833L194.937 348.638L195.251 349.164L195.888 349.41L207.211 354.219L203.442 380.312C197.866 378.615 192.255 377.131 186.551 375.859L185.702 375.68L184.752 375.426C182.237 374.828 179.685 374.4 177.112 374.145C176.79 374.094 176.476 374.035 176.153 373.992C173.242 373.575 170.308 373.325 167.368 373.246C164.686 369.463 157.301 361.192 140.571 354.584L137.176 353.244C136.675 346.562 135.791 339.915 134.528 333.335C134.133 331.417 133.631 329.522 133.025 327.66C132.692 326.61 132.269 325.592 131.761 324.615C131.435 323.968 131.027 323.366 130.547 322.825L130.08 322.333L129.783 322.061L129.155 321.536C127.484 320.265 125.544 319.394 123.484 318.99C121.424 318.585 119.299 318.658 117.271 319.203C119.628 321.914 122.206 324.425 124.979 326.71C125.76 327.406 125.581 327.126 125.938 327.753C126.277 328.404 126.561 329.082 126.787 329.781C126.863 330.001 126.922 330.239 126.99 330.459C126.141 333.106 122.5 332.707 118.978 332.402C118.978 332.402 126.099 337.966 128.713 340.723C129.058 341.131 129.344 341.585 129.562 342.072C130.36 346.704 130.988 351.403 131.591 356.085L131.71 357.697L133.271 358.461L135.818 359.699L147.812 398.414L161.358 397.837C171.935 406.305 184.544 411.861 197.934 413.954L207.601 415.422L201.303 407.948C195.591 401.162 192.544 392.094 190.311 385.469C190.125 384.901 189.955 384.401 189.777 383.875C191.576 384.239 193.375 384.562 195.175 384.96C198.494 385.715 201.864 386.462 205.131 387.276L208.629 388.226L209.061 384.723L213.051 352.879L213.263 350.47L211.183 349.876Z" fill="#262B24"/>
<path d="M151.504 305.105C151.504 305.105 137.847 292.152 133.339 289.378C132.689 289 132.171 288.431 131.854 287.749C128.646 280.284 119.3 274.711 114.258 273.676C113.933 273.609 113.633 273.45 113.394 273.219C113.155 272.987 112.987 272.693 112.909 272.37C112.561 270.902 106.246 266.322 105.04 267.518C103.835 268.714 119.113 279.64 121.38 281.709C132.414 291.626 151.504 305.105 151.504 305.105Z" fill="#262B24"/>
<path d="M469.145 626.869C472.786 620.168 478.617 611.906 487.063 608.81C487.063 608.81 484.321 614.459 480.824 617.335C477.327 620.21 469.145 626.869 469.145 626.869Z" fill="#63891A"/>
<path d="M413.632 675.22C416.399 671.335 418.241 668.205 427.765 662.123C437.289 656.041 442.916 655.651 451.345 650.985C451.345 650.985 437.475 661.69 433.011 665.075C425.431 670.843 413.632 675.22 413.632 675.22Z" fill="#63891A"/>
<path d="M58.1264 267.306C61.5225 265.819 64.7588 263.991 67.7858 261.852C74.4659 257.262 81.1206 250.926 83.5227 242.995C83.5385 242.932 83.5336 242.866 83.5087 242.807C83.4839 242.748 83.4404 242.698 83.3849 242.666C83.3294 242.633 83.2648 242.619 83.2009 242.627C83.1369 242.634 83.0771 242.662 83.0304 242.706C77.5471 247.796 73.1078 253.581 66.8097 257.814C63.6106 259.932 60.1964 261.706 56.624 263.107C55.6479 263.311 54.6717 263.709 53.755 263.955C53.0125 264.215 52.2558 264.433 51.4887 264.608C50.9821 264.715 50.459 264.715 49.9524 264.608C49.6368 264.488 49.3482 264.307 49.1036 264.074C49.0858 264.01 49.0858 263.943 49.1036 263.879C49.1445 263.737 49.2171 263.607 49.3158 263.497C59.0091 259.375 70.3322 247.762 72.7428 243.079C72.7895 242.983 72.8017 242.874 72.7774 242.77C72.753 242.665 72.6936 242.573 72.6091 242.507C72.5246 242.442 72.42 242.407 72.313 242.409C72.206 242.412 72.1031 242.45 72.0213 242.519C67.0643 246.956 62.9561 251.757 57.4134 255.583C52.4309 259.035 41.685 265.024 36.8128 258.441C36.4224 257.916 35.4038 258.17 35.6415 258.917C36.5836 261.835 38.137 263.531 40.0468 264.354C42.347 266.144 44.9189 267.56 47.3041 269.265C50.0246 271.047 52.3385 273.383 54.0945 276.119C54.8245 277.197 54.9433 278.147 55.9449 279.029C58.8054 281.446 63.5842 280.607 66.7333 278.834C69.0304 278.261 71.1466 277.121 72.8871 275.517C72.9714 275.43 73.0251 275.318 73.0401 275.197C73.0551 275.077 73.0306 274.955 72.9703 274.85C72.91 274.745 72.8172 274.662 72.7057 274.614C72.5943 274.566 72.4703 274.555 72.3524 274.584C71.1386 274.949 69.9248 275.305 68.677 275.551C68.269 275.643 67.8548 275.705 67.4378 275.738H67.0304C65.9184 275.619 64.5603 274.601 65.0102 273.439C65.5449 273.125 66.0712 272.803 66.5805 272.463C75.4335 269.588 84.346 260.588 86.4765 253.038C86.4841 253.003 86.4803 252.966 86.4656 252.933C86.451 252.901 86.4264 252.873 86.3952 252.855C86.3641 252.837 86.3281 252.83 86.2923 252.834C86.2566 252.838 86.223 252.853 86.1964 252.877C82.0203 257.347 78.8712 262.013 73.5747 265.38C70.795 266.988 67.8777 268.344 64.8574 269.435C64.068 269.545 63.2871 269.673 62.4892 269.723C61.8113 269.803 61.1243 269.745 60.4691 269.554C60.1126 269.443 58.3471 268.553 57.9821 267.747L58.1264 267.306Z" fill="#63891A"/>
<path d="M319.152 355.924C310.867 351.047 303.228 345.261 295.47 339.604C291.226 336.541 287.109 332.868 282.831 329.424C278.07 324.182 273.214 319.025 268.554 313.91C264.353 309.303 230.638 277.434 214.969 271.649C198.367 265.558 181.755 258.696 164.109 256.736C159.551 255.642 149.721 252.885 150.392 253.292C158.269 257.992 166.884 259.273 175.415 262.352C185.524 266.008 195.116 271.157 204.724 275.924C213.925 280.496 223.576 284.475 232.523 289.496C237.221 292.25 241.682 295.391 245.857 298.887C251.799 304.825 257.613 310.966 263.207 317.184C266.602 320.95 269.836 325.149 273.18 329.323C268.088 325.327 262.825 321.637 257.664 318.142C246.451 310.543 234.45 304.175 221.87 299.15C221.488 298.997 265.244 335.82 279.037 348.968C287.33 356.874 295.462 364.924 305.35 369.598C309.849 371.719 331.256 376.003 330.814 375.841C316.011 370.379 301.284 363.525 289.427 352.938C289.079 352.624 288.748 352.277 288.4 351.963C292.618 354.407 296.962 356.629 301.412 358.622C316.767 365.527 332.47 371.626 348.028 378.022C348.707 378.301 329.125 367.842 319.373 363.27C313.923 360.293 308.482 357.332 303.245 353.854C309.764 357.044 373.195 385.155 372.847 384.96C354.904 375.426 336.714 366.265 319.152 355.924Z" fill="#B2A469"/>
<path d="M239.881 271.089C231.393 266.05 223.584 260.062 214.74 255.574C206.072 251.272 196.966 247.916 187.578 245.565C186.576 245.302 206.252 254.947 214.943 260.104C223.109 264.939 230.502 270.928 238.71 275.729C256.323 286.069 291.591 308.659 290.801 307.878C275.862 293.203 257.774 281.692 239.881 271.089Z" fill="#B2A469"/>
<path d="M210.801 240.619C185.337 230.89 163.659 213.653 139.68 200.887C139.34 200.708 160.501 216.588 171.145 224.07C165.653 222.085 153.481 218.827 154.347 219.285C158.031 221.22 161.902 223.527 165.891 225.664C159.814 223.968 146.589 220.278 147.328 220.651C151.954 222.958 156.664 225.291 161.494 227.378C181.866 241.798 233.193 250.833 232.412 250.357C225.715 246.354 211.073 240.73 210.801 240.619Z" fill="#B2A469"/>
<path d="M114.47 166.26C110.879 165.323 107.234 164.606 103.555 164.114C97.3584 163.597 84.5245 165.862 85.1101 165.862C90.6028 165.764 96.0953 166.07 101.543 166.778L99.472 166.735C90.3897 166.489 72.3101 170.128 72.8788 170.052C87.3085 169.017 103.283 169.433 117.475 172.775C132.338 183.361 164.856 202.142 164.329 201.718C148.635 189.265 132.414 175.32 114.47 166.26Z" fill="#B2A469"/>
<path d="M105.04 185.1C87.3171 178.45 70.4598 172.028 52.2529 181.258C51.9049 181.309 51.5654 181.393 51.2174 181.453C48.0598 181.716 44.8513 182.233 41.8805 182.301C37.3394 182.352 30.7441 180.384 26.5001 182.352C23.9537 183.531 23.5208 185.669 23.1049 188.171C21.8826 195.305 21.7383 203.228 21.7977 210.472C21.7977 211.388 28.2402 185.338 44.9192 186.559C48.9341 186.559 53.0253 186.135 56.3442 184.778L56.8874 184.719C65.8763 184.057 85.6789 184.719 84.6858 184.506C78.3198 182.997 72.1914 181.538 65.8168 180.952C69.5791 180.228 73.4176 179.98 77.2418 180.214C86.324 181.003 105.898 185.414 105.04 185.1Z" fill="#B2A469"/>
<path d="M57.2778 145.902C52.8045 145.249 47.2873 144.808 43.4337 147.531C43.2226 147.704 43.0726 147.941 43.0057 148.206C42.9388 148.471 42.9585 148.75 43.0619 149.003C43.1652 149.256 43.3469 149.47 43.5802 149.612C43.8136 149.755 44.0864 149.819 44.3589 149.795C53.2714 148.947 70.8502 151.806 70.4852 151.492C67.0051 148.116 61.9632 146.538 57.2778 145.902Z" fill="#B2A469"/>
<path d="M47.4823 154.198C45.5338 153.859 43.5667 153.638 41.5916 153.536C40.4966 153.485 39.8939 155.233 41.0229 155.708C42.9398 156.506 44.9297 157.117 46.9645 157.532C48.8658 157.922 53.8908 156.353 53.0929 155.835C51.4717 154.69 49.3836 154.512 47.4823 154.198Z" fill="#B2A469"/>
<path d="M13.4536 211.71C12.7576 211.184 11.5438 211.617 11.8409 212.635C13.1141 217.063 17.0016 221.33 21.1778 223.315C21.6191 223.544 16.8488 214.306 13.4536 211.71Z" fill="#B2A469"/>
<path d="M14.6423 233.087C13.6237 232.238 12.8258 230.788 11.5866 230.262C11.4022 230.163 11.1956 230.113 10.9864 230.117C10.7773 230.121 10.5726 230.179 10.392 230.284C10.2115 230.39 10.061 230.54 9.95511 230.72C9.84919 230.9 9.79135 231.105 9.78711 231.314C9.78711 233.01 11.3404 234.503 12.5882 235.555C13.8666 236.719 15.5545 237.329 17.2821 237.252C17.4292 237.247 17.5716 237.199 17.6923 237.115C17.813 237.031 17.9068 236.913 17.9624 236.777C18.018 236.641 18.033 236.492 18.0057 236.347C17.9784 236.202 17.9098 236.069 17.8083 235.962C16.819 234.934 15.7613 233.973 14.6423 233.087Z" fill="#B2A469"/>
<path d="M53.3734 196.323C48.8748 198.69 44.6986 203.703 44.6732 208.954C44.063 210.997 43.6871 213.103 43.5527 215.231C48.4079 208.071 52.287 205.187 55.7756 203.906C59.5188 202.515 67.9559 199.665 67.1071 199.326C62.7443 197.57 57.3204 199.258 52.8896 201.226C53.5848 200.573 54.354 200.004 55.1814 199.529C59.3405 197.146 70.3241 197.46 69.6111 197.027C64.5098 194.033 58.6615 193.524 53.3734 196.323Z" fill="#B2A469"/>
<path d="M115.998 208.809C116.04 208.572 101.933 195.042 97.2054 198.63C96.6791 199.02 100.915 201.277 102.51 202.201C98.5974 202.023 94.591 202.379 91.3401 202.464C90.1603 202.464 99.3953 204.95 103.359 205.611C105.277 205.948 107.151 206.5 108.944 207.257C111.423 209.624 126.769 222.687 133.263 225.147C134.375 225.554 121.473 214.298 115.998 208.809Z" fill="#B2A469"/>
<path d="M111.5 217.012C110.651 216.164 126.71 239.271 138.245 244.742C139.485 245.327 120.183 226.428 111.5 217.012Z" fill="#B2A469"/>
<path d="M172.13 240.458C169.795 240.373 162.793 240.679 163.497 241.205C166.112 243.181 169.329 243.342 172.486 243.563C175.423 243.758 178.428 243.8 180.321 241.23C180.796 240.585 174.6 240.543 172.13 240.458Z" fill="#B2A469"/>
<path d="M314.78 348.383C310.672 349.412 306.497 350.155 302.286 350.606C311.827 353.15 318.957 352.955 323.718 354.117C325.224 354.38 326.665 354.93 327.962 355.738C329.796 357.044 330.764 359.3 332.555 360.683C334.345 362.066 336.968 362.38 339.345 362.626L364.037 364.907C368.2 365.424 372.403 365.552 376.591 365.289C390.868 363.94 403.591 352.506 406.452 338.467C407.114 335.235 406.91 331.146 403.999 329.577C402.869 329.059 401.633 328.815 400.391 328.865C393.032 328.729 385.783 330.883 378.433 330.816C377.388 330.865 376.345 330.685 375.377 330.29C373.968 329.619 373.094 328.203 371.922 327.185C369.333 324.946 365.59 324.784 362.169 324.861C352.578 325.069 343.03 326.205 333.658 328.254C320.883 331.062 308.194 335.6 295.139 335.133C293.161 335.057 280.166 329.865 277.263 329.348C285.055 336.66 305.13 347.196 314.78 348.383Z" fill="#FFFF00"/>
<path d="M562.708 48.7329C551.139 54.5351 543.822 61.4569 542.736 69.5409C541.649 77.6249 544.382 93.6232 543.432 100.816C542.481 108.01 537.346 115.424 527.593 119.987C534.316 103.514 519.105 97.2538 521.94 70.211C523.162 58.5304 538.033 41.8704 562.708 48.7329Z" fill="#FF0000"/>
<path d="M695.071 314.648C694.222 322.986 691.871 331.613 686.023 334.582C680.175 337.551 660.788 329.348 655.822 335.057C658.369 328.966 661.891 326.489 666.483 325.497C671.075 324.504 679.215 327.143 684.308 324.241C689.401 321.34 695.071 314.648 695.071 314.648Z" fill="#FF0000"/>
<path d="M538.899 451.159C556.47 442.159 560.858 434.499 564.05 428.018C567.241 421.538 567.886 400.416 575.933 390.822C583.98 381.228 605.378 367.596 634.713 357.74C608.994 372.796 604.699 382.339 601.609 388.387C598.52 394.435 590.77 425.321 582.936 433.71C575.101 442.1 559.441 448.165 538.899 451.159Z" fill="#FF0000"/>
<path d="M491.188 122.066C488.463 132.245 470.935 134.493 465.902 140.592C462.707 144.652 460.336 149.297 458.925 154.266C458.925 154.266 453.136 135.46 461.471 129.666C469.806 123.872 475.425 130.37 491.188 122.066Z" fill="#FF0000"/>
<path d="M656.068 236.59C673.045 233.664 681.244 225.563 683.833 219.37C686.422 213.178 687.729 196.331 692.584 188.731C697.439 181.13 709 165.319 709 165.319C709 165.319 700.563 172.69 694.825 176.007C689.087 179.324 677.399 183.327 672.51 191.988C667.621 200.649 671.389 214.467 668.266 221.262C665.142 228.057 658.615 235.123 656.068 236.59Z" fill="#FF0000"/>
<path d="M662.163 277.875C659.04 276.51 647.487 282.159 650.441 294.51C653.802 294.858 663.895 284.364 662.163 277.875Z" fill="#FF0000"/>
<path d="M435.226 177.542C436.635 179.587 434.182 188.629 424.93 188.222C424.217 185.864 430.345 177.194 435.226 177.542Z" fill="#FF0000"/>
<path d="M641.562 316.073C641.995 318.516 636.011 325.726 627.761 321.527C628.117 319.084 637.259 313.74 641.562 316.073Z" fill="#FF0000"/>
<path d="M407.054 116.9C407.164 116.051 407.266 115.203 407.377 114.355C407.478 113.553 407.263 112.743 406.779 112.095C406.294 111.448 405.577 111.013 404.779 110.884C403.98 110.754 403.162 110.939 402.497 111.4C401.833 111.86 401.373 112.561 401.214 113.354L400.883 115.899C400.75 116.716 400.948 117.553 401.433 118.226C401.917 118.898 402.649 119.35 403.468 119.483C404.286 119.615 405.124 119.418 405.796 118.933C406.469 118.449 406.921 117.717 407.054 116.9Z" fill="#FF0000"/>
<path d="M682.993 366.858C682.902 366.041 682.498 365.291 681.864 364.767C681.23 364.243 680.417 363.986 679.597 364.051C679.173 364.107 678.749 364.15 678.324 364.178H677.552C676.692 364.11 675.84 363.968 675.005 363.754C674.188 363.626 673.353 363.827 672.682 364.311C672.011 364.796 671.559 365.525 671.423 366.341C671.312 367.149 671.514 367.97 671.987 368.635C672.46 369.3 673.169 369.76 673.97 369.921C675.987 370.423 678.081 370.538 680.141 370.26C680.967 370.178 681.728 369.776 682.261 369.14C682.794 368.505 683.057 367.685 682.993 366.858Z" fill="#FF0000"/>
<path d="M681.932 97.7628C679.801 95.6166 670.413 104.854 672.094 109.681C673.774 114.508 685.25 101.105 681.932 97.7628Z" fill="#FF0000"/>
<path d="M599.759 56.5285C598.358 55.1204 592.204 61.177 593.308 64.341C594.411 67.505 601.94 58.717 599.759 56.5285Z" fill="#FF0000"/>
<path d="M586.738 401.417C585.516 405.268 584.862 409.289 583.504 413.089C582.146 416.889 579.93 420.596 576.442 422.632C578.708 420.189 578.903 416.533 578.988 413.199C579.133 408.203 579.353 403.02 581.441 398.516C582.758 395.827 584.517 393.378 586.645 391.271C587.544 390.338 598.154 380.439 598.154 380.439C598.154 380.439 591.44 391.467 590.906 392.315C589.15 395.167 587.75 398.224 586.738 401.417Z" fill="#FFA300"/>
<path d="M532.643 65.7491C530.35 69.8169 529.537 74.5528 530.343 79.1517C530.747 80.92 531.248 82.6645 531.845 84.3771C533.857 90.7815 534.927 97.8984 532.321 104.082C534.892 100.211 536.558 95.8092 537.193 91.2056C537.543 89.3127 537.665 87.3848 537.558 85.4629C537.321 83.4019 536.935 81.3607 536.404 79.3553C535.41 74.9274 534.876 70.2449 536.208 65.9103C537.125 62.9329 542.15 56.3164 542.15 56.3164C542.15 56.3164 537.337 59.7773 536.429 60.7189C534.951 62.2215 533.678 63.9129 532.643 65.7491Z" fill="#FFA300"/>
<path d="M334.753 361.913C368.663 366.248 396.3 357.315 394.382 335.981C387.905 344.744 374.087 353.074 348.011 349.486C355.795 346.466 355.702 337.033 365.497 332.521C355.082 331.774 345.083 336.16 334.897 338.458C308.262 344.557 278.689 335.591 259.931 315.725C265.533 319.22 270.116 321.332 276.601 322.613C258.403 307.48 255.721 298.751 232.709 285.128C238.779 286.061 244.531 288.45 249.473 292.092C245.492 284.551 236.24 275.89 229.993 270.088C245.272 277.324 248.565 283.219 256.306 292.143C261.144 297.716 265.448 303.926 271.525 308.116C275.769 311.034 280.667 312.832 285.556 314.452C290.577 316.242 295.763 317.526 301.038 318.287C315.638 320.043 330.051 314.953 344.327 311.382C367.5 305.58 392.081 303.747 415.245 309.592C419.591 310.686 424.013 312.137 427.392 315.08C430.116 317.464 434.369 324.53 430.855 327.804C430.235 328.364 429.369 328.381 428.648 329.195C427.829 330.272 427.089 331.406 426.433 332.588C424.967 334.817 423.47 337.033 421.942 339.239C415.442 348.347 407.598 356.418 398.677 363.177C385.13 373.237 367.585 374.408 334.753 361.913Z" fill="#FFA300"/>
<path d="M267.375 299.871C281.159 314.291 307.362 315.64 324.245 306.275C333.098 301.364 340.067 292.44 340.966 282.363C341.985 288.988 342.995 295.935 340.966 302.288C345.949 299.285 353.97 286.214 372.83 289.48C378.195 290.413 398.422 296.427 404.236 296.546C410.543 296.673 417.936 296.715 423.852 294.476C422.401 301.406 408.268 306.521 408.455 306.555C432.221 310.847 449.35 280.106 487.487 285.247C469.153 289.844 454.316 300.897 442.993 316.022C437.9 322.859 422.927 356.348 398.728 363.202C408.921 354.77 416.011 343.183 418.878 330.273C419.625 326.88 419.999 323.054 418.089 320.093C414.812 315.08 407.343 315.801 401.563 317.379C393.806 319.511 386.191 322.129 378.764 325.217C382.787 320.178 381.132 315.343 378.169 314.105C370.377 310.856 358.07 312.188 346.84 315.53C337.8 318.21 318.227 334.76 290.14 330.841C324.533 324.81 287.449 322.995 272.315 312.349C264.149 306.623 245.314 279.886 243.379 278.206C248.777 280.776 264.03 296.418 267.375 299.871Z" fill="#FF0000"/>
</g>
</svg>
