<svg width="62" height="10" viewBox="0 0 62 10" fill="none" xmlns="http://www.w3.org/2000/svg">
<path fill-rule="evenodd" clip-rule="evenodd" d="M44.7204 9.96165C44.0882 9.93406 43.5354 9.9016 43.4918 9.88943C43.4482 9.87734 43.7157 9.84742 44.0863 9.82302C44.7581 9.77875 44.7571 9.77861 43.7296 9.75682C43.1628 9.7448 42.3246 9.70993 41.8669 9.67938C41.291 9.6409 41.5841 9.6339 42.818 9.65668C45.6381 9.70866 48.5339 9.75463 48.9062 9.75343C49.1141 9.75272 49.2286 9.78002 49.1988 9.82302C49.1666 9.86949 49.8601 9.89375 51.22 9.89375C52.6896 9.89375 53.2748 9.87147 53.2371 9.81694C53.2036 9.76856 53.2532 9.74622 53.3711 9.75668C53.4741 9.76588 53.6119 9.75449 53.6772 9.73136C53.7426 9.70831 54.3312 9.6554 54.9851 9.61382C55.639 9.57223 56.3079 9.51013 56.4713 9.47583C56.6348 9.4416 56.7686 9.4399 56.7686 9.47208C56.7686 9.55243 56.5587 9.59918 55.3418 9.79007C55.1892 9.81397 54.9039 9.86645 54.7077 9.90662C54.285 9.99319 46.4368 10.0364 44.7204 9.96165ZM20.5844 9.88717C20.2118 9.84778 20.2225 9.84459 20.7627 9.83413C21.3317 9.82316 21.5036 9.85308 21.159 9.90316C21.0609 9.91744 20.8023 9.91023 20.5844 9.88717ZM19.7125 9.85237C19.6253 9.84028 19.2419 9.80994 18.8604 9.78497C18.479 9.76001 18.1668 9.71616 18.1668 9.68744C18.1668 9.6588 18.2827 9.64798 18.4244 9.66347C18.6219 9.68504 18.6543 9.67422 18.5631 9.61693C18.4728 9.56021 18.5298 9.54401 18.8009 9.5496C19.1262 9.55625 19.1367 9.56162 18.9198 9.61085L18.682 9.66481L18.9727 9.67323C19.1325 9.67782 19.2752 9.65321 19.2897 9.61848C19.3047 9.58263 19.6066 9.57824 19.9899 9.60837C20.7166 9.66538 20.704 9.6926 19.9503 9.69409C19.6887 9.69466 19.5638 9.71064 19.6728 9.72967C19.8601 9.76234 20.1135 9.90549 19.9463 9.88413C19.9049 9.87883 19.7997 9.86454 19.7125 9.85237ZM47.0422 9.84148C46.7715 9.82769 46.3078 9.82762 46.0117 9.84127C45.7156 9.85485 45.9371 9.86617 46.5038 9.86624C47.0706 9.86638 47.3128 9.8552 47.0422 9.84148ZM48.1486 9.84693C48.0941 9.82727 48.0049 9.82727 47.9504 9.84693C47.8959 9.86652 47.9405 9.88257 48.0495 9.88257C48.1585 9.88257 48.2031 9.86652 48.1486 9.84693ZM54.1726 9.7762C54.1182 9.75654 54.029 9.75654 53.9745 9.7762C53.92 9.79579 53.9646 9.81185 54.0736 9.81185C54.1826 9.81185 54.2272 9.79579 54.1726 9.7762ZM54.729 9.77663C54.6753 9.75725 54.5683 9.75605 54.4912 9.77401C54.4141 9.79197 54.458 9.80782 54.5888 9.80923C54.7196 9.81065 54.7827 9.79601 54.729 9.77663ZM20.8023 9.70357C20.8786 9.68574 21.0035 9.68574 21.0798 9.70357C21.156 9.72132 21.0936 9.73589 20.9411 9.73589C20.7885 9.73589 20.7261 9.72132 20.8023 9.70357ZM21.5554 9.70548C21.6099 9.68582 21.6991 9.68582 21.7535 9.70548C21.8081 9.72507 21.7634 9.74112 21.6544 9.74112C21.5455 9.74112 21.5009 9.72507 21.5554 9.70548ZM6.38067 9.58864C6.35785 9.55568 5.94179 9.53524 5.45606 9.54323C4.57472 9.55759 3.03104 9.45348 2.77121 9.3621C2.68426 9.33155 2.64011 9.24866 2.65057 9.13571C2.66841 8.94348 2.68069 8.93662 3.1264 8.87056C3.49117 8.81645 3.52058 8.70202 3.16603 8.71638C2.92998 8.72592 2.91032 8.71051 2.93125 8.53228C2.95122 8.36197 2.92657 8.33764 2.73309 8.33672C2.4559 8.33531 2.35825 8.27243 2.33637 8.08119C2.32218 7.95678 2.37362 7.92297 2.63361 7.88591C3.05443 7.82587 3.03168 7.72805 2.58645 7.68328C2.23475 7.64792 1.79745 7.39317 1.88115 7.27237C1.90192 7.24231 1.81188 7.19669 1.68101 7.17102C1.47532 7.1307 1.45836 7.11076 1.55577 7.02384C1.61776 6.96853 1.71565 6.92277 1.77328 6.9222C1.85222 6.92136 1.84945 6.90502 1.76202 6.85565C1.68077 6.80982 1.77343 6.78372 2.07186 6.76838C2.49252 6.74673 2.49767 6.74376 2.50481 6.51659C2.50885 6.39013 2.48531 6.28673 2.45265 6.28673C2.41999 6.28673 2.3932 6.22308 2.3932 6.14528C2.3932 6.04047 2.33677 6.00135 2.17522 5.99421C1.98523 5.98579 1.98039 5.98063 2.13765 5.95368C2.36744 5.91436 2.7854 5.72192 2.64233 5.72135C2.58185 5.72114 2.55379 5.67679 2.5782 5.62C2.64273 5.46999 2.48578 5.38908 1.96414 5.30336C1.49744 5.22669 1.29634 5.15512 1.54769 5.15512C1.62037 5.15512 1.67982 5.10738 1.67982 5.04903C1.67982 4.96649 1.57416 4.94294 1.20424 4.94294C0.691396 4.94294 0.531916 4.80786 1.02589 4.79187C1.20986 4.78593 1.2552 4.77058 1.14479 4.75156C1.04666 4.73472 0.966444 4.69349 0.966444 4.6599C0.966444 4.6263 0.894551 4.57849 0.806726 4.5536C0.718901 4.52877 0.666745 4.48004 0.690683 4.44546C0.7147 4.4108 0.617125 4.35231 0.473895 4.31546C0.248863 4.25754 0.294282 4.24728 0.807915 4.23993C1.41833 4.23116 1.441 4.15668 0.861577 4.06375C0.604681 4.02259 0.573372 3.99911 0.656361 3.90992C0.73515 3.82519 0.767569 3.82257 0.822262 3.89641C0.875052 3.96777 0.916665 3.95717 1.00925 3.84881C1.11839 3.72115 1.11324 3.70368 0.948292 3.64003C0.794202 3.58062 0.83114 3.56506 1.20424 3.53182C1.59549 3.49702 1.62291 3.48422 1.47175 3.40692C1.37917 3.35953 1.14733 3.29956 0.956536 3.27367C0.363559 3.19318 0.329396 3.10888 0.887179 3.10244L1.4024 3.09657L0.728651 2.87046L0.0549037 2.64435L0.451225 2.60899L0.847547 2.57363L0.380522 2.47793C0.0541904 2.41103 -0.0532128 2.36343 0.0238322 2.31986C0.0845487 2.28556 0.205506 2.2548 0.292697 2.25147C0.450116 2.24546 0.450116 2.24504 0.294124 2.19065C0.180142 2.15097 0.278113 2.11914 0.650814 2.0748C1.11633 2.01949 1.1348 2.01136 0.847547 1.98837C0.673166 1.97444 0.496644 1.93328 0.455189 1.89699C0.408502 1.85611 0.739827 1.82888 1.3271 1.82542C2.05863 1.8211 2.22469 1.80363 2.05633 1.74882C1.92998 1.70759 1.83835 1.62484 1.83835 1.55185C1.83835 1.44972 1.6998 1.40078 1.10619 1.29328C0.703524 1.22036 0.441238 1.14914 0.523277 1.13506C0.642649 1.11455 0.650338 1.09694 0.5618 1.04694C0.480475 1.00097 0.503619 0.983922 0.649387 0.982296C0.758375 0.981093 0.900021 0.95047 0.964225 0.914258C1.0939 0.841127 1.06021 0.823234 0.63829 0.741262C0.523198 0.718913 0.409691 0.655543 0.385991 0.600377C0.349847 0.516497 0.486815 0.505463 1.22936 0.532763C1.88448 0.55681 2.08478 0.54507 1.99688 0.487782C1.89661 0.42236 1.90287 0.411964 2.03651 0.421441C2.30141 0.440396 2.35944 0.417763 2.23467 0.344208C2.15382 0.296539 2.26789 0.290315 2.59136 0.324688C3.18347 0.387704 3.15319 0.388412 4.49371 0.279212C5.3152 0.212305 6.51947 0.201413 9.13067 0.237129C11.2982 0.266834 13.3302 0.256649 14.4018 0.210819C17.9334 0.059536 18.2847 0.0489283 18.2342 0.0954657C18.2059 0.121563 17.8135 0.160179 17.3623 0.181255C16.9111 0.202261 16.508 0.247951 16.4666 0.282606C16.3634 0.369103 23.1887 0.362385 25.5959 0.273623C26.9766 0.222701 37.4062 0.123049 41.0346 0.12609C41.8441 0.126797 45.3748 0.216194 45.5368 0.2401C45.6705 0.259903 45.7396 0.245263 45.7105 0.203252C45.6839 0.164918 45.6979 0.133587 45.7415 0.133587C45.7851 0.133587 45.8428 0.165413 45.8697 0.204312C45.9339 0.297033 46.2264 0.295973 46.2264 0.203039C46.2264 0.123048 48.0989 0.118311 49.4662 0.194765C50.0924 0.229774 50.2977 0.219519 50.3268 0.151834C50.3479 0.102892 50.4169 0.0628605 50.4802 0.0628605C50.5435 0.0628605 50.5732 0.0946875 50.5463 0.133587C50.5194 0.172485 50.5618 0.209759 50.6407 0.216408C50.7196 0.223056 50.8376 0.235573 50.903 0.244272C50.9684 0.252901 51.2181 0.263864 51.4578 0.268602C51.7235 0.273836 51.8532 0.300217 51.7898 0.336004C51.687 0.394211 52.2492 0.448387 53.8358 0.532975C54.6334 0.575481 54.9943 0.691613 54.3867 0.710143C54.1927 0.716084 53.9983 0.728321 53.9547 0.737373C53.9111 0.746427 53.5366 0.761844 53.1224 0.771605L52.3694 0.789498L52.8846 0.844522C53.168 0.874794 53.7505 0.909519 54.1791 0.921614C54.6077 0.933778 54.9754 0.968292 54.9962 0.998351C55.0171 1.02841 55.1054 1.05302 55.1926 1.05302C55.2798 1.05302 55.332 1.08068 55.3086 1.11455C55.2849 1.14871 55.1154 1.15006 54.9274 1.11759C54.5479 1.0521 54.1862 1.03562 54.2431 1.0864C54.3194 1.15458 55.9616 1.40707 56.0753 1.36818C56.1417 1.34547 56.2139 1.37596 56.2407 1.43798C56.2743 1.51613 56.4094 1.55143 56.7066 1.55963L57.1252 1.57116L56.6893 1.61289C56.3463 1.64577 56.2988 1.66367 56.4667 1.69684C56.5841 1.72011 56.8516 1.71544 57.0612 1.68658C57.2708 1.65773 57.4504 1.64054 57.4603 1.64839C57.4702 1.65631 57.4215 1.7351 57.352 1.82358C57.2684 1.93009 57.1992 1.96065 57.147 1.91411C57.0948 1.8675 56.9842 1.8687 56.8193 1.91779C56.3764 2.04941 56.4463 2.07904 57.1391 2.05323C57.6224 2.03526 57.8032 2.05061 57.7647 2.10627C57.7312 2.15451 57.7808 2.18711 57.8934 2.191C58.0564 2.19666 57.2774 2.3379 56.6497 2.41655C56.5189 2.43295 56.6794 2.45162 57.0063 2.45799C57.3333 2.46443 57.6543 2.50057 57.7197 2.53826C57.8183 2.59513 57.8116 2.60722 57.6801 2.60899C57.5929 2.61019 57.4681 2.64478 57.4027 2.68587C57.3157 2.74047 57.3849 2.74853 57.66 2.71579C58.152 2.65737 58.256 2.71911 58.0289 2.93468C57.9285 3.03016 57.8933 3.10407 57.9484 3.10407C58.0021 3.10407 58.0241 3.1359 57.9972 3.1748C57.9702 3.2137 57.7987 3.24602 57.616 3.24658C57.4333 3.24722 57.2303 3.28089 57.1649 3.32148C57.0793 3.37453 57.1627 3.38231 57.4621 3.34906C57.8855 3.30217 58.0457 3.39638 57.6999 3.48896C57.526 3.5355 57.5254 3.53833 57.6801 3.6046C57.8057 3.65835 57.7806 3.66634 57.5591 3.64286C57.24 3.60898 56.9049 3.76147 57.1294 3.83835C57.1997 3.86239 57.3212 3.88205 57.3994 3.88205C57.4777 3.88205 57.5862 3.92979 57.6405 3.98814C57.718 4.07146 57.7182 4.09423 57.6416 4.09423C57.5876 4.09423 57.5645 4.14148 57.5899 4.20032C57.6191 4.2685 57.5868 4.30818 57.4993 4.31136C57.3863 4.31553 57.3901 4.32621 57.5216 4.37431C57.6688 4.4282 57.6643 4.43782 57.457 4.51081C57.3343 4.55395 57.1826 4.58931 57.1201 4.58931C57.0575 4.58931 57.0063 4.62114 57.0063 4.66004C57.0063 4.69894 57.2114 4.73388 57.4621 4.73762L57.9179 4.74448L57.6206 4.85333C57.2984 4.9713 57.2399 5.11028 57.467 5.2187C57.546 5.2564 58.0097 5.3098 58.4975 5.33738C58.9852 5.36489 59.3843 5.41207 59.3843 5.44219C59.3843 5.47232 59.2862 5.52891 59.1663 5.56802C58.9838 5.62743 59.042 5.63994 59.523 5.64461C59.8491 5.6478 60.0977 5.68082 60.0977 5.72093C60.0977 5.75982 60.0242 5.79165 59.9344 5.79165C59.8447 5.79165 59.7923 5.82206 59.8181 5.85927C59.8439 5.89647 59.9173 5.90899 59.9813 5.88706C60.0453 5.86521 60.0977 5.87716 60.0977 5.91365C60.0977 5.95022 59.9282 6.01557 59.7212 6.05892C59.4016 6.12583 59.5243 6.13432 60.5336 6.11522L61.7226 6.09266L60.6921 6.22195C58.889 6.4482 58.9213 6.44233 59.1465 6.50252C59.3298 6.55153 59.3316 6.55606 59.171 6.56256C58.9293 6.57239 58.868 6.6944 59.0859 6.73174C59.1857 6.74893 59.1189 6.76682 58.9351 6.77219C58.7535 6.7775 58.593 6.81322 58.5784 6.85155C58.5639 6.88988 58.1418 6.94731 57.6405 6.97907C56.7476 7.03565 56.7358 7.03862 57.0634 7.1237C57.2769 7.17908 57.8329 7.20482 58.5991 7.19485C59.7079 7.18035 59.8089 7.18976 59.9126 7.31643C60.0113 7.43716 60.1441 7.45654 61.0124 7.47719C61.7999 7.49586 62 7.52097 62 7.60096C62 7.65613 61.969 7.70125 61.9311 7.70125C61.8197 7.70125 60.467 7.91435 60.3156 7.95572C60.0293 8.03408 60.1929 8.12589 60.6327 8.13374C61.0836 8.1418 61.0851 8.14251 60.7714 8.20036C60.597 8.23254 60.169 8.26309 59.8202 8.26819C59.1991 8.27738 58.3568 8.3735 58.5916 8.40851C58.8153 8.44182 57.9979 8.53949 57.4514 8.54473C56.9751 8.54932 56.8822 8.57245 56.7219 8.72677L56.5383 8.90359L56.8714 8.90995L57.2045 8.91632L56.9335 8.98584C56.7844 9.02403 56.5972 9.04002 56.5174 9.02142C56.4375 9.00282 56.3722 9.01406 56.3722 9.04645C56.3722 9.07885 56.3098 9.11994 56.2335 9.13776C56.1573 9.15551 56.2553 9.17779 56.4515 9.18713L56.8082 9.20417L56.4515 9.25778C55.2857 9.4329 46.9949 9.52958 44.324 9.39916C43.5611 9.36189 42.5743 9.33063 42.131 9.32971C41.5622 9.32844 41.3133 9.30192 41.285 9.23954C41.2547 9.17298 41.2285 9.1715 41.1787 9.23374C41.1228 9.30347 39.4768 9.38375 39.3304 9.32391C39.1873 9.26542 18.3072 9.27313 16.8986 9.33219C15.9613 9.37151 14.8912 9.41607 14.5206 9.4312C14.1501 9.44634 13.0471 9.47534 12.0697 9.49549C11.0922 9.51572 9.93299 9.55221 9.49363 9.57654C8.22318 9.64699 6.42593 9.65399 6.38067 9.58864ZM46.6079 9.63327C46.665 9.61283 46.7334 9.61537 46.7598 9.63885C46.7861 9.66233 46.7393 9.67903 46.6558 9.67598C46.5634 9.67259 46.5446 9.65583 46.6079 9.63327ZM44.4678 9.56254C44.5249 9.5421 44.5933 9.54465 44.6196 9.56813C44.6459 9.59161 44.5992 9.6083 44.5156 9.60526C44.4233 9.60186 44.4045 9.5851 44.4678 9.56254ZM45.1019 9.56254C45.159 9.5421 45.2274 9.54465 45.2537 9.56813C45.2801 9.59161 45.2333 9.6083 45.1497 9.60526C45.0574 9.60186 45.0386 9.5851 45.1019 9.56254ZM19.653 9.41946C19.7511 9.40263 19.9116 9.40263 20.0097 9.41946C20.1078 9.43637 20.0275 9.45016 19.8314 9.45016C19.6352 9.45016 19.5549 9.43637 19.653 9.41946ZM35.7056 9.14009C35.6519 9.12072 35.5449 9.11951 35.4678 9.13748C35.3906 9.15544 35.4346 9.17128 35.5653 9.1727C35.6961 9.17411 35.7592 9.15947 35.7056 9.14009ZM56.0337 9.14377C56.0074 9.12029 55.939 9.11775 55.8818 9.13819C55.8186 9.16075 55.8374 9.17751 55.9297 9.1809C56.0132 9.18394 56.06 9.16725 56.0337 9.14377ZM44.222 9.01816C44.2491 8.99405 43.9888 8.97071 43.6437 8.96625C43.2985 8.96187 42.1066 8.94206 40.9949 8.92233C39.8833 8.90253 35.9483 8.86186 32.2506 8.8318C28.5528 8.80174 25.3329 8.75556 25.0952 8.72904C24.6585 8.68038 24.1357 8.73653 24.2316 8.8219C24.2867 8.87105 25.037 8.88421 29.244 8.90946C30.8497 8.91915 31.8795 8.95168 31.8795 8.99277C31.8795 9.02983 31.9297 9.04299 31.9911 9.02198C32.1605 8.96399 34.8002 8.97382 36.7147 9.03959C38.5864 9.10395 44.1437 9.08804 44.222 9.01816ZM46.2924 9.08033C46.2354 9.02948 44.8768 9.02333 44.8204 9.07368C44.7944 9.09681 45.124 9.11577 45.5526 9.11577C45.9813 9.11577 46.3142 9.09985 46.2924 9.08033ZM46.6012 9.07305C46.5749 9.04957 46.5065 9.04702 46.4494 9.06746C46.3861 9.09002 46.4049 9.10678 46.4972 9.11018C46.5808 9.11322 46.6275 9.09653 46.6012 9.07305ZM40.5798 8.99504C40.6784 8.97813 40.821 8.97877 40.8968 8.99645C40.9726 9.01413 40.8919 9.02799 40.7175 9.02722C40.5431 9.02644 40.4812 9.01194 40.5798 8.99504ZM51.4058 8.99199C51.426 8.96286 50.9495 8.93895 50.3471 8.93895C49.7447 8.93895 49.225 8.96286 49.1923 8.99199C49.1596 9.02113 49.6359 9.04504 50.251 9.04504C50.8661 9.04504 51.3857 9.02113 51.4058 8.99199ZM51.8145 8.97431C51.5981 8.89128 51.5371 8.89128 51.5371 8.97431C51.5371 9.01321 51.6352 9.04278 51.7551 9.04009C51.9483 9.03563 51.955 9.02821 51.8145 8.97431ZM37.334 8.92601C37.3911 8.90557 37.4595 8.90811 37.4858 8.9316C37.5122 8.95508 37.4654 8.97177 37.3818 8.96873C37.2895 8.96533 37.2707 8.94857 37.334 8.92601ZM37.806 8.92304C37.9484 8.90734 38.1624 8.90762 38.2816 8.92374C38.4007 8.93994 38.2841 8.95281 38.0225 8.95239C37.761 8.95204 37.6635 8.93881 37.806 8.92304ZM21.8054 8.75796C21.7484 8.72649 21.6693 8.71857 21.63 8.74028C21.5906 8.76199 21.605 8.80556 21.662 8.83703C21.719 8.86851 21.7981 8.87643 21.8375 8.85472C21.8769 8.833 21.8624 8.78944 21.8054 8.75796ZM23.2397 8.81751C23.2397 8.78703 22.9812 8.76588 22.6651 8.77048C22.2385 8.77671 22.1517 8.79248 22.3282 8.83166C22.6325 8.89927 23.2397 8.8898 23.2397 8.81751ZM24.0324 8.86646C24.0324 8.79092 23.6044 8.68731 23.4837 8.73363C23.3849 8.77154 23.4002 8.79297 23.5568 8.83555C23.7989 8.90147 24.0324 8.9166 24.0324 8.86646ZM21.4535 8.7581C21.4281 8.72147 21.133 8.69191 20.7977 8.69247C20.4624 8.69311 20.2297 8.71694 20.2807 8.74552C20.4218 8.82466 21.5076 8.83633 21.4535 8.7581ZM46.8026 8.78647C46.7489 8.76709 46.6419 8.76588 46.5648 8.78385C46.4876 8.80181 46.5316 8.81766 46.6623 8.81907C46.7931 8.82048 46.8562 8.80584 46.8026 8.78647ZM52.3496 8.7122C52.2515 8.69537 52.0909 8.69537 51.9929 8.7122C51.8948 8.72911 51.975 8.7429 52.1712 8.7429C52.3674 8.7429 52.4476 8.72911 52.3496 8.7122ZM3.18585 7.77197C3.18585 7.73308 3.17015 7.70125 3.15089 7.70125C3.13163 7.70125 3.0939 7.73308 3.06695 7.77197C3.04 7.81087 3.05577 7.8427 3.1019 7.8427C3.14804 7.8427 3.18585 7.81087 3.18585 7.77197ZM1.03089 5.17754C1.08804 5.1571 1.15644 5.15965 1.18276 5.18313C1.20907 5.20661 1.16231 5.2233 1.07876 5.22026C0.986419 5.21686 0.967633 5.2001 1.03089 5.17754ZM57.3812 3.98079C57.3549 3.95731 57.2865 3.95476 57.2293 3.9752C57.1661 3.99776 57.1848 4.01452 57.2772 4.01792C57.3607 4.02096 57.4075 4.00427 57.3812 3.98079ZM1.67982 3.81133C1.67982 3.77243 1.64201 3.7406 1.59588 3.7406C1.54975 3.7406 1.53398 3.77243 1.56093 3.81133C1.58788 3.85023 1.62561 3.88205 1.64487 3.88205C1.66413 3.88205 1.67982 3.85023 1.67982 3.81133ZM25.2642 2.7457C25.3495 2.62257 25.2524 2.59647 25.1437 2.71338C25.0811 2.78057 25.0751 2.82117 25.1277 2.82117C25.174 2.82117 25.2355 2.78722 25.2642 2.7457ZM30.2905 2.57158C30.3376 2.59753 30.3556 2.64838 30.3305 2.6846C30.3043 2.72243 30.4864 2.75044 30.7586 2.75044C31.0321 2.75044 31.2445 2.71762 31.2612 2.67278C31.2772 2.63007 31.4578 2.57822 31.6626 2.55764C32.1727 2.5063 32.0565 2.39738 31.5202 2.42432C31.1976 2.44052 31.0869 2.42171 31.0869 2.3507C31.0869 2.23061 30.7969 2.22474 30.7431 2.34377C30.7199 2.39504 30.7005 2.37842 30.6968 2.30423C30.6934 2.23386 30.6613 2.19241 30.6254 2.21222C30.5896 2.23195 30.5008 2.18612 30.4281 2.1103C30.2729 1.94848 29.8979 1.92295 29.8979 2.07409C29.8979 2.15146 29.8291 2.16575 29.6099 2.13407C29.3838 2.10132 29.3302 2.1137 29.3608 2.1915C29.3822 2.2461 29.4504 2.28747 29.5122 2.28351C29.5741 2.27955 29.6735 2.3229 29.7331 2.37977C29.8272 2.46966 29.8061 2.47687 29.5724 2.43472C29.4245 2.40806 29.244 2.37142 29.1714 2.35332C29.0988 2.33514 29.0185 2.35049 28.993 2.38727C28.9675 2.42411 29.1269 2.47638 29.3474 2.5034C29.5678 2.53048 29.7908 2.59414 29.8428 2.64492C29.9205 2.72059 29.9617 2.71805 30.0713 2.63084C30.1448 2.57228 30.2435 2.54562 30.2905 2.57158ZM41.4705 2.65235C41.4705 2.59428 40.9857 2.56507 40.9471 2.6208C40.9247 2.65319 41.0333 2.67972 41.1884 2.67972C41.3436 2.67972 41.4705 2.66741 41.4705 2.65235ZM26.9966 2.2265C26.9285 2.06815 26.8287 2.14729 26.8527 2.3408C26.8824 2.58141 26.8843 2.58339 26.9677 2.45594C27.01 2.39122 27.023 2.28796 26.9966 2.2265ZM32.6142 2.49187C32.5606 2.47249 32.4536 2.47129 32.3765 2.48925C32.2993 2.50722 32.3432 2.52306 32.474 2.52447C32.6048 2.52589 32.6679 2.51125 32.6142 2.49187ZM35.2879 2.46393C34.7796 2.38323 32.9724 2.38585 32.8307 2.46754C32.7518 2.51301 33.2056 2.53345 34.1782 2.52836C35.1811 2.52299 35.5319 2.50269 35.2879 2.46393ZM36.9326 2.48762C36.8127 2.47143 36.6166 2.47143 36.4967 2.48762C36.3768 2.50382 36.4749 2.51705 36.7147 2.51705C36.9544 2.51705 37.0526 2.50382 36.9326 2.48762ZM37.6857 2.49144C37.6312 2.47178 37.542 2.47178 37.4875 2.49144C37.433 2.51103 37.4776 2.52709 37.5866 2.52709C37.6956 2.52709 37.7402 2.51103 37.6857 2.49144ZM38.4783 2.49144C38.4238 2.47178 38.3347 2.47178 38.2801 2.49144C38.2257 2.51103 38.2702 2.52709 38.3792 2.52709C38.4882 2.52709 38.5328 2.51103 38.4783 2.49144ZM24.9835 2.43295C24.9835 2.32998 24.6881 2.11426 24.5498 2.11624C24.3952 2.11851 24.396 2.12381 24.5704 2.25352L24.7517 2.3884L24.4119 2.41563C24.1135 2.43953 24.1276 2.44434 24.5278 2.45516C24.7785 2.46195 24.9835 2.45198 24.9835 2.43295ZM25.3584 2.42482C25.3321 2.40134 25.2637 2.39879 25.2065 2.41923C25.1433 2.44179 25.162 2.45856 25.2544 2.46195C25.3379 2.46499 25.3847 2.4483 25.3584 2.42482ZM30.215 2.39681C30.215 2.35791 30.2528 2.32609 30.2989 2.32609C30.3451 2.32609 30.3608 2.35791 30.3339 2.39681C30.3069 2.43571 30.2692 2.46754 30.2499 2.46754C30.2307 2.46754 30.215 2.43571 30.215 2.39681ZM55.0033 2.42482C54.9769 2.40134 54.9085 2.39879 54.8514 2.41923C54.7881 2.44179 54.8069 2.45856 54.8993 2.46195C54.9828 2.46499 55.0296 2.4483 55.0033 2.42482ZM55.5994 2.42072C55.545 2.40106 55.4558 2.40106 55.4012 2.42072C55.3468 2.44031 55.3913 2.45636 55.5003 2.45636C55.6093 2.45636 55.6539 2.44031 55.5994 2.42072ZM21.5537 2.35409C21.5274 2.33061 21.459 2.32807 21.4018 2.34851C21.3386 2.37107 21.3574 2.38783 21.4497 2.39123C21.5332 2.39427 21.58 2.37757 21.5537 2.35409ZM23.7764 2.31279C23.7591 2.26661 23.6977 2.21476 23.6399 2.19758C23.5807 2.17997 23.5574 2.19899 23.5866 2.24114C23.6157 2.28315 23.5597 2.32948 23.4589 2.34674C23.331 2.36866 23.3555 2.38033 23.5436 2.38719C23.716 2.39349 23.7969 2.3676 23.7764 2.31279ZM26.2914 2.25536C26.2626 2.17424 26.2771 2.11391 26.3257 2.11391C26.3723 2.11391 26.4103 2.08739 26.4103 2.055C26.4103 1.96312 26.088 2.00704 26.0177 2.10853C25.969 2.17876 25.9165 2.18089 25.7847 2.11794C25.691 2.07324 25.5758 2.0579 25.5286 2.08392C25.4335 2.1364 25.9685 2.38196 26.1976 2.39108C26.3066 2.3954 26.3295 2.36237 26.2914 2.25536ZM41.2724 2.32609C41.2993 2.28719 41.2835 2.25536 41.2374 2.25536C41.1913 2.25536 41.1535 2.28719 41.1535 2.32609C41.1535 2.36499 41.1692 2.39681 41.1884 2.39681C41.2077 2.39681 41.2454 2.36499 41.2724 2.32609ZM42.0254 2.36562C42.0254 2.34844 41.9897 2.31477 41.9461 2.29072C41.9025 2.26668 41.8669 2.28075 41.8669 2.32191C41.8669 2.36308 41.9025 2.39681 41.9461 2.39681C41.9897 2.39681 42.0254 2.38281 42.0254 2.36562ZM53.6193 2.35042C53.5656 2.33104 53.4586 2.32984 53.3815 2.3478C53.3044 2.36576 53.3483 2.38161 53.4791 2.38302C53.6099 2.38443 53.673 2.36979 53.6193 2.35042ZM54.0521 2.35409C54.0258 2.33061 53.9574 2.32807 53.9002 2.34851C53.837 2.37107 53.8557 2.38783 53.9481 2.39123C54.0316 2.39427 54.0784 2.37757 54.0521 2.35409ZM22.7245 2.25536C22.7515 2.21646 22.7357 2.18464 22.6896 2.18464C22.6434 2.18464 22.6056 2.21646 22.6056 2.25536C22.6056 2.29426 22.6213 2.32609 22.6406 2.32609C22.6598 2.32609 22.6976 2.29426 22.7245 2.25536ZM32.0959 2.28337C32.0695 2.25989 32.0011 2.25734 31.944 2.27778C31.8807 2.30034 31.8995 2.3171 31.9919 2.3205C32.0754 2.32354 32.1222 2.30685 32.0959 2.28337ZM32.4922 2.28337C32.4659 2.25989 32.3975 2.25734 32.3403 2.27778C32.2771 2.30034 32.2958 2.3171 32.3882 2.3205C32.4717 2.32354 32.5185 2.30685 32.4922 2.28337ZM33.227 2.22C33.227 2.16165 33.2627 2.11391 33.3063 2.11391C33.3499 2.11391 33.3855 2.15366 33.3854 2.20232C33.3852 2.26795 33.5593 2.28478 34.0602 2.26781C34.4684 2.25395 34.7165 2.21788 34.6878 2.1765C34.6618 2.13895 34.5775 2.126 34.5006 2.14779C34.4237 2.16957 34.2572 2.13916 34.1308 2.08031C33.9272 1.98554 33.8979 1.9854 33.8752 2.07897C33.8465 2.19708 33.5014 2.22389 33.4252 2.11391C33.3721 2.03717 33.0452 2.0168 32.9683 2.08548C32.8911 2.15429 32.9971 2.32609 33.1166 2.32609C33.1773 2.32609 33.227 2.27835 33.227 2.22ZM40.5194 2.22C40.4358 2.13018 40.4533 2.11391 40.6333 2.11391C40.7548 2.11391 40.8248 2.08364 40.7968 2.04318C40.7698 2.00428 40.6727 1.97246 40.5807 1.97246C40.4888 1.97246 40.4391 1.94968 40.4703 1.92189C40.5015 1.89409 40.8157 1.88115 41.1685 1.89303C41.7417 1.91241 41.8047 1.90209 41.7592 1.79621C41.7257 1.71827 41.7422 1.68885 41.8073 1.71014C41.8619 1.72803 41.8976 1.77839 41.8867 1.82216C41.8757 1.86594 41.9582 1.90173 42.0697 1.90173C42.1847 1.90173 42.2514 1.87111 42.2235 1.83101C42.1966 1.79211 42.2124 1.76028 42.2585 1.76028C42.3046 1.76028 42.3424 1.79211 42.3424 1.83101C42.3424 1.94869 42.6389 1.91022 42.6925 1.78553C42.72 1.72159 42.7306 1.65865 42.716 1.64563C42.7014 1.63269 42.338 1.61338 41.9084 1.60277C41.3381 1.5887 41.1183 1.6073 41.0941 1.67187C41.0759 1.72046 40.9905 1.76028 40.9044 1.76028C40.8183 1.76028 40.7698 1.72845 40.7968 1.68955C40.8254 1.64832 40.7448 1.61883 40.6033 1.61883C40.47 1.61883 40.3608 1.65065 40.3608 1.68955C40.3608 1.72845 40.2289 1.76028 40.0676 1.76028C39.7469 1.76028 39.7879 1.87337 40.123 1.9134C40.2721 1.93122 40.3274 1.98533 40.3462 2.13159C40.3616 2.25083 40.4191 2.32609 40.4947 2.32609C40.5954 2.32609 40.5999 2.30657 40.5194 2.22ZM48.4062 2.16299C48.4934 2.14269 48.3952 2.12933 48.1882 2.13322C47.9811 2.13711 47.8117 2.16837 47.8117 2.2026C47.8117 2.2369 47.8875 2.24341 47.9801 2.21717C48.1089 2.18074 48.1333 2.19206 48.0838 2.26547C48.0329 2.34094 48.0434 2.34419 48.1333 2.28068C48.1962 2.23619 48.319 2.18329 48.4062 2.16299ZM38.4981 2.18464C38.4712 2.14574 38.4156 2.11391 38.3745 2.11391C38.3335 2.11391 38.3 2.14574 38.3 2.18464C38.3 2.22353 38.3556 2.25536 38.4235 2.25536C38.4915 2.25536 38.5251 2.22353 38.4981 2.18464ZM30.0565 2.11391C30.2102 2.02529 30.2943 2.02529 30.2943 2.11391C30.2943 2.15281 30.214 2.18414 30.1159 2.18357C29.9717 2.18265 29.9603 2.16936 30.0565 2.11391ZM37.5073 2.08321C37.5073 2.02578 37.6018 1.97104 37.7253 1.95697C37.9001 1.93702 37.8786 1.92542 37.6163 1.8982C37.3183 1.86729 37.2893 1.87846 37.2893 2.02444C37.2893 2.1132 37.3379 2.18464 37.3983 2.18464C37.4583 2.18464 37.5073 2.13902 37.5073 2.08321ZM39.9645 2.12445C39.9645 2.08894 39.8211 2.05811 39.6459 2.05591C39.4705 2.05379 39.3432 2.07522 39.3628 2.10351C39.4161 2.18032 39.9645 2.19942 39.9645 2.12445ZM15.2737 2.04318C15.3006 2.00428 15.267 1.97246 15.1991 1.97246C15.1311 1.97246 15.0755 2.00428 15.0755 2.04318C15.0755 2.08208 15.109 2.11391 15.1501 2.11391C15.1911 2.11391 15.2467 2.08208 15.2737 2.04318ZM31.0076 2.03901C31.0076 1.99785 30.968 1.98597 30.9195 2.0127C30.8711 2.03943 30.8003 2.01744 30.7622 1.96383C30.7075 1.88674 30.6927 1.89225 30.6918 1.99014C30.6911 2.06709 30.7505 2.11391 30.8491 2.11391C30.9363 2.11391 31.0076 2.08017 31.0076 2.03901ZM32.1173 2.06087C32.1173 2.03173 32.0316 2.00782 31.9267 2.00782C31.8219 2.00782 31.7527 2.03173 31.7729 2.06087C31.7931 2.09 31.8788 2.11391 31.9635 2.11391C32.0481 2.11391 32.1173 2.09 32.1173 2.06087ZM47.2172 2.04318C47.1902 2.00428 47.0901 1.97472 46.9945 1.97741C46.8271 1.98222 46.8266 1.98455 46.9794 2.04318C47.1975 2.12685 47.2751 2.12685 47.2172 2.04318ZM53.0431 2.04318C53.0431 2.00428 53.1234 1.97196 53.2215 1.9714C53.3195 1.97076 53.4533 1.93943 53.5187 1.90173C53.6064 1.85116 53.544 1.82924 53.2809 1.81828C53.0847 1.81007 52.7994 1.79076 52.6468 1.77542C52.4942 1.76 51.1388 1.73807 49.6348 1.72669C48.1307 1.7153 47.1142 1.72973 47.3757 1.75879C47.6373 1.78779 48.0297 1.83136 48.2476 1.85555C49.0851 1.94841 50.1009 1.9726 50.1505 1.90095C50.178 1.86121 50.2372 1.8489 50.2819 1.87358C50.3267 1.8982 50.4466 1.8786 50.5485 1.82995C50.6504 1.78129 50.7986 1.76459 50.8779 1.79288C50.9571 1.82117 51.2782 1.84989 51.5915 1.85668C51.9047 1.86347 52.1843 1.88985 52.2128 1.91531C52.2413 1.9407 52.3863 1.94388 52.535 1.92238C52.75 1.89126 52.8053 1.90682 52.8053 1.99856C52.8053 2.062 52.8588 2.11391 52.9242 2.11391C52.9896 2.11391 53.0431 2.08208 53.0431 2.04318ZM55.3748 2.0255C55.4118 1.95478 55.4303 1.95478 55.4673 2.0255C55.517 2.12056 56.1788 2.15083 56.2411 2.06087C56.2613 2.03173 56.1207 2.01899 55.9287 2.03264C55.7107 2.04813 55.5796 2.02819 55.5796 1.9796C55.5796 1.86163 55.2068 1.88638 55.1546 2.00782C55.0991 2.13682 55.3079 2.15359 55.3748 2.0255ZM36.9921 1.97246C36.9651 1.93356 36.8471 1.904 36.7298 1.90668C36.5393 1.91114 36.5335 1.91821 36.675 1.97246C36.8952 2.0569 37.0506 2.0569 36.9921 1.97246ZM44.4429 1.97246C44.416 1.93356 44.4674 1.90173 44.5572 1.90173C44.6469 1.90173 44.7204 1.93356 44.7204 1.97246C44.7204 2.05598 44.874 2.0371 45.0045 1.93752C45.1242 1.84621 44.7172 1.68503 44.4968 1.73644C44.4116 1.75632 44.3179 1.738 44.2887 1.69571C44.2594 1.65341 44.1819 1.61883 44.1165 1.61883C44.0511 1.61883 44.0214 1.65313 44.0504 1.695C44.087 1.74776 43.991 1.75618 43.738 1.72237C43.5165 1.69274 43.3729 1.70059 43.3729 1.74239C43.3729 1.78022 43.5774 1.83009 43.8274 1.85307C44.0774 1.87606 44.2943 1.92825 44.3095 1.96906C44.3248 2.0098 44.3721 2.04318 44.4146 2.04318C44.4571 2.04318 44.4699 2.01136 44.4429 1.97246ZM46.7092 1.97797C46.6478 1.94325 46.4926 1.9267 46.3642 1.9412C46.1845 1.96149 46.1215 1.93561 46.0901 1.82853C46.0677 1.75208 46.019 1.68955 45.9819 1.68955C45.8963 1.68955 45.9884 1.91984 46.1017 1.98908C46.1485 2.01765 46.3294 2.04099 46.5038 2.04099C46.7201 2.04099 46.7854 2.02098 46.7092 1.97797ZM18.8009 1.91001C18.8009 1.82577 18.4945 1.75851 18.4438 1.83157C18.4217 1.86354 18.4484 1.90576 18.5032 1.9255C18.6655 1.98392 18.8009 1.97684 18.8009 1.91001ZM19.8314 1.90173C19.8314 1.86283 19.7978 1.83101 19.7568 1.83101C19.7157 1.83101 19.6602 1.86283 19.6332 1.90173C19.6063 1.94063 19.6399 1.97246 19.7078 1.97246C19.7757 1.97246 19.8314 1.94063 19.8314 1.90173ZM21.2581 1.90944C21.2581 1.8025 20.6793 1.77973 20.4676 1.87832C20.2821 1.96468 20.304 1.97161 20.7627 1.97203C21.0352 1.97225 21.2581 1.9441 21.2581 1.90944ZM21.5019 1.88228C21.492 1.7977 21.3834 1.8141 21.3493 1.90527C21.3318 1.95195 21.3604 1.97741 21.4127 1.96185C21.465 1.94629 21.5051 1.9105 21.5019 1.88228ZM22.2037 1.6595C22.2068 1.6235 22.1432 1.65532 22.0623 1.73022C21.9627 1.82252 21.9435 1.88264 22.0029 1.9168C22.0822 1.96263 22.1896 1.82506 22.2037 1.6595ZM22.8765 1.92953C23.0378 1.87429 23.0391 1.76028 22.8784 1.76028C22.8104 1.76028 22.7755 1.73036 22.8008 1.69387C22.8261 1.6573 22.7749 1.6322 22.687 1.63814C22.5226 1.64917 22.497 1.82117 22.6452 1.91835C22.7423 1.98201 22.7256 1.98123 22.8765 1.92953ZM53.9943 1.90173C53.9943 1.86283 53.9318 1.8315 53.8556 1.83207C53.737 1.83299 53.7342 1.84317 53.8358 1.90173C53.9853 1.98802 53.9943 1.98802 53.9943 1.90173ZM23.6788 1.79161C23.476 1.71735 23.4652 1.70087 23.5995 1.67046C23.7251 1.64196 23.7168 1.63368 23.5561 1.62703C23.4413 1.62229 23.3188 1.67371 23.2664 1.74847C23.1832 1.86729 23.2066 1.87811 23.5446 1.87783C23.9101 1.87754 23.9113 1.87676 23.6788 1.79161ZM24.7683 1.71006C24.8003 1.56097 24.7815 1.54188 24.6369 1.57653C24.5442 1.59874 24.3257 1.61833 24.1513 1.62003C23.8947 1.62251 23.861 1.63708 23.9746 1.69606C24.0518 1.73616 24.0951 1.79769 24.0707 1.83284C24.0464 1.86792 24.185 1.89381 24.3788 1.89034C24.6875 1.88483 24.7357 1.86255 24.7683 1.71006ZM27.0974 1.72046C27.1798 1.62003 27.2247 1.60999 27.2984 1.67569C27.4304 1.79345 27.5993 1.78143 27.5993 1.65419C27.5993 1.57151 27.4986 1.5493 27.1435 1.55369C26.8928 1.55673 26.7324 1.57533 26.7868 1.59492C27.0198 1.67887 26.8539 1.76028 26.4499 1.76028C25.9784 1.76028 25.8516 1.64578 26.2716 1.59924C26.4318 1.58156 26.3586 1.56649 26.0781 1.55942C25.8249 1.55305 25.6036 1.58184 25.5738 1.62498C25.5354 1.68036 25.4964 1.68036 25.4343 1.62498C25.3869 1.58269 25.2947 1.5481 25.2293 1.5481C25.1414 1.5481 25.1336 1.56882 25.1993 1.62746C25.2482 1.67109 25.2685 1.75271 25.2443 1.80887C25.2072 1.89515 25.3389 1.90619 26.0959 1.88037C26.8474 1.85477 27.0085 1.8291 27.0974 1.72046ZM28.8671 1.7426C28.8677 1.6636 28.3298 1.67838 28.274 1.75894C28.245 1.80074 28.353 1.82181 28.5463 1.81198C28.7225 1.803 28.8669 1.77174 28.8671 1.7426ZM31.721 1.76445C31.721 1.72782 31.6854 1.67831 31.642 1.65433C31.5037 1.57809 29.3626 1.6131 29.1846 1.69451C29.094 1.73588 30.0759 1.80873 30.8689 1.81948C31.3577 1.82606 31.721 1.80265 31.721 1.76445ZM35.1971 1.72343C35.2806 1.64889 35.1307 1.62364 34.3914 1.58778C33.6333 1.55093 32.8307 1.64104 32.8307 1.76297C32.8307 1.82514 35.1261 1.78673 35.1971 1.72343ZM38.0225 1.6921C37.5112 1.65136 37.1268 1.68135 37.2541 1.75208C37.2972 1.77605 37.5947 1.78086 37.9153 1.76283L38.4981 1.73001L38.0225 1.6921ZM39.4097 1.76028C39.4097 1.72138 39.394 1.68955 39.3747 1.68955C39.3554 1.68955 39.3177 1.72138 39.2908 1.76028C39.2638 1.79918 39.2796 1.83101 39.3257 1.83101C39.3719 1.83101 39.4097 1.79918 39.4097 1.76028ZM41.1931 1.76028C41.1662 1.72138 41.1998 1.68955 41.2677 1.68955C41.3356 1.68955 41.3913 1.72138 41.3913 1.76028C41.3913 1.79918 41.3577 1.83101 41.3167 1.83101C41.2756 1.83101 41.2201 1.79918 41.1931 1.76028ZM57.6256 1.7827C57.6828 1.76226 57.7512 1.76481 57.7775 1.78829C57.8038 1.81177 57.7571 1.82846 57.6735 1.82542C57.5812 1.82202 57.5624 1.80526 57.6256 1.7827ZM39.0576 1.6962C39.0332 1.66098 38.9418 1.64875 38.8547 1.66911C38.6366 1.71997 38.6563 1.76028 38.8991 1.76028C39.0106 1.76028 39.082 1.73142 39.0576 1.6962ZM43.1549 1.71346C43.1004 1.6938 43.0113 1.6938 42.9567 1.71346C42.9023 1.73305 42.9468 1.7491 43.0558 1.7491C43.1648 1.7491 43.2094 1.73305 43.1549 1.71346ZM46.8011 1.71346C46.7466 1.6938 46.6574 1.6938 46.6029 1.71346C46.5484 1.73305 46.593 1.7491 46.702 1.7491C46.811 1.7491 46.8556 1.73305 46.8011 1.71346ZM57.046 1.40665C57.0729 1.36775 57.1107 1.33592 57.1299 1.33592C57.1492 1.33592 57.1649 1.36775 57.1649 1.40665C57.1649 1.44555 57.1271 1.47738 57.0809 1.47738C57.0348 1.47738 57.019 1.44555 57.046 1.40665ZM59.1317 1.42907C59.1888 1.40863 59.2572 1.41118 59.2835 1.43466C59.3099 1.45814 59.2631 1.47483 59.1795 1.47179C59.0872 1.4684 59.0684 1.45163 59.1317 1.42907ZM26.7272 0.540259C26.7273 0.511121 26.005 0.493157 25.1223 0.500371C24.0111 0.509495 23.7245 0.525832 24.1909 0.553415C25.1587 0.610703 26.727 0.60257 26.7272 0.540259ZM27.52 0.514304C27.52 0.499452 27.3506 0.490964 27.1435 0.495561C26.8197 0.502774 26.8003 0.510697 27.0048 0.552142C27.227 0.597195 27.52 0.575624 27.52 0.514304ZM23.4181 0.511121C23.3636 0.491459 23.2744 0.491459 23.2199 0.511121C23.1655 0.530712 23.21 0.546766 23.319 0.546766C23.428 0.546766 23.4726 0.530712 23.4181 0.511121ZM16.2444 0.360334C16.2993 0.328083 15.9741 0.299863 15.5122 0.296822C15.0551 0.29378 14.6954 0.312028 14.713 0.337419C14.7611 0.406731 16.1304 0.42717 16.2444 0.360334ZM52.4735 0.297459C52.5306 0.277019 52.599 0.279565 52.6253 0.303045C52.6516 0.326527 52.6049 0.343219 52.5213 0.340178C52.429 0.336782 52.4102 0.320021 52.4735 0.297459ZM46.6805 0.23232C46.6542 0.208838 46.5858 0.206293 46.5286 0.226733C46.4654 0.249294 46.4842 0.266056 46.5765 0.269451C46.66 0.272492 46.7068 0.255801 46.6805 0.23232ZM19.1334 0.0808249C19.5997 0.0683775 20.3844 0.0683069 20.8773 0.0807543C21.3701 0.0932026 20.9886 0.103387 20.0295 0.103458C19.0704 0.103529 18.6672 0.0933437 19.1334 0.0808249ZM26.2374 0.0474424C26.2796 0.0097456 26.3804 -0.00864315 26.4614 0.00670433C26.5703 0.0272856 26.5504 0.0451088 26.3845 0.0752373C26.2398 0.101619 26.1877 0.0917168 26.2374 0.0474424ZM50.8089 0.0852814C50.866 0.0648413 50.9345 0.0673876 50.9608 0.0908689C50.9871 0.114349 50.9403 0.131041 50.8568 0.127999C50.7644 0.124605 50.7456 0.107842 50.8089 0.0852814ZM26.867 0.0128574C26.9656 -0.00404644 27.1083 -0.00340939 27.1841 0.0142727C27.2599 0.0319538 27.1792 0.0458155 27.0048 0.0450373C26.8304 0.04426 26.7684 0.0297604 26.867 0.0128574ZM27.9767 0.0128574C28.0753 -0.00404644 28.218 -0.00340939 28.2938 0.0142727C28.3696 0.0319538 28.2889 0.0458155 28.1145 0.0450373C27.9401 0.04426 27.8781 0.0297604 27.9767 0.0128574ZM30.4344 0.0115843C30.5768 -0.00411701 30.7908 -0.00383377 30.91 0.0122919C31.0291 0.0284882 30.9125 0.0413599 30.6509 0.0409355C30.3894 0.0405817 30.292 0.0273561 30.4344 0.0115843ZM31.5834 0.0120792C31.7039 -0.00411701 31.8822 -0.00369167 31.9797 0.0130711C32.0772 0.0298328 31.9786 0.043128 31.7606 0.0426331C31.5427 0.0420675 31.4629 0.0283461 31.5834 0.0120792ZM41.9659 0.0141315C42.0422 -0.00369167 42.1671 -0.00369167 42.2434 0.0141315C42.3196 0.0318832 42.2572 0.0464525 42.1046 0.0464525C41.9521 0.0464525 41.8897 0.0318832 41.9659 0.0141315ZM43.2738 0.0160398C43.3283 -0.00362206 43.4175 -0.00362206 43.472 0.0160398C43.5265 0.0356312 43.4819 0.0516853 43.3729 0.0516853C43.2639 0.0516853 43.2193 0.0356312 43.2738 0.0160398Z" fill="#DF1931"/>
</svg>
