<svg width="653" height="79" viewBox="0 0 653 79" fill="none" xmlns="http://www.w3.org/2000/svg">
<path fill-rule="evenodd" clip-rule="evenodd" d="M471.006 0.302998C464.349 0.520904 458.526 0.777363 458.067 0.873465C457.607 0.969009 460.425 1.20535 464.328 1.39812C471.404 1.74788 471.393 1.749 460.571 1.92109C454.602 2.01608 445.774 2.29153 440.952 2.5329C434.887 2.83685 437.975 2.89217 450.97 2.71226C480.672 2.30159 511.171 1.93841 515.093 1.94791C517.282 1.9535 518.488 1.73783 518.174 1.39812C517.836 1.03103 525.14 0.839382 539.463 0.839382C554.941 0.839382 561.104 1.01538 560.707 1.44617C560.354 1.82834 560.876 2.0049 562.118 1.92221C563.203 1.84957 564.654 1.93953 565.343 2.12224C566.031 2.30438 572.23 2.72232 579.117 3.05085C586.005 3.37939 593.049 3.86996 594.77 4.14094C596.493 4.41137 597.901 4.42478 597.901 4.17056C597.901 3.53583 595.69 3.16651 582.874 1.65849C581.267 1.46963 578.262 1.05505 576.195 0.737693C571.744 0.0538028 489.084 -0.287584 471.006 0.302998ZM216.8 0.891344C212.876 1.20256 212.989 1.2277 218.678 1.31039C224.671 1.397 226.481 1.16065 222.852 0.765071C221.819 0.652207 219.096 0.709196 216.8 0.891344ZM207.617 1.16624C206.698 1.26178 202.66 1.50148 198.642 1.69871C194.625 1.89595 191.338 2.24236 191.338 2.46921C191.338 2.6955 192.558 2.78098 194.051 2.65862C196.131 2.48821 196.472 2.57369 195.512 3.02627C194.56 3.47437 195.161 3.60232 198.016 3.55818C201.442 3.50566 201.553 3.4632 199.268 3.07432L196.764 2.648L199.825 2.58151C201.508 2.5452 203.011 2.73964 203.165 3.01397C203.322 3.29725 206.502 3.33189 210.539 3.09387C218.192 2.64353 218.06 2.42842 210.121 2.41669C207.366 2.41222 206.051 2.28594 207.199 2.13564C209.171 1.87751 211.841 0.746633 210.08 0.915371C209.644 0.957276 208.535 1.07014 207.617 1.16624ZM495.46 1.25229C492.609 1.36124 487.726 1.3618 484.608 1.25396C481.489 1.14669 483.821 1.05729 489.79 1.05673C495.759 1.05561 498.311 1.14389 495.46 1.25229ZM507.113 1.20926C506.539 1.36459 505.6 1.36459 505.026 1.20926C504.452 1.05449 504.922 0.927663 506.069 0.927663C507.217 0.927663 507.687 1.05449 507.113 1.20926ZM570.56 1.768C569.987 1.92333 569.048 1.92333 568.473 1.768C567.9 1.61323 568.369 1.4864 569.517 1.4864C570.665 1.4864 571.135 1.61323 570.56 1.768ZM576.42 1.76464C575.855 1.91774 574.728 1.92724 573.915 1.78532C573.103 1.6434 573.566 1.51824 574.943 1.50707C576.321 1.49589 576.985 1.61155 576.42 1.76464ZM219.096 2.34182C219.899 2.48262 221.215 2.48262 222.018 2.34182C222.821 2.20158 222.164 2.08648 220.557 2.08648C218.95 2.08648 218.293 2.20158 219.096 2.34182ZM227.027 2.32673C227.601 2.48206 228.54 2.48206 229.114 2.32673C229.688 2.17196 229.218 2.04513 228.07 2.04513C226.922 2.04513 226.453 2.17196 227.027 2.32673ZM67.2029 3.24976C66.9625 3.51013 62.5805 3.67161 57.4646 3.60847C48.1821 3.49505 31.9237 4.3175 29.1871 5.03938C28.2713 5.28076 27.8063 5.93559 27.9165 6.82789C28.1043 8.34653 28.2338 8.40073 32.928 8.92259C36.7699 9.35002 37.0796 10.2541 33.3454 10.1406C30.8593 10.0652 30.6523 10.187 30.8727 11.595C31.083 12.9404 30.8234 13.1326 28.7856 13.1399C25.8662 13.1511 24.8377 13.6478 24.6072 15.1586C24.4578 16.1414 24.9996 16.4085 27.7379 16.7013C32.17 17.1756 31.9304 17.9484 27.2411 18.3021C23.537 18.5814 18.9312 20.594 19.8128 21.5483C20.0315 21.7858 19.0832 22.1461 17.7048 22.349C15.5385 22.6674 15.3598 22.825 16.3858 23.5117C17.0386 23.9486 18.0697 24.3101 18.6766 24.3146C19.5081 24.3213 19.4789 24.4504 18.558 24.8404C17.7023 25.2024 18.6783 25.4086 21.8214 25.5298C26.2519 25.7008 26.3061 25.7243 26.3813 27.5189C26.4238 28.5179 26.1759 29.3348 25.8319 29.3348C25.488 29.3348 25.2058 29.8377 25.2058 30.4523C25.2058 31.2803 24.6114 31.5893 22.91 31.6457C20.9089 31.7122 20.858 31.753 22.5143 31.9659C24.9345 32.2765 29.3366 33.7969 27.8297 33.8013C27.1927 33.803 26.8972 34.1533 27.1543 34.602C27.8339 35.7871 26.1809 36.4263 20.6869 37.1035C15.7714 37.7091 13.6534 38.2746 16.3006 38.2746C17.0662 38.2746 17.6923 38.6517 17.6923 39.1127C17.6923 39.7647 16.5795 39.9508 12.6833 39.9508C7.28196 39.9508 5.60227 41.0179 10.805 41.1442C12.7426 41.1912 13.2201 41.3124 12.0572 41.4627C11.0237 41.5957 10.1788 41.9214 10.1788 42.1868C10.1788 42.4522 9.42163 42.8299 8.49664 43.0266C7.57164 43.2227 7.02232 43.6077 7.27444 43.8809C7.5274 44.1547 6.49972 44.6167 4.99117 44.9078C2.62108 45.3654 3.09945 45.4465 8.50916 45.5046C14.9382 45.5739 15.177 46.1622 9.07434 46.8964C6.36865 47.2216 6.03889 47.4071 6.91296 48.1116C7.74278 48.781 8.08423 48.8017 8.66027 48.2183C9.21626 47.6546 9.65455 47.7384 10.6296 48.5944C11.7792 49.6029 11.7249 49.7409 9.98765 50.2438C8.36473 50.7131 8.75377 50.836 12.6833 51.0986C16.8041 51.3735 17.0929 51.4746 15.5009 52.0853C14.5258 52.4597 12.0839 52.9335 10.0745 53.138C3.82909 53.7738 3.46928 54.4398 9.34399 54.4907L14.7704 54.5371L7.67433 56.3233L0.57825 58.1096L4.75241 58.389L8.92658 58.6683L4.00774 59.4243C0.570738 59.9529 -0.56046 60.3289 0.250997 60.6731C0.890479 60.9441 2.16443 61.1871 3.08275 61.2134C4.74073 61.2609 4.74073 61.2642 3.09778 61.6939C1.89729 62.0073 2.92914 62.2588 6.85453 62.6091C11.7575 63.046 11.952 63.1103 8.92658 63.2919C7.08995 63.4019 5.23078 63.7271 4.79416 64.0138C4.30244 64.3367 7.79204 64.5518 13.9773 64.5792C21.682 64.6133 23.431 64.7513 21.6578 65.1843C20.3271 65.51 19.362 66.1638 19.362 66.7404C19.362 67.5472 17.9027 67.9338 11.6506 68.7831C7.40969 69.3592 4.64722 69.9218 5.51127 70.033C6.76853 70.195 6.84952 70.3342 5.91701 70.7292C5.06047 71.0924 5.30424 71.227 6.8395 71.2399C7.98739 71.2494 9.47924 71.4913 10.1555 71.7774C11.5212 72.3551 11.1664 72.4965 6.72262 73.144C5.51044 73.3206 4.31496 73.8212 4.06535 74.257C3.68466 74.9197 5.12726 75.0068 12.948 74.7912C19.8479 74.6012 21.9575 74.694 21.0317 75.1465C19.9756 75.6634 20.0415 75.7455 21.4491 75.6706C24.2391 75.5209 24.8502 75.6997 23.5361 76.2808C22.6846 76.6573 23.8859 76.7065 27.2929 76.435C33.5291 75.9371 33.2102 75.9315 47.3289 76.7942C55.9811 77.3228 68.6647 77.4088 96.1666 77.1267C118.995 76.892 140.397 76.9725 151.683 77.3345C188.879 78.5297 192.579 78.6135 192.047 78.2458C191.749 78.0396 187.617 77.7346 182.864 77.5681C178.112 77.4021 173.866 77.0412 173.43 76.7674C172.343 76.0841 244.229 76.1372 269.582 76.8384C284.125 77.2407 393.971 78.0279 432.187 78.0039C440.713 77.9983 477.899 77.2921 479.605 77.1032C481.014 76.9468 481.741 77.0624 481.434 77.3943C481.155 77.6971 481.302 77.9447 481.761 77.9447C482.22 77.9447 482.828 77.6932 483.112 77.3859C483.788 76.6534 486.868 76.6618 486.868 77.396C486.868 78.0279 506.59 78.0653 520.991 77.4614C527.586 77.1848 529.749 77.2658 530.055 77.8005C530.277 78.1872 531.003 78.5034 531.67 78.5034C532.337 78.5034 532.651 78.252 532.367 77.9447C532.083 77.6374 532.53 77.3429 533.361 77.2904C534.192 77.2379 535.435 77.139 536.123 77.0702C536.812 77.0021 539.442 76.9155 541.967 76.878C544.765 76.8367 546.131 76.6283 545.464 76.3456C544.381 75.8857 550.302 75.4577 567.012 74.7895C575.413 74.4537 579.214 73.5363 572.814 73.3899C570.771 73.3429 568.724 73.2463 568.264 73.1748C567.805 73.1032 563.861 72.9814 559.499 72.9043L551.568 72.763L556.994 72.3283C559.979 72.0891 566.114 71.8148 570.628 71.7193C575.142 71.6231 579.015 71.3505 579.234 71.113C579.454 70.8756 580.385 70.6811 581.303 70.6811C582.221 70.6811 582.771 70.4627 582.524 70.195C582.275 69.9252 580.49 69.9145 578.51 70.171C574.512 70.6884 570.703 70.8186 571.302 70.4174C572.106 69.8788 589.402 67.8841 590.6 68.1914C591.299 68.3708 592.06 68.13 592.341 67.6399C592.695 67.0225 594.118 66.7437 597.249 66.6789L601.658 66.5878L597.066 66.2582C593.454 65.9984 592.954 65.857 594.722 65.595C595.958 65.4111 598.776 65.448 600.983 65.676C603.191 65.904 605.082 66.0397 605.187 65.9777C605.291 65.9151 604.778 65.2927 604.046 64.5937C603.166 63.7523 602.437 63.5109 601.887 63.8785C601.337 64.2467 600.173 64.2372 598.435 63.8495C593.771 62.8097 594.507 62.5756 601.804 62.7795C606.894 62.9214 608.798 62.8002 608.392 62.3605C608.04 61.9794 608.563 61.7218 609.748 61.6911C611.465 61.6464 603.261 60.5306 596.649 59.9093C595.271 59.7797 596.962 59.6322 600.406 59.5819C603.849 59.531 607.23 59.2455 607.919 58.9477C608.958 58.4985 608.887 58.4029 607.502 58.389C606.583 58.3795 605.268 58.1063 604.58 57.7816C603.664 57.3503 604.393 57.2866 607.29 57.5453C612.471 58.0068 613.567 57.519 611.176 55.816C610.118 55.0617 609.747 54.4778 610.328 54.4778C610.894 54.4778 611.125 54.2264 610.841 53.9191C610.557 53.6118 608.75 53.3565 606.826 53.352C604.902 53.347 602.764 53.081 602.075 52.7603C601.174 52.3412 602.052 52.2798 605.206 52.5424C609.666 52.9128 611.353 52.1686 607.71 51.4372C605.879 51.0696 605.873 51.0472 607.502 50.5237C608.825 50.099 608.56 50.0359 606.228 50.2214C602.867 50.489 599.337 49.2844 601.701 48.6771C602.442 48.4871 603.721 48.3318 604.545 48.3318C605.37 48.3318 606.512 47.9546 607.084 47.4937C607.901 46.8355 607.903 46.6556 607.097 46.6556C606.527 46.6556 606.284 46.2823 606.552 45.8175C606.86 45.2788 606.519 44.9654 605.597 44.9403C604.407 44.9073 604.447 44.8229 605.832 44.443C607.383 44.0172 607.336 43.9412 605.152 43.3646C603.859 43.0238 602.262 42.7444 601.604 42.7444C600.945 42.7444 600.406 42.493 600.406 42.1857C600.406 41.8784 602.565 41.6024 605.206 41.5728L610.006 41.5186L606.875 40.6587C603.481 39.7267 602.866 38.6288 605.258 37.7723C606.089 37.4744 610.973 37.0526 616.11 36.8347C621.247 36.6174 625.451 36.2447 625.451 36.0067C625.451 35.7686 624.417 35.3216 623.155 35.0127C621.233 34.5433 621.846 34.4444 626.911 34.4076C630.346 34.3824 632.964 34.1215 632.964 33.8047C632.964 33.4974 632.19 33.2459 631.245 33.2459C630.3 33.2459 629.748 33.0057 630.02 32.7118C630.291 32.4179 631.065 32.319 631.738 32.4922C632.412 32.6649 632.964 32.5704 632.964 32.2821C632.964 31.9933 631.179 31.477 628.999 31.1345C625.633 30.6059 626.925 30.5389 637.556 30.6897L650.078 30.868L639.225 29.8466C620.234 28.0592 620.574 28.1056 622.946 27.6301C624.877 27.2429 624.896 27.2072 623.204 27.1558C620.659 27.0781 620.012 26.1143 622.307 25.8193C623.359 25.6835 622.656 25.5421 620.72 25.4997C618.807 25.4578 617.116 25.1756 616.963 24.8728C616.81 24.5699 612.365 24.1162 607.084 23.8654C597.681 23.4184 597.556 23.3949 601.007 22.7228C603.255 22.2853 609.111 22.0819 617.181 22.1607C628.859 22.2752 629.923 22.2009 631.015 21.2002C632.055 20.2464 633.453 20.0934 642.599 19.9302C650.892 19.7827 653 19.5843 653 18.9524C653 18.5166 652.674 18.1601 652.275 18.1601C651.101 18.1601 636.854 16.4767 635.26 16.1498C632.244 15.5307 633.967 14.8055 638.599 14.7435C643.349 14.6798 643.364 14.6742 640.06 14.2171C638.223 13.9629 633.715 13.7216 630.042 13.6813C623.5 13.6087 614.629 12.8494 617.102 12.5728C619.458 12.3096 610.848 11.538 605.093 11.4967C600.077 11.4604 599.098 11.2776 597.41 10.0585L595.476 8.66166L598.985 8.61137L602.493 8.56109L599.638 8.01185C598.068 7.71013 596.096 7.58386 595.255 7.73081C594.415 7.87775 593.727 7.78892 593.727 7.53302C593.727 7.27712 593.069 6.95249 592.266 6.81169C591.463 6.67145 592.495 6.49545 594.562 6.42169L598.318 6.28704L594.562 5.86352C582.283 4.48009 494.962 3.7163 466.832 4.74661C458.797 5.04106 448.403 5.28802 443.735 5.29528C437.744 5.30534 435.123 5.51487 434.824 6.00767C434.505 6.53344 434.229 6.54517 433.704 6.05349C433.116 5.50258 415.78 4.86841 414.238 5.3411C412.731 5.80317 192.816 5.74227 177.98 5.27573C168.108 4.96507 156.838 4.61307 152.935 4.4935C149.032 4.37393 137.416 4.14485 127.121 3.98561C116.826 3.82582 104.617 3.53751 99.9893 3.3453C86.6086 2.78881 67.6796 2.73349 67.2029 3.24976ZM490.886 2.8972C491.488 3.05867 492.209 3.03856 492.486 2.85306C492.763 2.66756 492.27 2.5357 491.391 2.55972C490.418 2.58654 490.22 2.71896 490.886 2.8972ZM468.346 3.45593C468.948 3.61741 469.668 3.59729 469.945 3.41179C470.223 3.22629 469.73 3.09443 468.85 3.11846C467.878 3.14528 467.68 3.2777 468.346 3.45593ZM475.025 3.45593C475.626 3.61741 476.347 3.59729 476.624 3.41179C476.901 3.22629 476.409 3.09443 475.529 3.11846C474.556 3.14528 474.358 3.2777 475.025 3.45593ZM206.991 4.58625C208.024 4.71923 209.714 4.71923 210.747 4.58625C211.781 4.45272 210.935 4.34376 208.869 4.34376C206.803 4.34376 205.957 4.45272 206.991 4.58625ZM376.06 6.79325C375.495 6.94634 374.368 6.95584 373.556 6.81392C372.743 6.67201 373.206 6.54685 374.583 6.53567C375.961 6.5245 376.625 6.64016 376.06 6.79325ZM590.161 6.7642C589.884 6.9497 589.164 6.96981 588.562 6.80834C587.896 6.6301 588.093 6.49768 589.066 6.47086C589.946 6.44684 590.438 6.5787 590.161 6.7642ZM465.758 7.75651C466.043 7.94704 463.302 8.13142 459.667 8.16662C456.031 8.20126 443.478 8.35771 431.769 8.51359C420.061 8.67004 378.616 8.99131 339.671 9.22877C300.726 9.46623 266.813 9.83109 264.309 10.0406C259.71 10.425 254.204 9.98139 255.213 9.30699C255.794 8.91867 263.697 8.81475 308.005 8.61528C324.917 8.53874 335.764 8.28172 335.764 7.95709C335.764 7.66432 336.292 7.56039 336.938 7.72634C338.723 8.1845 366.525 8.10684 386.688 7.58721C406.402 7.07877 464.933 7.20448 465.758 7.75651ZM487.564 7.26538C486.963 7.66711 472.654 7.71572 472.06 7.3179C471.786 7.1352 475.257 6.98546 479.772 6.98546C484.287 6.98546 487.793 7.11117 487.564 7.26538ZM490.816 7.32293C490.539 7.50843 489.819 7.52854 489.217 7.36707C488.55 7.18883 488.748 7.05642 489.721 7.0296C490.601 7.00557 491.093 7.13743 490.816 7.32293ZM427.397 7.93922C428.435 8.07275 429.938 8.06772 430.736 7.92804C431.534 7.78835 430.684 7.67884 428.847 7.68499C427.011 7.69114 426.358 7.80568 427.397 7.93922ZM541.42 7.96324C541.632 8.19344 536.613 8.38229 530.269 8.38229C523.924 8.38229 518.451 8.19344 518.106 7.96324C517.761 7.73304 522.779 7.54419 529.256 7.54419C535.734 7.54419 541.208 7.73304 541.42 7.96324ZM545.724 8.10292C543.444 8.75888 542.802 8.75888 542.802 8.10292C542.802 7.79562 543.835 7.56207 545.098 7.5833C547.132 7.6185 547.203 7.67717 545.724 8.10292ZM393.211 8.48454C393.813 8.64601 394.533 8.6259 394.81 8.4404C395.088 8.2549 394.595 8.12304 393.715 8.14707C392.743 8.17388 392.545 8.3063 393.211 8.48454ZM398.182 8.50801C399.683 8.63204 401.937 8.62981 403.191 8.50242C404.446 8.37447 403.218 8.27278 400.463 8.27613C397.708 8.27892 396.682 8.38341 398.182 8.50801ZM229.661 9.81209C229.059 10.0607 228.227 10.1233 227.812 9.95177C227.397 9.78024 227.549 9.43606 228.149 9.18743C228.751 8.93879 229.583 8.87621 229.998 9.04774C230.413 9.21927 230.261 9.56345 229.661 9.81209ZM244.767 9.34164C244.767 9.58245 242.044 9.74951 238.714 9.7132C234.222 9.66403 233.307 9.53943 235.166 9.22989C238.371 8.69574 244.767 8.77061 244.767 9.34164ZM253.115 8.95499C253.115 9.55172 248.608 10.3703 247.336 10.0043C246.296 9.70481 246.457 9.53552 248.106 9.19916C250.656 8.67842 253.115 8.55885 253.115 8.95499ZM225.954 9.81097C225.686 10.1004 222.578 10.3339 219.046 10.3295C215.515 10.3244 213.065 10.1362 213.602 9.91043C215.088 9.2852 226.524 9.19301 225.954 9.81097ZM492.937 9.58692C492.371 9.74001 491.244 9.74951 490.432 9.60759C489.62 9.46568 490.082 9.34052 491.46 9.32934C492.837 9.31817 493.502 9.43383 492.937 9.58692ZM551.359 10.1736C550.326 10.3066 548.635 10.3066 547.602 10.1736C546.57 10.0401 547.415 9.9311 549.481 9.9311C551.547 9.9311 552.392 10.0401 551.359 10.1736ZM33.5541 17.6014C33.5541 17.9087 33.3889 18.1601 33.186 18.1601C32.9831 18.1601 32.5857 17.9087 32.3019 17.6014C32.0181 17.2941 32.1842 17.0427 32.6701 17.0427C33.1559 17.0427 33.5541 17.2941 33.5541 17.6014ZM10.8575 38.0974C11.4595 38.2589 12.1799 38.2388 12.4571 38.0533C12.7343 37.8678 12.2417 37.7359 11.3618 37.76C10.3892 37.7868 10.1914 37.9192 10.8575 38.0974ZM604.353 47.5518C604.076 47.7373 603.356 47.7574 602.754 47.5959C602.088 47.4177 602.286 47.2853 603.258 47.2584C604.138 47.2344 604.631 47.3663 604.353 47.5518ZM17.6923 48.8905C17.6923 49.1978 17.2941 49.4492 16.8082 49.4492C16.3224 49.4492 16.1562 49.1978 16.4401 48.8905C16.7239 48.5832 17.1213 48.3318 17.3242 48.3318C17.527 48.3318 17.6923 48.5832 17.6923 48.8905ZM266.089 57.3089C266.988 58.2817 265.965 58.4879 264.819 57.5643C264.161 57.0335 264.097 56.7128 264.652 56.7128C265.139 56.7128 265.787 56.981 266.089 57.3089ZM319.028 58.6846C319.524 58.4795 319.713 58.0778 319.448 57.7917C319.173 57.4928 321.091 57.2715 323.957 57.2715C326.838 57.2715 329.075 57.5308 329.251 57.885C329.42 58.2225 331.321 58.632 333.479 58.7946C338.852 59.2003 337.627 60.0607 331.978 59.8478C328.581 59.7199 327.415 59.8685 327.415 60.4295C327.415 61.3782 324.361 61.4246 323.794 60.4842C323.55 60.0792 323.345 60.2105 323.307 60.7966C323.271 61.3525 322.932 61.6799 322.555 61.5235C322.178 61.3676 321.242 61.7296 320.476 62.3286C318.842 63.607 314.893 63.8087 314.893 62.6147C314.893 62.0034 314.168 61.8906 311.859 62.1409C309.478 62.3996 308.913 62.3018 309.235 61.6872C309.461 61.2558 310.179 60.929 310.83 60.9603C311.482 60.9916 312.529 60.6491 313.156 60.1998C314.147 59.4897 313.926 59.4327 311.464 59.7657C309.906 59.9763 308.005 60.2658 307.241 60.4088C306.476 60.5524 305.63 60.4311 305.362 60.1406C305.093 59.8495 306.772 59.4366 309.094 59.2232C311.416 59.0092 313.764 58.5063 314.313 58.1051C315.131 57.5073 315.564 57.5274 316.719 58.2163C317.493 58.679 318.533 58.8896 319.028 58.6846ZM436.778 58.0465C436.778 58.5052 431.672 58.736 431.266 58.2957C431.03 58.0398 432.173 57.8302 433.807 57.8302C435.441 57.8302 436.778 57.9275 436.778 58.0465ZM284.335 61.4106C283.618 62.6616 282.567 62.0364 282.819 60.5077C283.132 58.6069 283.152 58.5912 284.031 59.5981C284.477 60.1093 284.613 60.9251 284.335 61.4106ZM343.502 59.3142C342.936 59.4673 341.809 59.4768 340.997 59.3349C340.185 59.193 340.647 59.0678 342.025 59.0567C343.402 59.0455 344.067 59.1612 343.502 59.3142ZM371.661 59.5349C366.308 60.1725 347.273 60.1518 345.782 59.5064C344.951 59.1472 349.73 58.9857 359.974 59.0259C370.537 59.0684 374.231 59.2288 371.661 59.5349ZM388.984 59.3478C387.721 59.4757 385.656 59.4757 384.393 59.3478C383.129 59.2198 384.163 59.1153 386.688 59.1153C389.214 59.1153 390.247 59.2198 388.984 59.3478ZM396.915 59.3176C396.342 59.4729 395.402 59.4729 394.828 59.3176C394.254 59.1628 394.724 59.036 395.872 59.036C397.019 59.036 397.489 59.1628 396.915 59.3176ZM405.263 59.3176C404.69 59.4729 403.751 59.4729 403.176 59.3176C402.603 59.1628 403.072 59.036 404.22 59.036C405.368 59.036 405.838 59.1628 405.263 59.3176ZM263.133 59.7797C263.133 60.5932 260.021 62.2973 258.565 62.2817C256.937 62.2638 256.945 62.2219 258.782 61.1972L260.691 60.1317L257.112 59.9166C253.969 59.7277 254.118 59.6897 258.333 59.6042C260.973 59.5506 263.133 59.6294 263.133 59.7797ZM267.081 59.8439C266.804 60.0294 266.083 60.0495 265.482 59.8881C264.815 59.7098 265.013 59.5774 265.986 59.5506C266.866 59.5266 267.358 59.6584 267.081 59.8439ZM318.232 60.0652C318.232 60.3725 318.63 60.6239 319.116 60.6239C319.602 60.6239 319.768 60.3725 319.484 60.0652C319.201 59.7579 318.803 59.5064 318.6 59.5064C318.397 59.5064 318.232 59.7579 318.232 60.0652ZM579.308 59.8439C579.031 60.0294 578.311 60.0495 577.709 59.8881C577.043 59.7098 577.241 59.5774 578.213 59.5506C579.093 59.5266 579.586 59.6584 579.308 59.8439ZM585.587 59.8763C585.014 60.0317 584.075 60.0317 583.5 59.8763C582.927 59.7216 583.396 59.5947 584.544 59.5947C585.692 59.5947 586.162 59.7216 585.587 59.8763ZM227.009 60.4027C226.732 60.5882 226.011 60.6083 225.41 60.4468C224.743 60.2686 224.941 60.1361 225.914 60.1093C226.794 60.0853 227.286 60.2172 227.009 60.4027ZM250.419 60.729C250.237 61.0938 249.59 61.5034 248.981 61.6391C248.358 61.7783 248.113 61.628 248.42 61.295C248.726 60.9631 248.137 60.5971 247.075 60.4608C245.729 60.2876 245.986 60.1954 247.967 60.1412C249.783 60.0914 250.635 60.2959 250.419 60.729ZM276.908 61.1826C276.604 61.8235 276.758 62.3001 277.269 62.3001C277.759 62.3001 278.16 62.5096 278.16 62.7655C278.16 63.4913 274.766 63.1444 274.025 62.3426C273.513 61.7878 272.959 61.771 271.571 62.2683C270.584 62.6214 269.371 62.7426 268.874 62.537C267.872 62.1224 273.507 60.1825 275.92 60.1104C277.068 60.0764 277.309 60.3373 276.908 61.1826ZM434.691 60.6239C434.975 60.9312 434.809 61.1826 434.323 61.1826C433.837 61.1826 433.439 60.9312 433.439 60.6239C433.439 60.3166 433.604 60.0652 433.807 60.0652C434.01 60.0652 434.407 60.3166 434.691 60.6239ZM442.622 60.3116C442.622 60.4474 442.246 60.7133 441.787 60.9033C441.328 61.0933 440.952 60.9821 440.952 60.6569C440.952 60.3317 441.328 60.0652 441.787 60.0652C442.246 60.0652 442.622 60.1758 442.622 60.3116ZM564.732 60.4317C564.167 60.5848 563.04 60.5943 562.228 60.4524C561.416 60.3105 561.878 60.1853 563.255 60.1741C564.633 60.163 565.297 60.2786 564.732 60.4317ZM569.29 60.4027C569.013 60.5882 568.293 60.6083 567.691 60.4468C567.025 60.2686 567.223 60.1361 568.195 60.1093C569.075 60.0853 569.568 60.2172 569.29 60.4027ZM239.34 61.1826C239.624 61.49 239.458 61.7414 238.972 61.7414C238.486 61.7414 238.088 61.49 238.088 61.1826C238.088 60.8753 238.253 60.6239 238.456 60.6239C238.659 60.6239 239.057 60.8753 239.34 61.1826ZM338.042 60.9614C337.765 61.1469 337.044 61.167 336.442 61.0055C335.776 60.8273 335.974 60.6949 336.947 60.6681C337.826 60.644 338.319 60.7759 338.042 60.9614ZM342.216 60.9614C341.939 61.1469 341.218 61.167 340.616 61.0055C339.95 60.8273 340.148 60.6949 341.121 60.6681C342.001 60.644 342.493 60.7759 342.216 60.9614ZM349.956 61.462C349.956 61.923 350.331 62.3001 350.791 62.3001C351.25 62.3001 351.625 61.9861 351.624 61.6017C351.622 61.0832 353.455 60.9502 358.731 61.0843C363.03 61.1938 365.643 61.4788 365.341 61.8056C365.067 62.1023 364.18 62.2046 363.369 62.0325C362.559 61.8604 360.806 62.1007 359.474 62.5655C357.33 63.3142 357.021 63.3153 356.782 62.5761C356.48 61.643 352.845 61.4313 352.043 62.3001C351.483 62.9063 348.041 63.0673 347.231 62.5247C346.418 61.9811 347.534 60.6239 348.793 60.6239C349.432 60.6239 349.956 61.0011 349.956 61.462ZM426.76 61.462C425.88 62.1716 426.064 62.3001 427.96 62.3001C429.24 62.3001 429.977 62.5393 429.682 62.8589C429.398 63.1662 428.375 63.4176 427.407 63.4176C426.439 63.4176 425.915 63.5975 426.244 63.8171C426.573 64.0367 429.882 64.1389 433.598 64.045C439.634 63.892 440.298 63.9735 439.819 64.81C439.466 65.4257 439.639 65.6581 440.326 65.4899C440.9 65.3486 441.276 64.9508 441.161 64.6049C441.046 64.259 441.914 63.9763 443.089 63.9763C444.3 63.9763 445.002 64.2183 444.709 64.535C444.425 64.8424 444.592 65.0938 445.077 65.0938C445.563 65.0938 445.961 64.8424 445.961 64.535C445.961 63.6053 449.084 63.9093 449.649 64.8943C449.938 65.3994 450.05 65.8967 449.896 65.9995C449.742 66.1017 445.915 66.2543 441.39 66.3381C435.383 66.4493 433.068 66.3023 432.814 65.7922C432.622 65.4084 431.723 65.0938 430.816 65.0938C429.908 65.0938 429.398 65.3452 429.682 65.6525C429.984 65.9783 429.135 66.2113 427.644 66.2113C426.24 66.2113 425.091 65.9598 425.091 65.6525C425.091 65.3452 423.701 65.0938 422.002 65.0938C418.625 65.0938 419.057 64.2004 422.586 63.8841C424.156 63.7433 424.738 63.3159 424.937 62.1604C425.099 61.2184 425.704 60.6239 426.501 60.6239C427.561 60.6239 427.609 60.7781 426.76 61.462ZM509.826 61.9124C510.745 62.0727 509.711 62.1783 507.53 62.1476C505.35 62.1169 503.565 61.8699 503.565 61.5995C503.565 61.3285 504.363 61.2771 505.339 61.4844C506.696 61.7721 506.953 61.6827 506.431 61.1027C505.895 60.5066 506.006 60.4809 506.953 60.9826C507.615 61.3341 508.908 61.752 509.826 61.9124ZM405.472 61.7414C405.188 62.0487 404.603 62.3001 404.171 62.3001C403.738 62.3001 403.385 62.0487 403.385 61.7414C403.385 61.4341 403.971 61.1826 404.687 61.1826C405.402 61.1826 405.756 61.4341 405.472 61.7414ZM316.562 62.3001C318.181 63.0002 319.067 63.0002 319.067 62.3001C319.067 61.9928 318.221 61.7453 317.189 61.7498C315.67 61.757 315.55 61.8621 316.562 62.3001ZM395.037 62.5426C395.037 62.9963 396.032 63.4288 397.333 63.5399C399.174 63.6975 398.947 63.7891 396.185 64.0043C393.046 64.2484 392.741 64.1601 392.741 63.0069C392.741 62.3057 393.253 61.7414 393.889 61.7414C394.52 61.7414 395.037 62.1018 395.037 62.5426ZM420.917 62.2169C420.917 62.4973 419.406 62.741 417.56 62.7583C415.714 62.775 414.373 62.6057 414.579 62.3823C415.14 61.7755 420.917 61.6246 420.917 62.2169ZM160.866 62.8589C161.15 63.1662 160.796 63.4176 160.081 63.4176C159.365 63.4176 158.779 63.1662 158.779 62.8589C158.779 62.5515 159.132 62.3001 159.565 62.3001C159.997 62.3001 160.582 62.5515 160.866 62.8589ZM326.58 62.8918C326.58 63.217 326.163 63.3109 325.652 63.0997C325.142 62.8885 324.397 63.0622 323.996 63.4857C323.419 64.0948 323.264 64.0512 323.254 63.2779C323.246 62.67 323.872 62.3001 324.911 62.3001C325.829 62.3001 326.58 62.5666 326.58 62.8918ZM338.268 62.7192C338.268 62.9494 337.365 63.1382 336.26 63.1382C335.157 63.1382 334.428 62.9494 334.641 62.7192C334.853 62.489 335.756 62.3001 336.648 62.3001C337.539 62.3001 338.268 62.489 338.268 62.7192ZM497.304 62.8589C497.02 63.1662 495.965 63.3997 494.959 63.3785C493.195 63.3405 493.19 63.322 494.799 62.8589C497.097 62.1979 497.914 62.1979 497.304 62.8589ZM558.664 62.8589C558.664 63.1662 559.51 63.4215 560.542 63.426C561.575 63.431 562.984 63.6785 563.673 63.9763C564.596 64.3758 563.939 64.549 561.168 64.6356C559.102 64.7004 556.097 64.853 554.49 64.9742C552.883 65.096 538.607 65.2692 522.766 65.3592C506.925 65.4491 496.218 65.3352 498.973 65.1055C501.728 64.8764 505.861 64.5323 508.157 64.3412C516.977 63.6076 527.676 63.4165 528.198 63.9825C528.488 64.2965 529.111 64.3937 529.582 64.1987C530.053 64.0042 531.316 64.159 532.39 64.5434C533.463 64.9278 535.024 65.0597 535.859 64.8362C536.693 64.6127 540.076 64.3859 543.375 64.3322C546.674 64.2786 549.619 64.0702 549.919 63.869C550.219 63.6685 551.746 63.6433 553.312 63.8132C555.577 64.059 556.159 63.9361 556.159 63.2114C556.159 62.7102 556.723 62.3001 557.412 62.3001C558.1 62.3001 558.664 62.5515 558.664 62.8589ZM583.222 62.9985C583.611 63.5573 583.807 63.5573 584.196 62.9985C584.72 62.2476 591.689 62.0085 592.346 62.7192C592.558 62.9494 591.078 63.0499 589.056 62.9421C586.759 62.8197 585.379 62.9773 585.379 63.3612C585.379 64.2931 581.452 64.0976 580.902 63.1382C580.318 62.1191 582.517 61.9867 583.222 62.9985ZM389.61 63.4176C389.326 63.7249 388.083 63.9584 386.848 63.9372C384.842 63.902 384.78 63.8461 386.271 63.4176C388.59 62.7505 390.226 62.7505 389.61 63.4176ZM468.085 63.4176C467.801 63.7249 468.342 63.9763 469.288 63.9763C470.233 63.9763 471.006 63.7249 471.006 63.4176C471.006 62.7577 472.624 62.9069 473.999 63.6936C475.26 64.4149 470.973 65.6883 468.651 65.2821C467.755 65.1251 466.768 65.2698 466.46 65.6039C466.151 65.938 465.335 66.2113 464.647 66.2113C463.958 66.2113 463.645 65.9403 463.95 65.6095C464.335 65.1927 463.324 65.1262 460.66 65.3933C458.327 65.6274 456.814 65.5654 456.814 65.2352C456.814 64.9362 458.968 64.5423 461.601 64.3607C464.234 64.1791 466.519 63.7668 466.68 63.4444C466.84 63.1226 467.338 62.8589 467.786 62.8589C468.234 62.8589 468.368 63.1103 468.085 63.4176ZM491.953 63.374C491.307 63.6483 489.672 63.7791 488.32 63.6645C486.428 63.5042 485.764 63.7087 485.433 64.5546C485.197 65.1586 484.684 65.6525 484.293 65.6525C483.391 65.6525 484.362 63.8333 485.555 63.2863C486.048 63.0606 487.954 62.8762 489.79 62.8762C492.068 62.8762 492.756 63.0343 491.953 63.374ZM198.016 63.9109C198.016 64.5764 194.789 65.1078 194.255 64.5306C194.022 64.278 194.304 63.9445 194.881 63.7886C196.59 63.3271 198.016 63.3829 198.016 63.9109ZM208.869 63.9763C208.869 64.2836 208.516 64.535 208.083 64.535C207.651 64.535 207.066 64.2836 206.782 63.9763C206.498 63.669 206.852 63.4176 207.568 63.4176C208.283 63.4176 208.869 63.669 208.869 63.9763ZM223.896 63.9154C223.896 64.7602 217.8 64.9401 215.57 64.1613C213.617 63.479 213.847 63.4243 218.678 63.4209C221.548 63.4193 223.896 63.6416 223.896 63.9154ZM226.463 64.13C226.36 64.7982 225.215 64.6686 224.856 63.9484C224.672 63.5796 224.973 63.3785 225.524 63.5014C226.075 63.6243 226.497 63.907 226.463 64.13ZM233.856 65.89C233.887 66.1744 233.218 65.923 232.366 65.3313C231.317 64.6021 231.115 64.1272 231.74 63.8573C232.576 63.4953 233.707 64.582 233.856 65.89ZM240.942 63.7567C242.641 64.1931 242.654 65.0938 240.961 65.0938C240.245 65.0938 239.877 65.3301 240.144 65.6184C240.411 65.9073 239.871 66.1057 238.946 66.0587C237.214 65.9716 236.944 64.6127 238.506 63.845C239.528 63.3422 239.352 63.3483 240.942 63.7567ZM568.682 63.9763C568.682 64.2836 568.024 64.5311 567.221 64.5267C565.972 64.5194 565.942 64.4389 567.012 63.9763C568.588 63.2947 568.682 63.2947 568.682 63.9763ZM249.391 64.8463C247.255 65.4329 247.142 65.5631 248.556 65.8034C249.879 66.0285 249.792 66.0939 248.099 66.1464C246.89 66.1839 245.599 65.7777 245.047 65.1871C244.172 64.2484 244.418 64.1629 247.978 64.1652C251.827 64.1674 251.84 64.1736 249.391 64.8463ZM260.867 65.4905C261.203 66.6683 261.005 66.8192 259.482 66.5454C258.506 66.3699 256.204 66.2152 254.367 66.2018C251.665 66.1822 251.31 66.0671 252.507 65.6011C253.32 65.2843 253.776 64.7982 253.519 64.5205C253.263 64.2434 254.723 64.0389 256.763 64.0663C260.015 64.1099 260.523 64.2859 260.867 65.4905ZM285.397 65.4084C286.265 66.2018 286.738 66.2811 287.514 65.762C288.904 64.8317 290.683 64.9267 290.683 65.9319C290.683 66.585 289.622 66.7605 285.882 66.7259C283.242 66.7018 281.552 66.5549 282.126 66.4001C284.58 65.7369 282.833 65.0938 278.578 65.0938C273.611 65.0938 272.275 65.9984 276.699 66.366C278.386 66.5057 277.616 66.6247 274.661 66.6806C271.995 66.7309 269.664 66.5035 269.349 66.1626C268.945 65.7252 268.535 65.7252 267.881 66.1626C267.382 66.4968 266.41 66.77 265.721 66.77C264.795 66.77 264.713 66.6063 265.406 66.1431C265.921 65.7984 266.134 65.1536 265.88 64.7099C265.489 64.0283 266.876 63.9411 274.849 64.1451C282.763 64.3473 284.461 64.5501 285.397 65.4084ZM304.036 65.2335C304.042 65.8576 298.376 65.7408 297.789 65.1044C297.483 64.7742 298.621 64.6077 300.657 64.6853C302.513 64.7563 304.033 65.0033 304.036 65.2335ZM334.094 65.0608C334.094 65.3502 333.719 65.7414 333.262 65.9308C331.805 66.5331 309.254 66.2565 307.379 65.6134C306.426 65.2865 316.767 64.7111 325.119 64.6261C330.267 64.5742 334.094 64.7591 334.094 65.0608ZM370.705 65.3849C371.585 65.9738 370.005 66.1733 362.219 66.4565C354.234 66.7476 345.782 66.0358 345.782 65.0726C345.782 64.5814 369.958 64.8848 370.705 65.3849ZM400.463 65.6324C395.078 65.9542 391.029 65.7173 392.369 65.1586C392.824 64.9692 395.958 64.9312 399.334 65.0737L405.472 65.3329L400.463 65.6324ZM415.073 65.0938C415.073 65.4011 414.907 65.6525 414.705 65.6525C414.502 65.6525 414.104 65.4011 413.82 65.0938C413.537 64.7865 413.703 64.535 414.189 64.535C414.674 64.535 415.073 64.7865 415.073 65.0938ZM433.856 65.0938C433.573 65.4011 433.927 65.6525 434.642 65.6525C435.357 65.6525 435.943 65.4011 435.943 65.0938C435.943 64.7865 435.59 64.535 435.158 64.535C434.725 64.535 434.14 64.7865 433.856 65.0938ZM606.928 64.9167C607.53 65.0781 608.25 65.058 608.528 64.8725C608.805 64.687 608.312 64.5552 607.432 64.5792C606.46 64.606 606.262 64.7384 606.928 64.9167ZM411.364 65.6C411.107 65.8783 410.146 65.9749 409.228 65.814C406.931 65.4123 407.138 65.0938 409.696 65.0938C410.87 65.0938 411.621 65.3218 411.364 65.6ZM454.519 65.4637C453.945 65.619 453.006 65.619 452.431 65.4637C451.858 65.3089 452.327 65.1821 453.475 65.1821C454.623 65.1821 455.093 65.3089 454.519 65.4637ZM492.921 65.4637C492.347 65.619 491.408 65.619 490.834 65.4637C490.26 65.3089 490.729 65.1821 491.877 65.1821C493.025 65.1821 493.495 65.3089 492.921 65.4637ZM600.823 67.8875C601.107 68.1948 601.504 68.4462 601.707 68.4462C601.91 68.4462 602.075 68.1948 602.075 67.8875C602.075 67.5802 601.677 67.3287 601.191 67.3287C600.705 67.3287 600.539 67.5802 600.823 67.8875ZM622.79 67.7103C623.392 67.8718 624.112 67.8517 624.389 67.6662C624.667 67.4807 624.174 67.3488 623.294 67.3729C622.322 67.3997 622.124 67.5321 622.79 67.7103ZM281.498 74.7319C281.499 74.9621 273.892 75.1041 264.594 75.0471C252.891 74.975 249.873 74.8459 254.785 74.628C264.978 74.1754 281.496 74.2397 281.498 74.7319ZM289.848 74.937C289.848 75.0543 288.064 75.1214 285.882 75.0851C282.472 75.0281 282.268 74.9655 284.421 74.6381C286.761 74.2822 289.848 74.4526 289.848 74.937ZM246.645 74.9621C246.072 75.1175 245.132 75.1175 244.558 74.9621C243.985 74.8074 244.454 74.6805 245.602 74.6805C246.75 74.6805 247.22 74.8074 246.645 74.9621ZM171.09 76.1534C171.669 76.4081 168.244 76.6311 163.378 76.6551C158.564 76.6791 154.776 76.535 154.961 76.3344C155.467 75.7868 169.89 75.6254 171.09 76.1534ZM552.664 76.6501C553.266 76.8116 553.986 76.7914 554.263 76.6059C554.541 76.4204 554.048 76.2886 553.168 76.3126C552.196 76.3394 551.998 76.4718 552.664 76.6501ZM491.651 77.1647C491.374 77.3502 490.653 77.3703 490.052 77.2088C489.385 77.0306 489.583 76.8982 490.556 76.8713C491.436 76.8473 491.928 76.9792 491.651 77.1647ZM201.518 78.3615C206.429 78.4598 214.694 78.4604 219.885 78.362C225.076 78.2637 221.058 78.1832 210.956 78.1827C200.855 78.1821 196.608 78.2626 201.518 78.3615ZM276.339 78.6252C276.783 78.923 277.845 79.0683 278.698 78.947C279.846 78.7844 279.635 78.6436 277.888 78.4056C276.364 78.1972 275.816 78.2754 276.339 78.6252ZM535.132 78.3263C535.734 78.4878 536.455 78.4676 536.732 78.2821C537.009 78.0966 536.517 77.9648 535.637 77.9888C534.664 78.0156 534.466 78.148 535.132 78.3263ZM282.97 78.8984C284.009 79.032 285.512 79.0269 286.31 78.8872C287.108 78.7476 286.258 78.6381 284.421 78.6442C282.585 78.6503 281.932 78.7649 282.97 78.8984ZM294.658 78.8984C295.697 79.032 297.199 79.0269 297.997 78.8872C298.796 78.7476 297.946 78.6381 296.109 78.6442C294.272 78.6503 293.62 78.7649 294.658 78.8984ZM320.543 78.9085C322.043 79.0325 324.297 79.0303 325.552 78.9029C326.807 78.7749 325.579 78.6732 322.824 78.6766C320.069 78.6794 319.043 78.7839 320.543 78.9085ZM332.645 78.9046C333.914 79.0325 335.792 79.0292 336.819 78.8967C337.846 78.7643 336.807 78.6593 334.511 78.6632C332.216 78.6677 331.376 78.7761 332.645 78.9046ZM441.996 78.8884C442.799 79.0292 444.115 79.0292 444.918 78.8884C445.721 78.7481 445.064 78.633 443.457 78.633C441.85 78.633 441.193 78.7481 441.996 78.8884ZM455.771 78.8733C456.345 79.0286 457.284 79.0286 457.858 78.8733C458.432 78.7185 457.962 78.5917 456.814 78.5917C455.666 78.5917 455.197 78.7185 455.771 78.8733Z" fill="white"/>
</svg>
