<svg width="110" height="40" viewBox="0 0 110 40" fill="none" xmlns="http://www.w3.org/2000/svg">
<path fill-rule="evenodd" clip-rule="evenodd" d="M79.3426 0.153417C78.2211 0.263749 77.2402 0.393602 77.1628 0.442261C77.0855 0.490638 77.5601 0.610305 78.2175 0.707907C79.4095 0.885004 79.4077 0.885571 77.5847 0.972705C76.5792 1.0208 75.092 1.16027 74.2799 1.28248C73.2582 1.43638 73.7783 1.46439 75.9675 1.3733C80.9708 1.16536 86.1085 0.981475 86.7691 0.986284C87.1379 0.989113 87.3411 0.879912 87.2882 0.707907C87.2311 0.52204 88.4615 0.425004 90.8743 0.425004C93.4816 0.425004 94.5198 0.514118 94.4529 0.732236C94.3934 0.925742 94.4814 1.01514 94.6907 0.97327C94.8734 0.936493 95.1178 0.982041 95.2338 1.07455C95.3498 1.16678 96.394 1.37839 97.5542 1.54473C98.7144 1.71108 99.901 1.95947 100.191 2.09668C100.481 2.2336 100.718 2.24039 100.718 2.11167C100.718 1.7903 100.346 1.6033 98.1871 0.83974C97.9163 0.744119 97.4101 0.534205 97.062 0.373516C96.3122 0.0272419 82.3878 -0.145612 79.3426 0.153417ZM36.5207 0.451313C35.8597 0.60889 35.8787 0.621621 36.8371 0.663491C37.8465 0.707341 38.1515 0.587673 37.5402 0.387378C37.3661 0.330231 36.9074 0.359087 36.5207 0.451313ZM34.9737 0.590502C34.819 0.638878 34.1388 0.760244 33.462 0.860108C32.7852 0.959973 32.2314 1.13537 32.2314 1.25023C32.2314 1.36481 32.437 1.40809 32.6885 1.34614C33.0389 1.25985 33.0963 1.30314 32.9346 1.53229C32.7743 1.75918 32.8755 1.82396 33.3565 1.80161C33.9336 1.77502 33.9522 1.75352 33.5674 1.55662L33.1455 1.34076L33.6612 1.3071C33.9447 1.28871 34.1979 1.38716 34.2237 1.52606C34.2503 1.66949 34.786 1.68704 35.4659 1.56652C36.7552 1.3385 36.7329 1.22958 35.3956 1.22364C34.9315 1.22138 34.71 1.15744 34.9034 1.08134C35.2356 0.950638 35.6853 0.378042 35.3886 0.463479C35.3152 0.484697 35.1284 0.541843 34.9737 0.590502ZM83.4619 0.634069C82.9817 0.689235 82.159 0.689518 81.6337 0.634918C81.1083 0.580601 81.5013 0.535336 82.5068 0.535053C83.5123 0.534487 83.942 0.579186 83.4619 0.634069ZM85.4248 0.612285C85.3282 0.690932 85.17 0.690932 85.0733 0.612285C84.9767 0.533921 85.0557 0.469703 85.2491 0.469703C85.4424 0.469703 85.5216 0.533921 85.4248 0.612285ZM96.1128 0.895189C96.0161 0.973836 95.8579 0.973836 95.7612 0.895189C95.6646 0.816824 95.7436 0.752606 95.937 0.752606C96.1303 0.752606 96.2095 0.816824 96.1128 0.895189ZM97.0998 0.893491C97.0046 0.971007 96.8148 0.975817 96.6779 0.903959C96.5411 0.832102 96.619 0.768731 96.8511 0.763073C97.0831 0.757415 97.195 0.815976 97.0998 0.893491ZM36.9074 1.18573C37.0427 1.25702 37.2643 1.25702 37.3996 1.18573C37.5349 1.11472 37.4242 1.05644 37.1535 1.05644C36.8828 1.05644 36.7721 1.11472 36.9074 1.18573ZM38.2434 1.17809C38.3401 1.25674 38.4983 1.25674 38.595 1.17809C38.6917 1.09973 38.6125 1.03551 38.4192 1.03551C38.2258 1.03551 38.1468 1.09973 38.2434 1.17809ZM11.3206 1.64545C11.28 1.77728 10.5419 1.85904 9.6801 1.82707C8.11643 1.76964 5.37765 2.18608 4.91667 2.55159C4.7624 2.6738 4.68407 3.00536 4.70263 3.45716C4.73427 4.22609 4.75607 4.25353 5.54683 4.51777C6.19401 4.73419 6.24619 5.19192 5.61715 5.1345C5.19835 5.0963 5.16347 5.15798 5.2006 5.87089C5.23604 6.55212 5.1923 6.64944 4.84903 6.65312C4.35724 6.65878 4.18399 6.91028 4.14517 7.67525C4.12 8.17288 4.21127 8.3081 4.67254 8.45634C5.41914 8.69653 5.37878 9.08778 4.58886 9.26686C3.96488 9.40831 3.18903 10.4273 3.33753 10.9105C3.37438 11.0308 3.21462 11.2132 2.98244 11.3159C2.6175 11.4772 2.58741 11.557 2.76024 11.9047C2.87022 12.1259 3.0439 12.3089 3.14613 12.3112C3.2862 12.3146 3.28128 12.3799 3.12617 12.5774C2.98202 12.7607 3.14642 12.8651 3.67589 12.9265C4.42221 13.0131 4.43136 13.025 4.44401 13.9336C4.45118 14.4395 4.40942 14.8531 4.35148 14.8531C4.29354 14.8531 4.246 15.1077 4.246 15.4189C4.246 15.8381 4.14588 15.9946 3.85927 16.0232C3.52218 16.0568 3.5136 16.0775 3.79261 16.1853C4.2003 16.3426 4.94184 17.1123 4.68801 17.1146C4.5807 17.1154 4.53092 17.2928 4.57424 17.52C4.68871 18.12 4.41026 18.4437 3.48477 18.7866C2.65674 19.0932 2.29996 19.3795 2.7459 19.3795C2.87486 19.3795 2.98033 19.5705 2.98033 19.8039C2.98033 20.134 2.79287 20.2282 2.13655 20.2282C1.22667 20.2282 0.943724 20.7686 1.82013 20.8325C2.14654 20.8563 2.22698 20.9177 2.03108 20.9938C1.85698 21.0611 1.71466 21.226 1.71466 21.3604C1.71466 21.4948 1.58711 21.686 1.43129 21.7856C1.27547 21.8849 1.18294 22.0798 1.22541 22.2182C1.26802 22.3568 1.0949 22.5908 0.840782 22.7382C0.441533 22.9698 0.522114 23.0109 1.4334 23.0403C2.51639 23.0754 2.55661 23.3733 1.52861 23.745C1.07282 23.9097 1.01727 24.0036 1.16451 24.3603C1.3043 24.6992 1.36182 24.7097 1.45885 24.4144C1.55251 24.1289 1.62634 24.1713 1.7906 24.6047C1.98425 25.1154 1.97511 25.1853 1.68245 25.4399C1.40907 25.6775 1.4746 25.7398 2.13655 25.8727C2.8307 26.0119 2.87936 26.0631 2.61118 26.3723C2.44692 26.5619 2.03558 26.8018 1.69708 26.9053C0.645026 27.2273 0.584414 27.5645 1.57403 27.5902L2.48813 27.6137L1.29277 28.5181L0.0974116 29.4226L0.800563 29.564L1.50371 29.7055L0.675121 30.0883C0.0961463 30.3559 -0.0944078 30.5463 0.0422849 30.7206C0.150008 30.8578 0.364609 30.9808 0.519303 30.9941C0.798595 31.0182 0.798595 31.0199 0.521835 31.2374C0.319608 31.3961 0.493428 31.5234 1.15467 31.7008C1.98059 31.922 2.01336 31.9546 1.50372 32.0465C1.19433 32.1023 0.881145 32.2669 0.807596 32.412C0.724764 32.5756 1.3126 32.6845 2.35453 32.6983C3.65241 32.7156 3.94703 32.7855 3.64833 33.0047C3.42416 33.1696 3.26159 33.5006 3.26159 33.7926C3.26159 34.2011 3.01577 34.3969 1.96259 34.8269C1.24819 35.1186 0.782844 35.4035 0.928396 35.4597C1.14019 35.5418 1.15383 35.6122 0.996744 35.8122C0.852457 35.9961 0.893521 36.0643 1.15214 36.0708C1.34551 36.0756 1.59681 36.1981 1.71072 36.343C1.94079 36.6355 1.88103 36.7071 1.13245 37.035C0.928257 37.1243 0.726874 37.3778 0.684826 37.5985C0.620698 37.934 0.863707 37.9782 2.18113 37.8689C3.34344 37.7728 3.69881 37.8197 3.54286 38.0489C3.36496 38.3106 3.37607 38.3521 3.61317 38.3142C4.08316 38.2384 4.1861 38.329 3.96475 38.6232C3.8213 38.8139 4.02367 38.8387 4.59758 38.7013C5.64809 38.4492 5.59437 38.4464 7.97271 38.8832C9.4302 39.1508 11.5668 39.1944 16.1996 39.0515C20.0451 38.9327 23.6503 38.9734 25.5515 39.1567C31.8173 39.7619 32.4406 39.8043 32.351 39.6181C32.3008 39.5137 31.6047 39.3593 30.804 39.275C30.0036 39.191 29.2883 39.0082 29.2149 38.8696C29.0318 38.5236 41.1412 38.5505 45.412 38.9055C47.8618 39.1092 66.3658 39.5078 72.8033 39.4956C74.2395 39.4928 80.5036 39.1352 80.7911 39.0396C81.0283 38.9604 81.1508 39.019 81.0992 39.187C81.0521 39.3403 81.0769 39.4657 81.1542 39.4657C81.2315 39.4657 81.3339 39.3383 81.3817 39.1828C81.4956 38.8119 82.0146 38.8161 82.0146 39.1878C82.0146 39.5078 85.3367 39.5268 87.7627 39.2209C88.8735 39.0809 89.2379 39.1219 89.2895 39.3927C89.3269 39.5884 89.4493 39.7486 89.5616 39.7486C89.674 39.7486 89.7267 39.6213 89.6789 39.4657C89.6311 39.3101 89.7065 39.161 89.8464 39.1344C89.9863 39.1078 90.1957 39.0577 90.3118 39.0229C90.4278 38.9884 90.8708 38.9445 91.2962 38.9256C91.7674 38.9047 91.9976 38.7991 91.8851 38.656C91.7027 38.4232 92.7002 38.2065 95.5151 37.8681C96.9302 37.6981 97.5705 37.2336 96.4925 37.1594C96.1483 37.1357 95.8034 37.0867 95.726 37.0505C95.6487 37.0143 94.9842 36.9526 94.2494 36.9136L92.9134 36.842L93.8275 36.6219C94.3303 36.5008 95.3638 36.3619 96.1242 36.3135C96.8845 36.2649 97.5369 36.1268 97.5739 36.0066C97.6109 35.8864 97.7677 35.7879 97.9224 35.7879C98.0771 35.7879 98.1696 35.6773 98.1281 35.5418C98.0861 35.4051 97.7854 35.3998 97.4518 35.5296C96.7785 35.7916 96.1368 35.8575 96.2378 35.6544C96.3732 35.3817 99.2868 34.3717 99.4885 34.5273C99.6063 34.6181 99.7344 34.4962 99.7818 34.2481C99.8414 33.9355 100.081 33.7943 100.609 33.7615L101.351 33.7154L100.578 33.5485C99.9693 33.4169 99.885 33.3453 100.183 33.2126C100.391 33.1196 100.866 33.1382 101.238 33.2537C101.609 33.3691 101.928 33.4378 101.946 33.4064C101.963 33.3747 101.877 33.0596 101.754 32.7057C101.605 32.2796 101.482 32.1574 101.39 32.3436C101.297 32.53 101.101 32.5252 100.808 32.3289C100.023 31.8024 100.147 31.6838 101.376 31.7871C102.233 31.859 102.554 31.7976 102.486 31.5749C102.426 31.382 102.514 31.2516 102.714 31.236C103.003 31.2134 101.621 30.6484 100.507 30.3338C100.275 30.2682 100.56 30.1935 101.14 30.168C101.72 30.1423 102.29 29.9977 102.406 29.8469C102.581 29.6195 102.569 29.5711 102.336 29.564C102.181 29.5592 101.959 29.4209 101.843 29.2565C101.689 29.0381 101.812 29.0059 102.3 29.1369C103.173 29.3705 103.357 29.1236 102.955 28.2613C102.776 27.8794 102.714 27.5837 102.812 27.5837C102.907 27.5837 102.946 27.4564 102.898 27.3008C102.85 27.1452 102.546 27.0159 102.222 27.0137C101.898 27.0111 101.538 26.8765 101.422 26.7141C101.27 26.5019 101.418 26.4708 101.949 26.6037C102.7 26.7913 102.984 26.4145 102.371 26.0442C102.062 25.858 102.061 25.8467 102.336 25.5816C102.559 25.3666 102.514 25.3346 102.121 25.4286C101.555 25.5641 100.96 24.9541 101.359 24.6466C101.483 24.5504 101.699 24.4718 101.838 24.4718C101.977 24.4718 102.169 24.2808 102.265 24.0474C102.403 23.7142 102.403 23.6231 102.267 23.6231C102.172 23.6231 102.131 23.4341 102.176 23.1987C102.227 22.926 102.17 22.7673 102.015 22.7546C101.814 22.7379 101.821 22.6951 102.054 22.5028C102.316 22.2872 102.308 22.2487 101.94 21.9568C101.722 21.7842 101.453 21.6428 101.342 21.6428C101.231 21.6428 101.14 21.5154 101.14 21.3598C101.14 21.2043 101.504 21.0645 101.949 21.0495L102.758 21.0221L102.23 20.5867C101.658 20.1148 101.555 19.5589 101.958 19.1252C102.098 18.9744 102.92 18.7608 103.786 18.6505C104.651 18.5404 105.359 18.3517 105.359 18.2312C105.359 18.1107 105.185 17.8844 104.972 17.7279C104.649 17.4903 104.752 17.4402 105.605 17.4216C106.184 17.4088 106.625 17.2767 106.625 17.1163C106.625 16.9607 106.495 16.8334 106.335 16.8334C106.176 16.8334 106.083 16.7117 106.129 16.5629C106.175 16.4141 106.305 16.3641 106.418 16.4518C106.532 16.5392 106.625 16.4914 106.625 16.3454C106.625 16.1991 106.324 15.9377 105.957 15.7643C105.39 15.4967 105.608 15.4627 107.398 15.5391L109.508 15.6294L107.68 15.1122C104.481 14.2072 104.538 14.2307 104.937 13.9899C105.263 13.7939 105.266 13.7758 104.981 13.7497C104.552 13.7104 104.443 13.2224 104.83 13.073C105.007 13.0043 104.888 12.9327 104.562 12.9112C104.24 12.89 103.955 12.7471 103.929 12.5938C103.904 12.4405 103.155 12.2108 102.265 12.0837C100.681 11.8574 100.66 11.8455 101.242 11.5052C101.62 11.2837 102.607 11.1807 103.966 11.2206C105.933 11.2786 106.113 11.241 106.296 10.7343C106.472 10.2514 106.707 10.1739 108.248 10.0912C109.645 10.0166 110 9.91613 110 9.59616C110 9.3755 109.945 9.19501 109.878 9.19501C109.68 9.19501 107.28 8.34262 107.012 8.17712C106.504 7.86366 106.794 7.49645 107.574 7.46505C108.374 7.4328 108.377 7.42997 107.82 7.19856C107.511 7.06984 106.751 6.94762 106.133 6.92725C105.031 6.89048 103.536 6.50601 103.953 6.36597C104.35 6.23273 102.899 5.84203 101.93 5.8211C101.085 5.80271 100.92 5.7102 100.636 5.09291L100.31 4.38565L100.901 4.36019L101.492 4.33473L101.011 4.05663C100.747 3.90387 100.414 3.83993 100.273 3.91433C100.131 3.98874 100.015 3.94376 100.015 3.81419C100.015 3.68462 99.9044 3.52025 99.7691 3.44896C99.6339 3.37795 99.8078 3.28883 100.156 3.25149L100.789 3.18331L100.156 2.96887C98.0875 2.2684 83.378 1.88167 78.6394 2.40335C77.2859 2.55244 75.535 2.67748 74.7486 2.68116C73.7395 2.68625 73.2979 2.79234 73.2475 3.04186C73.1938 3.30807 73.1473 3.31401 73.0589 3.06506C72.9598 2.78611 70.0395 2.46502 69.7797 2.70436C69.5259 2.93832 32.4805 2.90748 29.9814 2.67126C28.3184 2.51396 26.4199 2.33573 25.7624 2.27519C25.105 2.21465 23.1481 2.09866 21.414 2.01803C19.6798 1.93712 17.623 1.79114 16.8435 1.69383C14.5895 1.41205 11.4009 1.38405 11.3206 1.64545ZM82.6914 1.46694C82.7928 1.5487 82.9142 1.53851 82.9609 1.44459C83.0076 1.35066 82.9246 1.2839 82.7764 1.29606C82.6125 1.30964 82.5792 1.37669 82.6914 1.46694ZM78.8944 1.74984C78.9958 1.8316 79.1172 1.82141 79.1638 1.72749C79.2105 1.63357 79.1276 1.5668 78.9793 1.57897C78.8155 1.59255 78.7822 1.65959 78.8944 1.74984ZM80.0194 1.74984C80.1208 1.8316 80.2422 1.82141 80.2889 1.72749C80.3356 1.63357 80.2526 1.5668 80.1044 1.57897C79.9405 1.59255 79.9072 1.65959 80.0194 1.74984ZM34.8683 2.32215C35.0424 2.38948 35.327 2.38948 35.5011 2.32215C35.6752 2.25454 35.5327 2.19937 35.1847 2.19937C34.8366 2.19937 34.6942 2.25454 34.8683 2.32215ZM63.3486 3.43962C63.2534 3.51714 63.0635 3.52195 62.9267 3.45009C62.7898 3.37823 62.8677 3.31486 63.0998 3.3092C63.3318 3.30354 63.4438 3.36211 63.3486 3.43962ZM99.4146 3.42491C99.3679 3.51883 99.2466 3.52902 99.1452 3.44726C99.0329 3.35701 99.0663 3.28997 99.2301 3.27639C99.3783 3.26422 99.4613 3.33099 99.4146 3.42491ZM78.4585 3.92735C78.5064 4.02382 78.0447 4.11717 77.4324 4.135C76.82 4.15254 74.7053 4.23175 72.733 4.31068C70.7606 4.38989 63.7792 4.55256 57.2188 4.6728C50.6582 4.79303 44.9455 4.97777 44.5238 5.08386C43.7489 5.27849 42.8215 5.05387 42.9915 4.7124C43.0894 4.51578 44.4206 4.46317 51.8845 4.36217C54.7333 4.32341 56.5605 4.19327 56.5605 4.02891C56.5605 3.88067 56.6495 3.82805 56.7583 3.91207C57.059 4.14405 61.7423 4.10473 65.1389 3.84163C68.4598 3.58419 78.3195 3.64784 78.4585 3.92735ZM82.1317 3.67867C82.0306 3.88208 79.6201 3.90669 79.5201 3.70527C79.4739 3.61276 80.0587 3.53694 80.8192 3.53694C81.5797 3.53694 82.1704 3.60059 82.1317 3.67867ZM82.6796 3.70781C82.6329 3.80174 82.5116 3.81192 82.4102 3.73016C82.2979 3.63992 82.3313 3.57287 82.4951 3.55929C82.6433 3.54712 82.7263 3.61389 82.6796 3.70781ZM71.9963 4.01986C72.1713 4.08747 72.4244 4.08492 72.5589 4.0142C72.6933 3.94347 72.5501 3.88802 72.2408 3.89113C71.9314 3.89425 71.8214 3.95224 71.9963 4.01986ZM91.2039 4.03202C91.2396 4.14858 90.3943 4.2442 89.3255 4.2442C88.2567 4.2442 87.3348 4.14858 87.2767 4.03202C87.2186 3.91546 88.0638 3.81984 89.1549 3.81984C90.2462 3.81984 91.1682 3.91546 91.2039 4.03202ZM91.929 4.10275C91.5449 4.43488 91.4368 4.43488 91.4368 4.10275C91.4368 3.94715 91.6108 3.8289 91.8235 3.83965C92.1662 3.85747 92.1782 3.88717 91.929 4.10275ZM66.2377 4.29597C66.3391 4.37773 66.4604 4.36754 66.5071 4.27362C66.5538 4.1797 66.4708 4.11293 66.3226 4.1251C66.1588 4.13868 66.1255 4.20572 66.2377 4.29597ZM67.0751 4.30785C67.3278 4.37066 67.7075 4.36952 67.9189 4.30502C68.1303 4.24024 67.9234 4.18875 67.4593 4.19045C66.9953 4.19186 66.8224 4.24476 67.0751 4.30785ZM38.6871 4.96815C38.5858 5.09404 38.4456 5.12572 38.3757 5.03887C38.3058 4.95202 38.3314 4.77775 38.4325 4.65186C38.5338 4.52597 38.674 4.49428 38.7439 4.58114C38.8138 4.66799 38.7882 4.84226 38.6871 4.96815ZM41.2318 4.72994C41.2318 4.85187 40.773 4.93646 40.2122 4.91807C39.4555 4.89318 39.3013 4.83009 39.6145 4.67336C40.1544 4.40291 41.2318 4.44082 41.2318 4.72994ZM42.6381 4.53417C42.6381 4.83632 41.8788 5.25077 41.6646 5.06547C41.4894 4.91383 41.5166 4.82811 41.7943 4.6578C42.2238 4.39414 42.6381 4.3336 42.6381 4.53417ZM38.0627 4.96758C38.0175 5.11413 37.494 5.23238 36.8991 5.23012C36.3042 5.22757 35.8915 5.13223 35.9819 5.01794C36.2322 4.70137 38.1587 4.65469 38.0627 4.96758ZM83.0368 4.85414C82.9416 4.93165 82.7517 4.93646 82.6149 4.8646C82.4781 4.79275 82.556 4.72938 82.788 4.72372C83.0201 4.71806 83.132 4.77662 83.0368 4.85414ZM92.8783 5.15119C92.7043 5.21852 92.4194 5.21852 92.2454 5.15119C92.0715 5.08357 92.2138 5.02841 92.5618 5.02841C92.9099 5.02841 93.0522 5.08357 92.8783 5.15119ZM5.65231 8.9121C5.65231 9.0677 5.62446 9.19501 5.59029 9.19501C5.55612 9.19501 5.48918 9.0677 5.44136 8.9121C5.39355 8.75651 5.42153 8.6292 5.50338 8.6292C5.58523 8.6292 5.65231 8.75651 5.65231 8.9121ZM1.82899 19.2898C1.93039 19.3716 2.05175 19.3614 2.09844 19.2675C2.14513 19.1736 2.06216 19.1068 1.91393 19.119C1.7501 19.1326 1.71677 19.1996 1.82899 19.2898ZM101.805 24.0769C101.759 24.1708 101.637 24.181 101.536 24.0992C101.424 24.009 101.457 23.9419 101.621 23.9283C101.769 23.9162 101.852 23.9829 101.805 24.0769ZM2.98033 24.7547C2.98033 24.9103 2.91325 25.0376 2.8314 25.0376C2.74956 25.0376 2.72157 24.9103 2.76939 24.7547C2.8172 24.5991 2.88414 24.4718 2.91832 24.4718C2.95249 24.4718 2.98033 24.5991 2.98033 24.7547ZM44.8236 29.0172C44.9749 29.5097 44.8027 29.6141 44.6097 29.1465C44.4988 28.8777 44.4881 28.7153 44.5815 28.7153C44.6636 28.7153 44.7727 28.8511 44.8236 29.0172ZM53.7413 29.7137C53.8248 29.6099 53.8567 29.4065 53.8121 29.2616C53.7657 29.1103 54.0888 28.9982 54.5717 28.9982C55.057 28.9982 55.4338 29.1295 55.4634 29.3089C55.4918 29.4797 55.8122 29.6871 56.1756 29.7694C57.0807 29.9748 56.8744 30.4105 55.9229 30.3027C55.3505 30.2379 55.1542 30.3132 55.1542 30.5972C55.1542 31.0776 54.6396 31.1011 54.5441 30.6249C54.5031 30.4198 54.4686 30.4863 54.4621 30.7831C54.4561 31.0646 54.399 31.2303 54.3354 31.1511C54.2719 31.0722 54.1144 31.2555 53.9853 31.5588C53.7099 32.2061 53.0447 32.3082 53.0447 31.7036C53.0447 31.3941 52.9227 31.337 52.5337 31.4637C52.1326 31.5947 52.0374 31.5452 52.0917 31.234C52.1298 31.0156 52.2507 30.8501 52.3604 30.866C52.4702 30.8818 52.6465 30.7084 52.7522 30.4809C52.9191 30.1214 52.8819 30.0925 52.4672 30.2611C52.2047 30.3678 51.8845 30.5143 51.7557 30.5867C51.6269 30.6594 51.4844 30.5981 51.4392 30.4509C51.3939 30.3035 51.6768 30.0945 52.0679 29.9864C52.459 29.8781 52.8546 29.6235 52.947 29.4203C53.0848 29.1176 53.1578 29.1278 53.3523 29.4766C53.4828 29.7109 53.6579 29.8175 53.7413 29.7137ZM73.5768 29.3906C73.5768 29.6229 72.7167 29.7397 72.6482 29.5168C72.6084 29.3872 72.801 29.2811 73.0762 29.2811C73.3515 29.2811 73.5768 29.3304 73.5768 29.3906ZM47.8972 31.094C47.7764 31.7274 47.5994 31.4108 47.6419 30.6368C47.6946 29.6744 47.698 29.6665 47.8459 30.1762C47.921 30.4351 47.9441 30.8481 47.8972 31.094ZM57.864 30.0325C57.7688 30.11 57.5789 30.1149 57.4421 30.043C57.3053 29.9711 57.3832 29.9078 57.6152 29.9021C57.8473 29.8965 57.9592 29.955 57.864 30.0325ZM62.6076 30.1443C61.7057 30.4671 58.4994 30.4566 58.2481 30.1299C58.1081 29.9479 58.9132 29.8662 60.6388 29.8866C62.4182 29.9081 63.0404 29.9892 62.6076 30.1443ZM65.5257 30.0495C65.3129 30.1143 64.965 30.1143 64.7522 30.0495C64.5394 29.9847 64.7135 29.9318 65.1389 29.9318C65.5643 29.9318 65.7384 29.9847 65.5257 30.0495ZM66.8617 30.0342C66.765 30.1129 66.6068 30.1129 66.5101 30.0342C66.4135 29.9559 66.4925 29.8916 66.6859 29.8916C66.8792 29.8916 66.9584 29.9559 66.8617 30.0342ZM68.268 30.0342C68.1713 30.1129 68.0131 30.1129 67.9164 30.0342C67.8198 29.9559 67.8988 29.8916 68.0922 29.8916C68.2855 29.8916 68.3647 29.9559 68.268 30.0342ZM44.3257 30.2682C44.3257 30.6801 43.8014 31.5429 43.5561 31.535C43.2819 31.526 43.2833 31.5048 43.5927 30.9859L43.9143 30.4464L43.3114 30.3375C42.7819 30.2419 42.807 30.2226 43.517 30.1794C43.9618 30.1522 44.3257 30.1921 44.3257 30.2682ZM44.9907 30.3007C44.944 30.3946 44.8226 30.4048 44.7212 30.3231C44.609 30.2328 44.6423 30.1658 44.8062 30.1522C44.9544 30.14 45.0374 30.2068 44.9907 30.3007ZM53.6072 30.4128C53.6072 30.5683 53.6743 30.6957 53.7562 30.6957C53.838 30.6957 53.866 30.5683 53.8182 30.4128C53.7704 30.2572 53.7034 30.1299 53.6693 30.1299C53.6351 30.1299 53.6072 30.2572 53.6072 30.4128ZM97.5864 30.3007C97.5397 30.3946 97.4184 30.4048 97.317 30.3231C97.2047 30.2328 97.2381 30.1658 97.4019 30.1522C97.5501 30.14 97.6331 30.2068 97.5864 30.3007ZM98.6441 30.3171C98.5475 30.3958 98.3893 30.3958 98.2925 30.3171C98.1959 30.2388 98.2749 30.1746 98.4683 30.1746C98.6617 30.1746 98.7409 30.2388 98.6441 30.3171ZM38.2404 30.5836C38.1937 30.6776 38.0724 30.6877 37.971 30.606C37.8588 30.5157 37.8921 30.4487 38.0559 30.4351C38.2041 30.4229 38.2871 30.4897 38.2404 30.5836ZM42.184 30.7488C42.1533 30.9336 42.0443 31.1409 41.9417 31.2097C41.8368 31.2801 41.7954 31.204 41.8472 31.0354C41.8988 30.8674 41.7995 30.6821 41.6206 30.613C41.3938 30.5253 41.4371 30.4787 41.7708 30.4512C42.0767 30.426 42.2203 30.5296 42.184 30.7488ZM46.646 30.9786C46.5949 31.303 46.6207 31.5444 46.7069 31.5444C46.7895 31.5444 46.857 31.6505 46.857 31.78C46.857 32.1475 46.2852 31.9718 46.1604 31.5659C46.0741 31.2849 45.9809 31.2765 45.747 31.5282C45.5808 31.707 45.3764 31.7684 45.2928 31.6643C45.124 31.4544 46.0731 30.4722 46.4797 30.4357C46.673 30.4184 46.7135 30.5505 46.646 30.9786ZM73.2252 30.6957C73.273 30.8513 73.245 30.9786 73.1632 30.9786C73.0813 30.9786 73.0142 30.8513 73.0142 30.6957C73.0142 30.5401 73.0421 30.4128 73.0762 30.4128C73.1104 30.4128 73.1774 30.5401 73.2252 30.6957ZM74.5612 30.5375C74.5612 30.6063 74.4979 30.7409 74.4205 30.8371C74.3432 30.9333 74.2799 30.877 74.2799 30.7123C74.2799 30.5477 74.3432 30.4128 74.4205 30.4128C74.4979 30.4128 74.5612 30.4688 74.5612 30.5375ZM95.131 30.5983C95.0358 30.6759 94.846 30.6807 94.7091 30.6088C94.5723 30.5369 94.6502 30.4736 94.8822 30.4679C95.1143 30.4623 95.2262 30.5208 95.131 30.5983ZM95.8989 30.5836C95.8522 30.6776 95.7308 30.6877 95.6294 30.606C95.5172 30.5157 95.5505 30.4487 95.7144 30.4351C95.8626 30.4229 95.9455 30.4897 95.8989 30.5836ZM40.3177 30.9786C40.3655 31.1342 40.3375 31.2615 40.2557 31.2615C40.1738 31.2615 40.1067 31.1342 40.1067 30.9786C40.1067 30.823 40.1346 30.6957 40.1688 30.6957C40.2029 30.6957 40.2699 30.823 40.3177 30.9786ZM56.9443 30.8665C56.8976 30.9605 56.7762 30.9706 56.6748 30.8889C56.5626 30.7986 56.5959 30.7316 56.7598 30.718C56.908 30.7058 56.991 30.7726 56.9443 30.8665ZM57.6474 30.8665C57.6007 30.9605 57.4794 30.9706 57.378 30.8889C57.2657 30.7986 57.2991 30.7316 57.4629 30.718C57.6111 30.7058 57.6941 30.7726 57.6474 30.8665ZM58.9512 31.12C58.9512 31.3534 59.0145 31.5444 59.0918 31.5444C59.1692 31.5444 59.2323 31.3854 59.2322 31.1907C59.2319 30.9282 59.5407 30.8609 60.4294 30.9288C61.1536 30.9842 61.5938 31.1285 61.5429 31.294C61.4968 31.4442 61.3473 31.496 61.2107 31.4089C61.0743 31.3217 60.779 31.4434 60.5547 31.6787C60.1934 32.0578 60.1414 32.0584 60.1011 31.6841C60.0502 31.2117 59.4379 31.1045 59.3028 31.5444C59.2086 31.8513 58.6286 31.9328 58.4922 31.6581C58.3552 31.3828 58.5432 30.6957 58.7553 30.6957C58.863 30.6957 58.9512 30.8866 58.9512 31.12ZM71.8892 31.12C71.741 31.4793 71.7719 31.5444 72.0913 31.5444C72.3069 31.5444 72.431 31.6654 72.3814 31.8273C72.3336 31.9829 72.1612 32.1102 71.998 32.1102C71.835 32.1102 71.7469 32.2013 71.8021 32.3125C71.8575 32.4236 72.415 32.4754 73.0409 32.4279C74.0578 32.3504 74.1696 32.3917 74.0889 32.8152C74.0294 33.1269 74.0587 33.2446 74.1743 33.1595C74.271 33.0879 74.3345 32.8865 74.3151 32.7113C74.2956 32.5362 74.4419 32.3931 74.6398 32.3931C74.8438 32.3931 74.9621 32.5156 74.9127 32.676C74.8649 32.8316 74.8929 32.9589 74.9748 32.9589C75.0566 32.9589 75.1237 32.8316 75.1237 32.676C75.1237 32.2052 75.6496 32.3591 75.7448 32.8579C75.7935 33.1136 75.8124 33.3654 75.7865 33.4175C75.7606 33.4692 75.1158 33.5465 74.3536 33.5889C73.3418 33.6452 72.9518 33.5708 72.9089 33.3125C72.8765 33.1182 72.7251 32.9589 72.5724 32.9589C72.4195 32.9589 72.3336 33.0862 72.3814 33.2418C72.4322 33.4067 72.2891 33.5247 72.0381 33.5247C71.8016 33.5247 71.6079 33.3974 71.6079 33.2418C71.6079 33.0862 71.3738 32.9589 71.0876 32.9589C70.5187 32.9589 70.5915 32.5065 71.186 32.3464C71.4504 32.2751 71.5486 32.0587 71.5821 31.4736C71.6093 30.9967 71.7113 30.6957 71.8455 30.6957C72.0241 30.6957 72.0321 30.7737 71.8892 31.12ZM85.8819 31.348C86.0366 31.4292 85.8625 31.4827 85.4952 31.4671C85.1278 31.4516 84.8272 31.3265 84.8272 31.1896C84.8272 31.0524 84.9616 31.0264 85.126 31.1313C85.3545 31.277 85.3978 31.2318 85.31 30.9381C85.2197 30.6362 85.2384 30.6232 85.3978 30.8773C85.5094 31.0552 85.7272 31.2668 85.8819 31.348ZM68.3031 31.2615C68.2553 31.4171 68.1567 31.5444 68.0839 31.5444C68.011 31.5444 67.9515 31.4171 67.9515 31.2615C67.9515 31.1059 68.0503 30.9786 68.1708 30.9786C68.2913 30.9786 68.3509 31.1059 68.3031 31.2615ZM53.326 31.5444C53.5987 31.8988 53.7479 31.8988 53.7479 31.5444C53.7479 31.3888 53.6054 31.2634 53.4315 31.2657C53.1757 31.2694 53.1554 31.3226 53.326 31.5444ZM66.5452 31.6671C66.5452 31.8969 66.7129 32.1158 66.932 32.1721C67.2422 32.2519 67.2039 32.2983 66.7386 32.4072C66.2098 32.5308 66.1585 32.4862 66.1585 31.9022C66.1585 31.5472 66.2447 31.2615 66.3519 31.2615C66.4582 31.2615 66.5452 31.4439 66.5452 31.6671ZM70.9048 31.5022C70.9048 31.6442 70.6504 31.7676 70.3394 31.7764C70.0284 31.7848 69.8025 31.6991 69.8372 31.586C69.9318 31.2787 70.9048 31.2023 70.9048 31.5022ZM27.0984 31.8273C27.1462 31.9829 27.0866 32.1102 26.9661 32.1102C26.8456 32.1102 26.7469 31.9829 26.7469 31.8273C26.7469 31.6717 26.8063 31.5444 26.8792 31.5444C26.952 31.5444 27.0506 31.6717 27.0984 31.8273ZM55.0136 31.844C55.0136 32.0086 54.9432 32.0561 54.8572 31.9492C54.7712 31.8423 54.6457 31.9302 54.5782 32.1447C54.481 32.453 54.4548 32.431 54.4531 32.0394C54.4519 31.7316 54.5573 31.5444 54.7323 31.5444C54.887 31.5444 55.0136 31.6793 55.0136 31.844ZM56.9824 31.7565C56.9824 31.8731 56.8302 31.9687 56.6442 31.9687C56.4582 31.9687 56.3355 31.8731 56.3713 31.7565C56.4071 31.64 56.5592 31.5444 56.7094 31.5444C56.8596 31.5444 56.9824 31.64 56.9824 31.7565ZM83.7724 31.8273C83.7246 31.9829 83.5469 32.1011 83.3774 32.0904C83.0804 32.0711 83.0794 32.0618 83.3506 31.8273C83.7376 31.4926 83.8752 31.4926 83.7724 31.8273ZM94.1088 31.8273C94.1088 31.9829 94.2512 32.1122 94.4252 32.1144C94.5991 32.117 94.8365 32.2423 94.9526 32.3931C95.1081 32.5954 94.9974 32.6831 94.5307 32.7269C94.1826 32.7597 93.6763 32.8369 93.4056 32.8983C93.1349 32.96 90.7301 33.0477 88.0617 33.0933C85.3932 33.1388 83.5896 33.0811 84.0537 32.9648C84.5178 32.8488 85.2139 32.6746 85.6006 32.5778C87.0865 32.2064 88.8887 32.1096 88.9768 32.3962C89.0256 32.5552 89.1305 32.6044 89.2098 32.5057C89.2892 32.4072 89.502 32.4856 89.6829 32.6802C89.8636 32.8749 90.1265 32.9416 90.2672 32.8285C90.4077 32.7153 90.9775 32.6004 91.5333 32.5733C92.089 32.5461 92.5851 32.4406 92.6357 32.3388C92.6862 32.2372 92.9434 32.2245 93.2072 32.3105C93.5887 32.4349 93.6869 32.3727 93.6869 32.0058C93.6869 31.752 93.7818 31.5444 93.8978 31.5444C94.0139 31.5444 94.1088 31.6717 94.1088 31.8273ZM98.2457 31.898C98.3112 32.1809 98.3441 32.1809 98.4097 31.898C98.498 31.5178 99.672 31.3967 99.7827 31.7565C99.8184 31.8731 99.569 31.924 99.2284 31.8694C98.8416 31.8075 98.6089 31.8872 98.6089 32.0816C98.6089 32.5535 97.9476 32.4545 97.8549 31.9687C97.7564 31.4527 98.1269 31.3857 98.2457 31.898ZM65.6311 32.1102C65.5833 32.2658 65.3739 32.384 65.1658 32.3733C64.8279 32.3554 64.8175 32.3272 65.0686 32.1102C65.4593 31.7724 65.7349 31.7724 65.6311 32.1102ZM78.8504 32.1102C78.8026 32.2658 78.8938 32.3931 79.053 32.3931C79.2122 32.3931 79.3426 32.2658 79.3426 32.1102C79.3426 31.7761 79.6151 31.8516 79.8466 32.2499C80.0591 32.6152 79.337 33.2599 78.9459 33.0542C78.7948 32.9747 78.6286 33.048 78.5767 33.2172C78.5247 33.3863 78.3873 33.5247 78.2713 33.5247C78.1552 33.5247 78.1025 33.3875 78.154 33.22C78.2188 33.009 78.0485 32.9753 77.5998 33.1105C77.2067 33.2291 76.9519 33.1977 76.9519 33.0305C76.9519 32.8791 77.3147 32.6797 77.7583 32.5877C78.2018 32.4958 78.5867 32.287 78.6137 32.1238C78.6407 31.9608 78.7247 31.8273 78.8 31.8273C78.8756 31.8273 78.8982 31.9546 78.8504 32.1102ZM82.8711 32.0881C82.7623 32.227 82.4868 32.2932 82.2591 32.2352C81.9403 32.154 81.8285 32.2576 81.7728 32.6859C81.733 32.9917 81.6465 33.2418 81.5807 33.2418C81.4288 33.2418 81.5924 32.3207 81.7934 32.0437C81.8763 31.9294 82.1974 31.836 82.5068 31.836C82.8906 31.836 83.0064 31.9161 82.8711 32.0881ZM33.3565 32.36C33.3565 32.6969 32.8128 32.966 32.7229 32.6737C32.6837 32.5458 32.7311 32.3769 32.8283 32.298C33.1163 32.0643 33.3565 32.0926 33.3565 32.36ZM35.1847 32.3931C35.1847 32.5487 35.1252 32.676 35.0523 32.676C34.9795 32.676 34.8809 32.5487 34.8331 32.3931C34.7853 32.2375 34.8449 32.1102 34.9654 32.1102C35.086 32.1102 35.1847 32.2375 35.1847 32.3931ZM37.716 32.3622C37.716 32.79 36.6891 32.8811 36.3135 32.4867C35.9844 32.1413 36.0233 32.1136 36.8371 32.1119C37.3206 32.111 37.716 32.2236 37.716 32.3622ZM38.1485 32.4709C38.131 32.8092 37.9382 32.7436 37.8777 32.3789C37.8468 32.1922 37.8974 32.0904 37.9903 32.1526C38.0831 32.2148 38.1542 32.358 38.1485 32.4709ZM39.3937 33.362C39.3991 33.506 39.2863 33.3787 39.1429 33.0791C38.9661 32.7099 38.9321 32.4695 39.0374 32.3328C39.1782 32.1495 39.3687 32.6997 39.3937 33.362ZM40.5874 32.2819C40.8736 32.5028 40.8758 32.9589 40.5907 32.9589C40.4701 32.9589 40.4081 33.0785 40.4531 33.2245C40.498 33.3708 40.4071 33.4712 40.2512 33.4475C39.9595 33.4033 39.9141 32.7153 40.1771 32.3266C40.3493 32.072 40.3197 32.0751 40.5874 32.2819ZM95.7963 32.3931C95.7963 32.5487 95.6855 32.674 95.5502 32.6717C95.3399 32.6681 95.3348 32.6273 95.5151 32.3931C95.7804 32.0479 95.7963 32.0479 95.7963 32.3931ZM42.0107 32.8336C41.651 33.1306 41.6319 33.1965 41.8701 33.3182C42.093 33.4322 42.0782 33.4653 41.793 33.4919C41.5894 33.5108 41.372 33.3052 41.279 33.0061C41.1315 32.5309 41.173 32.4876 41.7726 32.4887C42.4211 32.4898 42.4232 32.4929 42.0107 32.8336ZM43.9438 33.1597C44.0005 33.7561 43.9672 33.8325 43.7107 33.6939C43.5461 33.605 43.1584 33.5267 42.849 33.5199C42.3938 33.51 42.334 33.4517 42.5356 33.2158C42.6725 33.0554 42.7493 32.8092 42.7062 32.6686C42.663 32.5283 42.9089 32.4248 43.2526 32.4386C43.8004 32.4607 43.8859 32.5498 43.9438 33.1597ZM48.0761 33.1182C48.2222 33.5199 48.302 33.5601 48.4326 33.2972C48.6668 32.8262 48.9664 32.8743 48.9664 33.3832C48.9664 33.714 48.7878 33.8028 48.1578 33.7852C47.713 33.7731 47.4284 33.6987 47.525 33.6203C47.9384 33.2845 47.6441 32.9589 46.9273 32.9589C46.0907 32.9589 45.8657 33.4169 46.6109 33.6031C46.8951 33.6738 46.7653 33.734 46.2676 33.7623C45.8184 33.7878 45.4258 33.6726 45.3728 33.5001C45.3047 33.2786 45.2355 33.2786 45.1254 33.5001C45.0413 33.6693 44.8776 33.8076 44.7616 33.8076C44.6056 33.8076 44.5919 33.7247 44.7084 33.4902C44.7952 33.3156 44.8312 32.9892 44.7883 32.7645C44.7225 32.4194 44.9561 32.3753 46.2993 32.4785C47.6324 32.5809 47.9183 32.6836 48.0761 33.1182ZM51.2158 33.0296C51.217 33.3456 50.2625 33.2865 50.1635 32.9643C50.112 32.7971 50.3037 32.7128 50.6467 32.7521C50.9593 32.788 51.2154 32.9131 51.2158 33.0296ZM56.2792 32.9422C56.2792 33.0887 56.2161 33.2868 56.139 33.3827C55.8936 33.6876 52.0949 33.5476 51.7791 33.222C51.6185 33.0565 53.3604 32.7651 54.7674 32.7221C55.6346 32.6958 56.2792 32.7894 56.2792 32.9422ZM62.4464 33.1063C62.5947 33.4045 62.3286 33.5055 61.0169 33.6489C59.6719 33.7963 58.2481 33.4359 58.2481 32.9481C58.2481 32.6995 62.3206 32.8531 62.4464 33.1063ZM67.4593 33.2316C66.5521 33.3946 65.8701 33.2746 66.0959 32.9917C66.1724 32.8958 66.7003 32.8766 67.2691 32.9487L68.3031 33.08L67.4593 33.2316ZM69.9204 32.9589C69.9204 33.1145 69.8925 33.2418 69.8584 33.2418C69.8242 33.2418 69.7572 33.1145 69.7094 32.9589C69.6616 32.8033 69.6896 32.676 69.7714 32.676C69.8533 32.676 69.9204 32.8033 69.9204 32.9589ZM73.0845 32.9589C73.0367 33.1145 73.0964 33.2418 73.2169 33.2418C73.3374 33.2418 73.4361 33.1145 73.4361 32.9589C73.4361 32.8033 73.3766 32.676 73.3038 32.676C73.2309 32.676 73.1324 32.8033 73.0845 32.9589ZM102.239 32.8692C102.34 32.951 102.462 32.9408 102.508 32.8469C102.555 32.7529 102.472 32.6862 102.324 32.6983C102.16 32.7119 102.127 32.779 102.239 32.8692ZM69.2957 33.2152C69.2524 33.3561 69.0904 33.405 68.9358 33.3235C68.5488 33.1201 68.5837 32.9589 69.0146 32.9589C69.2124 32.9589 69.339 33.0743 69.2957 33.2152ZM76.5651 33.1462C76.4685 33.2248 76.3103 33.2248 76.2136 33.1462C76.117 33.0678 76.196 33.0036 76.3894 33.0036C76.5827 33.0036 76.6619 33.0678 76.5651 33.1462ZM83.0341 33.1462C82.9375 33.2248 82.7793 33.2248 82.6826 33.1462C82.586 33.0678 82.665 33.0036 82.8584 33.0036C83.0517 33.0036 83.1309 33.0678 83.0341 33.1462ZM101.211 34.3734C101.258 34.529 101.325 34.6563 101.36 34.6563C101.394 34.6563 101.422 34.529 101.422 34.3734C101.422 34.2178 101.354 34.0905 101.273 34.0905C101.191 34.0905 101.163 34.2178 101.211 34.3734ZM104.911 34.2837C105.012 34.3655 105.134 34.3553 105.18 34.2614C105.227 34.1674 105.144 34.1007 104.996 34.1128C104.832 34.1264 104.799 34.1935 104.911 34.2837ZM47.4192 37.839C47.4194 37.9555 46.1379 38.0274 44.5717 37.9985C42.6004 37.962 42.0919 37.8967 42.9193 37.7863C44.6364 37.5572 47.4189 37.5897 47.4192 37.839ZM48.8258 37.9428C48.8258 38.0022 48.5253 38.0361 48.1578 38.0178C47.5833 37.9889 47.5489 37.9572 47.9117 37.7914C48.3059 37.6112 48.8258 37.6975 48.8258 37.9428ZM41.5482 37.9555C41.4516 38.0342 41.2934 38.0342 41.1966 37.9555C41.1 37.8772 41.179 37.8129 41.3724 37.8129C41.5658 37.8129 41.645 37.8772 41.5482 37.9555ZM28.8207 38.5587C28.9182 38.6877 28.3412 38.8006 27.5216 38.8127C26.7106 38.8249 26.0725 38.7519 26.1038 38.6503C26.189 38.3731 28.6185 38.2913 28.8207 38.5587ZM93.0981 38.8102C93.1995 38.8919 93.3208 38.8817 93.3675 38.7878C93.4142 38.6939 93.3312 38.6271 93.183 38.6393C93.0192 38.6529 92.9858 38.7199 93.0981 38.8102ZM82.8202 39.0707C82.7736 39.1646 82.6522 39.1748 82.5508 39.0931C82.4386 39.0028 82.4719 38.9358 82.6357 38.9222C82.784 38.91 82.8669 38.9768 82.8202 39.0707ZM33.9464 39.6767C34.7736 39.7265 36.1659 39.7268 37.0403 39.677C37.9147 39.6272 37.2379 39.5865 35.5363 39.5862C33.8346 39.5859 33.1192 39.6266 33.9464 39.6767ZM46.5501 39.8102C46.6251 39.961 46.804 40.0346 46.9476 39.9732C47.1409 39.8909 47.1055 39.8196 46.8111 39.6991C46.5545 39.5935 46.4621 39.6331 46.5501 39.8102ZM90.1448 39.6589C90.2462 39.7406 90.3676 39.7305 90.4143 39.6365C90.461 39.5426 90.378 39.4758 90.2298 39.488C90.0659 39.5016 90.0326 39.5686 90.1448 39.6589ZM47.6673 39.9486C47.8422 40.0162 48.0954 40.0136 48.2298 39.9429C48.3643 39.8722 48.2211 39.8167 47.9117 39.8199C47.6023 39.823 47.4924 39.881 47.6673 39.9486ZM49.6361 39.9486C49.8111 40.0162 50.0642 40.0136 50.1986 39.9429C50.3331 39.8722 50.1899 39.8167 49.8805 39.8199C49.5712 39.823 49.4612 39.881 49.6361 39.9486ZM53.9965 39.9537C54.2492 40.0165 54.6289 40.0153 54.8403 39.9508C55.0517 39.8861 54.8448 39.8346 54.3807 39.8363C53.9166 39.8377 53.7438 39.8906 53.9965 39.9537ZM56.0351 39.9517C56.2488 40.0165 56.5653 40.0148 56.7382 39.9477C56.9112 39.8807 56.7363 39.8275 56.3495 39.8295C55.9628 39.8317 55.8213 39.8866 56.0351 39.9517ZM74.4557 39.9435C74.591 40.0148 74.8126 40.0148 74.9479 39.9435C75.0832 39.8725 74.9725 39.8142 74.7018 39.8142C74.4311 39.8142 74.3204 39.8725 74.4557 39.9435ZM76.7761 39.9358C76.8728 40.0145 77.0311 40.0145 77.1277 39.9358C77.2244 39.8575 77.1452 39.7933 76.9519 39.7933C76.7585 39.7933 76.6795 39.8575 76.7761 39.9358Z" fill="#DF1931"/>
</svg>
