<svg width="20" height="20" viewBox="0 0 20 20" fill="none" xmlns="http://www.w3.org/2000/svg">
<path d="M1 10C1 14.9706 5.02944 19 10 19C14.9706 19 19 14.9706 19 10C19 5.02944 14.9706 1 10 1C6.66873 1 3.76018 2.80989 2.20404 5.5" stroke="white" stroke-width="1.5" stroke-linecap="round" stroke-linejoin="round"/>
<path d="M10.25 6C10.25 5.58579 9.91421 5.25 9.5 5.25C9.08578 5.25 8.75 5.58579 8.75 6L10.25 6ZM13.2367 12.7022C13.6245 12.8477 14.0568 12.6512 14.2022 12.2633C14.3477 11.8755 14.1512 11.4432 13.7633 11.2978L13.2367 12.7022ZM9.5 10.5L8.75 10.5C8.75 10.8126 8.94393 11.0925 9.23665 11.2022L9.5 10.5ZM8.75 6L8.75 10.5L10.25 10.5L10.25 6L8.75 6ZM9.23665 11.2022L13.2367 12.7022L13.7633 11.2978L9.76334 9.79775L9.23665 11.2022Z" fill="white"/>
<path d="M1.5 1.5V5.5H5.5" stroke="white" stroke-width="1.5" stroke-linecap="round" stroke-linejoin="round"/>
</svg>
