<svg width="23" height="24" viewBox="0 0 23 24" fill="none" xmlns="http://www.w3.org/2000/svg">
<path fill-rule="evenodd" clip-rule="evenodd" d="M17.588 14.7171V5.65154C17.593 4.53043 18.4996 3.62315 19.6173 3.62315C20.7381 3.62315 21.6467 4.53549 21.6467 5.66091V14.7176C21.6467 15.843 20.7381 16.7554 19.6173 16.7554C18.4994 16.7554 17.5925 15.8476 17.588 14.7261L17.588 14.7171ZM14.2056 0C15.9279 0 17.3495 1.29255 17.5609 2.96429C18.1307 2.52546 18.8437 2.26465 19.6173 2.26465C21.4853 2.26465 22.9997 3.78521 22.9997 5.66091V14.7176C22.9997 15.9755 22.3186 17.0736 21.3066 17.6606C22.3188 18.2475 23 19.3458 23 20.6038C23 22.4795 21.4857 24 19.6177 24H12.853C10.985 24 9.47069 22.4795 9.47069 20.6038C9.47069 19.016 10.5558 17.6827 12.022 17.3108C11.828 17.146 11.6527 16.9596 11.4999 16.7553C10.8828 17.58 9.90044 18.1135 8.79403 18.1135C7.3411 18.1135 6.10214 17.1936 5.62328 15.9022C5.02657 16.4326 4.2419 16.7545 3.38233 16.7545C1.51432 16.7545 0 15.234 0 13.3583V7.47141C0 5.59571 1.51432 4.07515 3.38233 4.07515C4.31048 4.07515 5.15132 4.45055 5.76247 5.05838C6.31562 3.9392 7.46536 3.16992 8.79403 3.16992C9.55541 3.16992 10.258 3.42253 10.8233 3.84884V3.39626C10.8233 1.52056 12.3376 0 14.2056 0ZM16.5054 17.2075H17.3171C17.1688 17.0694 17.033 16.9181 16.9113 16.7555C16.7896 16.9181 16.6537 17.0694 16.5054 17.2075ZM16.235 3.39626V5.64882L16.235 5.66091V14.7176L16.235 14.7247C16.231 15.8466 15.3239 16.7549 14.2056 16.7549C13.0908 16.7549 12.1859 15.8522 12.1763 14.7349L12.1764 14.7172V6.56618L12.1762 6.53714V3.39626C12.1762 2.27084 13.0848 1.3585 14.2056 1.3585C15.3264 1.3585 16.235 2.27084 16.235 3.39626ZM10.8233 6.54395V14.7171L10.8234 14.7347C10.814 15.8521 9.90901 16.755 8.79403 16.755C7.67323 16.755 6.76463 15.8426 6.76463 14.7172V13.3706L6.76466 13.3583V7.47141L6.76463 7.45905V6.56618C6.76463 5.44076 7.67323 4.52843 8.79403 4.52843C9.90745 4.52843 10.8114 5.42877 10.8233 6.54395ZM5.4117 13.3681V7.46153C5.4064 6.34066 4.49985 5.43366 3.38233 5.43366C2.26152 5.43366 1.35293 6.34599 1.35293 7.47141V13.3583C1.35293 14.4837 2.26152 15.396 3.38233 15.396C4.49985 15.396 5.4064 14.489 5.4117 13.3681ZM10.8236 20.6038C10.8236 19.4784 11.7322 18.566 12.853 18.566H19.6177C20.7385 18.566 21.6471 19.4784 21.6471 20.6038C21.6471 21.7292 20.7385 22.6415 19.6177 22.6415H12.853C11.7322 22.6415 10.8236 21.7292 10.8236 20.6038Z" fill="white"/>
</svg>
