<svg width="170" height="170" viewBox="0 0 170 170" fill="none" xmlns="http://www.w3.org/2000/svg">
<path fill-rule="evenodd" clip-rule="evenodd" d="M100.804 13.4453C99.5014 14.113 98.3862 14.8066 98.3261 14.9875C98.2659 15.1675 98.9378 15.4313 99.8192 15.5728C101.417 15.83 101.415 15.8323 99.231 16.6149C98.0262 17.0466 96.2939 17.9096 95.3812 18.5322C94.2332 19.3159 94.8947 19.2663 97.5277 18.371C103.546 16.3257 109.746 14.3229 110.564 14.1588C111.021 14.0677 111.192 13.6537 111.002 13.1031C110.797 12.5082 112.244 11.8545 115.218 11.1975C118.433 10.4876 119.778 10.4976 119.853 11.2322C119.92 11.884 120.094 12.1537 120.321 11.9592C120.52 11.7886 120.854 11.8717 121.065 12.1439C121.274 12.4153 122.715 12.826 124.266 13.0565C125.818 13.287 127.461 13.7797 127.918 14.1514C128.375 14.5222 128.672 14.4799 128.579 14.0571C128.346 13.0015 127.751 12.4887 124.535 10.5686C124.132 10.3282 123.356 9.77662 122.81 9.3436C121.634 8.41042 104.342 11.634 100.804 13.4453ZM48.2249 26.0832C47.5243 26.7807 47.5569 26.8174 48.7689 26.6939C50.0452 26.5631 50.3345 26.087 49.4355 25.5956C49.1794 25.4553 48.6348 25.675 48.2249 26.0832ZM46.4186 26.9616C46.263 27.1626 45.5124 27.7464 44.7503 28.2587C43.9884 28.771 43.4329 29.4979 43.5162 29.8751C43.5993 30.2515 43.8842 30.3376 44.1493 30.0657C44.5187 29.6869 44.6209 29.8134 44.5877 30.6101C44.5546 31.399 44.7264 31.5842 45.3032 31.3798C45.9955 31.1353 46.0028 31.0597 45.3856 30.5177L44.7088 29.9236L45.3202 29.6726C45.6564 29.535 46.0399 29.7894 46.1726 30.2386C46.3094 30.7025 46.9825 30.6143 47.7334 30.0333C49.1576 28.9333 49.051 28.5817 47.398 28.9263C46.8242 29.0452 46.5048 28.8955 46.688 28.5929C47.0027 28.0731 47.1418 26.07 46.838 26.4314C46.7628 26.5211 46.574 26.7596 46.4186 26.9616ZM106.231 13.9024C105.679 14.2144 104.665 14.4393 103.978 14.403C103.291 14.3676 103.743 14.112 104.982 13.8372C106.221 13.5616 106.784 13.5914 106.231 13.9024ZM108.636 13.2964C108.574 13.581 108.379 13.6241 108.202 13.3921C108.026 13.161 108.077 12.9286 108.316 12.8759C108.554 12.8233 108.698 13.0127 108.636 13.2964ZM122.018 11.3155C121.956 11.6001 121.761 11.6432 121.585 11.4112C121.409 11.1802 121.46 10.9477 121.698 10.8951C121.936 10.8424 122.081 11.0318 122.018 11.3155ZM123.234 11.0412C123.173 11.3217 122.942 11.3892 122.721 11.1904C122.5 10.9917 122.551 10.7623 122.833 10.6805C123.114 10.5988 123.295 10.7607 123.234 11.0412ZM49.2344 28.3901C49.4529 28.5874 49.7262 28.5271 49.8412 28.2561C49.9565 27.986 49.7778 27.8247 49.444 27.8985C49.1103 27.9722 49.0161 28.1937 49.2344 28.3901ZM50.876 28.0013C51.0523 28.2332 51.2474 28.1902 51.3095 27.9055C51.3719 27.6218 51.2277 27.4324 50.9893 27.4851C50.7509 27.5377 50.7 27.7702 50.876 28.0013ZM18.0218 36.8668C18.0675 37.3108 17.2167 37.7804 16.131 37.91C14.1615 38.1471 11.0869 40.2606 10.7837 41.5867C10.6821 42.0301 10.8261 43.1405 11.1767 44.6193C11.7734 47.1363 11.8202 47.2205 12.9868 47.8731C13.9417 48.4077 14.3381 49.8969 13.5209 49.8796C12.9768 49.8682 12.9786 50.0802 13.5415 52.4117C14.0793 54.6396 14.096 54.9711 13.6754 55.0767C13.0732 55.2292 13.042 56.1024 13.549 58.6255C13.879 60.2669 14.0896 60.6862 14.7658 61.0475C15.8605 61.6331 16.0946 62.9292 15.2506 63.7324C14.5839 64.3669 14.3665 67.9252 14.9001 69.4718C15.0327 69.8567 14.9681 70.4995 14.7563 70.9001C14.4234 71.5291 14.4441 71.7993 14.9094 72.8942C15.2055 73.5909 15.5524 74.1448 15.6801 74.1244C15.8552 74.0974 15.8966 74.3134 15.8486 75.0042C15.8038 75.6456 16.0822 75.9437 16.7795 76.0012C17.7625 76.0823 17.7824 76.1189 18.4571 79.1C18.8329 80.7595 19.0814 82.1294 19.0099 82.1451C18.9385 82.1609 19.0646 83.0101 19.2903 84.0322C19.5944 85.4093 19.5845 85.9504 19.2518 86.1223C18.8607 86.3247 18.8651 86.3949 19.2872 86.6729C19.904 87.0785 21.3766 89.405 21.0653 89.4816C20.9336 89.5136 21.0009 90.1097 21.2191 90.8441C21.7955 92.7837 21.6869 93.9226 20.7946 95.3008C19.9962 96.5335 19.764 97.571 20.3138 97.4495C20.4727 97.4144 20.7413 98.0129 20.9106 98.7795C21.1501 99.8639 20.9873 100.224 20.1781 100.403C19.0563 100.651 19.0994 102.503 20.2263 102.474C20.646 102.463 20.7897 102.643 20.6034 102.946C20.4376 103.215 20.3817 103.795 20.4792 104.237C20.5767 104.678 20.5581 105.341 20.4383 105.71C20.3182 106.079 20.3455 106.744 20.4982 107.187C20.6513 107.631 20.6075 108.446 20.4012 109C20.077 109.869 20.2061 109.982 21.351 109.831C22.7116 109.651 22.9773 110.619 21.9795 112.12C21.537 112.784 21.5367 113.108 21.977 114.24C22.3951 115.315 22.4736 115.334 22.379 114.337C22.2875 113.374 22.4093 113.493 22.9262 114.872C23.5353 116.497 23.5747 116.729 23.3986 117.645C23.2339 118.499 23.3599 118.686 24.2724 118.943C25.2292 119.211 25.3263 119.366 25.22 120.454C25.155 121.122 24.8218 122.022 24.4796 122.454C23.4161 123.798 23.5859 124.922 24.8247 124.737L25.9687 124.565L25.151 127.861L24.3333 131.157L25.3028 131.431L26.2724 131.704L25.5284 133.187C25.0087 134.223 24.9119 134.9 25.2068 135.436C25.4392 135.857 25.793 136.203 25.9934 136.204C26.3552 136.207 26.3564 136.213 26.173 137.003C26.0388 137.579 26.3454 137.95 27.2894 138.352C28.4681 138.854 28.5321 138.952 27.9705 139.393C27.6294 139.66 27.3627 140.286 27.3773 140.783C27.3938 141.343 28.1976 141.54 29.4922 141.302C31.1049 141.005 31.5188 141.155 31.3096 141.956C31.1529 142.559 31.1925 143.69 31.4043 144.649C31.7006 145.991 31.5395 146.701 30.553 148.4C29.8838 149.553 29.5167 150.615 29.737 150.76C30.0576 150.972 30.1255 151.2 30.0769 151.9C30.0324 152.543 30.1325 152.756 30.4561 152.707C30.698 152.67 31.0967 153.004 31.3422 153.448C31.838 154.346 31.8162 154.598 31.1312 155.879C30.9443 156.228 30.8798 157.115 30.9881 157.851C31.1524 158.971 31.484 159.05 33.029 158.332C34.3923 157.7 34.8645 157.757 34.8384 158.553C34.8089 159.461 34.8528 159.594 35.1176 159.405C35.642 159.028 35.8346 159.297 35.7751 160.324C35.7366 160.989 36.0042 161.016 36.612 160.408C37.7243 159.294 37.6561 159.299 40.9052 160.087C42.8962 160.569 45.562 160.13 51.1702 158.4C55.8252 156.962 60.2996 156.114 62.7765 156.199C70.9406 156.48 71.7398 156.45 71.4943 155.863C71.3567 155.534 70.3864 155.216 69.3382 155.157C68.2903 155.099 67.2759 154.694 67.0849 154.258C66.6082 153.172 81.5574 149.963 87.0804 149.966C90.2485 149.968 113.351 146.239 121.279 144.446C123.048 144.046 130.512 141.166 130.797 140.774C131.032 140.449 131.225 140.608 131.283 141.174C131.337 141.69 131.458 142.095 131.553 142.074C131.649 142.053 131.683 141.607 131.629 141.083C131.5 139.834 132.143 139.706 132.413 140.927C132.645 141.978 136.754 141.136 139.523 139.471C140.791 138.709 141.27 138.744 141.53 139.619C141.719 140.252 141.986 140.745 142.124 140.714C142.263 140.684 142.235 140.251 142.063 139.753C141.892 139.255 141.876 138.745 142.03 138.619C142.183 138.494 142.405 138.272 142.523 138.127C142.641 137.982 143.155 137.717 143.666 137.539C144.231 137.342 144.439 136.933 144.196 136.493C143.802 135.778 144.875 134.795 148.1 132.917C149.722 131.973 150.174 130.273 148.791 130.323C148.35 130.339 147.889 130.272 147.767 130.174C147.645 130.076 146.782 130.054 145.847 130.126L144.148 130.255L145.116 129.283C145.648 128.749 146.821 128.011 147.723 127.645C148.626 127.278 149.33 126.647 149.288 126.242C149.247 125.837 149.368 125.471 149.559 125.429C149.75 125.387 149.784 124.998 149.634 124.564C149.483 124.127 149.109 124.191 148.792 124.709C148.152 125.752 147.408 126.144 147.385 125.449C147.354 124.516 150.214 120.406 150.576 120.862C150.787 121.128 150.856 120.693 150.735 119.865C150.581 118.822 150.775 118.293 151.401 118.042L152.283 117.688L151.209 117.35C150.363 117.084 150.207 116.872 150.478 116.355C150.667 115.992 151.266 115.925 151.808 116.202C152.35 116.48 152.793 116.619 152.792 116.511C152.791 116.403 152.455 115.391 152.047 114.262C151.555 112.903 151.315 112.535 151.336 113.172C151.357 113.809 151.111 113.847 150.608 113.282C149.258 111.766 149.325 111.343 150.915 111.348C152.024 111.35 152.375 111.061 152.129 110.349C151.916 109.731 151.93 109.279 152.165 109.173C152.505 109.02 150.391 107.541 148.79 106.811C148.456 106.659 148.753 106.336 149.45 106.094C150.147 105.852 150.744 105.222 150.778 104.695C150.828 103.9 150.778 103.744 150.486 103.785C150.291 103.811 149.918 103.417 149.656 102.909C149.307 102.233 149.435 102.094 150.132 102.391C151.377 102.921 151.426 102.06 150.304 99.3373C149.807 98.1314 149.516 97.1774 149.636 97.1508C149.754 97.1248 149.709 96.696 149.538 96.198C149.366 95.7 148.897 95.3582 148.495 95.439C148.094 95.5189 147.552 95.1747 147.291 94.6729C146.95 94.0173 147.11 93.8748 147.862 94.1669C148.924 94.5784 149.001 93.2633 147.976 92.2141C147.46 91.6867 147.451 91.6498 147.597 90.7044C147.716 89.9375 147.638 89.8447 147.221 90.2601C146.622 90.8594 145.446 89.0179 145.714 87.8994C145.798 87.5495 146.007 87.2325 146.178 87.1947C146.349 87.1569 146.448 86.4773 146.397 85.6845C146.325 84.5524 146.26 84.2531 146.092 84.2901C145.974 84.3162 145.786 83.7066 145.671 82.9213C145.537 82.0114 145.351 81.5057 145.151 81.5062C144.892 81.506 144.869 81.3638 145.017 80.6684C145.183 79.8893 145.145 79.7651 144.48 78.9063C144.086 78.3988 143.652 78.0074 143.515 78.0376C143.378 78.0678 143.174 77.6744 143.061 77.1634C142.948 76.6523 143.295 76.0942 143.833 75.9239L144.81 75.6136L143.844 74.3271C142.797 72.9329 142.266 71.1352 142.448 69.601C142.511 69.0676 143.37 68.1421 144.357 67.5441C145.344 66.947 146.08 66.1344 145.993 65.7386C145.906 65.3427 145.527 64.6468 145.151 64.1908C144.58 63.4984 144.671 63.3059 145.709 63.0122C146.413 62.8129 146.861 62.2588 146.745 61.732C146.632 61.2209 146.379 60.8383 146.183 60.8816C145.986 60.925 145.783 60.5507 145.732 60.0495C145.68 59.5483 145.805 59.3483 146.008 59.6055C146.211 59.8617 146.291 59.6794 146.186 59.1999C146.079 58.7195 145.519 57.9428 144.94 57.4732C144.047 56.7485 144.291 56.5778 146.554 56.3411L149.221 56.0631L146.591 54.8623C141.991 52.7608 142.078 52.8224 142.396 51.9228C142.655 51.1903 142.646 51.13 142.276 51.1221C141.719 51.1097 141.23 49.5365 141.599 48.9406C141.767 48.6665 141.569 48.4637 141.152 48.4819C140.739 48.4999 140.284 48.1082 140.141 47.6116C139.998 47.115 138.908 46.5644 137.719 46.3894C135.602 46.0773 135.568 46.044 136.038 44.7679C136.344 43.9372 137.485 43.3304 139.19 43.0913C141.658 42.7461 141.851 42.5738 141.711 40.8595C141.576 39.2256 141.811 38.9069 143.65 38.2161C145.318 37.5904 145.683 37.1638 145.451 36.1129C145.291 35.3881 145.092 34.8103 145.009 34.8286C144.766 34.8824 141.189 32.7361 140.737 32.2657C139.884 31.3745 139.975 30.0893 140.914 29.7737C141.877 29.45 141.878 29.44 141.025 28.8314C140.55 28.4929 139.525 28.2982 138.747 28.3998C137.362 28.579 135.24 27.7232 135.653 27.1498C136.045 26.604 133.974 25.7157 132.763 25.9109C131.708 26.0806 131.438 25.8216 130.639 23.8715L129.725 21.6372L130.435 21.3927L131.145 21.1482L130.35 20.3657C129.913 19.9359 129.458 19.8164 129.337 20.0993C129.216 20.3822 129.041 20.2661 128.947 19.8405C128.853 19.4149 128.597 18.9052 128.378 18.7079C128.16 18.5115 128.31 18.1714 128.712 17.954L129.443 17.5578L128.507 17.0257C125.449 15.2882 107.033 18.023 101.569 21.0267C100.008 21.8849 97.9406 22.7724 96.9737 22.9986C95.7332 23.2901 95.2657 23.7587 95.3846 24.592C95.5115 25.481 95.4584 25.5132 95.1689 24.7195C94.8444 23.8303 91.011 23.5708 90.8643 24.4277C90.7211 25.2652 45.0254 35.2506 41.7728 35.1552C39.6085 35.0913 37.1385 35.0228 36.284 35.003C35.4295 34.9832 32.9328 35.135 30.7363 35.3423C28.5394 35.5488 25.8978 35.6293 24.8662 35.5219C21.8828 35.2101 17.9312 35.9864 18.0218 36.8668ZM105.886 16.8478C106.07 17.0887 106.212 17.0222 106.202 16.701C106.191 16.3798 106.04 16.1831 105.866 16.2634C105.674 16.3526 105.682 16.5819 105.886 16.8478ZM101.409 18.8108C101.594 19.0517 101.736 18.9853 101.725 18.664C101.715 18.3428 101.564 18.1461 101.39 18.2264C101.198 18.3157 101.206 18.545 101.409 18.8108ZM102.797 18.5045C102.981 18.7454 103.123 18.6789 103.113 18.3577C103.102 18.0365 102.951 17.8398 102.777 17.9201C102.585 18.0093 102.593 18.2386 102.797 18.5045ZM47.5447 32.6779C47.8081 32.8517 48.1591 32.7742 48.3249 32.5056C48.4905 32.2361 48.2748 32.0937 47.8457 32.1885C47.4166 32.2833 47.281 32.5033 47.5447 32.6779ZM83.4687 28.5937C83.4075 28.8743 83.1769 28.9417 82.9561 28.743C82.7353 28.5442 82.7854 28.3149 83.0674 28.2331C83.3493 28.1513 83.5298 28.3132 83.4687 28.5937ZM127.924 18.7254C127.934 19.0466 127.792 19.1131 127.608 18.8722C127.404 18.6063 127.397 18.377 127.589 18.2878C127.763 18.2075 127.913 18.4042 127.924 18.7254ZM102.451 26.0816C102.581 26.3854 102.079 26.8177 101.337 27.043C100.595 27.2674 98.045 28.1033 95.6706 28.8996C93.2963 29.6968 84.8069 32.132 76.8058 34.3131C68.8044 36.4943 61.8953 38.6566 61.4522 39.1198C60.6381 39.9701 59.3317 39.4848 59.2936 38.317C59.2717 37.6446 60.8748 37.1093 70.0038 34.7453C73.4879 33.8423 75.6463 32.9174 75.5271 32.3775C75.4196 31.8906 75.4911 31.6935 75.6863 31.9399C76.2252 32.62 81.9707 31.2157 85.9676 29.4267C89.8752 27.6769 102.077 25.2014 102.451 26.0816ZM106.8 24.2647C106.823 24.9603 103.869 25.6975 103.599 25.0631C103.475 24.7718 104.141 24.3636 105.079 24.1565C106.017 23.9494 106.791 23.9977 106.8 24.2647ZM107.497 24.2112C107.507 24.5324 107.365 24.5989 107.181 24.358C106.977 24.0921 106.969 23.8628 107.161 23.7736C107.335 23.6933 107.486 23.89 107.497 24.2112ZM94.5514 28.1449C94.8162 28.3194 95.1264 28.2421 95.2409 27.9732C95.3553 27.7043 95.1386 27.5611 94.7594 27.6556C94.3802 27.7501 94.2867 27.9705 94.5514 28.1449ZM118.241 22.9551C118.37 23.3282 117.397 23.8724 116.079 24.1634C114.762 24.4545 113.556 24.3914 113.399 24.0244C113.243 23.6574 114.216 23.1132 115.561 22.8161C116.907 22.5189 118.113 22.582 118.241 22.9551ZM119.187 22.99C118.954 24.1854 118.821 24.2149 118.58 23.124C118.467 22.6129 118.596 22.1771 118.866 22.1545C119.301 22.1198 119.337 22.2141 119.187 22.99ZM87.6518 30.6198C87.8362 30.8607 87.9784 30.7942 87.9678 30.473C87.9573 30.1518 87.8065 29.9551 87.6326 30.0354C87.4405 30.1246 87.448 30.3539 87.6518 30.6198ZM88.693 30.4308C89.0501 30.5683 89.5174 30.4612 89.7312 30.1918C89.9448 29.9214 89.6524 29.8086 89.0815 29.9406C88.5103 30.0716 88.3356 30.2924 88.693 30.4308ZM54.1722 40.329C54.1387 40.7701 53.9888 40.9123 53.8396 40.6461C53.6905 40.3798 53.5956 39.8005 53.629 39.3595C53.6625 38.9184 53.8124 38.7761 53.9615 39.0424C54.1107 39.3086 54.2055 39.888 54.1722 40.329ZM57.1368 38.8537C57.2252 39.2542 56.721 39.657 56.0162 39.7493C55.0652 39.8735 54.8294 39.7083 55.1018 39.1082C55.5713 38.0729 56.9271 37.9041 57.1368 38.8537ZM58.7286 37.8278C58.9478 38.8202 58.3123 40.3882 57.9138 39.8379C57.5878 39.3876 57.5591 39.0986 57.778 38.4636C58.1163 37.4807 58.5831 37.169 58.7286 37.8278ZM53.402 40.4972C53.4526 40.9908 52.8929 41.5217 52.1578 41.6763C51.4226 41.8299 50.8445 41.6291 50.8731 41.2291C50.9521 40.1212 53.2934 39.4433 53.402 40.4972ZM108.768 27.8791C108.707 28.1596 108.477 28.2271 108.256 28.0283C108.035 27.8296 108.085 27.6002 108.367 27.5185C108.649 27.4367 108.83 27.5986 108.768 27.8791ZM121.117 26.1751C120.952 26.4437 120.601 26.5212 120.337 26.3474C120.074 26.1727 120.209 25.9528 120.638 25.858C121.067 25.7632 121.283 25.9057 121.117 26.1751ZM16.3044 62.2777C16.4172 62.7887 16.4752 63.2144 16.4331 63.2238C16.391 63.2331 16.2161 62.8331 16.0443 62.3351C15.8725 61.8371 15.8146 61.4113 15.9155 61.389C16.0165 61.3667 16.1915 61.7666 16.3044 62.2777ZM19.1182 97.4046C19.3026 97.6456 19.4448 97.5791 19.4342 97.2579C19.4237 96.9367 19.2729 96.74 19.099 96.8203C18.9069 96.9095 18.9144 97.1388 19.1182 97.4046ZM145.852 85.9064C145.862 86.2276 145.72 86.2941 145.536 86.0531C145.332 85.7873 145.324 85.558 145.516 85.4688C145.69 85.3884 145.841 85.5852 145.852 85.9064ZM24.5017 115.041C24.6146 115.552 24.6242 115.988 24.5233 116.01C24.4224 116.033 24.2956 115.622 24.2417 115.098C24.1878 114.574 24.1779 114.138 24.2201 114.128C24.2622 114.119 24.3889 114.53 24.5017 115.041ZM79.1823 117.648C79.7261 119.224 79.5895 119.614 79.0124 118.131C78.6806 117.278 78.5497 116.748 78.6648 116.722C78.766 116.7 78.9991 117.116 79.1823 117.648ZM90.6821 117.508C90.7098 117.144 90.6016 116.467 90.4416 116.003C90.2746 115.519 90.5916 115.063 91.187 114.931C91.7853 114.799 92.345 115.128 92.5117 115.709C92.6707 116.262 93.2161 116.856 93.7238 117.028C94.9887 117.456 95.0504 118.943 93.7991 118.848C93.0464 118.791 92.8589 119.092 93.065 120.025C93.4134 121.602 92.796 121.82 92.3329 120.282C92.1335 119.619 92.1393 119.847 92.3466 120.824C92.5433 121.75 92.5932 122.31 92.4573 122.067C92.3217 121.825 92.2605 122.47 92.3213 123.501C92.4513 125.702 91.7053 126.219 91.2668 124.233C91.0423 123.217 90.8503 123.062 90.4627 123.584C90.0632 124.124 89.9099 123.987 89.7511 122.95C89.6397 122.222 89.6688 121.646 89.8155 121.668C89.9624 121.69 90.0538 121.073 90.0192 120.297C89.9642 119.07 89.8974 118.986 89.5083 119.652C89.2622 120.074 88.9737 120.643 88.8674 120.916C88.7613 121.19 88.5411 121.027 88.3786 120.556C88.2159 120.084 88.4131 119.32 88.8169 118.859C89.2204 118.397 89.5235 117.453 89.4901 116.76C89.4404 115.728 89.5378 115.742 90.0306 116.835C90.3614 117.569 90.6546 117.871 90.6821 117.508ZM114.903 111.046C115.071 111.808 114.096 112.426 113.85 111.713C113.707 111.298 113.867 110.897 114.206 110.822C114.546 110.747 114.859 110.848 114.903 111.046ZM84.4782 123.632C84.7887 125.746 84.3408 124.754 83.8317 122.2C83.1986 119.025 83.1971 118.998 83.7492 120.632C84.0296 121.462 84.3576 122.812 84.4782 123.632ZM95.9963 117.432C95.9351 117.713 95.7046 117.78 95.4837 117.581C95.2629 117.383 95.313 117.153 95.595 117.072C95.877 116.99 96.0575 117.152 95.9963 117.432ZM101.926 116.508C101.048 117.813 97.0873 118.652 96.5404 117.647C96.2359 117.088 97.1693 116.6 99.3114 116.197C101.521 115.783 102.347 115.881 101.926 116.508ZM105.455 115.402C105.239 115.673 104.81 115.767 104.501 115.612C104.192 115.458 104.368 115.236 104.893 115.121C105.417 115.005 105.67 115.131 105.455 115.402ZM107.091 114.988C107.029 115.273 106.834 115.316 106.657 115.084C106.481 114.853 106.532 114.62 106.771 114.567C107.009 114.515 107.153 114.704 107.091 114.988ZM108.825 114.605C108.763 114.89 108.567 114.933 108.391 114.701C108.215 114.47 108.266 114.237 108.504 114.185C108.743 114.132 108.887 114.321 108.825 114.605ZM79.4758 121.892C79.7746 123.245 79.7541 126.222 79.446 126.263C79.1013 126.308 79.0876 126.238 79.0927 124.449L79.0979 122.59L78.2756 122.396C77.5535 122.226 77.5704 122.156 78.4144 121.821C78.9431 121.611 79.4206 121.642 79.4758 121.892ZM80.3193 121.818C80.3299 122.139 80.1876 122.206 80.0033 121.965C79.7995 121.699 79.792 121.47 79.9841 121.381C80.158 121.3 80.3088 121.497 80.3193 121.818ZM91.024 119.84C91.1368 120.351 91.3119 120.751 91.4128 120.729C91.5137 120.706 91.4559 120.281 91.284 119.783C91.1122 119.285 90.9373 118.885 90.8952 118.894C90.8531 118.903 90.9111 119.329 91.024 119.84ZM145.165 107.498C145.175 107.819 145.033 107.885 144.849 107.644C144.645 107.378 144.637 107.149 144.83 107.06C145.003 106.98 145.154 107.176 145.165 107.498ZM146.481 107.263C146.419 107.548 146.224 107.591 146.047 107.359C145.871 107.128 145.922 106.896 146.16 106.843C146.399 106.79 146.543 106.98 146.481 107.263ZM72.2021 124.585C72.2127 124.907 72.0704 124.973 71.8861 124.732C71.6823 124.466 71.6748 124.237 71.8669 124.148C72.0408 124.067 72.1916 124.264 72.2021 124.585ZM77.184 124.054C77.2802 124.669 77.2962 125.38 77.2195 125.634C77.1413 125.894 77.0351 125.655 76.9766 125.087C76.9183 124.521 76.6615 123.94 76.3909 123.762C76.0476 123.535 76.0672 123.37 76.4587 123.189C76.8175 123.023 77.0697 123.324 77.184 124.054ZM82.8519 123.594C83.0241 124.674 83.2311 125.459 83.3374 125.436C83.4392 125.413 83.5993 125.743 83.6933 126.169C83.9599 127.376 83.1275 126.955 82.6792 125.655C82.369 124.756 82.2479 124.753 82.1422 125.644C82.0669 126.277 81.8595 126.534 81.6808 126.215C81.3205 125.571 81.7782 122.087 82.253 121.856C82.4789 121.747 82.6246 122.17 82.8519 123.594ZM115.416 115.428C115.588 115.926 115.646 116.352 115.545 116.374C115.444 116.396 115.269 115.996 115.156 115.485C115.043 114.974 114.985 114.548 115.027 114.539C115.069 114.53 115.244 114.93 115.416 115.428ZM116.949 114.545C116.998 114.77 117.018 115.23 116.993 115.567C116.967 115.904 116.848 115.736 116.729 115.195C116.609 114.655 116.589 114.194 116.685 114.173C116.78 114.152 116.899 114.319 116.949 114.545ZM142.353 109.144C142.292 109.424 142.062 109.492 141.841 109.293C141.62 109.094 141.67 108.865 141.952 108.783C142.234 108.701 142.414 108.863 142.353 109.144ZM143.289 108.886C143.3 109.207 143.158 109.274 142.973 109.033C142.77 108.767 142.762 108.538 142.954 108.449C143.128 108.368 143.279 108.565 143.289 108.886ZM75.0496 125.317C75.2214 125.815 75.2793 126.241 75.1784 126.263C75.0775 126.285 74.9024 125.885 74.7896 125.374C74.6767 124.863 74.6187 124.438 74.6608 124.428C74.7029 124.419 74.8778 124.819 75.0496 125.317ZM95.4673 120.422C95.4779 120.743 95.3356 120.81 95.1513 120.569C94.9475 120.303 94.94 120.074 95.1321 119.984C95.306 119.904 95.4568 120.101 95.4673 120.422ZM96.3342 120.23C96.3448 120.552 96.2026 120.618 96.0182 120.377C95.8144 120.111 95.8069 119.882 95.999 119.793C96.1729 119.713 96.3237 119.909 96.3342 120.23ZM98.1255 120.708C98.2948 121.475 98.5114 122.085 98.6067 122.064C98.7021 122.043 98.6646 121.503 98.5233 120.864C98.3325 120.002 98.6644 119.696 99.8093 119.677C100.742 119.662 101.39 120.016 101.447 120.574C101.499 121.08 101.352 121.291 101.121 121.042C100.889 120.792 100.614 121.272 100.508 122.107C100.337 123.45 100.274 123.466 99.9525 122.248C99.547 120.71 98.7143 120.524 98.8668 122.006C98.9733 123.04 98.3174 123.465 97.9499 122.6C97.5814 121.734 97.3148 119.425 97.5762 119.368C97.709 119.338 97.9563 119.941 98.1255 120.708ZM114.077 117.185C114.155 118.406 114.24 118.611 114.634 118.524C114.9 118.465 115.141 118.829 115.197 119.374C115.251 119.898 115.13 120.363 114.929 120.408C114.728 120.452 114.686 120.775 114.834 121.126C114.983 121.476 115.708 121.494 116.446 121.167C117.643 120.636 117.811 120.741 118.018 122.154C118.171 123.194 118.293 123.573 118.373 123.262C118.441 123 118.373 122.321 118.222 121.752C118.071 121.182 118.148 120.672 118.391 120.618C118.643 120.562 118.878 120.932 118.933 121.473C118.987 121.997 119.114 122.407 119.215 122.385C119.316 122.363 119.306 121.926 119.193 121.415C118.852 119.869 119.612 120.231 120.091 121.844C120.337 122.67 120.542 123.492 120.548 123.67C120.554 123.847 119.815 124.277 118.906 124.623C117.699 125.084 117.165 124.946 116.924 124.109C116.744 123.479 116.441 122.998 116.253 123.039C116.065 123.081 116.051 123.522 116.223 124.02C116.405 124.548 116.314 124.975 116.005 125.043C115.713 125.107 115.382 124.742 115.269 124.231C115.156 123.72 114.775 123.365 114.422 123.443C113.721 123.598 113.483 122.093 114.099 121.405C114.374 121.099 114.338 120.361 113.955 118.43C113.642 116.856 113.55 115.84 113.715 115.803C113.935 115.755 114.002 116.009 114.077 117.185ZM131.494 114.124C131.743 114.349 131.568 114.572 131.103 114.621C130.639 114.67 130.178 114.341 130.079 113.891C129.979 113.441 130.126 113.318 130.405 113.618C130.792 114.035 130.813 113.874 130.491 112.934C130.161 111.967 130.175 111.919 130.556 112.71C130.822 113.264 131.244 113.9 131.494 114.124ZM109.758 118.626C109.812 119.15 109.783 119.595 109.693 119.615C109.603 119.635 109.438 119.233 109.325 118.722C109.212 118.211 109.241 117.766 109.39 117.733C109.538 117.7 109.704 118.102 109.758 118.626ZM91.498 123.633C92.0913 124.724 92.2753 124.683 92.0182 123.519C91.9053 123.008 91.6388 122.635 91.4259 122.689C91.1132 122.771 91.1268 122.951 91.498 123.633ZM107.885 120.437C108.052 121.192 108.417 121.865 108.728 121.991C109.169 122.168 109.155 122.331 108.66 122.816C108.098 123.366 108.002 123.233 107.579 121.315C107.321 120.149 107.22 119.187 107.352 119.158C107.484 119.129 107.723 119.704 107.885 120.437ZM113.14 118.709C113.243 119.175 113.019 119.65 112.642 119.763C112.265 119.876 111.924 119.656 111.885 119.274C111.779 118.24 112.923 117.724 113.14 118.709ZM59.3672 131.704C59.539 132.202 59.5579 132.636 59.4093 132.669C59.2607 132.702 59.0466 132.311 58.9338 131.8C58.8209 131.289 58.8019 130.854 58.8917 130.834C58.9815 130.815 59.1954 131.206 59.3672 131.704ZM93.7959 124.158C93.9154 124.699 93.8632 124.874 93.6795 124.546C93.496 124.218 93.405 124.542 93.4773 125.264C93.5812 126.304 93.5329 126.238 93.2468 124.953C93.022 123.942 93.0162 123.298 93.2319 123.251C93.4226 123.208 93.6765 123.617 93.7959 124.158ZM96.1599 123.335C96.2444 123.718 96.1262 124.073 95.8968 124.124C95.6676 124.174 95.4469 123.894 95.4066 123.501C95.366 123.109 95.4843 122.753 95.6695 122.712C95.8546 122.671 96.0754 122.952 96.1599 123.335ZM129.241 116.273C129.295 116.797 129.161 117.234 128.945 117.244C128.564 117.262 128.556 117.232 128.721 116.388C128.955 115.183 129.125 115.146 129.241 116.273ZM141.984 113.458C142.097 113.969 142.367 114.355 142.583 114.315C142.799 114.276 143.183 114.623 143.435 115.087C143.774 115.709 143.701 116.027 143.157 116.298C142.752 116.501 142.184 116.892 141.894 117.168C141.605 117.444 138.704 118.387 135.447 119.263C132.19 120.139 129.925 120.441 130.413 119.933C130.901 119.425 131.633 118.663 132.039 118.24C133.602 116.616 135.753 115.807 136.07 116.724C136.245 117.233 136.41 117.366 136.437 117.021C136.463 116.676 136.782 116.875 137.146 117.465C137.51 118.055 137.883 118.203 137.974 117.793C138.065 117.383 138.685 116.85 139.35 116.61C140.016 116.369 140.551 115.888 140.539 115.54C140.528 115.192 140.836 115.08 141.223 115.291C141.784 115.596 141.86 115.365 141.594 114.16C141.41 113.326 141.376 112.618 141.519 112.587C141.662 112.555 141.872 112.947 141.984 113.458ZM147.136 112.564C147.422 113.476 147.463 113.467 147.338 112.52C147.171 111.247 148.531 110.529 148.928 111.681C149.057 112.054 148.787 112.289 148.327 112.203C147.805 112.105 147.576 112.43 147.717 113.068C148.059 114.618 147.172 114.473 146.706 112.903C146.21 111.235 146.618 110.914 147.136 112.564ZM107.079 122.141C107.133 122.666 106.961 123.111 106.697 123.132C106.267 123.166 106.234 123.076 106.386 122.295C106.623 121.079 106.962 121.004 107.079 122.141ZM123.378 118.542C123.431 119.066 123.636 119.46 123.833 119.416C124.029 119.373 124.097 118.919 123.984 118.408C123.742 117.311 124.133 117.485 124.707 118.73C125.234 119.872 124.811 122.186 124.18 121.617C123.936 121.397 123.784 121.683 123.843 122.253C123.902 122.822 123.833 123.314 123.69 123.346C123.547 123.377 123.382 122.941 123.324 122.377C123.251 121.666 123.016 121.602 122.561 122.168C122.163 122.665 121.826 122.631 121.704 122.082C121.595 121.585 121.897 120.831 122.377 120.408C122.858 119.985 123.181 119.195 123.096 118.651C123.011 118.109 123.017 117.647 123.11 117.627C123.203 117.606 123.324 118.018 123.378 118.542ZM128.319 117.375C128.285 117.861 127.994 118.153 127.671 118.025C127.219 117.845 127.156 118.215 127.398 119.637C127.571 120.653 127.646 121.498 127.565 121.516C127.377 121.557 126.911 118.487 126.958 117.522C126.977 117.124 127.305 116.73 127.687 116.646C128.16 116.542 128.361 116.773 128.319 117.375ZM67.4692 131.75C67.7136 132.856 67.2384 133.888 66.9157 132.953C66.7745 132.543 66.7105 131.976 66.773 131.69C66.9586 130.844 67.2753 130.872 67.4692 131.75ZM69.7472 131.361C69.86 131.872 69.879 132.306 69.7892 132.326C69.6994 132.346 69.4855 131.954 69.3137 131.456C69.1419 130.958 69.1231 130.524 69.2717 130.491C69.4203 130.458 69.6343 130.85 69.7472 131.361ZM72.8457 130.57C73.156 131.975 71.956 132.554 71.2069 131.361C70.5506 130.316 70.5783 130.214 71.5805 129.987C72.1759 129.853 72.7452 130.115 72.8457 130.57ZM73.4577 130.809C73.6816 131.925 73.3963 131.762 73.0572 130.581C72.8836 129.976 72.8722 129.628 73.0318 129.807C73.1913 129.986 73.3829 130.437 73.4577 130.809ZM75.6394 133.397C75.7504 133.869 75.519 133.481 75.1249 132.536C74.6391 131.372 74.4227 130.591 74.4535 130.114C74.4941 129.473 75.1281 131.229 75.6394 133.397ZM76.3276 129.524C76.8407 130.172 77.1743 131.669 76.8226 131.747C76.674 131.78 76.6844 132.19 76.8458 132.657C77.0072 133.125 76.968 133.48 76.7585 133.444C76.3669 133.379 75.8118 131.131 75.8541 129.783C75.8818 128.9 75.8474 128.918 76.3276 129.524ZM144.475 114.857C144.588 115.368 144.543 115.81 144.374 115.84C144.112 115.885 144.076 115.752 144.129 114.934C144.206 113.728 144.225 113.724 144.475 114.857ZM78.4826 130.949C78.2545 132.022 78.2787 132.244 78.6607 132.579C79.0182 132.893 79.024 133.005 78.6917 133.17C78.4544 133.288 78.0371 132.672 77.7056 131.715C77.179 130.194 77.1987 130.04 77.9389 129.881C78.7392 129.708 78.744 129.718 78.4826 130.949ZM81.1025 131.494C81.6049 133.437 81.6193 133.697 81.2025 133.312C80.9352 133.065 80.4003 132.913 80.0139 132.975C79.4455 133.066 79.3295 132.891 79.4069 132.061C79.4594 131.497 79.3755 130.668 79.2203 130.218C79.0653 129.769 79.2934 129.361 79.7272 129.313C80.4186 129.237 80.5886 129.506 81.1025 131.494ZM86.167 130.232C86.6386 131.512 86.766 131.622 86.7364 130.723C86.6835 129.112 87.0878 129.189 87.457 130.86C87.6969 131.947 87.5411 132.287 86.7516 132.401C86.1944 132.482 85.7895 132.315 85.8518 132.031C86.1179 130.816 85.5189 129.827 84.6351 130.022C83.6037 130.249 83.6585 131.815 84.7123 132.224C85.114 132.379 84.9976 132.612 84.4046 132.84C83.8692 133.046 83.3016 132.775 83.1111 132.223C82.8665 131.513 82.7812 131.532 82.8061 132.29C82.8251 132.868 82.7237 133.367 82.5806 133.399C82.3884 133.441 82.3112 133.173 82.2848 132.371C82.2652 131.774 82.0728 130.692 81.857 129.966C81.5255 128.85 81.7815 128.641 83.5123 128.615C85.2303 128.588 85.6573 128.848 86.167 130.232ZM89.9737 129.086C90.2044 130.124 88.9847 130.19 88.6289 129.158C88.4442 128.623 88.6193 128.294 89.0708 128.33C89.4822 128.363 89.8887 128.704 89.9737 129.086ZM96.153 127.421C96.2593 127.902 96.3251 128.57 96.2996 128.906C96.2183 129.974 91.4333 130.548 90.8077 129.565C90.4896 129.065 92.426 127.634 94.1295 127.109C95.1795 126.787 96.0422 126.919 96.153 127.421ZM103.876 126.28C104.275 127.219 104.02 127.623 102.507 128.452C100.955 129.302 98.9385 128.506 98.5847 126.904C98.4043 126.087 103.537 125.483 103.876 126.28ZM110.147 125.327C109.147 126.109 108.219 125.901 108.292 124.91C108.317 124.574 108.954 124.368 109.707 124.45L111.077 124.599L110.147 125.327ZM112.983 123.761C113.096 124.272 113.154 124.698 113.112 124.707C113.07 124.717 112.895 124.317 112.723 123.819C112.551 123.321 112.494 122.895 112.594 122.873C112.695 122.85 112.87 123.25 112.983 123.761ZM116.884 122.9C116.938 123.424 117.104 123.826 117.253 123.793C117.401 123.76 117.431 123.315 117.318 122.804C117.205 122.293 117.039 121.891 116.95 121.911C116.86 121.931 116.831 122.376 116.884 122.9ZM152.764 114.667C152.948 114.908 153.091 114.841 153.08 114.52C153.069 114.199 152.919 114.002 152.745 114.083C152.553 114.172 152.56 114.401 152.764 114.667ZM112.399 124.773C112.448 125.248 112.284 125.453 112.034 125.227C111.409 124.664 111.335 124.125 111.867 124.008C112.111 123.954 112.35 124.299 112.399 124.773ZM121.312 122.567C121.249 122.852 121.054 122.895 120.878 122.663C120.702 122.432 120.753 122.199 120.991 122.147C121.23 122.094 121.374 122.283 121.312 122.567ZM129.287 120.806C129.225 121.09 129.03 121.133 128.854 120.901C128.678 120.67 128.729 120.438 128.967 120.385C129.205 120.333 129.35 120.522 129.287 120.806ZM152.587 119.888C152.759 120.386 152.934 120.786 152.976 120.776C153.018 120.767 152.96 120.341 152.847 119.83C152.734 119.319 152.559 118.919 152.458 118.941C152.358 118.964 152.415 119.39 152.587 119.888ZM157.084 118.585C157.269 118.826 157.411 118.76 157.4 118.439C157.39 118.118 157.239 117.921 157.065 118.001C156.873 118.09 156.881 118.32 157.084 118.585ZM88.7814 145.917C88.8662 146.299 87.3384 146.884 85.3865 147.216C82.9296 147.633 82.2552 147.557 83.1954 146.969C85.1461 145.749 88.6003 145.098 88.7814 145.917ZM90.5909 145.875C90.634 146.07 90.2881 146.263 89.8218 146.303C89.0926 146.364 89.0271 146.27 89.3542 145.626C89.7094 144.927 90.413 145.069 90.5909 145.875ZM81.6276 147.898C81.5655 148.183 81.3705 148.226 81.1941 147.994C81.0182 147.763 81.069 147.53 81.3074 147.477C81.5458 147.425 81.69 147.614 81.6276 147.898ZM66.3734 153.344C66.5871 153.742 65.9576 154.269 64.9559 154.533C63.9648 154.793 63.1253 154.727 63.0901 154.385C62.994 153.451 65.9301 152.521 66.3734 153.344ZM145.803 136.669C145.988 136.91 146.13 136.844 146.119 136.522C146.109 136.201 145.958 136.004 145.784 136.085C145.592 136.174 145.6 136.403 145.803 136.669ZM133.321 140.323C133.331 140.645 133.189 140.711 133.005 140.47C132.801 140.204 132.794 139.975 132.986 139.886C133.16 139.805 133.31 140.002 133.321 140.323ZM73.5038 155.621C74.5598 155.559 76.2765 155.181 77.3185 154.78C78.3605 154.378 77.4964 154.428 75.3983 154.891C73.3001 155.353 72.4477 155.682 73.5038 155.621ZM89.1398 152.628C89.3416 153.103 89.6155 153.296 89.748 153.055C89.9267 152.732 89.8313 152.507 89.381 152.192C88.988 151.915 88.9028 152.07 89.1398 152.628ZM142.778 140.261C142.962 140.502 143.105 140.435 143.094 140.114C143.083 139.793 142.933 139.596 142.759 139.676C142.567 139.766 142.574 139.995 142.778 140.261ZM90.6175 152.778C90.8823 152.952 91.1925 152.875 91.307 152.606C91.4214 152.337 91.2047 152.194 90.8255 152.289C90.4463 152.383 90.3528 152.604 90.6175 152.778ZM93.0449 152.242C93.3096 152.416 93.6199 152.339 93.7343 152.07C93.8488 151.801 93.6321 151.658 93.2529 151.753C92.8737 151.847 92.7802 152.068 93.0449 152.242ZM98.4245 151.071C98.7817 151.209 99.249 151.102 99.4628 150.832C99.6764 150.562 99.384 150.449 98.813 150.581C98.2419 150.712 98.0672 150.933 98.4245 151.071ZM100.936 150.51C101.247 150.664 101.636 150.573 101.8 150.305C101.965 150.038 101.711 149.911 101.235 150.023C100.76 150.136 100.626 150.354 100.936 150.51ZM123.641 145.467C123.86 145.665 124.133 145.604 124.248 145.333C124.363 145.063 124.185 144.902 123.851 144.976C123.517 145.049 123.423 145.271 123.641 145.467ZM126.497 144.811C126.673 145.043 126.868 144.999 126.93 144.715C126.993 144.431 126.848 144.242 126.61 144.294C126.371 144.347 126.321 144.579 126.497 144.811Z" fill="#DF1931"/>
<path fill-rule="evenodd" clip-rule="evenodd" d="M90.6931 47.5538C86.5739 47.5538 83.2346 50.8931 83.2346 55.0124V96.4487C83.2346 100.568 86.5739 103.907 90.6931 103.907C94.8124 103.907 98.1516 100.568 98.1516 96.4487V55.0124C98.1516 50.8931 94.8124 47.5538 90.6931 47.5538ZM63.3453 66.6142C63.3453 62.495 66.6846 59.1557 70.8038 59.1557C74.9231 59.1557 78.2624 62.495 78.2624 66.6142V96.4483C78.2624 100.568 74.9231 103.907 70.8038 103.907C66.6846 103.907 63.3453 100.568 63.3453 96.4483V66.6142ZM43.4561 69.9295C43.4561 65.8102 46.7954 62.4709 50.9146 62.4709C55.0338 62.4709 58.3731 65.8102 58.3731 69.9295V91.4763C58.3731 95.5956 55.0338 98.9349 50.9146 98.9349C46.7954 98.9349 43.4561 95.5956 43.4561 91.4763V69.9295ZM103.124 63.2998C103.124 59.1806 106.463 55.8413 110.582 55.8413C114.702 55.8413 118.041 59.1806 118.041 63.2998V96.4489C118.041 100.568 114.702 103.907 110.582 103.907C106.463 103.907 103.124 100.568 103.124 96.4489V63.2998ZM85.7216 110.537C81.6023 110.537 78.263 113.876 78.263 117.995C78.263 122.115 81.6023 125.454 85.7216 125.454H110.583C114.703 125.454 118.042 122.115 118.042 117.995C118.042 113.876 114.703 110.537 110.583 110.537H85.7216Z" fill="#DF1931"/>
<path fill-rule="evenodd" clip-rule="evenodd" d="M103.125 96.4487V63.2505C103.151 59.154 106.48 55.8413 110.583 55.8413C114.702 55.8413 118.042 59.1806 118.042 63.2999V96.4489C118.042 100.568 114.702 103.907 110.583 103.907C106.477 103.907 103.146 100.589 103.125 96.4879L103.125 96.4487ZM90.6938 42.5815C97.0231 42.5815 102.248 47.3117 103.025 53.4299C105.119 51.8236 107.74 50.869 110.583 50.869C117.448 50.869 123.014 56.4345 123.014 63.2999V96.4489C123.014 101.054 120.51 105.074 116.79 107.222C120.511 109.37 123.015 113.39 123.015 117.995C123.015 124.861 117.449 130.426 110.584 130.426H85.7222C78.8568 130.426 73.2913 124.861 73.2913 117.995C73.2913 112.184 77.2796 107.303 82.6685 105.942C81.9553 105.339 81.311 104.656 80.7491 103.908C78.4811 106.927 74.8708 108.879 70.8046 108.879C65.4653 108.879 60.9122 105.513 59.1518 100.787C56.9587 102.729 54.0746 103.907 50.9153 103.907C44.0499 103.907 38.4844 98.3418 38.4844 91.4764V69.9295C38.4844 63.0641 44.0499 57.4986 50.9153 57.4986C54.3261 57.4986 57.4161 58.8723 59.6622 61.0967C61.6949 56.9996 65.9208 54.1834 70.8046 54.1834C73.6029 54.1834 76.1853 55.108 78.2629 56.6685V55.0124C78.2629 48.147 83.8284 42.5815 90.6938 42.5815ZM99.1455 105.564H102.131C101.586 105.059 101.086 104.504 100.638 103.909C100.191 104.504 99.6909 105.059 99.1455 105.564ZM98.1523 55.0124V63.2361L98.1522 63.2999V96.4489L98.1522 96.4879C98.1312 100.589 94.8 103.907 90.6938 103.907C86.5893 103.907 83.2592 100.592 83.2354 96.4929L83.2355 96.4484V66.6143L83.2353 66.5419V55.0124C83.2353 50.8932 86.5746 47.5539 90.6938 47.5539C94.813 47.5539 98.1523 50.8932 98.1523 55.0124ZM78.2629 66.5593V96.4487L78.263 96.492C78.2395 100.591 74.9093 103.907 70.8046 103.907C66.6853 103.907 63.346 100.568 63.346 96.4484V91.5424L63.3462 91.4764V69.9295L63.346 69.8635V66.6143C63.346 62.495 66.6853 59.1557 70.8046 59.1557C74.9055 59.1557 78.2334 62.4654 78.2629 66.5593ZM58.3736 91.5284V69.8775C58.3457 65.7822 55.0172 62.471 50.9153 62.471C46.796 62.471 43.4567 65.8103 43.4567 69.9295V91.4764C43.4567 95.5957 46.796 98.935 50.9153 98.935C55.0172 98.935 58.3457 95.6237 58.3736 91.5284ZM78.2637 117.995C78.2637 113.876 81.603 110.537 85.7222 110.537H110.584C114.703 110.537 118.043 113.876 118.043 117.995C118.043 122.115 114.703 125.454 110.584 125.454H85.7222C81.603 125.454 78.2637 122.115 78.2637 117.995Z" fill="white"/>
</svg>
