<svg width="56" height="56" viewBox="0 0 56 56" fill="none" xmlns="http://www.w3.org/2000/svg">
<path fill-rule="evenodd" clip-rule="evenodd" d="M33.2061 4.42903C32.7769 4.64899 32.4096 4.87747 32.3898 4.93705C32.37 4.99633 32.5913 5.08324 32.8816 5.12987C33.4081 5.21457 33.4075 5.21535 32.6879 5.47313C32.291 5.61535 31.7204 5.89964 31.4197 6.10471C31.0416 6.36286 31.2595 6.34652 32.1268 6.05161C34.1091 5.37788 36.1518 4.71811 36.4212 4.66406C36.5717 4.63405 36.6281 4.49767 36.5655 4.31631C36.4979 4.12033 36.9744 3.90499 37.9544 3.68858C39.0133 3.45473 39.4562 3.45802 39.4812 3.70002C39.5032 3.91472 39.5604 4.00355 39.6353 3.93948C39.7007 3.8833 39.8109 3.91066 39.8801 4.00035C39.9493 4.08973 40.4239 4.22503 40.9348 4.30095C41.4458 4.37687 41.9871 4.53919 42.1376 4.66163C42.2882 4.78376 42.3862 4.76983 42.3554 4.63056C42.2786 4.28284 42.0827 4.11391 41.0234 3.48141C40.8906 3.40224 40.6348 3.22053 40.4551 3.07788C40.0678 2.77048 34.3714 3.83236 33.2061 4.42903ZM15.8859 8.5921C15.6551 8.82188 15.6658 8.83395 16.0651 8.79329C16.4855 8.7502 16.5808 8.59336 16.2847 8.43148C16.2003 8.38527 16.0209 8.45763 15.8859 8.5921ZM15.2909 8.88145C15.2396 8.94766 14.9923 9.13999 14.7413 9.30875C14.4903 9.47749 14.3073 9.71694 14.3348 9.84121C14.3621 9.96518 14.456 9.99357 14.5433 9.90398C14.665 9.77919 14.6987 9.82088 14.6877 10.0833C14.6768 10.3432 14.7334 10.4042 14.9234 10.3369C15.1515 10.2563 15.1539 10.2314 14.9506 10.0529L14.7276 9.85717L14.929 9.7745C15.0398 9.72917 15.1661 9.81299 15.2098 9.96096C15.2549 10.1138 15.4766 10.0847 15.724 9.89331C16.1931 9.53097 16.158 9.41513 15.6135 9.52864C15.4245 9.56781 15.3192 9.5185 15.3796 9.41882C15.4833 9.24762 15.5291 8.58775 15.429 8.7068C15.4043 8.73635 15.3421 8.81493 15.2909 8.88145ZM34.9939 4.5796C34.812 4.68237 34.478 4.75646 34.2516 4.7445C34.0253 4.73285 34.174 4.64863 34.5823 4.55814C34.9906 4.46734 35.1758 4.47716 34.9939 4.5796ZM35.7859 4.37998C35.7655 4.47374 35.7012 4.48793 35.6431 4.41151C35.5852 4.33539 35.6019 4.25882 35.6805 4.24148C35.759 4.22413 35.8065 4.28651 35.7859 4.37998ZM40.1942 3.72745C40.1738 3.82121 40.1095 3.8354 40.0514 3.75899C39.9935 3.68287 40.0102 3.6063 40.0888 3.58895C40.1673 3.57161 40.2148 3.63399 40.1942 3.72745ZM40.5947 3.63708C40.5746 3.72949 40.4986 3.75172 40.4259 3.68625C40.3531 3.62078 40.3696 3.54522 40.4625 3.51829C40.5554 3.49136 40.6148 3.54468 40.5947 3.63708ZM16.2184 9.35203C16.2904 9.41703 16.3804 9.39715 16.4183 9.30788C16.4563 9.21892 16.3974 9.16579 16.2875 9.19007C16.1775 9.21435 16.1465 9.28733 16.2184 9.35203ZM16.7592 9.22394C16.8173 9.30035 16.8815 9.28616 16.902 9.1924C16.9225 9.09894 16.875 9.03656 16.7965 9.0539C16.718 9.07125 16.7012 9.14782 16.7592 9.22394ZM5.93661 12.1443C5.95167 12.2906 5.67141 12.4453 5.31377 12.488C4.66499 12.5661 3.65219 13.2623 3.55231 13.6991C3.51885 13.8452 3.56627 14.211 3.68176 14.6981C3.87834 15.5272 3.89375 15.555 4.27804 15.7699C4.5926 15.9461 4.72316 16.4366 4.45396 16.4309C4.27475 16.4272 4.27532 16.497 4.46075 17.265C4.63792 17.9989 4.64341 18.1081 4.50487 18.1429C4.30649 18.1931 4.29622 18.4808 4.46324 19.3119C4.57192 19.8526 4.6413 19.9907 4.86406 20.1098C5.22467 20.3027 5.30177 20.7296 5.02375 20.9942C4.80413 21.2032 4.73251 22.3753 4.90828 22.8848C4.95198 23.0116 4.9307 23.2234 4.86094 23.3553C4.75126 23.5625 4.7581 23.6515 4.91137 24.0122C5.00889 24.2417 5.12317 24.4242 5.16523 24.4174C5.22293 24.4086 5.23654 24.4797 5.22073 24.7073C5.20599 24.9185 5.2977 25.0167 5.52741 25.0357C5.8512 25.0624 5.85775 25.0744 6.08002 26.0565C6.20379 26.6031 6.28566 27.0544 6.26213 27.0596C6.2386 27.0648 6.28013 27.3445 6.35449 27.6812C6.45467 28.1348 6.45138 28.3131 6.34181 28.3697C6.21295 28.4364 6.2144 28.4595 6.35347 28.5511C6.55663 28.6847 7.04173 29.4511 6.93918 29.4763C6.89581 29.4868 6.91797 29.6832 6.98984 29.9251C7.17971 30.564 7.14396 30.9392 6.85001 31.3932C6.587 31.7993 6.51051 32.141 6.69162 32.101C6.74399 32.0895 6.83246 32.2866 6.88823 32.5391C6.96711 32.8963 6.91349 33.0151 6.64694 33.0739C6.2774 33.1556 6.2916 33.7656 6.66282 33.7561C6.80106 33.7526 6.8484 33.8118 6.78702 33.9117C6.7324 34.0002 6.71401 34.1914 6.74612 34.3368C6.77823 34.4822 6.77212 34.7005 6.73263 34.8222C6.69308 34.9436 6.70207 35.1628 6.75237 35.3087C6.8028 35.4549 6.7884 35.7235 6.72041 35.9058C6.61363 36.1923 6.65615 36.2295 7.03329 36.1796C7.48151 36.1204 7.56902 36.4391 7.24034 36.9335C7.09457 37.1525 7.09446 37.2591 7.2395 37.6319C7.37725 37.986 7.40311 37.9922 7.37195 37.6639C7.34178 37.3467 7.3819 37.386 7.55217 37.8402C7.75284 38.3753 7.76582 38.4517 7.7078 38.7535C7.65355 39.0351 7.69504 39.0966 7.99565 39.1811C8.31083 39.2694 8.34282 39.3204 8.30779 39.6791C8.28637 39.8989 8.17663 40.1953 8.0639 40.3377C7.71355 40.7804 7.76951 41.1507 8.17758 41.0898L8.55444 41.0332L8.28507 42.119L8.01571 43.2048L8.33508 43.2948L8.65445 43.3847L8.40939 43.8732C8.2382 44.2147 8.2063 44.4378 8.30346 44.6141C8.37999 44.7529 8.49656 44.8668 8.56256 44.8673C8.68173 44.8682 8.68214 44.8701 8.62172 45.1303C8.57751 45.3201 8.67853 45.4423 8.98946 45.5749C9.37776 45.7402 9.39884 45.7724 9.21383 45.9176C9.10149 46.0057 9.01364 46.2119 9.01845 46.3755C9.02388 46.5599 9.28864 46.625 9.71512 46.5466C10.2463 46.4488 10.3827 46.498 10.3138 46.762C10.2621 46.9606 10.2752 47.3333 10.345 47.6492C10.4426 48.0912 10.3895 48.325 10.0645 48.8847C9.8441 49.2644 9.72317 49.6144 9.79574 49.6622C9.90136 49.732 9.92373 49.807 9.90773 50.0375C9.89306 50.2494 9.92603 50.3195 10.0326 50.3033C10.1123 50.2912 10.2436 50.4012 10.3245 50.5477C10.4878 50.8435 10.4807 50.9263 10.255 51.3482C10.1934 51.4633 10.1722 51.7556 10.2079 51.9981C10.262 52.3669 10.3712 52.3928 10.8802 52.1565C11.3293 51.9482 11.4848 51.9671 11.4762 52.2291C11.4665 52.5282 11.4809 52.5722 11.5682 52.5099C11.7409 52.3857 11.8044 52.4744 11.7848 52.8126C11.7721 53.0318 11.8602 53.0405 12.0605 52.8403C12.4269 52.4734 12.4044 52.4751 13.4747 52.7344C14.1306 52.8932 15.0087 52.7487 16.8561 52.1787C18.3895 51.7052 19.8634 51.4259 20.6794 51.4537C23.3687 51.5465 23.632 51.5365 23.5511 51.3431C23.5058 51.2347 23.1861 51.13 22.8408 51.1106C22.4957 51.0915 22.1615 50.9579 22.0986 50.8145C21.9415 50.4565 26.866 49.3995 28.6853 49.4006C29.7289 49.4013 37.3393 48.1729 39.9508 47.5823C40.5335 47.4505 42.9921 46.5017 43.086 46.3725C43.1634 46.2655 43.2271 46.3179 43.2463 46.5043C43.2638 46.6744 43.3038 46.8078 43.3352 46.8009C43.3666 46.794 43.3778 46.647 43.36 46.4744C43.3177 46.0629 43.5295 46.0209 43.6183 46.4231C43.6947 46.7693 45.0485 46.4919 45.9607 45.9434C46.3784 45.6922 46.5362 45.704 46.6218 45.9922C46.6838 46.2007 46.7717 46.363 46.8174 46.3529C46.863 46.3428 46.854 46.2004 46.7974 46.0363C46.7408 45.8722 46.7358 45.7042 46.7863 45.6628C46.8367 45.6215 46.9098 45.5486 46.9486 45.5005C46.9875 45.4528 47.1569 45.3656 47.3252 45.3069C47.5116 45.242 47.5798 45.1072 47.5 44.9624C47.3702 44.7268 47.7236 44.4029 48.7859 43.7843C49.32 43.4735 49.4691 42.9134 49.0135 42.9299C48.8681 42.9351 48.7163 42.9131 48.6762 42.8808C48.6362 42.8486 48.3516 42.8415 48.0438 42.8651L47.4841 42.9075L47.8028 42.5874C47.978 42.4113 48.3646 42.1683 48.6618 42.0478C48.959 41.9269 49.191 41.719 49.1773 41.5856C49.1636 41.4522 49.2037 41.3316 49.2666 41.3177C49.3294 41.3039 49.3405 41.1759 49.2913 41.033C49.2416 40.8889 49.1182 40.9101 49.0137 41.0805C48.8029 41.4243 48.558 41.5532 48.5505 41.3244C48.5403 41.0172 49.4823 39.6631 49.6014 39.8133C49.6709 39.901 49.6938 39.7576 49.6538 39.4849C49.6033 39.1413 49.667 38.9671 49.8733 38.8843L50.1639 38.7678L49.8099 38.6566C49.5313 38.5688 49.48 38.4989 49.5693 38.3287C49.6316 38.2093 49.8289 38.1869 50.0074 38.2784C50.186 38.37 50.3319 38.4158 50.3315 38.3802C50.3311 38.3444 50.2207 38.0111 50.0861 37.6393C49.924 37.1916 49.8449 37.0704 49.8518 37.2801C49.8587 37.4901 49.7779 37.5025 49.6122 37.3163C49.1673 36.8172 49.1893 36.6778 49.7132 36.6793C50.0786 36.6801 50.1942 36.5849 50.1132 36.3502C50.043 36.1467 50.0476 35.9977 50.125 35.963C50.237 35.9126 49.5407 35.4252 49.0132 35.1848C48.9033 35.1346 49.0011 35.0282 49.2306 34.9486C49.4601 34.8688 49.6568 34.6613 49.6679 34.4877C49.6846 34.2259 49.6682 34.1746 49.5718 34.1879C49.5078 34.1966 49.3848 34.0668 49.2984 33.8994C49.1836 33.6769 49.2257 33.631 49.4553 33.7289C49.8655 33.9035 49.8815 33.6197 49.5119 32.7229C49.3482 32.3256 49.2522 32.0114 49.2919 32.0026C49.3307 31.994 49.3161 31.8528 49.2595 31.6887C49.2029 31.5247 49.0484 31.4121 48.9162 31.4387C48.7839 31.465 48.6055 31.3516 48.5196 31.1864C48.4072 30.9704 48.4598 30.9235 48.7074 31.0197C49.0573 31.1552 49.0827 30.722 48.745 30.3764C48.5752 30.2027 48.5721 30.1905 48.6202 29.8791C48.6594 29.6265 48.6336 29.5959 48.4965 29.7327C48.2989 29.9301 47.9117 29.3235 48 28.9551C48.0276 28.8398 48.0964 28.7354 48.1528 28.723C48.2092 28.7105 48.2417 28.4866 48.2251 28.2255C48.2013 27.8526 48.1797 27.754 48.1245 27.7661C48.0856 27.7747 48.0238 27.5739 47.9858 27.3152C47.9417 27.0155 47.8805 26.8489 47.8144 26.8491C47.729 26.849 47.7215 26.8022 47.7703 26.5731C47.8249 26.3165 47.8125 26.2755 47.5933 25.9927C47.4636 25.8255 47.3206 25.6965 47.2755 25.7065C47.2305 25.7165 47.1631 25.5869 47.126 25.4185C47.0888 25.2502 47.2031 25.0663 47.3802 25.0102L47.7021 24.908L47.3839 24.4842C47.0389 24.0249 46.864 23.4328 46.924 22.9274C46.9448 22.7517 47.2279 22.4468 47.553 22.2498C47.8781 22.0531 48.1206 21.7854 48.0918 21.6551C48.063 21.5247 47.9383 21.2954 47.8145 21.1452C47.6263 20.9171 47.6562 20.8537 47.9983 20.7569C48.2303 20.6913 48.3778 20.5088 48.3395 20.3352C48.3023 20.1669 48.2189 20.0408 48.1543 20.0551C48.0896 20.0694 48.0228 19.9461 48.0058 19.781C47.9888 19.6159 48.0298 19.55 48.0968 19.6347C48.1638 19.7191 48.1901 19.6591 48.1553 19.5011C48.1203 19.3429 47.9357 19.087 47.7451 18.9323C47.4509 18.6936 47.5312 18.6374 48.2767 18.5594L49.155 18.4678L48.289 18.0723C46.7735 17.38 46.8023 17.4003 46.9071 17.104C46.9923 16.8627 46.9893 16.8428 46.8673 16.8402C46.6838 16.8361 46.523 16.3179 46.6443 16.1216C46.6998 16.0313 46.6346 15.9645 46.497 15.9705C46.3611 15.9764 46.2113 15.8474 46.1641 15.6838C46.117 15.5202 45.758 15.3389 45.3664 15.2812C44.669 15.1784 44.6576 15.1674 44.8124 14.7471C44.9133 14.4734 45.2893 14.2735 45.8509 14.1948C46.6637 14.0811 46.7275 14.0243 46.6812 13.4596C46.6369 12.9214 46.7141 12.8164 47.32 12.5888C47.8696 12.3827 47.9898 12.2422 47.9133 11.896C47.8606 11.6573 47.7951 11.4669 47.7678 11.4729C47.6875 11.4907 46.5092 10.7837 46.3606 10.6287C46.0793 10.3351 46.1095 9.91178 46.4189 9.80781C46.7361 9.70116 46.7365 9.69787 46.4552 9.4974C46.2987 9.38588 45.9611 9.32176 45.705 9.35522C45.2486 9.41426 44.5498 9.13233 44.6856 8.94344C44.8149 8.76368 44.1325 8.47105 43.7338 8.53535C43.3862 8.59125 43.2971 8.50594 43.0342 7.86356L42.7328 7.12756L42.9668 7.04699L43.2007 6.96644L42.939 6.70868C42.795 6.56712 42.6449 6.52773 42.6051 6.62094C42.5654 6.71414 42.5076 6.67587 42.4766 6.53568C42.4457 6.39549 42.3614 6.22759 42.2894 6.16259C42.2175 6.09789 42.2668 5.98587 42.3993 5.91425L42.64 5.78372L42.3318 5.60847C41.3243 5.0361 35.2579 5.93699 33.4581 6.92643C32.944 7.20915 32.2628 7.50147 31.9443 7.57599C31.5357 7.67201 31.3817 7.8264 31.4208 8.10089C31.4626 8.39374 31.4451 8.40434 31.3498 8.1429C31.2429 7.84999 29.9801 7.7645 29.9318 8.04675C29.8846 8.32266 14.8319 11.612 13.7605 11.5805C13.0475 11.5595 12.2339 11.5369 11.9524 11.5304C11.6709 11.5239 10.8485 11.5739 10.1249 11.6422C9.40125 11.7102 8.53107 11.7367 8.19123 11.7013C7.20848 11.5986 5.90677 11.8543 5.93661 12.1443ZM34.88 5.54984C34.9407 5.62921 34.9876 5.6073 34.9841 5.5015C34.9806 5.39569 34.931 5.33089 34.8737 5.35735C34.8104 5.38673 34.8129 5.46227 34.88 5.54984ZM33.4055 6.19649C33.4662 6.27586 33.5131 6.25396 33.5096 6.14815C33.5061 6.04234 33.4565 5.97754 33.3992 6.004C33.3359 6.03338 33.3384 6.10892 33.4055 6.19649ZM33.8624 6.09559C33.9231 6.17495 33.97 6.15305 33.9665 6.04724C33.963 5.94143 33.9134 5.87663 33.8561 5.90309C33.7928 5.93248 33.7953 6.00801 33.8624 6.09559ZM15.6618 10.7645C15.7486 10.8217 15.8642 10.7962 15.9188 10.7077C15.9734 10.619 15.9023 10.572 15.761 10.6033C15.6196 10.6345 15.5749 10.7069 15.6618 10.7645ZM27.4956 9.4191C27.4754 9.51151 27.3995 9.53374 27.3267 9.46827C27.254 9.4028 27.2705 9.32724 27.3634 9.30031C27.4563 9.27338 27.5157 9.3267 27.4956 9.4191ZM42.1397 6.16837C42.1432 6.27418 42.0963 6.29608 42.0356 6.21672C41.9684 6.12914 41.966 6.05361 42.0292 6.02422C42.0865 5.99776 42.1362 6.06256 42.1397 6.16837ZM33.7487 8.59157C33.7913 8.69165 33.6261 8.83407 33.3817 8.90827C33.1371 8.98218 32.2972 9.25755 31.515 9.51986C30.7329 9.78246 27.9364 10.5846 25.3007 11.3031C22.665 12.0217 20.3891 12.7339 20.2431 12.8865C19.9749 13.1666 19.5446 13.0068 19.532 12.6221C19.5248 12.4006 20.0529 12.2242 23.0601 11.4455C24.2078 11.148 24.9188 10.8434 24.8795 10.6655C24.8441 10.5051 24.8677 10.4402 24.932 10.5214C25.1095 10.7454 27.0022 10.2828 28.3188 9.69348C29.606 9.11708 33.6255 8.30162 33.7487 8.59157ZM35.1812 7.99306C35.1887 8.22221 34.2156 8.46504 34.1268 8.25608C34.086 8.16012 34.3054 8.02564 34.6142 7.95743C34.9231 7.88922 35.1782 7.90511 35.1812 7.99306ZM35.4106 7.97545C35.4141 8.08126 35.3673 8.10316 35.3065 8.02379C35.2394 7.93622 35.2369 7.86069 35.3002 7.8313C35.3575 7.80484 35.4072 7.86964 35.4106 7.97545ZM31.1464 9.27126C31.2336 9.32873 31.3358 9.30327 31.3735 9.21469C31.4112 9.12611 31.3398 9.07895 31.2149 9.11007C31.09 9.14119 31.0592 9.2138 31.1464 9.27126ZM38.9501 7.56167C38.9925 7.68457 38.672 7.86385 38.2379 7.95971C37.8039 8.05557 37.4066 8.03481 37.3551 7.91391C37.3037 7.79301 37.6241 7.61374 38.0672 7.51588C38.5105 7.418 38.9077 7.43876 38.9501 7.56167ZM39.2615 7.57316C39.1849 7.96695 39.1409 7.97665 39.0616 7.6173C39.0244 7.44895 39.0668 7.3054 39.1558 7.29795C39.2992 7.2865 39.3112 7.31756 39.2615 7.57316ZM28.8736 10.0865C28.9343 10.1659 28.9811 10.144 28.9777 10.0382C28.9742 9.93235 28.9245 9.86756 28.8672 9.89401C28.8039 9.9234 28.8064 9.99893 28.8736 10.0865ZM29.2165 10.0243C29.3342 10.0695 29.4881 10.0343 29.5585 9.94551C29.6289 9.85646 29.5326 9.81931 29.3445 9.86277C29.1564 9.90592 29.0988 9.97866 29.2165 10.0243ZM17.845 13.2848C17.8339 13.4301 17.7846 13.477 17.7354 13.3893C17.6863 13.3016 17.6551 13.1107 17.666 12.9655C17.6771 12.8202 17.7265 12.7733 17.7756 12.861C17.8247 12.9487 17.856 13.1396 17.845 13.2848ZM18.8216 12.7989C18.8507 12.9308 18.6846 13.0635 18.4524 13.0939C18.1391 13.1348 18.0615 13.0804 18.1512 12.8827C18.3059 12.5417 18.7525 12.486 18.8216 12.7989ZM19.3459 12.4609C19.4181 12.7878 19.2088 13.3043 19.0775 13.1231C18.9701 12.9747 18.9607 12.8795 19.0328 12.6704C19.1442 12.3466 19.298 12.2439 19.3459 12.4609ZM17.5913 13.3402C17.6079 13.5028 17.4236 13.6777 17.1814 13.7286C16.9392 13.7792 16.7488 13.7131 16.7582 13.5813C16.7843 13.2164 17.5555 12.9931 17.5913 13.3402ZM35.8296 9.18369C35.8095 9.2761 35.7335 9.29833 35.6608 9.23285C35.588 9.16738 35.6045 9.09183 35.6974 9.06489C35.7903 9.03796 35.8498 9.09128 35.8296 9.18369ZM39.8975 8.62239C39.843 8.71084 39.7273 8.7364 39.6405 8.67915C39.5537 8.6216 39.5983 8.54914 39.7397 8.51793C39.881 8.48671 39.952 8.53363 39.8975 8.62239ZM5.37088 20.515C5.40806 20.6833 5.42717 20.8236 5.41329 20.8266C5.39941 20.8297 5.3418 20.698 5.28521 20.5339C5.22861 20.3698 5.20955 20.2296 5.2428 20.2223C5.27604 20.2149 5.3337 20.3466 5.37088 20.515ZM6.2978 32.0862C6.35852 32.1656 6.40538 32.1437 6.40189 32.0379C6.39841 31.9321 6.34876 31.8673 6.29147 31.8937C6.22818 31.9231 6.23066 31.9987 6.2978 32.0862ZM48.0453 28.2986C48.0488 28.4044 48.0019 28.4263 47.9412 28.3469C47.874 28.2593 47.8716 28.1838 47.9349 28.1544C47.9921 28.1279 48.0418 28.1927 48.0453 28.2986ZM8.07119 37.8957C8.10837 38.0641 8.11154 38.2078 8.0783 38.2152C8.04506 38.2225 8.00328 38.0873 7.98552 37.9146C7.96776 37.742 7.96453 37.5983 7.97841 37.5952C7.99228 37.5921 8.03401 37.7274 8.07119 37.8957ZM26.0836 38.7546C26.2628 39.2739 26.2177 39.4023 26.0276 38.9137C25.9183 38.6328 25.8752 38.4581 25.9131 38.4497C25.9465 38.4423 26.0233 38.5795 26.0836 38.7546ZM29.8718 38.7084C29.8809 38.5885 29.8453 38.3656 29.7925 38.2129C29.7375 38.0533 29.842 37.9031 30.0381 37.8598C30.2352 37.8162 30.4196 37.9245 30.4745 38.1159C30.5268 38.2982 30.7065 38.4938 30.8738 38.5503C31.2904 38.6914 31.3107 39.1812 30.8985 39.15C30.6506 39.1312 30.5889 39.2302 30.6567 39.5375C30.7715 40.0573 30.5681 40.1288 30.4156 39.6223C30.3499 39.404 30.3518 39.479 30.4201 39.8007C30.4849 40.1058 30.5013 40.2903 30.4566 40.2103C30.4119 40.1306 30.3917 40.3431 30.4117 40.6828C30.4546 41.4078 30.2088 41.578 30.0644 40.9239C29.9904 40.589 29.9272 40.5381 29.7995 40.7101C29.6679 40.8878 29.6174 40.8428 29.5651 40.5012C29.5284 40.2615 29.538 40.0716 29.5863 40.0789C29.6347 40.0862 29.6648 39.8828 29.6534 39.6272C29.6353 39.2232 29.6133 39.1953 29.4851 39.4149C29.404 39.5538 29.309 39.7411 29.274 39.831C29.239 39.9213 29.1665 39.8676 29.113 39.7125C29.0594 39.5571 29.1243 39.3055 29.2573 39.1535C29.3903 39.0012 29.4901 38.6902 29.4791 38.4622C29.4627 38.1223 29.4948 38.1268 29.6572 38.4867C29.7661 38.7285 29.8627 38.8282 29.8718 38.7084ZM37.8504 36.5797C37.9059 36.831 37.5845 37.0346 37.5034 36.7995C37.4563 36.6629 37.5092 36.5308 37.621 36.5062C37.7328 36.4815 37.836 36.5145 37.8504 36.5797ZM27.8281 40.7259C27.9304 41.4221 27.7829 41.0955 27.6152 40.2542C27.4066 39.2081 27.4061 39.1993 27.588 39.7376C27.6804 40.0109 27.7884 40.4557 27.8281 40.7259ZM31.6223 38.6835C31.6022 38.776 31.5262 38.7982 31.4535 38.7327C31.3808 38.6672 31.3973 38.5917 31.4901 38.5648C31.583 38.5378 31.6425 38.5911 31.6223 38.6835ZM33.5756 38.379C33.2864 38.8091 31.9817 39.0854 31.8016 38.7544C31.7013 38.5701 32.0087 38.4095 32.7144 38.2767C33.4422 38.1404 33.7143 38.1724 33.5756 38.379ZM34.738 38.0147C34.6671 38.1039 34.5258 38.1351 34.4239 38.0841C34.322 38.0331 34.3801 37.9602 34.5529 37.9221C34.7256 37.8839 34.809 37.9255 34.738 38.0147ZM35.277 37.8784C35.2565 37.9721 35.1923 37.9863 35.1342 37.9099C35.0762 37.8338 35.093 37.7572 35.1715 37.7399C35.2501 37.7225 35.2976 37.7849 35.277 37.8784ZM35.8481 37.7522C35.8277 37.846 35.7634 37.8602 35.7053 37.7838C35.6474 37.7076 35.6641 37.6311 35.7427 37.6137C35.8212 37.5964 35.8687 37.6588 35.8481 37.7522ZM26.1803 40.1528C26.2787 40.5985 26.272 41.5791 26.1705 41.5925C26.0569 41.6073 26.0524 41.5842 26.0541 40.9951L26.0558 40.3825L25.7849 40.3187C25.5471 40.2628 25.5526 40.2397 25.8307 40.1292C26.0048 40.0599 26.1621 40.0704 26.1803 40.1528ZM26.4582 40.1283C26.4616 40.2342 26.4148 40.2561 26.3541 40.1767C26.2869 40.0891 26.2844 40.0136 26.3477 39.9842C26.405 39.9577 26.4547 40.0225 26.4582 40.1283ZM29.9844 39.4767C30.0216 39.6451 30.0792 39.7768 30.1125 39.7695C30.1457 39.7621 30.1267 39.6219 30.0701 39.4578C30.0135 39.2937 29.9559 39.162 29.942 39.1651C29.9281 39.1681 29.9472 39.3084 29.9844 39.4767ZM47.819 35.4109C47.8225 35.5168 47.7756 35.5387 47.7149 35.4593C47.6478 35.3717 47.6453 35.2962 47.7086 35.2668C47.7659 35.2403 47.8155 35.3051 47.819 35.4109ZM48.2525 35.3338C48.232 35.4276 48.1678 35.4418 48.1097 35.3654C48.0517 35.2893 48.0685 35.2127 48.147 35.1953C48.2255 35.178 48.273 35.2404 48.2525 35.3338ZM23.7843 41.0399C23.7877 41.1457 23.7409 41.1676 23.6802 41.0882C23.613 41.0006 23.6105 40.9251 23.6738 40.8957C23.7311 40.8693 23.7808 40.9341 23.7843 41.0399ZM25.4253 40.8649C25.457 41.0676 25.4623 41.3017 25.437 41.3853C25.4113 41.4709 25.3763 41.3923 25.357 41.2052C25.3378 41.0188 25.2532 40.8272 25.1641 40.7685C25.051 40.694 25.0574 40.6396 25.1864 40.58C25.3046 40.5253 25.3877 40.6245 25.4253 40.8649ZM27.2924 40.7133C27.3492 41.0689 27.4173 41.3277 27.4523 41.32C27.4859 41.3126 27.5386 41.4213 27.5696 41.5615C27.6574 41.9591 27.3832 41.8203 27.2355 41.3923C27.1333 41.0961 27.0934 41.0952 27.0586 41.3886C27.0338 41.597 26.9655 41.6817 26.9067 41.5766C26.788 41.3646 26.9387 40.2167 27.0951 40.1408C27.1695 40.1048 27.2176 40.2441 27.2924 40.7133ZM38.0195 38.0232C38.0761 38.1873 38.0951 38.3276 38.0619 38.3349C38.0286 38.3422 37.971 38.2105 37.9338 38.0422C37.8966 37.8738 37.8775 37.7336 37.8914 37.7305C37.9053 37.7275 37.9629 37.8592 38.0195 38.0232ZM38.5243 37.7323C38.5407 37.8067 38.5472 37.9581 38.5387 38.0691C38.5303 38.1801 38.4912 38.1249 38.4518 37.9467C38.4125 37.7686 38.4059 37.6169 38.4373 37.6099C38.4688 37.603 38.5078 37.6579 38.5243 37.7323ZM46.8929 35.9532C46.8727 36.0456 46.7968 36.0678 46.724 36.0023C46.6513 35.9369 46.6678 35.8613 46.7607 35.8344C46.8536 35.8075 46.913 35.8608 46.8929 35.9532ZM47.2012 35.8684C47.2047 35.9742 47.1578 35.9961 47.0971 35.9167C47.03 35.8292 47.0275 35.7536 47.0908 35.7242C47.1481 35.6978 47.1977 35.7626 47.2012 35.8684ZM24.7223 41.2809C24.7789 41.4449 24.7979 41.5852 24.7647 41.5925C24.7314 41.5999 24.6738 41.4681 24.6366 41.2998C24.5994 41.1314 24.5803 40.9912 24.5942 40.9881C24.6081 40.9851 24.6657 41.1168 24.7223 41.2809ZM31.4481 39.6684C31.4516 39.7742 31.4047 39.7961 31.344 39.7167C31.2769 39.6292 31.2744 39.5536 31.3377 39.5242C31.395 39.4978 31.4446 39.5626 31.4481 39.6684ZM31.7337 39.6053C31.7371 39.7111 31.6903 39.733 31.6296 39.6537C31.5624 39.5661 31.5599 39.4906 31.6232 39.4612C31.6805 39.4347 31.7302 39.4995 31.7337 39.6053ZM32.3237 39.7626C32.3795 40.0152 32.4508 40.2161 32.4822 40.2092C32.5137 40.2022 32.5013 40.0245 32.4547 39.814C32.3919 39.5299 32.5012 39.4294 32.8784 39.4231C33.1858 39.4182 33.399 39.5348 33.4179 39.7184C33.435 39.8851 33.3867 39.9545 33.3104 39.8725C33.2342 39.7905 33.1433 39.9486 33.1085 40.2234C33.0523 40.6659 33.0313 40.6712 32.9256 40.2698C32.792 39.7632 32.5177 39.7022 32.5679 40.1902C32.603 40.5308 32.3869 40.671 32.2659 40.386C32.1445 40.1005 32.0566 39.3401 32.1428 39.3211C32.1865 39.3114 32.268 39.5101 32.3237 39.7626ZM37.5783 38.6022C37.6039 39.0042 37.632 39.0719 37.7617 39.0432C37.8493 39.0239 37.9287 39.1438 37.9472 39.3233C37.9649 39.4959 37.9253 39.6491 37.8591 39.6638C37.7929 39.6784 37.7788 39.7849 37.8278 39.9002C37.8769 40.0155 38.1157 40.0215 38.3585 39.914C38.753 39.7389 38.8083 39.7736 38.8767 40.239C38.927 40.5817 38.967 40.7064 38.9936 40.6039C39.0158 40.5177 38.9935 40.2941 38.9437 40.1064C38.894 39.9187 38.9192 39.7507 38.9996 39.7329C39.0824 39.7146 39.1597 39.8365 39.178 40.0145C39.1958 40.1872 39.2376 40.3224 39.2708 40.3151C39.3041 40.3077 39.3009 40.164 39.2637 39.9956C39.1512 39.4863 39.4016 39.6056 39.5594 40.1367C39.6403 40.409 39.7081 40.6798 39.7101 40.7384C39.7119 40.7968 39.4685 40.9382 39.1691 41.0524C38.7716 41.2041 38.5954 41.1586 38.5163 40.883C38.4567 40.6756 38.3571 40.5168 38.2951 40.5305C38.233 40.5442 38.2286 40.6897 38.2852 40.8537C38.3452 41.0276 38.3153 41.1681 38.2133 41.1906C38.1173 41.2118 38.0082 41.0915 37.971 40.9231C37.9339 40.7548 37.8083 40.638 37.6921 40.6637C37.4611 40.7147 37.3825 40.2188 37.5857 39.9922C37.6761 39.8913 37.6642 39.6484 37.538 39.0124C37.4351 38.4939 37.4046 38.159 37.4591 38.147C37.5317 38.131 37.5536 38.2147 37.5783 38.6022ZM43.3157 37.5939C43.3979 37.6679 43.3399 37.7413 43.187 37.7574C43.0341 37.7736 42.8822 37.6652 42.8494 37.5171C42.8167 37.3686 42.865 37.3284 42.9569 37.4272C43.0845 37.5644 43.0913 37.5115 42.9854 37.2017C42.8766 36.8832 42.8811 36.8674 43.0066 37.128C43.0944 37.3105 43.2334 37.5199 43.3157 37.5939ZM36.1557 39.0769C36.1734 39.2495 36.1638 39.3961 36.1342 39.4027C36.1046 39.4092 36.05 39.2768 36.0129 39.1084C35.9757 38.9401 35.9854 38.7935 36.0343 38.7827C36.0833 38.7719 36.1379 38.9043 36.1557 39.0769ZM30.1406 40.7263C30.336 41.0854 30.3966 41.072 30.3119 40.6885C30.2747 40.5201 30.1869 40.3973 30.1168 40.4153C30.0138 40.4423 30.0183 40.5016 30.1406 40.7263ZM35.5387 39.6735C35.5935 39.922 35.7139 40.1439 35.8164 40.1852C35.9614 40.2437 35.957 40.2973 35.794 40.4569C35.6088 40.6381 35.5773 40.5943 35.4378 39.9625C35.3529 39.5784 35.3197 39.2615 35.3632 39.2519C35.4064 39.2424 35.4853 39.432 35.5387 39.6735ZM37.2698 39.104C37.3037 39.2577 37.2299 39.414 37.1057 39.4513C36.9814 39.4884 36.8692 39.4159 36.8562 39.2904C36.8212 38.9495 37.1981 38.7796 37.2698 39.104ZM19.5563 43.3848C19.6129 43.5489 19.6191 43.6919 19.5701 43.7027C19.5212 43.7136 19.4507 43.5847 19.4135 43.4163C19.3763 43.248 19.3701 43.1049 19.3996 43.0984C19.4292 43.0918 19.4997 43.2207 19.5563 43.3848ZM30.8975 40.8991C30.9369 41.0772 30.9197 41.135 30.8591 41.027C30.7987 40.919 30.7687 41.0254 30.7925 41.2635C30.8268 41.6059 30.8109 41.5844 30.7166 41.1609C30.6426 40.828 30.6406 40.6159 30.7117 40.6002C30.7745 40.5863 30.8582 40.721 30.8975 40.8991ZM31.6762 40.6279C31.7041 40.754 31.6651 40.8711 31.5896 40.8878C31.5141 40.9045 31.4414 40.8121 31.4281 40.6827C31.4147 40.5534 31.4537 40.4363 31.5147 40.4228C31.5757 40.4094 31.6484 40.5018 31.6762 40.6279ZM42.5734 38.3016C42.5912 38.4742 42.5473 38.6181 42.4759 38.6217C42.3507 38.6275 42.348 38.6175 42.4021 38.3395C42.4793 37.9426 42.5352 37.9303 42.5734 38.3016ZM46.7714 37.3745C46.8085 37.5429 46.8973 37.67 46.9685 37.6568C47.0397 37.644 47.1661 37.7583 47.2493 37.911C47.3608 38.1159 47.3368 38.2208 47.1577 38.3101C47.0242 38.3768 46.837 38.5058 46.7417 38.5965C46.6465 38.6875 45.6908 38.998 44.6179 39.2867C43.5451 39.5753 42.7988 39.6746 42.9595 39.5072C43.1203 39.3401 43.3613 39.0891 43.4953 38.9497C44.01 38.4145 44.7188 38.1482 44.823 38.4504C44.8808 38.618 44.9352 38.6619 44.9438 38.5479C44.9526 38.4343 45.0577 38.5 45.1777 38.6944C45.2976 38.8887 45.4203 38.9374 45.4504 38.8023C45.4804 38.6673 45.6844 38.4919 45.9036 38.4127C46.1229 38.3335 46.2991 38.1748 46.2953 38.0601C46.2915 37.9457 46.393 37.9088 46.5207 37.9782C46.7054 38.0787 46.7304 38.0025 46.6427 37.6055C46.582 37.3309 46.571 37.0978 46.6181 37.0874C46.6652 37.077 46.7342 37.2062 46.7714 37.3745ZM48.4684 37.08C48.5626 37.3802 48.576 37.3773 48.535 37.0653C48.48 36.646 48.9279 36.4097 49.0588 36.7891C49.1012 36.912 49.0121 36.9895 48.8607 36.9609C48.6888 36.9286 48.6134 37.0358 48.6598 37.2461C48.7726 37.7566 48.4803 37.7088 48.3266 37.1916C48.1633 36.6421 48.2977 36.5363 48.4684 37.08ZM35.2733 40.2348C35.291 40.4075 35.2342 40.5542 35.1471 40.5612C35.0056 40.5722 34.9947 40.5426 35.0448 40.2853C35.1228 39.8848 35.2347 39.86 35.2733 40.2348ZM40.642 39.0492C40.6598 39.2218 40.7273 39.3514 40.7919 39.3371C40.8566 39.3228 40.8791 39.1734 40.8419 39.005C40.7621 38.6435 40.8908 38.7008 41.08 39.111C41.2536 39.4871 41.1144 40.2495 40.9064 40.062C40.8261 39.9896 40.7761 40.0837 40.7954 40.2714C40.8147 40.4592 40.7919 40.6212 40.7448 40.6316C40.6977 40.642 40.6435 40.4982 40.6244 40.3124C40.6003 40.0783 40.5231 40.0571 40.3731 40.2437C40.2418 40.4072 40.1308 40.3961 40.0909 40.2152C40.0547 40.0514 40.1544 39.8031 40.3126 39.6638C40.4708 39.5245 40.5772 39.2641 40.5492 39.0851C40.5212 38.9064 40.5234 38.7544 40.554 38.7476C40.5847 38.7408 40.6243 38.8765 40.642 39.0492ZM42.2697 38.6647C42.2587 38.8247 42.1626 38.9211 42.0563 38.8787C41.9074 38.8195 41.8868 38.9415 41.9665 39.4099C42.0234 39.7444 42.048 40.0227 42.0213 40.0286C41.9596 40.0423 41.806 39.031 41.8214 38.7133C41.8278 38.5822 41.9359 38.4524 42.0615 38.4246C42.2174 38.3902 42.2836 38.4664 42.2697 38.6647ZM22.2252 43.3999C22.3057 43.7644 22.1492 44.1043 22.0428 43.7961C21.9963 43.6613 21.9752 43.4743 21.9958 43.3802C22.057 43.1015 22.1613 43.1106 22.2252 43.3999ZM22.9756 43.2717C23.0127 43.4401 23.019 43.5831 22.9894 43.5897C22.9598 43.5962 22.8894 43.4673 22.8328 43.3032C22.7762 43.1392 22.77 42.9961 22.8189 42.9853C22.8679 42.9745 22.9384 43.1034 22.9756 43.2717ZM23.9963 43.0113C24.0985 43.4741 23.7032 43.6648 23.4564 43.2718C23.2402 42.9275 23.2494 42.8941 23.5795 42.8192C23.7756 42.775 23.9631 42.8613 23.9963 43.0113ZM24.1978 43.09C24.2716 43.4577 24.1776 43.404 24.0659 43.0149C24.0088 42.8156 24.005 42.7009 24.0575 42.7599C24.1101 42.8189 24.1732 42.9674 24.1978 43.09ZM24.9165 43.9425C24.9531 44.0979 24.8769 43.9702 24.747 43.659C24.587 43.2754 24.5158 43.0182 24.5259 42.8609C24.5392 42.65 24.7481 43.2282 24.9165 43.9425ZM25.1432 42.6668C25.3123 42.8802 25.4221 43.3734 25.3063 43.399C25.2574 43.4098 25.2608 43.5449 25.3139 43.6988C25.3671 43.853 25.3542 43.9698 25.2852 43.9581C25.1562 43.9365 24.9733 43.1962 24.9872 42.752C24.9964 42.4611 24.9851 42.4671 25.1432 42.6668ZM47.5919 37.8354C47.6291 38.0037 47.6141 38.1492 47.5586 38.1589C47.4722 38.1738 47.4605 38.1302 47.4777 37.8606C47.503 37.4633 47.5095 37.4619 47.5919 37.8354ZM25.8531 43.1361C25.778 43.4897 25.786 43.5627 25.9118 43.673C26.0296 43.7764 26.0315 43.8135 25.922 43.8678C25.8438 43.9066 25.7064 43.7036 25.5972 43.3884C25.4237 42.8874 25.4302 42.8368 25.674 42.7843C25.9376 42.7273 25.9392 42.7305 25.8531 43.1361ZM26.7161 43.3156C26.8817 43.9557 26.8864 44.0414 26.7491 43.9144C26.661 43.833 26.4848 43.783 26.3576 43.8034C26.1703 43.8336 26.1321 43.7759 26.1576 43.5025C26.1749 43.3167 26.1473 43.0435 26.0961 42.8952C26.0451 42.7473 26.1202 42.6132 26.2631 42.5974C26.4908 42.5721 26.5469 42.6609 26.7161 43.3156ZM28.3845 42.9C28.5398 43.3215 28.5818 43.3578 28.572 43.0617C28.5546 42.5311 28.6878 42.5563 28.8094 43.1069C28.8884 43.4647 28.8371 43.5769 28.577 43.6144C28.3935 43.6411 28.2601 43.5862 28.2806 43.4927C28.3683 43.0923 28.1709 42.7664 27.8798 42.8307C27.5401 42.9057 27.5581 43.4214 27.9052 43.556C28.0376 43.607 27.9993 43.6839 27.8039 43.7591C27.6275 43.827 27.4406 43.7376 27.3778 43.5556C27.2972 43.3221 27.2691 43.3283 27.2773 43.5778C27.2836 43.7684 27.2502 43.9328 27.2031 43.9432C27.1397 43.9572 27.1143 43.8687 27.1056 43.6045C27.0992 43.4079 27.0358 43.0514 26.9647 42.8122C26.8555 42.4447 26.9398 42.376 27.51 42.3673C28.0759 42.3585 28.2165 42.444 28.3845 42.9ZM29.6384 42.5225C29.7144 42.8644 29.3126 42.886 29.1954 42.5462C29.1346 42.3699 29.1923 42.2615 29.341 42.2733C29.4765 42.2842 29.6104 42.3965 29.6384 42.5225ZM31.674 41.9738C31.709 42.1324 31.7306 42.3523 31.7223 42.463C31.6955 42.815 30.1192 43.0042 29.9131 42.6802C29.8084 42.5155 30.4462 42.044 31.0074 41.8713C31.3533 41.765 31.6375 41.8085 31.674 41.9738ZM34.2179 41.5982C34.3493 41.9075 34.2654 42.0407 33.767 42.3135C33.2559 42.5936 32.5915 42.3314 32.475 41.8037C32.4156 41.5346 34.1062 41.3355 34.2179 41.5982ZM36.2837 41.2842C35.9542 41.5419 35.6485 41.4733 35.6727 41.1469C35.6808 41.0363 35.8906 40.9681 36.1388 40.9952L36.5902 41.0444L36.2837 41.2842ZM37.2181 40.7684C37.2552 40.9367 37.2743 41.077 37.2605 41.08C37.2466 41.0831 37.189 40.9514 37.1324 40.7873C37.0758 40.6232 37.0567 40.483 37.09 40.4757C37.1232 40.4683 37.1809 40.6 37.2181 40.7684ZM38.5031 40.4846C38.5209 40.6572 38.5755 40.7896 38.6245 40.7788C38.6734 40.768 38.6831 40.6214 38.6459 40.4531C38.6087 40.2847 38.5542 40.1523 38.5246 40.1588C38.495 40.1654 38.4854 40.312 38.5031 40.4846ZM50.3223 37.7726C50.383 37.852 50.4299 37.8301 50.4264 37.7243C50.4229 37.6185 50.3733 37.5537 50.316 37.5801C50.2527 37.6095 50.2552 37.6851 50.3223 37.7726ZM37.0256 41.1017C37.0417 41.2581 36.9876 41.3255 36.9053 41.2512C36.6996 41.0659 36.6752 40.8883 36.8502 40.8496C36.9305 40.8319 37.0095 40.9454 37.0256 41.1017ZM39.9615 40.375C39.941 40.4688 39.8768 40.483 39.8187 40.4066C39.7607 40.3305 39.7775 40.2539 39.856 40.2365C39.9345 40.2192 39.982 40.2816 39.9615 40.375ZM42.5887 39.7948C42.5683 39.8886 42.504 39.9028 42.446 39.8264C42.388 39.7502 42.4047 39.6737 42.4833 39.6563C42.5618 39.639 42.6093 39.7014 42.5887 39.7948ZM50.264 39.4924C50.3206 39.6564 50.3782 39.7882 50.3921 39.7851C50.406 39.782 50.3869 39.6418 50.3497 39.4735C50.3125 39.3051 50.2549 39.1734 50.2216 39.1807C50.1884 39.1881 50.2074 39.3283 50.264 39.4924ZM51.7455 39.0634C51.8062 39.1428 51.853 39.1209 51.8496 39.0151C51.8461 38.9093 51.7964 38.8445 51.7391 38.8709C51.6758 38.9003 51.6783 38.9759 51.7455 39.0634ZM29.2457 48.0666C29.2736 48.1927 28.7703 48.3854 28.1274 48.4946C27.318 48.632 27.0959 48.6069 27.4056 48.4133C28.0482 48.0113 29.186 47.797 29.2457 48.0666ZM29.8417 48.0528C29.8559 48.1171 29.742 48.1808 29.5884 48.1938C29.3482 48.2141 29.3266 48.1829 29.4343 47.971C29.5514 47.7407 29.7831 47.7874 29.8417 48.0528ZM26.8891 48.7193C26.8687 48.8131 26.8044 48.8273 26.7463 48.7508C26.6884 48.6747 26.7051 48.5981 26.7837 48.5808C26.8622 48.5635 26.9097 48.6258 26.8891 48.7193ZM21.8642 50.5134C21.9346 50.6443 21.7272 50.8182 21.3973 50.9048C21.0708 50.9907 20.7942 50.969 20.7826 50.8563C20.751 50.5487 21.7182 50.2423 21.8642 50.5134ZM48.0294 45.0204C48.0901 45.0998 48.137 45.0779 48.1335 44.9721C48.13 44.8663 48.0804 44.8015 48.0231 44.8279C47.9598 44.8573 47.9623 44.9328 48.0294 45.0204ZM43.9175 46.2242C43.921 46.33 43.8741 46.3519 43.8134 46.2725C43.7463 46.1849 43.7438 46.1094 43.8071 46.08C43.8644 46.0535 43.914 46.1183 43.9175 46.2242ZM24.2131 51.2634C24.5609 51.243 25.1264 51.1185 25.4696 50.9862C25.8129 50.8539 25.5283 50.8705 24.8371 51.0228C24.1459 51.1751 23.8651 51.2834 24.2131 51.2634ZM29.3637 50.2774C29.4302 50.4338 29.5204 50.4974 29.5641 50.4181C29.6229 50.3116 29.5915 50.2377 29.4432 50.1337C29.3137 50.0425 29.2857 50.0937 29.3637 50.2774ZM47.0328 46.2036C47.0935 46.2829 47.1404 46.261 47.1369 46.1552C47.1334 46.0494 47.0838 45.9846 47.0265 46.0111C46.9632 46.0405 46.9657 46.116 47.0328 46.2036ZM29.8505 50.3269C29.9377 50.3843 30.0399 50.3589 30.0776 50.2703C30.1153 50.1817 30.0439 50.1346 29.919 50.1657C29.7941 50.1968 29.7633 50.2694 29.8505 50.3269ZM30.6501 50.1503C30.7373 50.2078 30.8395 50.1823 30.8772 50.0937C30.9149 50.0051 30.8435 49.958 30.7186 49.9891C30.5937 50.0202 30.5629 50.0928 30.6501 50.1503ZM32.4222 49.7647C32.5399 49.81 32.6938 49.7747 32.7642 49.686C32.8346 49.5969 32.7383 49.5598 32.5502 49.6032C32.3621 49.6464 32.3045 49.7191 32.4222 49.7647ZM33.2497 49.5797C33.352 49.6306 33.4801 49.6004 33.5343 49.5124C33.5885 49.4243 33.5048 49.3825 33.3482 49.4193C33.1917 49.4564 33.1473 49.5285 33.2497 49.5797ZM40.7289 47.9187C40.8009 47.9837 40.8909 47.9638 40.9288 47.8745C40.9668 47.7856 40.9079 47.7324 40.798 47.7567C40.688 47.781 40.657 47.854 40.7289 47.9187ZM41.6695 47.7023C41.7276 47.7787 41.7918 47.7645 41.8123 47.6708C41.8329 47.5773 41.7853 47.5149 41.7068 47.5323C41.6283 47.5496 41.6115 47.6262 41.6695 47.7023Z" fill="#DF1931"/>
<path fill-rule="evenodd" clip-rule="evenodd" d="M29.8754 15.6648C28.5185 15.6648 27.4185 16.7648 27.4185 18.1217V31.7713C27.4185 33.1283 28.5185 34.2283 29.8754 34.2283C31.2323 34.2283 32.3323 33.1283 32.3323 31.7713V18.1217C32.3323 16.7648 31.2323 15.6648 29.8754 15.6648ZM20.8667 21.9435C20.8667 20.5866 21.9667 19.4866 23.3236 19.4866C24.6805 19.4866 25.7806 20.5866 25.7806 21.9435V31.7712C25.7806 33.1281 24.6805 34.2281 23.3236 34.2281C21.9667 34.2281 20.8667 33.1281 20.8667 31.7712V21.9435ZM14.3149 23.0356C14.3149 21.6787 15.4149 20.5787 16.7719 20.5787C18.1288 20.5787 19.2288 21.6787 19.2288 23.0356V30.1334C19.2288 31.4903 18.1288 32.5903 16.7719 32.5903C15.4149 32.5903 14.3149 31.4903 14.3149 30.1334V23.0356ZM33.9702 20.8517C33.9702 19.4948 35.0702 18.3948 36.4271 18.3948C37.7841 18.3948 38.8841 19.4948 38.8841 20.8517V31.7714C38.8841 33.1283 37.7841 34.2283 36.4271 34.2283C35.0702 34.2283 33.9702 33.1283 33.9702 31.7714V20.8517ZM28.2377 36.4121C26.8808 36.4121 25.7808 37.5121 25.7808 38.869C25.7808 40.226 26.8808 41.326 28.2377 41.326H36.4275C37.7844 41.326 38.8844 40.226 38.8844 38.869C38.8844 37.5121 37.7844 36.4121 36.4275 36.4121H28.2377Z" fill="#DF1931"/>
<path fill-rule="evenodd" clip-rule="evenodd" d="M33.9705 31.7713V20.8351C33.9795 19.4858 35.076 18.3948 36.4274 18.3948C37.7843 18.3948 38.8843 19.4948 38.8843 20.8517V31.7714C38.8843 33.1283 37.7843 34.2283 36.4274 34.2283C35.0749 34.2283 33.9776 33.1354 33.9705 31.7846L33.9705 31.7713ZM29.8756 14.0269C31.9606 14.0269 33.6816 15.585 33.9377 17.6004C34.6276 17.0713 35.4908 16.7568 36.4274 16.7568C38.6889 16.7568 40.5223 18.5902 40.5223 20.8517V31.7714C40.5223 33.2883 39.6975 34.6125 38.472 35.3201C39.6977 36.0277 40.5226 37.352 40.5226 38.869C40.5226 41.1306 38.6893 42.9639 36.4277 42.9639H28.238C25.9764 42.9639 24.1431 41.1306 24.1431 38.869C24.1431 36.9546 25.4568 35.347 27.232 34.8986C26.9971 34.6998 26.7848 34.475 26.5997 34.2287C25.8526 35.223 24.6634 35.8661 23.3239 35.8661C21.5651 35.8661 20.0652 34.7573 19.4853 33.2005C18.7629 33.84 17.8129 34.2283 16.7721 34.2283C14.5106 34.2283 12.6772 32.3949 12.6772 30.1334V23.0356C12.6772 20.7741 14.5106 18.9407 16.7721 18.9407C17.8957 18.9407 18.9136 19.3932 19.6535 20.126C20.3231 18.7763 21.7151 17.8486 23.3239 17.8486C24.2457 17.8486 25.0964 18.1532 25.7808 18.6673V18.1217C25.7808 15.8602 27.6141 14.0269 29.8756 14.0269ZM32.6598 34.7742H33.6432C33.4636 34.6075 33.2989 34.425 33.1515 34.2287C33.0041 34.425 32.8394 34.6075 32.6598 34.7742ZM32.3326 18.1217V20.8302L32.3325 20.8517V31.7714L32.3325 31.7845C32.3254 33.1354 31.2282 34.2283 29.8756 34.2283C28.5235 34.2283 27.4264 33.1359 27.4188 31.7856L27.4188 31.7712V21.9435L27.4187 21.9202V18.1217C27.4187 16.7648 28.5187 15.6648 29.8756 15.6648C31.2326 15.6648 32.3326 16.7648 32.3326 18.1217ZM25.7808 21.9257V31.7713L25.7808 31.7853C25.7732 33.1358 24.6761 34.2282 23.3239 34.2282C21.967 34.2282 20.867 33.1282 20.867 31.7712V30.1549L20.867 30.1334V23.0356L20.867 23.0141V21.9435C20.867 20.5866 21.967 19.4866 23.3239 19.4866C24.6749 19.4866 25.7712 20.577 25.7808 21.9257ZM19.229 30.1502V23.0188C19.22 21.6696 18.1234 20.5787 16.7721 20.5787C15.4152 20.5787 14.3152 21.6787 14.3152 23.0356V30.1334C14.3152 31.4903 15.4152 32.5903 16.7721 32.5903C18.1234 32.5903 19.22 31.4994 19.229 30.1502ZM25.781 38.869C25.781 37.5121 26.881 36.4121 28.238 36.4121H36.4277C37.7847 36.4121 38.8847 37.5121 38.8847 38.869C38.8847 40.226 37.7847 41.326 36.4277 41.326H28.238C26.881 41.326 25.781 40.226 25.781 38.869Z" fill="white"/>
</svg>
