<svg width="193" height="56" viewBox="0 0 193 56" fill="none" xmlns="http://www.w3.org/2000/svg">
<path fill-rule="evenodd" clip-rule="evenodd" d="M33.1846 4.42903C32.7557 4.64899 32.3886 4.87747 32.3689 4.93705C32.349 4.99633 32.5702 5.08324 32.8604 5.12987C33.3865 5.21457 33.3858 5.21535 32.6668 5.47313C32.2701 5.61535 31.6998 5.89964 31.3994 6.10471C31.0215 6.36286 31.2392 6.34652 32.106 6.05161C34.0871 5.37788 36.1284 4.71811 36.3977 4.66406C36.548 4.63405 36.6044 4.49767 36.5419 4.31631C36.4743 4.12033 36.9505 3.90499 37.9298 3.68858C38.988 3.45473 39.4307 3.45802 39.4556 3.70002C39.4777 3.91472 39.5348 4.00355 39.6097 3.93948C39.6751 3.88331 39.7851 3.91066 39.8543 4.00035C39.9234 4.08973 40.3978 4.22503 40.9084 4.30095C41.419 4.37687 41.9599 4.53919 42.1104 4.66164C42.2608 4.78376 42.3587 4.76983 42.328 4.63056C42.2513 4.28284 42.0555 4.11391 40.9969 3.48141C40.8642 3.40224 40.6086 3.22053 40.4289 3.07788C40.0419 2.77048 34.3491 3.83236 33.1846 4.42903ZM15.8756 8.5921C15.645 8.82188 15.6557 8.83395 16.0547 8.79329C16.4749 8.7502 16.5701 8.59336 16.2741 8.43148C16.1898 8.38527 16.0105 8.45763 15.8756 8.5921ZM15.281 8.88145C15.2297 8.94766 14.9826 9.13999 14.7318 9.30875C14.481 9.47749 14.2981 9.71694 14.3255 9.84121C14.3529 9.96518 14.4466 9.99357 14.5339 9.90398C14.6555 9.77919 14.6892 9.82088 14.6782 10.0833C14.6673 10.3432 14.7239 10.4042 14.9138 10.3369C15.1417 10.2563 15.1441 10.2314 14.9409 10.0529L14.7181 9.85717L14.9194 9.7745C15.0301 9.72917 15.1563 9.81299 15.2 9.96096C15.245 10.1138 15.4666 10.0847 15.7138 9.89331C16.1826 9.53097 16.1476 9.41513 15.6034 9.52864C15.4145 9.56781 15.3093 9.5185 15.3696 9.41882C15.4733 9.24762 15.5191 8.58775 15.419 8.7068C15.3943 8.73635 15.3321 8.81493 15.281 8.88145ZM34.9713 4.5796C34.7895 4.68237 34.4557 4.75646 34.2295 4.7445C34.0033 4.73285 34.1519 4.64863 34.56 4.55814C34.9679 4.46735 35.153 4.47716 34.9713 4.5796ZM35.7628 4.37998C35.7423 4.47374 35.6781 4.48793 35.6201 4.41151C35.5621 4.33539 35.5789 4.25882 35.6574 4.24148C35.7359 4.22413 35.7833 4.28651 35.7628 4.37998ZM40.1682 3.72745C40.1478 3.82121 40.0836 3.8354 40.0255 3.75899C39.9676 3.68287 39.9843 3.6063 40.0628 3.58895C40.1413 3.57161 40.1888 3.63399 40.1682 3.72745ZM40.5684 3.63709C40.5483 3.72949 40.4724 3.75173 40.3997 3.68625C40.327 3.62078 40.3435 3.54522 40.4363 3.51829C40.5292 3.49136 40.5886 3.54468 40.5684 3.63709ZM16.2079 9.35203C16.2799 9.41703 16.3698 9.39715 16.4077 9.30788C16.4457 9.21892 16.3868 9.16579 16.2769 9.19007C16.1671 9.21435 16.1361 9.28733 16.2079 9.35203ZM16.7483 9.22394C16.8064 9.30035 16.8706 9.28616 16.891 9.1924C16.9116 9.09894 16.8641 9.03656 16.7856 9.0539C16.7072 9.07125 16.6904 9.14782 16.7483 9.22394ZM5.93278 12.1443C5.94782 12.2906 5.66774 12.4453 5.31034 12.488C4.66198 12.5661 3.64983 13.2623 3.55001 13.6991C3.51658 13.8452 3.56396 14.211 3.67938 14.6981C3.87583 15.5272 3.89123 15.555 4.27528 15.7699C4.58963 15.9461 4.72011 16.4366 4.45108 16.4309C4.27199 16.4272 4.27256 16.497 4.45786 17.265C4.63492 17.9989 4.64041 18.1081 4.50196 18.1429C4.30371 18.1931 4.29344 18.4808 4.46036 19.3119C4.56897 19.8526 4.6383 19.9907 4.86092 20.1098C5.22129 20.3027 5.29834 20.7296 5.0205 20.9942C4.80102 21.2032 4.72945 22.3753 4.90511 22.8848C4.94878 23.0116 4.92751 23.2234 4.8578 23.3553C4.74819 23.5625 4.75502 23.6515 4.90819 24.0122C5.00566 24.2417 5.11985 24.4242 5.16189 24.4174C5.21955 24.4086 5.23316 24.4797 5.21735 24.7073C5.20262 24.9185 5.29428 25.0167 5.52383 25.0357C5.84741 25.0624 5.85396 25.0744 6.07608 26.0565C6.19978 26.6031 6.28159 27.0544 6.25808 27.0596C6.23456 27.0648 6.27607 27.3445 6.35038 27.6812C6.45049 28.1348 6.44721 28.3131 6.33771 28.3697C6.20893 28.4364 6.21038 28.4595 6.34936 28.5511C6.55239 28.6847 7.03718 29.4511 6.93469 29.4763C6.89135 29.4868 6.9135 29.6832 6.98532 29.9251C7.17507 30.564 7.13934 30.9392 6.84558 31.3932C6.58274 31.7993 6.5063 32.141 6.68729 32.101C6.73963 32.0895 6.82804 32.2866 6.88377 32.5391C6.96261 32.8963 6.90902 33.0151 6.64264 33.0739C6.27334 33.1556 6.28753 33.7656 6.65851 33.7561C6.79666 33.7526 6.84397 33.8118 6.78263 33.9117C6.72805 34.0002 6.70967 34.1914 6.74176 34.3368C6.77384 34.4822 6.76774 34.7005 6.72828 34.8222C6.68875 34.9436 6.69774 35.1628 6.74801 35.3087C6.7984 35.4549 6.78401 35.7235 6.71606 35.9058C6.60935 36.1923 6.65185 36.2295 7.02874 36.1796C7.47667 36.1204 7.56413 36.4391 7.23566 36.9335C7.08999 37.1525 7.08987 37.2591 7.23481 37.6319C7.37248 37.986 7.39832 37.9922 7.36718 37.664C7.33703 37.3467 7.37713 37.386 7.54729 37.8402C7.74782 38.3753 7.7608 38.4517 7.70282 38.7535C7.6486 39.0351 7.69006 39.0966 7.99048 39.1811C8.30545 39.2694 8.33743 39.3204 8.30242 39.6791C8.28101 39.8989 8.17135 40.1953 8.05869 40.3377C7.70857 40.7804 7.76449 41.1507 8.17229 41.0898L8.5489 41.0332L8.27971 42.119L8.01053 43.2048L8.32969 43.2948L8.64886 43.3847L8.40396 43.8732C8.23287 44.2147 8.201 44.4378 8.29809 44.6141C8.37458 44.7529 8.49106 44.8668 8.55702 44.8673C8.67612 44.8682 8.67653 44.8701 8.61615 45.1303C8.57197 45.3201 8.67291 45.4423 8.98365 45.5749C9.37169 45.7402 9.39276 45.7725 9.20787 45.9176C9.09561 46.0057 9.00781 46.2119 9.01261 46.3755C9.01804 46.5599 9.28263 46.625 9.70883 46.5466C10.2397 46.4488 10.376 46.498 10.3071 46.762C10.2555 46.9606 10.2686 47.3333 10.3383 47.6492C10.4358 48.0912 10.3828 48.325 10.058 48.8847C9.83773 49.2644 9.71689 49.6144 9.78941 49.6622C9.89496 49.732 9.91731 49.807 9.90132 50.0375C9.88667 50.2494 9.91961 50.3195 10.0261 50.3033C10.1058 50.2912 10.237 50.4012 10.3178 50.5477C10.4811 50.8435 10.4739 50.9263 10.2484 51.3482C10.1868 51.4633 10.1656 51.7556 10.2013 51.9981C10.2553 52.3669 10.3645 52.3928 10.8731 52.1565C11.3219 51.9482 11.4774 51.9671 11.4688 52.2291C11.4591 52.5282 11.4735 52.5722 11.5607 52.5099C11.7333 52.3857 11.7967 52.4744 11.7772 52.8126C11.7645 53.0318 11.8526 53.0405 12.0527 52.8403C12.4188 52.4734 12.3964 52.4751 13.466 52.7344C14.1214 52.8932 14.999 52.7487 16.8452 52.1787C18.3776 51.7052 19.8506 51.4259 20.666 51.4537C23.3536 51.5465 23.6167 51.5365 23.5359 51.3431C23.4906 51.2347 23.1711 51.13 22.8261 51.1106C22.4811 51.0915 22.1472 50.9579 22.0843 50.8145C21.9273 50.4565 26.8486 49.3995 28.6668 49.4006C29.7097 49.4013 37.3151 48.1729 39.925 47.5823C40.5072 47.4505 42.9643 46.5017 43.0581 46.3725C43.1355 46.2655 43.1992 46.3179 43.2183 46.5043C43.2358 46.6744 43.2758 46.8078 43.3072 46.8009C43.3386 46.794 43.3497 46.647 43.332 46.4744C43.2897 46.0629 43.5013 46.0209 43.5901 46.4231C43.6665 46.7693 45.0193 46.4919 45.931 45.9434C46.3484 45.6922 46.5061 45.704 46.5917 45.9923C46.6536 46.2007 46.7415 46.363 46.7871 46.3529C46.8327 46.3428 46.8237 46.2004 46.7671 46.0363C46.7106 45.8722 46.7056 45.7042 46.756 45.6628C46.8064 45.6215 46.8795 45.5486 46.9183 45.5005C46.9571 45.4528 47.1264 45.3656 47.2946 45.3069C47.4808 45.242 47.5491 45.1072 47.4692 44.9624C47.3396 44.7268 47.6927 44.4029 48.7544 43.7843C49.2881 43.4735 49.4371 42.9134 48.9818 42.9299C48.8365 42.9351 48.6848 42.9131 48.6448 42.8808C48.6047 42.8486 48.3203 42.8415 48.0127 42.8651L47.4534 42.9075L47.7719 42.5874C47.947 42.4113 48.3333 42.1683 48.6304 42.0478C48.9274 41.9269 49.1592 41.719 49.1455 41.5856C49.1318 41.4522 49.1719 41.3316 49.2347 41.3178C49.2975 41.3039 49.3086 41.1759 49.2594 41.033C49.2097 40.8889 49.0864 40.9101 48.982 41.0805C48.7713 41.4243 48.5266 41.5532 48.5191 41.3244C48.5089 41.0172 49.4503 39.6631 49.5693 39.8133C49.6388 39.901 49.6617 39.7576 49.6217 39.4849C49.5712 39.1413 49.6348 38.9671 49.8411 38.8843L50.1315 38.7678L49.7777 38.6566C49.4993 38.5688 49.448 38.4989 49.5372 38.3287C49.5995 38.2093 49.7966 38.1869 49.9751 38.2784C50.1536 38.37 50.2993 38.4158 50.299 38.3802C50.2985 38.3444 50.1882 38.0111 50.0537 37.6393C49.8917 37.1916 49.8127 37.0704 49.8196 37.2801C49.8265 37.4901 49.7457 37.5025 49.5801 37.3163C49.1355 36.8172 49.1575 36.6778 49.681 36.6793C50.0462 36.6801 50.1617 36.5849 50.0808 36.3502C50.0106 36.1467 50.0152 35.9977 50.0926 35.963C50.2045 35.9126 49.5087 35.4252 48.9815 35.1848C48.8717 35.1346 48.9694 35.0282 49.1988 34.9486C49.4281 34.8688 49.6247 34.6613 49.6358 34.4877C49.6525 34.2259 49.6361 34.1747 49.5397 34.1879C49.4758 34.1966 49.3528 34.0668 49.2665 33.8994C49.1517 33.6769 49.1939 33.631 49.4233 33.7289C49.8333 33.9035 49.8492 33.6197 49.4798 32.7229C49.3163 32.3256 49.2204 32.0114 49.26 32.0026C49.2987 31.994 49.2842 31.8528 49.2276 31.6887C49.171 31.5247 49.0166 31.4121 48.8845 31.4387C48.7524 31.465 48.574 31.3516 48.4882 31.1864C48.3759 30.9704 48.4285 30.9235 48.6759 31.0197C49.0256 31.1552 49.0509 30.722 48.7135 30.3764C48.5438 30.2027 48.5407 30.1905 48.5888 29.8791C48.6279 29.6265 48.6022 29.5959 48.4651 29.7327C48.2677 29.9301 47.8807 29.3235 47.9689 28.9551C47.9966 28.8398 48.0653 28.7354 48.1216 28.723C48.178 28.7105 48.2105 28.4866 48.1939 28.2255C48.1701 27.8526 48.1485 27.754 48.0934 27.7661C48.0545 27.7747 47.9927 27.5739 47.9548 27.3152C47.9107 27.0155 47.8495 26.8489 47.7835 26.8491C47.6981 26.849 47.6907 26.8022 47.7394 26.5731C47.794 26.3165 47.7815 26.2755 47.5625 25.9927C47.4329 25.8255 47.29 25.6966 47.2449 25.7065C47.1999 25.7165 47.1326 25.5869 47.0955 25.4185C47.0583 25.2502 47.1726 25.0663 47.3496 25.0102L47.6712 24.908L47.3532 24.4842C47.0085 24.0249 46.8336 23.4328 46.8936 22.9274C46.9145 22.7517 47.1973 22.4468 47.5223 22.2498C47.8472 22.0531 48.0895 21.7855 48.0607 21.6551C48.0319 21.5247 47.9072 21.2954 47.7836 21.1452C47.5954 20.9171 47.6254 20.8537 47.9673 20.7569C48.1991 20.6913 48.3465 20.5088 48.3082 20.3352C48.271 20.1669 48.1877 20.0408 48.1231 20.0551C48.0585 20.0694 47.9917 19.9461 47.9747 19.781C47.9578 19.6159 47.9987 19.55 48.0657 19.6347C48.1327 19.7191 48.159 19.6591 48.1241 19.5011C48.0892 19.3429 47.9047 19.087 47.7142 18.9323C47.4202 18.6936 47.5004 18.6374 48.2455 18.5594L49.1232 18.4678L48.2577 18.0723C46.7432 17.38 46.7721 17.4003 46.8767 17.104C46.9619 16.8627 46.9589 16.8428 46.837 16.8402C46.6536 16.8361 46.4929 16.3179 46.6141 16.1216C46.6696 16.0313 46.6044 15.9645 46.4669 15.9705C46.3311 15.9764 46.1814 15.8474 46.1343 15.6838C46.0872 15.5202 45.7284 15.3389 45.3371 15.2812C44.6401 15.1784 44.6288 15.1674 44.7834 14.7471C44.8842 14.4734 45.26 14.2735 45.8213 14.1948C46.6336 14.0811 46.6973 14.0243 46.651 13.4596C46.6068 12.9214 46.6839 12.8164 47.2894 12.5888C47.8386 12.3827 47.9587 12.2422 47.8823 11.896C47.8296 11.6573 47.7642 11.4669 47.7369 11.4729C47.6567 11.4907 46.4791 10.7837 46.3306 10.6287C46.0495 10.3351 46.0796 9.91178 46.3889 9.80781C46.7059 9.70116 46.7062 9.69787 46.4251 9.4974C46.2688 9.38588 45.9314 9.32176 45.6754 9.35522C45.2193 9.41427 44.521 9.13233 44.6567 8.94344C44.7859 8.76368 44.104 8.47105 43.7055 8.53535C43.3581 8.59125 43.2691 8.50594 43.0063 7.86356L42.7052 7.12756L42.939 7.047L43.1728 6.96644L42.9112 6.70868C42.7674 6.56712 42.6173 6.52774 42.5776 6.62094C42.5379 6.71414 42.4801 6.67587 42.4491 6.53568C42.4182 6.39549 42.334 6.22759 42.262 6.16259C42.1902 6.09789 42.2395 5.98587 42.3719 5.91425L42.6124 5.78372L42.3044 5.60847C41.2976 5.0361 35.2351 5.937 33.4365 6.92643C32.9227 7.20915 32.2419 7.50147 31.9236 7.57599C31.5153 7.67201 31.3614 7.8264 31.4005 8.10089C31.4423 8.39374 31.4248 8.40434 31.3295 8.1429C31.2227 7.84999 29.9607 7.7645 29.9124 8.04675C29.8653 8.32266 14.8223 11.612 13.7516 11.5805C13.0391 11.5595 12.226 11.5369 11.9447 11.5304C11.6634 11.5239 10.8415 11.5739 10.1184 11.6422C9.39517 11.7102 8.52556 11.7367 8.18594 11.7013C7.20381 11.5986 5.90295 11.8543 5.93278 12.1443ZM34.8574 5.54984C34.9181 5.62921 34.9649 5.60731 34.9615 5.5015C34.958 5.39569 34.9084 5.33089 34.8511 5.35735C34.7878 5.38673 34.7903 5.46227 34.8574 5.54984ZM33.3839 6.19649C33.4446 6.27586 33.4914 6.25396 33.4879 6.14815C33.4844 6.04234 33.4348 5.97754 33.3776 6.004C33.3143 6.03339 33.3168 6.10892 33.3839 6.19649ZM33.8405 6.09559C33.9012 6.17495 33.948 6.15305 33.9445 6.04724C33.9411 5.94143 33.8914 5.87664 33.8342 5.90309C33.7709 5.93248 33.7734 6.00801 33.8405 6.09559ZM15.6517 10.7645C15.7384 10.8217 15.8539 10.7962 15.9085 10.7077C15.963 10.619 15.892 10.572 15.7508 10.6033C15.6095 10.6345 15.5649 10.7069 15.6517 10.7645ZM27.4778 9.4191C27.4577 9.51151 27.3818 9.53374 27.3091 9.46827C27.2364 9.4028 27.2529 9.32724 27.3457 9.30031C27.4385 9.27338 27.4979 9.3267 27.4778 9.4191ZM42.1124 6.16837C42.1159 6.27418 42.0691 6.29608 42.0084 6.21672C41.9413 6.12914 41.9388 6.05361 42.0021 6.02422C42.0593 5.99776 42.1089 6.06256 42.1124 6.16837ZM33.7269 8.59158C33.7694 8.69165 33.6043 8.83407 33.3601 8.90827C33.1157 8.98218 32.2763 9.25755 31.4946 9.51986C30.7131 9.78246 27.9183 10.5846 25.2844 11.3031C22.6504 12.0217 20.3759 12.7339 20.23 12.8865C19.962 13.1666 19.5319 13.0068 19.5194 12.6221C19.5122 12.4006 20.0399 12.2242 23.0452 11.4455C24.1922 11.148 24.9027 10.8434 24.8634 10.6655C24.828 10.5051 24.8516 10.4402 24.9159 10.5214C25.0933 10.7454 26.9847 10.2828 28.3005 9.69348C29.5868 9.11709 33.6038 8.30162 33.7269 8.59158ZM35.1584 7.99306C35.1659 8.22221 34.1934 8.46505 34.1048 8.25608C34.064 8.16012 34.2832 8.02564 34.5918 7.95743C34.9005 7.88922 35.1555 7.90511 35.1584 7.99306ZM35.3877 7.97545C35.3912 8.08126 35.3444 8.10316 35.2837 8.0238C35.2166 7.93622 35.2141 7.86069 35.2774 7.8313C35.3346 7.80484 35.3843 7.86964 35.3877 7.97545ZM31.1262 9.27126C31.2134 9.32873 31.3155 9.30327 31.3532 9.21469C31.3909 9.12611 31.3195 9.07895 31.1947 9.11007C31.0699 9.14119 31.0391 9.2138 31.1262 9.27126ZM38.9249 7.56167C38.9672 7.68458 38.647 7.86385 38.2132 7.95971C37.7794 8.05558 37.3824 8.03481 37.331 7.91391C37.2796 7.79301 37.5998 7.61375 38.0426 7.51588C38.4855 7.418 38.8826 7.43876 38.9249 7.56167ZM39.2361 7.57316C39.1595 7.96695 39.1156 7.97666 39.0363 7.6173C38.9992 7.44896 39.0415 7.30541 39.1305 7.29795C39.2738 7.2865 39.2858 7.31757 39.2361 7.57316ZM28.8549 10.0865C28.9156 10.1659 28.9624 10.144 28.9589 10.0382C28.9554 9.93235 28.9058 9.86756 28.8486 9.89402C28.7853 9.9234 28.7878 9.99893 28.8549 10.0865ZM29.1976 10.0243C29.3152 10.0695 29.469 10.0343 29.5394 9.94551C29.6097 9.85646 29.5135 9.81931 29.3255 9.86277C29.1375 9.90592 29.08 9.97866 29.1976 10.0243ZM17.8334 13.2848C17.8224 13.4301 17.7731 13.477 17.724 13.3893C17.6749 13.3016 17.6436 13.1107 17.6546 12.9655C17.6656 12.8202 17.715 12.7733 17.7641 12.861C17.8132 12.9487 17.8444 13.1396 17.8334 13.2848ZM18.8094 12.7989C18.8385 12.9308 18.6725 13.0635 18.4405 13.0939C18.1274 13.1348 18.0498 13.0804 18.1395 12.8827C18.294 12.5417 18.7403 12.486 18.8094 12.7989ZM19.3334 12.4609C19.4056 12.7878 19.1964 13.3044 19.0652 13.1231C18.9579 12.9747 18.9484 12.8795 19.0205 12.6704C19.1318 12.3466 19.2855 12.2439 19.3334 12.4609ZM17.5799 13.3402C17.5966 13.5028 17.4123 13.6777 17.1703 13.7286C16.9283 13.7792 16.738 13.7131 16.7474 13.5813C16.7734 13.2164 17.5442 12.9931 17.5799 13.3402ZM35.8064 9.18369C35.7863 9.2761 35.7104 9.29833 35.6377 9.23285C35.565 9.16738 35.5815 9.09183 35.6743 9.06489C35.7672 9.03796 35.8266 9.09128 35.8064 9.18369ZM39.8717 8.62239C39.8172 8.71084 39.7016 8.7364 39.6149 8.67915C39.5281 8.6216 39.5727 8.54915 39.714 8.51793C39.8552 8.48671 39.9262 8.53363 39.8717 8.62239ZM5.36741 20.515C5.40456 20.6833 5.42366 20.8236 5.40979 20.8266C5.39592 20.8297 5.33835 20.698 5.28179 20.5339C5.22523 20.3698 5.20619 20.2296 5.23941 20.2223C5.27262 20.2149 5.33025 20.3466 5.36741 20.515ZM6.29373 32.0862C6.35441 32.1656 6.40123 32.1437 6.39775 32.0379C6.39428 31.9321 6.34466 31.8673 6.2874 31.8937C6.22415 31.9231 6.22663 31.9987 6.29373 32.0862ZM48.0142 28.2986C48.0177 28.4044 47.9708 28.4263 47.9102 28.3469C47.8431 28.2593 47.8406 28.1838 47.9038 28.1544C47.9611 28.1279 48.0107 28.1927 48.0142 28.2986ZM8.06597 37.8957C8.10313 38.0641 8.1063 38.2078 8.07308 38.2152C8.03986 38.2225 7.9981 38.0873 7.98035 37.9146C7.96261 37.742 7.95938 37.5983 7.97325 37.5952C7.98712 37.5921 8.02882 37.7274 8.06597 37.8957ZM26.0667 38.7546C26.2458 39.2739 26.2008 39.4023 26.0108 38.9137C25.9016 38.6328 25.8585 38.4581 25.8964 38.4497C25.9297 38.4423 26.0064 38.5795 26.0667 38.7546ZM29.8525 38.7084C29.8616 38.5885 29.826 38.3656 29.7733 38.2129C29.7183 38.0533 29.8227 37.9031 30.0187 37.8598C30.2156 37.8162 30.3999 37.9245 30.4548 38.1159C30.5071 38.2982 30.6866 38.4938 30.8538 38.5503C31.2702 38.6914 31.2905 39.1812 30.8786 39.15C30.6308 39.1312 30.5691 39.2302 30.6369 39.5375C30.7516 40.0573 30.5484 40.1288 30.3959 39.6223C30.3303 39.404 30.3322 39.4791 30.4004 39.8007C30.4652 40.1058 30.4816 40.2903 30.4369 40.2103C30.3922 40.1306 30.3721 40.3431 30.3921 40.6828C30.4349 41.4078 30.1893 41.578 30.0449 40.9239C29.971 40.589 29.9078 40.5381 29.7802 40.7101C29.6487 40.8878 29.5983 40.8428 29.546 40.5012C29.5093 40.2615 29.5189 40.0716 29.5672 40.0789C29.6155 40.0862 29.6456 39.8828 29.6342 39.6272C29.6161 39.2232 29.5941 39.1953 29.4661 39.4149C29.385 39.5538 29.29 39.7411 29.2551 39.831C29.2201 39.9213 29.1477 39.8676 29.0941 39.7125C29.0406 39.5571 29.1055 39.3055 29.2384 39.1535C29.3713 39.0012 29.471 38.6902 29.46 38.4622C29.4437 38.1223 29.4757 38.1268 29.638 38.4867C29.7469 38.7285 29.8434 38.8282 29.8525 38.7084ZM37.8259 36.5797C37.8814 36.831 37.5602 37.0346 37.4792 36.7995C37.4321 36.6629 37.485 36.5308 37.5967 36.5062C37.7084 36.4815 37.8115 36.5145 37.8259 36.5797ZM27.8101 40.7259C27.9124 41.4221 27.7649 41.0955 27.5973 40.2542C27.3889 39.2081 27.3884 39.1993 27.5702 39.7376C27.6625 40.0109 27.7704 40.4557 27.8101 40.7259ZM31.6019 38.6835C31.5818 38.776 31.5058 38.7982 31.4331 38.7327C31.3605 38.6672 31.3769 38.5917 31.4698 38.5647C31.5626 38.5378 31.622 38.5911 31.6019 38.6835ZM33.5538 38.379C33.2649 38.8091 31.961 39.0854 31.781 38.7544C31.6808 38.5701 31.988 38.4095 32.6932 38.2767C33.4206 38.1404 33.6925 38.1724 33.5538 38.379ZM34.7156 38.0147C34.6447 38.1039 34.5035 38.1351 34.4017 38.0841C34.2998 38.0331 34.3579 37.9602 34.5305 37.9221C34.7032 37.8839 34.7865 37.9255 34.7156 38.0147ZM35.2542 37.8784C35.2337 37.9721 35.1695 37.9863 35.1115 37.9099C35.0536 37.8338 35.0703 37.7572 35.1488 37.7399C35.2273 37.7225 35.2747 37.7849 35.2542 37.8784ZM35.8249 37.7522C35.8045 37.846 35.7403 37.8602 35.6823 37.7838C35.6243 37.7076 35.6411 37.6311 35.7196 37.6137C35.798 37.5964 35.8455 37.6588 35.8249 37.7522ZM26.1634 40.1528C26.2617 40.5985 26.255 41.5791 26.1535 41.5925C26.0401 41.6073 26.0356 41.5842 26.0372 40.9951L26.039 40.3825L25.7683 40.3187C25.5305 40.2628 25.5361 40.2397 25.8139 40.1292C25.988 40.0599 26.1452 40.0704 26.1634 40.1528ZM26.441 40.1283C26.4445 40.2342 26.3977 40.2561 26.337 40.1767C26.2699 40.0891 26.2674 40.0136 26.3307 39.9842C26.3879 39.9577 26.4376 40.0225 26.441 40.1283ZM29.965 39.4767C30.0021 39.6451 30.0598 39.7768 30.093 39.7695C30.1262 39.7621 30.1072 39.6219 30.0506 39.4578C29.994 39.2937 29.9365 39.162 29.9226 39.1651C29.9087 39.1681 29.9278 39.3084 29.965 39.4767ZM47.7881 35.4109C47.7915 35.5168 47.7447 35.5387 47.684 35.4593C47.6169 35.3717 47.6145 35.2962 47.6777 35.2668C47.735 35.2403 47.7846 35.3051 47.7881 35.4109ZM48.2213 35.3338C48.2008 35.4276 48.1366 35.4418 48.0786 35.3654C48.0206 35.2893 48.0374 35.2127 48.1159 35.1953C48.1943 35.178 48.2418 35.2404 48.2213 35.3338ZM23.7689 41.0399C23.7723 41.1457 23.7255 41.1676 23.6648 41.0882C23.5977 41.0006 23.5953 40.9251 23.6585 40.8957C23.7158 40.8693 23.7654 40.9341 23.7689 41.0399ZM25.4089 40.8649C25.4406 41.0676 25.4458 41.3017 25.4206 41.3853C25.3948 41.4709 25.3599 41.3923 25.3406 41.2052C25.3214 41.0188 25.2369 40.8272 25.1478 40.7685C25.0348 40.694 25.0412 40.6396 25.1701 40.58C25.2883 40.5253 25.3713 40.6245 25.4089 40.8649ZM27.2748 40.7133C27.3315 41.0689 27.3996 41.3277 27.4346 41.32C27.4681 41.3126 27.5208 41.4213 27.5518 41.5615C27.6395 41.9591 27.3655 41.8203 27.2179 41.3923C27.1158 41.0961 27.0759 41.0952 27.0411 41.3886C27.0163 41.597 26.9481 41.6817 26.8893 41.5766C26.7706 41.3646 26.9213 40.2167 27.0776 40.1408C27.152 40.1048 27.1999 40.2441 27.2748 40.7133ZM37.9949 38.0233C38.0514 38.1873 38.0705 38.3276 38.0373 38.3349C38.004 38.3422 37.9464 38.2105 37.9093 38.0422C37.8721 37.8738 37.853 37.7336 37.8669 37.7305C37.8807 37.7275 37.9383 37.8592 37.9949 38.0233ZM38.4993 37.7323C38.5158 37.8067 38.5222 37.9581 38.5138 38.0691C38.5054 38.1801 38.4663 38.1249 38.4269 37.9467C38.3876 37.7686 38.3811 37.6169 38.4125 37.6099C38.4439 37.603 38.4829 37.6579 38.4993 37.7323ZM46.8626 35.9532C46.8424 36.0456 46.7665 36.0678 46.6938 36.0024C46.6211 35.9369 46.6376 35.8613 46.7304 35.8344C46.8233 35.8075 46.8827 35.8608 46.8626 35.9532ZM47.1707 35.8684C47.1742 35.9742 47.1273 35.9961 47.0667 35.9167C46.9996 35.8292 46.9971 35.7536 47.0603 35.7243C47.1176 35.6978 47.1672 35.7626 47.1707 35.8684ZM24.7063 41.2809C24.7628 41.4449 24.7819 41.5852 24.7487 41.5925C24.7154 41.5999 24.6578 41.4681 24.6207 41.2998C24.5835 41.1314 24.5644 40.9912 24.5783 40.9881C24.5921 40.9851 24.6497 41.1168 24.7063 41.2809ZM31.4277 39.6684C31.4312 39.7742 31.3844 39.7961 31.3237 39.7167C31.2566 39.6292 31.2541 39.5536 31.3174 39.5242C31.3746 39.4978 31.4243 39.5626 31.4277 39.6684ZM31.7131 39.6053C31.7166 39.7111 31.6698 39.733 31.6091 39.6537C31.542 39.5661 31.5395 39.4906 31.6028 39.4612C31.66 39.4347 31.7097 39.4995 31.7131 39.6053ZM32.3028 39.7626C32.3586 40.0152 32.4298 40.2161 32.4612 40.2092C32.4926 40.2022 32.4803 40.0245 32.4338 39.814C32.371 39.5299 32.4802 39.4294 32.8571 39.4231C33.1643 39.4182 33.3774 39.5348 33.3963 39.7184C33.4134 39.8851 33.3651 39.9545 33.2889 39.8725C33.2127 39.7905 33.1219 39.9486 33.087 40.2234C33.0309 40.6659 33.01 40.6712 32.9043 40.2698C32.7708 39.7632 32.4967 39.7022 32.5469 40.1902C32.5819 40.5308 32.366 40.671 32.245 40.386C32.1237 40.1005 32.0359 39.3401 32.122 39.3211C32.1657 39.3114 32.2471 39.5101 32.3028 39.7626ZM37.554 38.6022C37.5796 39.0042 37.6077 39.0719 37.7373 39.0432C37.8248 39.0239 37.9041 39.1438 37.9226 39.3233C37.9404 39.4959 37.9008 39.6491 37.8346 39.6638C37.7684 39.6784 37.7544 39.7849 37.8034 39.9002C37.8524 40.0155 38.091 40.0215 38.3337 39.914C38.728 39.7389 38.7832 39.7736 38.8516 40.239C38.9019 40.5817 38.9418 40.7064 38.9684 40.6039C38.9906 40.5177 38.9682 40.2941 38.9185 40.1064C38.8689 39.9187 38.894 39.7507 38.9743 39.7329C39.0572 39.7146 39.1344 39.8365 39.1527 40.0145C39.1704 40.1872 39.2122 40.3224 39.2454 40.3151C39.2786 40.3077 39.2755 40.164 39.2383 39.9956C39.1259 39.4863 39.3761 39.6056 39.5338 40.1367C39.6147 40.409 39.6824 40.6798 39.6844 40.7384C39.6862 40.7968 39.443 40.9382 39.1437 41.0524C38.7465 41.2041 38.5705 41.1586 38.4914 40.883C38.4318 40.6756 38.3323 40.5168 38.2703 40.5305C38.2083 40.5442 38.2038 40.6897 38.2604 40.8537C38.3204 41.0276 38.2905 41.1681 38.1886 41.1906C38.0926 41.2118 37.9836 41.0915 37.9465 40.9231C37.9093 40.7548 37.7839 40.638 37.6677 40.6637C37.4368 40.7147 37.3583 40.2188 37.5614 39.9922C37.6517 39.8913 37.6399 39.6484 37.5138 39.0124C37.4109 38.4939 37.3804 38.159 37.4349 38.147C37.5074 38.131 37.5293 38.2147 37.554 38.6022ZM43.2876 37.5939C43.3698 37.6679 43.3119 37.7413 43.1591 37.7574C43.0063 37.7736 42.8544 37.6652 42.8217 37.5171C42.789 37.3686 42.8373 37.3284 42.9291 37.4272C43.0566 37.5644 43.0634 37.5115 42.9576 37.2017C42.8489 36.8832 42.8534 36.8674 42.9788 37.128C43.0665 37.3105 43.2055 37.5199 43.2876 37.5939ZM36.1323 39.0769C36.15 39.2495 36.1404 39.3961 36.1108 39.4027C36.0813 39.4092 36.0267 39.2768 35.9896 39.1084C35.9524 38.9401 35.9621 38.7935 36.011 38.7827C36.0599 38.7719 36.1145 38.9043 36.1323 39.0769ZM30.1211 40.7263C30.3164 41.0854 30.3769 41.072 30.2923 40.6885C30.2551 40.5201 30.1674 40.3973 30.0973 40.4154C29.9944 40.4423 29.9989 40.5016 30.1211 40.7263ZM35.5157 39.6735C35.5705 39.922 35.6908 40.1439 35.7932 40.1852C35.9382 40.2437 35.9337 40.2973 35.7709 40.4569C35.5858 40.6381 35.5543 40.5943 35.4148 39.9625C35.3301 39.5784 35.2968 39.2615 35.3403 39.2519C35.3835 39.2424 35.4624 39.432 35.5157 39.6735ZM37.2457 39.104C37.2796 39.2577 37.2058 39.414 37.0817 39.4513C36.9575 39.4884 36.8453 39.4159 36.8324 39.2904C36.7974 38.9495 37.1741 38.7796 37.2457 39.104ZM19.5436 43.3848C19.6002 43.5489 19.6064 43.6919 19.5575 43.7028C19.5086 43.7136 19.4381 43.5847 19.4009 43.4163C19.3638 43.248 19.3575 43.1049 19.3871 43.0984C19.4167 43.0918 19.4871 43.2207 19.5436 43.3848ZM30.8775 40.8991C30.9168 41.0772 30.8997 41.135 30.8392 41.027C30.7788 40.919 30.7488 41.0255 30.7726 41.2635C30.8068 41.6059 30.7909 41.5844 30.6968 41.1609C30.6227 40.828 30.6208 40.6159 30.6918 40.6002C30.7546 40.5863 30.8382 40.721 30.8775 40.8991ZM31.6557 40.6279C31.6836 40.754 31.6446 40.8712 31.5691 40.8878C31.4937 40.9045 31.421 40.8121 31.4077 40.6827C31.3944 40.5534 31.4333 40.4363 31.4943 40.4228C31.5552 40.4094 31.6279 40.5018 31.6557 40.6279ZM42.5459 38.3016C42.5637 38.4743 42.5197 38.6181 42.4484 38.6217C42.3233 38.6275 42.3206 38.6175 42.3747 38.3395C42.4518 37.9426 42.5077 37.9303 42.5459 38.3016ZM46.7411 37.3745C46.7783 37.5429 46.867 37.67 46.9381 37.6568C47.0093 37.644 47.1356 37.7583 47.2187 37.911C47.3301 38.1159 47.3061 38.2207 47.1272 38.3101C46.9937 38.3768 46.8067 38.5058 46.7115 38.5965C46.6163 38.6875 45.6613 38.998 44.5891 39.2867C43.5169 39.5753 42.7711 39.6746 42.9317 39.5072C43.0924 39.3401 43.3333 39.0891 43.4671 38.9497C43.9815 38.4145 44.6899 38.1482 44.794 38.4504C44.8518 38.618 44.9061 38.6619 44.9148 38.5479C44.9235 38.4343 45.0286 38.5 45.1484 38.6944C45.2683 38.8887 45.3909 38.9374 45.421 38.8023C45.451 38.6673 45.6548 38.4919 45.8739 38.4127C46.093 38.3335 46.2691 38.1748 46.2654 38.0601C46.2616 37.9457 46.363 37.9088 46.4906 37.9782C46.6751 38.0787 46.7001 38.0025 46.6125 37.6055C46.5519 37.3309 46.5409 37.0978 46.5879 37.0874C46.635 37.077 46.704 37.2062 46.7411 37.3745ZM48.4371 37.08C48.5312 37.3802 48.5446 37.3773 48.5036 37.0653C48.4487 36.646 48.8962 36.4097 49.0271 36.7891C49.0694 36.912 48.9804 36.9895 48.8291 36.9609C48.6573 36.9286 48.5819 37.0358 48.6283 37.2461C48.741 37.7566 48.4489 37.7088 48.2953 37.1916C48.1321 36.6421 48.2665 36.5363 48.4371 37.08ZM35.2505 40.2348C35.2682 40.4075 35.2114 40.5542 35.1244 40.5612C34.983 40.5722 34.972 40.5426 35.0221 40.2853C35.1 39.8848 35.2119 39.86 35.2505 40.2348ZM40.6157 39.0492C40.6335 39.2218 40.7009 39.3514 40.7656 39.3371C40.8302 39.3228 40.8527 39.1734 40.8155 39.005C40.7357 38.6435 40.8644 38.7008 41.0535 39.111C41.2269 39.4871 41.0878 40.2495 40.8799 40.062C40.7996 39.9896 40.7497 40.0837 40.769 40.2714C40.7883 40.4592 40.7656 40.6212 40.7185 40.6316C40.6714 40.642 40.6172 40.4982 40.5981 40.3124C40.574 40.0783 40.4969 40.0571 40.347 40.2437C40.2158 40.4072 40.1049 40.3961 40.065 40.2152C40.0288 40.0514 40.1284 39.8031 40.2865 39.6638C40.4446 39.5245 40.5509 39.2641 40.5229 39.0851C40.495 38.9064 40.4972 38.7544 40.5278 38.7476C40.5584 38.7408 40.598 38.8765 40.6157 39.0492ZM42.2424 38.6647C42.2314 38.8247 42.1354 38.9211 42.0291 38.8787C41.8803 38.8195 41.8597 38.9415 41.9393 39.4099C41.9962 39.7444 42.0208 40.0227 41.9941 40.0286C41.9325 40.0423 41.7789 39.031 41.7943 38.7133C41.8007 38.5822 41.9087 38.4524 42.0343 38.4246C42.1901 38.3902 42.2562 38.4664 42.2424 38.6647ZM22.2108 43.3999C22.2913 43.7644 22.1348 44.1043 22.0286 43.7961C21.9821 43.6613 21.961 43.4743 21.9816 43.3802C22.0427 43.1015 22.147 43.1106 22.2108 43.3999ZM22.9607 43.2717C22.9979 43.4401 23.0041 43.5831 22.9746 43.5897C22.945 43.5962 22.8746 43.4673 22.818 43.3032C22.7615 43.1392 22.7553 42.9961 22.8042 42.9853C22.8531 42.9745 22.9236 43.1034 22.9607 43.2717ZM23.9807 43.0113C24.0829 43.4741 23.6879 43.6648 23.4412 43.2718C23.2252 42.9275 23.2343 42.8941 23.5642 42.8192C23.7602 42.775 23.9476 42.8613 23.9807 43.0113ZM24.1822 43.09C24.2559 43.4577 24.162 43.404 24.0504 43.0149C23.9932 42.8156 23.9895 42.7009 24.042 42.7599C24.0945 42.8189 24.1576 42.9674 24.1822 43.09ZM24.9004 43.9425C24.937 44.0979 24.8608 43.9702 24.731 43.659C24.5711 43.2754 24.4999 43.0182 24.51 42.861C24.5234 42.65 24.7321 43.2282 24.9004 43.9425ZM25.127 42.6668C25.2959 42.8802 25.4057 43.3734 25.2899 43.399C25.241 43.4098 25.2444 43.5449 25.2975 43.6988C25.3507 43.853 25.3378 43.9698 25.2688 43.9581C25.1399 43.9365 24.9572 43.1962 24.9711 42.752C24.9802 42.4611 24.9689 42.4671 25.127 42.6668ZM47.5612 37.8354C47.5983 38.0037 47.5833 38.1492 47.5278 38.1589C47.4415 38.1738 47.4298 38.1302 47.447 37.8606C47.4723 37.4633 47.4787 37.4619 47.5612 37.8354ZM25.8364 43.1361C25.7613 43.4897 25.7693 43.5627 25.895 43.673C26.0127 43.7764 26.0146 43.8135 25.9052 43.8678C25.8271 43.9066 25.6897 43.7036 25.5806 43.3884C25.4072 42.8874 25.4137 42.8368 25.6574 42.7843C25.9209 42.7273 25.9225 42.7305 25.8364 43.1361ZM26.6989 43.3156C26.8643 43.9557 26.869 44.0414 26.7318 43.9144C26.6438 43.833 26.4677 43.783 26.3405 43.8034C26.1534 43.8336 26.1152 43.7759 26.1407 43.5025C26.1579 43.3167 26.1303 43.0435 26.0792 42.8952C26.0282 42.7473 26.1033 42.6132 26.2461 42.5974C26.4737 42.5721 26.5297 42.6609 26.6989 43.3156ZM28.3661 42.9C28.5213 43.3215 28.5633 43.3578 28.5535 43.0617C28.5361 42.5311 28.6692 42.5563 28.7908 43.1069C28.8697 43.4647 28.8184 43.5769 28.5586 43.6144C28.3751 43.6411 28.2418 43.5862 28.2623 43.4927C28.3499 43.0923 28.1527 42.7664 27.8618 42.8307C27.5222 42.9057 27.5403 43.4214 27.8872 43.556C28.0194 43.607 27.9811 43.6839 27.7859 43.7591C27.6097 43.827 27.4228 43.7376 27.3601 43.5556C27.2796 43.3221 27.2515 43.3283 27.2597 43.5778C27.266 43.7684 27.2326 43.9328 27.1855 43.9432C27.1222 43.9572 27.0968 43.8687 27.0881 43.6045C27.0816 43.4079 27.0183 43.0514 26.9472 42.8122C26.8381 42.4447 26.9224 42.376 27.4922 42.3673C28.0577 42.3585 28.1983 42.444 28.3661 42.9ZM29.6193 42.5226C29.6952 42.8644 29.2937 42.886 29.1765 42.5462C29.1157 42.3699 29.1734 42.2615 29.322 42.2733C29.4575 42.2842 29.5913 42.3965 29.6193 42.5226ZM31.6535 41.9738C31.6885 42.1324 31.7101 42.3523 31.7017 42.463C31.675 42.815 30.0998 43.0042 29.8938 42.6802C29.7891 42.5155 30.4265 42.044 30.9873 41.8713C31.333 41.765 31.617 41.8085 31.6535 41.9738ZM34.1957 41.5982C34.3271 41.9075 34.2432 42.0407 33.7451 42.3135C33.2344 42.5936 32.5704 42.3314 32.454 41.8037C32.3946 41.5346 34.0842 41.3355 34.1957 41.5982ZM36.2602 41.2842C35.931 41.5419 35.6255 41.4733 35.6496 41.1469C35.6577 41.0363 35.8674 40.9681 36.1155 40.9952L36.5665 41.0444L36.2602 41.2842ZM37.194 40.7684C37.2311 40.9367 37.2502 41.077 37.2364 41.08C37.2225 41.0831 37.1649 40.9514 37.1084 40.7873C37.0518 40.6232 37.0328 40.483 37.066 40.4757C37.0992 40.4683 37.1568 40.6 37.194 40.7684ZM38.4782 40.4846C38.496 40.6572 38.5506 40.7896 38.5995 40.7788C38.6484 40.768 38.6581 40.6214 38.6209 40.4531C38.5838 40.2847 38.5292 40.1523 38.4997 40.1588C38.4701 40.1654 38.4605 40.312 38.4782 40.4846ZM50.2897 37.7726C50.3504 37.852 50.3972 37.8301 50.3938 37.7243C50.3903 37.6185 50.3407 37.5537 50.2834 37.5802C50.2202 37.6095 50.2226 37.6851 50.2897 37.7726ZM37.0016 41.1017C37.0177 41.2581 36.9636 41.3255 36.8815 41.2512C36.6758 41.0659 36.6515 40.8883 36.8263 40.8496C36.9067 40.8319 36.9856 40.9454 37.0016 41.1017ZM39.9356 40.375C39.9152 40.4688 39.851 40.483 39.7929 40.4066C39.735 40.3305 39.7517 40.2539 39.8302 40.2365C39.9087 40.2192 39.9562 40.2816 39.9356 40.375ZM42.5612 39.7948C42.5408 39.8886 42.4765 39.9028 42.4185 39.8264C42.3606 39.7502 42.3773 39.6737 42.4558 39.6563C42.5343 39.639 42.5817 39.7014 42.5612 39.7948ZM50.2315 39.4924C50.2881 39.6564 50.3456 39.7882 50.3595 39.7851C50.3734 39.782 50.3543 39.6418 50.3171 39.4735C50.28 39.3051 50.2224 39.1734 50.1891 39.1807C50.1559 39.1881 50.175 39.3283 50.2315 39.4924ZM51.712 39.0634C51.7727 39.1428 51.8195 39.1209 51.816 39.0151C51.8125 38.9093 51.7629 38.8445 51.7057 38.8709C51.6424 38.9003 51.6449 38.9759 51.712 39.0634ZM29.2268 48.0666C29.2547 48.1927 28.7517 48.3854 28.1092 48.4946C27.3003 48.632 27.0783 48.6069 27.3878 48.4133C28.03 48.0113 29.1671 47.797 29.2268 48.0666ZM29.8224 48.0528C29.8366 48.1171 29.7228 48.1808 29.5692 48.1938C29.3292 48.2141 29.3076 48.1829 29.4153 47.971C29.5323 47.7407 29.7639 47.7874 29.8224 48.0528ZM26.8717 48.7193C26.8513 48.8131 26.7871 48.8273 26.729 48.7508C26.6711 48.6747 26.6878 48.5981 26.7663 48.5808C26.8448 48.5635 26.8923 48.6258 26.8717 48.7193ZM21.8501 50.5134C21.9204 50.6443 21.7132 50.8182 21.3834 50.9048C21.0572 50.9907 20.7808 50.969 20.7692 50.8563C20.7376 50.5487 21.7041 50.2423 21.8501 50.5134ZM47.9983 45.0204C48.059 45.0998 48.1058 45.0779 48.1024 44.9721C48.0989 44.8663 48.0493 44.8015 47.992 44.8279C47.9288 44.8573 47.9312 44.9328 47.9983 45.0204ZM43.8891 46.2242C43.8926 46.33 43.8457 46.3519 43.7851 46.2725C43.718 46.1849 43.7155 46.1094 43.7787 46.08C43.836 46.0536 43.8856 46.1183 43.8891 46.2242ZM24.1974 51.2634C24.545 51.243 25.1101 51.1185 25.4532 50.9862C25.7962 50.8539 25.5117 50.8705 24.821 51.0228C24.1303 51.1751 23.8497 51.2834 24.1974 51.2634ZM29.3447 50.2774C29.4112 50.4338 29.5013 50.4974 29.545 50.4181C29.6038 50.3117 29.5724 50.2377 29.4241 50.1337C29.2948 50.0425 29.2667 50.0937 29.3447 50.2774ZM47.0024 46.2036C47.063 46.2829 47.1099 46.261 47.1064 46.1552C47.1029 46.0494 47.0533 45.9846 46.996 46.0111C46.9328 46.0405 46.9353 46.116 47.0024 46.2036ZM29.8312 50.3269C29.9184 50.3843 30.0205 50.3589 30.0582 50.2703C30.0958 50.1817 30.0245 50.1346 29.8997 50.1657C29.7748 50.1968 29.7441 50.2694 29.8312 50.3269ZM30.6303 50.1503C30.7174 50.2078 30.8196 50.1823 30.8572 50.0937C30.8949 50.0051 30.8236 49.958 30.6988 49.9891C30.5739 50.0202 30.5431 50.0928 30.6303 50.1503ZM32.4013 49.7647C32.5188 49.81 32.6727 49.7747 32.743 49.686C32.8134 49.5969 32.7171 49.5598 32.5292 49.6032C32.3411 49.6464 32.2836 49.7191 32.4013 49.7647ZM33.2282 49.5797C33.3304 49.6307 33.4584 49.6004 33.5126 49.5124C33.5668 49.4243 33.4831 49.3825 33.3266 49.4193C33.1702 49.4564 33.1259 49.5285 33.2282 49.5797ZM40.7026 47.9187C40.7745 47.9837 40.8645 47.9638 40.9024 47.8745C40.9403 47.7856 40.8815 47.7324 40.7716 47.7567C40.6617 47.781 40.6307 47.854 40.7026 47.9187ZM41.6425 47.7023C41.7006 47.7787 41.7648 47.7645 41.7852 47.6708C41.8058 47.5773 41.7583 47.5149 41.6798 47.5323C41.6014 47.5496 41.5846 47.6262 41.6425 47.7023Z" fill="#DF1931"/>
<path fill-rule="evenodd" clip-rule="evenodd" d="M29.856 15.6648C28.5 15.6648 27.4007 16.7648 27.4007 18.1217V31.7713C27.4007 33.1283 28.5 34.2283 29.856 34.2283C31.2121 34.2283 32.3114 33.1283 32.3114 31.7713V18.1217C32.3114 16.7648 31.2121 15.6648 29.856 15.6648ZM20.8532 21.9435C20.8532 20.5866 21.9525 19.4866 23.3085 19.4866C24.6646 19.4866 25.7639 20.5866 25.7639 21.9435V31.7712C25.7639 33.1281 24.6646 34.2281 23.3085 34.2281C21.9525 34.2281 20.8532 33.1281 20.8532 31.7712V21.9435ZM14.3057 23.0356C14.3057 21.6787 15.405 20.5787 16.761 20.5787C18.117 20.5787 19.2163 21.6787 19.2163 23.0356V30.1334C19.2163 31.4903 18.117 32.5903 16.761 32.5903C15.405 32.5903 14.3057 31.4903 14.3057 30.1334V23.0356ZM33.9482 20.8517C33.9482 19.4948 35.0475 18.3948 36.4036 18.3948C37.7596 18.3948 38.8589 19.4948 38.8589 20.8517V31.7714C38.8589 33.1283 37.7596 34.2283 36.4036 34.2283C35.0475 34.2283 33.9482 33.1283 33.9482 31.7714V20.8517ZM28.2194 36.4121C26.8634 36.4121 25.7641 37.5121 25.7641 38.869C25.7641 40.226 26.8634 41.326 28.2194 41.326H36.4039C37.7599 41.326 38.8592 40.226 38.8592 38.869C38.8592 37.5121 37.7599 36.4121 36.4039 36.4121H28.2194Z" fill="#DF1931"/>
<path fill-rule="evenodd" clip-rule="evenodd" d="M33.9486 31.7713V20.8351C33.9575 19.4858 35.0534 18.3948 36.4039 18.3948C37.7599 18.3948 38.8592 19.4948 38.8592 20.8517V31.7714C38.8592 33.1283 37.7599 34.2283 36.4039 34.2283C35.0522 34.2283 33.9556 33.1354 33.9486 31.7846L33.9486 31.7713ZM29.8563 14.0269C31.9399 14.0269 33.6598 15.585 33.9157 17.6004C34.6052 17.0713 35.4678 16.7568 36.4039 16.7568C38.6639 16.7568 40.4961 18.5902 40.4961 20.8517V31.7714C40.4961 33.2883 39.6719 34.6125 38.4471 35.3201C39.672 36.0277 40.4964 37.352 40.4964 38.869C40.4964 41.1306 38.6643 42.9639 36.4042 42.9639H28.2197C25.9596 42.9639 24.1275 41.1306 24.1275 38.869C24.1275 36.9546 25.4404 35.347 27.2144 34.8986C26.9796 34.6998 26.7675 34.475 26.5825 34.2287C25.8359 35.223 24.6474 35.8661 23.3088 35.8661C21.5511 35.8661 20.0523 34.7573 19.4728 33.2005C18.7508 33.84 17.8014 34.2283 16.7613 34.2283C14.5012 34.2283 12.6691 32.3949 12.6691 30.1334V23.0356C12.6691 20.7741 14.5012 18.9407 16.7613 18.9407C17.8841 18.9407 18.9014 19.3932 19.6408 20.126C20.3099 18.7763 21.7011 17.8486 23.3088 17.8486C24.23 17.8486 25.0802 18.1532 25.7641 18.6673V18.1217C25.7641 15.8602 27.5963 14.0269 29.8563 14.0269ZM32.6386 34.7742H33.6215C33.442 34.6075 33.2774 34.425 33.1301 34.2287C32.9827 34.425 32.8182 34.6075 32.6386 34.7742ZM32.3117 18.1217V20.8306L32.3116 20.8517V31.7714L32.3116 31.7843C32.3047 33.1353 31.2081 34.2283 29.8563 34.2283C28.5051 34.2283 27.4087 33.136 27.401 31.7857L27.4011 31.7712V21.9435L27.401 21.92V18.1217C27.401 16.7648 28.5003 15.6648 29.8563 15.6648C31.2124 15.6648 32.3117 16.7648 32.3117 18.1217ZM25.7641 21.9256V31.7713L25.7641 31.7854C25.7565 33.1358 24.6601 34.2282 23.3088 34.2282C21.9528 34.2282 20.8535 33.1282 20.8535 31.7712V30.1549L20.8535 30.1334V23.0356L20.8535 23.0141V21.9435C20.8535 20.5866 21.9528 19.4866 23.3088 19.4866C24.6589 19.4866 25.7545 20.5769 25.7641 21.9256ZM19.2166 30.1504V23.0187C19.2075 21.6695 18.1117 20.5787 16.7613 20.5787C15.4053 20.5787 14.306 21.6787 14.306 23.0356V30.1334C14.306 31.4903 15.4053 32.5903 16.7613 32.5903C18.1117 32.5903 19.2075 31.4995 19.2166 30.1504ZM25.7644 38.869C25.7644 37.5121 26.8637 36.4121 28.2197 36.4121H36.4042C37.7602 36.4121 38.8595 37.5121 38.8595 38.869C38.8595 40.226 37.7602 41.326 36.4042 41.326H28.2197C26.8637 41.326 25.7644 40.226 25.7644 38.869Z" fill="white"/>
<path d="M112.569 22.837H110.772C110.566 22.837 110.463 22.8886 110.463 22.9917V34.9807H108.435C107.997 34.9807 107.707 34.9098 107.565 34.768C107.436 34.6262 107.372 34.3296 107.372 33.8785V22.1022C107.372 21.651 107.436 21.3545 107.565 21.2127C107.707 21.0709 107.997 21 108.435 21H112.569V22.837ZM113.342 21H115.371C115.809 21 116.092 21.0709 116.221 21.2127C116.363 21.3545 116.434 21.651 116.434 22.1022V33.8591C116.434 34.3103 116.363 34.6133 116.221 34.768C116.079 34.9098 115.796 34.9807 115.371 34.9807H113.342V28.5028H111.236V26.6657H113.342V21Z" fill="white"/>
<path d="M129.791 21V33.8785C129.791 34.3296 129.72 34.6262 129.578 34.768C129.45 34.9098 129.166 34.9807 128.728 34.9807H125.985C125.225 34.9807 124.722 34.8646 124.478 34.6326C124.246 34.4006 124.04 33.8011 123.859 32.8343C123.499 30.9263 122.977 27.8453 122.294 23.5912C122.243 23.2689 122.165 23.0626 122.062 22.9724C121.972 22.8821 121.811 22.8306 121.579 22.8177H119.203V21H123.396C123.718 21 123.975 21.0387 124.168 21.116C124.362 21.1934 124.516 21.361 124.632 21.6188C124.761 21.8637 124.845 22.1022 124.883 22.3343C124.935 22.5663 124.986 22.837 125.038 23.1464C125.102 23.5203 125.192 24.0681 125.308 24.7901C125.527 26.2468 125.869 28.3029 126.332 30.9586C126.513 32.093 126.635 32.7311 126.7 32.8729C126.777 33.0018 126.906 33.0792 127.086 33.105V21.7735C127.086 21.5414 127.15 21.3545 127.279 21.2127C127.408 21.0709 127.575 21 127.782 21H129.791ZM119.203 23.4945H121.212C121.418 23.4945 121.586 23.5654 121.715 23.7072C121.843 23.849 121.908 24.0359 121.908 24.268V33.8785C121.908 34.3168 121.85 34.6133 121.734 34.768C121.618 34.9098 121.386 34.9807 121.038 34.9807H119.203V23.4945Z" fill="white"/>
<path d="M135.885 34.9807H135.653C135.137 34.9807 134.706 34.942 134.358 34.8646C134.023 34.7873 133.727 34.6326 133.469 34.4006C133.225 34.1556 133.031 33.8849 132.89 33.5884C132.761 33.2919 132.658 32.8471 132.581 32.2541C132.465 31.3646 132.407 30.1722 132.407 28.6768C132.407 27.1685 132.413 26.105 132.426 25.4862C132.452 24.8674 132.503 24.268 132.581 23.6878C132.658 23.0948 132.761 22.6565 132.89 22.3729C133.031 22.0764 133.225 21.8122 133.469 21.5801C133.727 21.3352 134.023 21.1805 134.358 21.116C134.706 21.0387 135.137 21 135.653 21H135.885V34.9807ZM136.657 21H139.111C140.051 21 140.76 21.1611 141.236 21.4834C141.726 21.8057 141.971 22.3665 141.971 23.1657V24.9061C141.971 25.1768 141.881 25.3122 141.7 25.3122H139.266C139.085 25.3122 138.976 25.2864 138.937 25.2348C138.899 25.1832 138.879 25.0737 138.879 24.9061V23.3978C138.879 23.1915 138.847 23.0497 138.783 22.9724C138.731 22.8821 138.589 22.837 138.358 22.837H136.657V21ZM139.266 30.6685H141.7C141.881 30.6685 141.971 30.8039 141.971 31.0746V32.8149C141.971 33.6142 141.726 34.175 141.236 34.4972C140.76 34.8195 140.051 34.9807 139.111 34.9807H136.657V33.1436H138.358C138.589 33.1436 138.731 33.105 138.783 33.0276C138.847 32.9374 138.879 32.7891 138.879 32.5829V31.0746C138.879 30.907 138.899 30.7974 138.937 30.7459C138.976 30.6943 139.085 30.6685 139.266 30.6685Z" fill="white"/>
<path d="M147.427 34.9807H145.398C144.96 34.9807 144.67 34.9098 144.528 34.768C144.4 34.6262 144.335 34.3296 144.335 33.8785V22.1022C144.335 21.651 144.4 21.3545 144.528 21.2127C144.67 21.0709 144.96 21 145.398 21H147.427V34.9807ZM153.397 32.2735V33.9171C153.397 34.3554 153.326 34.6455 153.184 34.7873C153.043 34.9162 152.746 34.9807 152.295 34.9807H148.199V32.2735H153.397ZM152.238 26.5691V27.7293C152.238 28.1934 152.192 28.4899 152.102 28.6188C152.012 28.7348 151.755 28.7928 151.329 28.7928H148.199V26.5691H152.238ZM153.204 21V22.6436C153.204 23.082 153.133 23.372 152.991 23.5138C152.849 23.6427 152.553 23.7072 152.102 23.7072H148.199V21H153.204Z" fill="white"/>
<path d="M168.683 27.9613L168.702 31.2293C168.702 32.7634 168.509 33.7753 168.123 34.2652C167.736 34.7422 167.034 34.9807 166.017 34.9807H163.176V33.1436H164.606C164.928 33.1436 165.141 33.105 165.244 33.0276C165.347 32.9503 165.398 32.802 165.398 32.5829V23.4171C165.398 23.1851 165.347 23.0304 165.244 22.953C165.141 22.8757 164.928 22.837 164.606 22.837H163.176V21H166.21C167.15 21 167.801 21.2192 168.161 21.6575C168.535 22.0829 168.722 22.9208 168.722 24.1713L168.683 27.9613ZM162.597 35H160.568C160.143 35 159.86 34.9291 159.718 34.7873C159.576 34.6326 159.505 34.3361 159.505 33.8978V22.1022C159.505 21.6639 159.576 21.3738 159.718 21.232C159.86 21.0773 160.143 21 160.568 21H162.597V35Z" fill="white"/>
<path d="M176.59 22.837H174.793C174.587 22.837 174.484 22.8886 174.484 22.9917V34.9807H172.455C172.017 34.9807 171.727 34.9098 171.586 34.768C171.457 34.6262 171.392 34.3296 171.392 33.8785V22.1022C171.392 21.651 171.457 21.3545 171.586 21.2127C171.727 21.0709 172.017 21 172.455 21H176.59V22.837ZM177.363 21H179.391C179.829 21 180.113 21.0709 180.242 21.2127C180.383 21.3545 180.454 21.651 180.454 22.1022V33.8591C180.454 34.3103 180.383 34.6133 180.242 34.768C180.1 34.9098 179.816 34.9807 179.391 34.9807H177.363V28.5028H175.257V26.6657H177.363V21Z" fill="white"/>
<path d="M186.527 21V32.5829C186.527 32.7762 186.572 32.918 186.663 33.0083C186.766 33.0985 186.985 33.1436 187.319 33.1436H188.749V34.9807H186.295C185.78 34.9807 185.349 34.942 185.001 34.8646C184.666 34.7873 184.37 34.6326 184.112 34.4006C183.867 34.1556 183.674 33.8849 183.533 33.5884C183.404 33.2919 183.301 32.8471 183.223 32.2541C183.107 31.3646 183.049 30.1722 183.049 28.6768C183.049 27.1685 183.056 26.105 183.069 25.4862C183.095 24.8674 183.146 24.268 183.223 23.6878C183.301 23.0948 183.404 22.6565 183.533 22.3729C183.674 22.0764 183.867 21.8122 184.112 21.5801C184.37 21.3352 184.666 21.1805 185.001 21.116C185.349 21.0387 185.78 21 186.295 21H186.527ZM187.3 21.0193H189.754C190.269 21.0193 190.694 21.058 191.029 21.1354C191.377 21.2127 191.673 21.3738 191.918 21.6188C192.176 21.8508 192.369 22.1151 192.498 22.4116C192.639 22.7081 192.749 23.1529 192.826 23.7459C192.942 24.6354 193 25.8343 193 27.3425C193 28.8379 192.987 29.895 192.961 30.5138C192.948 31.1326 192.903 31.7385 192.826 32.3315C192.749 32.9116 192.639 33.3499 192.498 33.6464C192.369 33.93 192.176 34.1943 191.918 34.4392C191.673 34.6713 191.377 34.826 191.029 34.9033C190.694 34.9678 190.269 35 189.754 35H189.522V23.4171C189.522 23.2238 189.471 23.082 189.368 22.9917C189.277 22.9015 189.065 22.8564 188.73 22.8564H187.3V21.0193Z" fill="white"/>
<path d="M77.1336 27.9613L77.153 31.2293C77.153 32.7634 76.9598 33.7753 76.5733 34.2652C76.1869 34.7422 75.4849 34.9807 74.4673 34.9807H71.6271V33.1436H73.0569C73.3789 33.1436 73.5914 33.105 73.6945 33.0276C73.7975 32.9503 73.849 32.802 73.849 32.5829V23.4171C73.849 23.1851 73.7975 23.0304 73.6945 22.953C73.5914 22.8757 73.3789 22.837 73.0569 22.837H71.6271V21H74.6605C75.6008 21 76.2513 21.2192 76.612 21.6575C76.9855 22.0829 77.1723 22.9208 77.1723 24.1713L77.1336 27.9613ZM71.0475 35H69.0187C68.5937 35 68.3103 34.9291 68.1686 34.7873C68.0269 34.6326 67.9561 34.3361 67.9561 33.8978V22.1022C67.9561 21.6639 68.0269 21.3738 68.1686 21.232C68.3103 21.0773 68.5937 21 69.0187 21H71.0475V35Z" fill="#DF1931"/>
<path d="M82.9345 34.9807H80.9058C80.4679 34.9807 80.178 34.9098 80.0364 34.768C79.9075 34.6262 79.8431 34.3296 79.8431 33.8785V22.1022C79.8431 21.651 79.9075 21.3545 80.0364 21.2127C80.178 21.0709 80.4679 21 80.9058 21H82.9345V34.9807ZM88.9048 32.2735V33.9171C88.9048 34.3554 88.834 34.6455 88.6923 34.7873C88.5506 34.9162 88.2543 34.9807 87.8035 34.9807H83.7074V32.2735H88.9048ZM87.7455 26.5691V27.7293C87.7455 28.1934 87.7005 28.4899 87.6103 28.6188C87.5201 28.7348 87.2625 28.7928 86.8374 28.7928H83.7074V26.5691H87.7455ZM88.7116 21V22.6436C88.7116 23.082 88.6408 23.372 88.4991 23.5138C88.3574 23.6427 88.0611 23.7072 87.6103 23.7072H83.7074V21H88.7116Z" fill="#DF1931"/>
<path d="M94.1235 34.9807H92.0948C91.6568 34.9807 91.367 34.9098 91.2253 34.768C91.0965 34.6262 91.0321 34.3361 91.0321 33.8978V22.1215C91.0321 21.6703 91.103 21.3738 91.2446 21.232C91.3863 21.0773 91.6697 21 92.0948 21H94.1235V34.9807ZM98.9345 26.395V27.5552C98.9345 28.0193 98.8894 28.3158 98.7992 28.4448C98.7091 28.5608 98.4515 28.6188 98.0264 28.6188H94.8964V26.395H98.9345ZM99.7073 21V22.663C99.7073 23.1013 99.6365 23.3913 99.4948 23.5331C99.3531 23.6621 99.0569 23.7265 98.606 23.7265H94.8964V21H99.7073Z" fill="#DF1931"/>
<path d="M104.614 34.9807H102.586C102.148 34.9807 101.858 34.9098 101.716 34.768C101.587 34.6262 101.523 34.3296 101.523 33.8785V22.1022C101.523 21.651 101.587 21.3545 101.716 21.2127C101.858 21.0709 102.148 21 102.586 21H104.614V34.9807Z" fill="#DF1931"/>
</svg>
