<svg width="250" height="56" viewBox="0 0 250 56" fill="none" xmlns="http://www.w3.org/2000/svg">
<path fill-rule="evenodd" clip-rule="evenodd" d="M33.1069 4.42923C32.6791 4.64919 32.3128 4.87767 32.2931 4.93725C32.2733 4.99653 32.494 5.08344 32.7834 5.13007C33.3083 5.21477 33.3077 5.21555 32.5903 5.47333C32.1946 5.61555 31.6256 5.89984 31.3259 6.10491C30.9489 6.36306 31.1661 6.34672 32.0309 6.05181C34.0073 5.37807 36.0438 4.71831 36.3125 4.66426C36.4624 4.63425 36.5187 4.49787 36.4563 4.31651C36.3889 4.12053 36.864 3.90519 37.841 3.68878C38.8967 3.45493 39.3384 3.45822 39.3632 3.70022C39.3852 3.91492 39.4422 4.00375 39.5169 3.93968C39.5821 3.8835 39.692 3.91086 39.761 4.00055C39.8299 4.08993 40.3032 4.22523 40.8126 4.30115C41.322 4.37707 41.8616 4.53939 42.0117 4.66183C42.1618 4.78396 42.2595 4.77003 42.2289 4.63076C42.1523 4.28304 41.957 4.11411 40.9009 3.48161C40.7685 3.40243 40.5135 3.22072 40.3342 3.07808C39.9481 2.77068 34.2687 3.83256 33.1069 4.42923ZM15.8385 8.5923C15.6084 8.82208 15.6191 8.83415 16.0172 8.79349C16.4364 8.7504 16.5314 8.59356 16.2361 8.43168C16.152 8.38547 15.9731 8.45783 15.8385 8.5923ZM15.2453 8.88165C15.1942 8.94786 14.9476 9.14019 14.6974 9.30894C14.4471 9.47769 14.2647 9.71714 14.292 9.84141C14.3193 9.96538 14.4129 9.99377 14.5 9.90418C14.6213 9.77939 14.6549 9.82108 14.644 10.0835C14.6331 10.3434 14.6895 10.4044 14.8789 10.3371C15.1063 10.2565 15.1087 10.2316 14.906 10.0531L14.6837 9.85737L14.8845 9.77469C14.995 9.72937 15.1209 9.81319 15.1645 9.96115C15.2094 10.114 15.4305 10.0849 15.6771 9.89351C16.1448 9.53116 16.1098 9.41533 15.5669 9.52884C15.3785 9.56801 15.2736 9.5187 15.3337 9.41902C15.4371 9.24781 15.4828 8.58795 15.383 8.707C15.3583 8.73654 15.2963 8.81512 15.2453 8.88165ZM34.8894 4.5798C34.7081 4.68256 34.375 4.75666 34.1493 4.7447C33.9237 4.73305 34.072 4.64883 34.4791 4.55834C34.8861 4.46754 35.0707 4.47736 34.8894 4.5798ZM35.679 4.38018C35.6586 4.47394 35.5946 4.48812 35.5367 4.41171C35.4789 4.33559 35.4956 4.25902 35.5739 4.24167C35.6522 4.22433 35.6995 4.28671 35.679 4.38018ZM40.0742 3.72765C40.0538 3.82141 39.9897 3.8356 39.9318 3.75919C39.874 3.68306 39.8907 3.60649 39.969 3.58915C40.0473 3.57181 40.0947 3.63419 40.0742 3.72765ZM40.4734 3.63728C40.4534 3.72969 40.3776 3.75192 40.3051 3.68645C40.2326 3.62098 40.249 3.54542 40.3416 3.51849C40.4342 3.49155 40.4935 3.54488 40.4734 3.63728ZM16.1701 9.35223C16.2418 9.41723 16.3316 9.39735 16.3694 9.30808C16.4072 9.21912 16.3485 9.16599 16.2389 9.19027C16.1293 9.21455 16.0984 9.28753 16.1701 9.35223ZM16.7092 9.22414C16.7671 9.30055 16.8312 9.28636 16.8516 9.1926C16.8721 9.09914 16.8247 9.03676 16.7464 9.0541C16.6681 9.07144 16.6514 9.14801 16.7092 9.22414ZM5.919 12.1445C5.93401 12.2908 5.65459 12.4455 5.29802 12.4882C4.65118 12.5663 3.64141 13.2625 3.54183 13.6993C3.50847 13.8454 3.55574 14.2112 3.67089 14.6983C3.86688 15.5274 3.88225 15.5552 4.26539 15.7701C4.579 15.9463 4.70918 16.4368 4.44079 16.4311C4.26211 16.4274 4.26268 16.4972 4.44755 17.2652C4.62419 17.9991 4.62966 18.1083 4.49154 18.1431C4.29376 18.1933 4.28352 18.481 4.45004 19.3121C4.55839 19.8528 4.62757 19.9909 4.84966 20.11C5.20919 20.3029 5.28606 20.7298 5.00886 20.9944C4.7899 21.2034 4.7185 22.3755 4.89375 22.885C4.93731 23.0118 4.91609 23.2236 4.84654 23.3555C4.73719 23.5627 4.74401 23.6517 4.89682 24.0124C4.99406 24.2419 5.10799 24.4244 5.14993 24.4176C5.20745 24.4088 5.22103 24.4799 5.20526 24.7075C5.19056 24.9187 5.282 25.0169 5.51102 25.0359C5.83384 25.0626 5.84037 25.0746 6.06197 26.0567C6.18538 26.6033 6.267 27.0546 6.24354 27.0598C6.22008 27.065 6.26149 27.3447 6.33563 27.6814C6.43551 28.135 6.43223 28.3133 6.32299 28.3699C6.19451 28.4366 6.19596 28.4597 6.33461 28.5513C6.53717 28.6849 7.02082 29.4513 6.91857 29.4765C6.87533 29.487 6.89742 29.6834 6.96908 29.9253C7.15838 30.5643 7.12273 30.9394 6.82967 31.3934C6.56744 31.7995 6.49118 32.1412 6.67175 32.1012C6.72397 32.0897 6.81217 32.2868 6.86777 32.5393C6.94642 32.8965 6.89296 33.0153 6.6272 33.0741C6.25877 33.1558 6.27293 33.7658 6.64303 33.7563C6.78086 33.7528 6.82806 33.812 6.76686 33.9119C6.71241 34.0004 6.69407 34.1916 6.72609 34.337C6.7581 34.4824 6.75201 34.7007 6.71264 34.8224C6.6732 34.9438 6.68217 35.163 6.73232 35.3089C6.7826 35.4551 6.76824 35.7237 6.70046 35.906C6.59399 36.1925 6.63639 36.2297 7.0124 36.1798C7.45928 36.1206 7.54653 36.4393 7.21883 36.9337C7.0735 37.1527 7.07338 37.2593 7.21799 37.6321C7.35533 37.9863 7.38111 37.9924 7.35004 37.6642C7.31997 37.3469 7.35997 37.3862 7.52973 37.8404C7.72979 38.3755 7.74274 38.4519 7.68489 38.7537C7.63081 39.0353 7.67217 39.0968 7.97188 39.1813C8.28611 39.2696 8.31802 39.3206 8.28309 39.6793C8.26173 39.8991 8.15232 40.1955 8.03993 40.3379C7.69063 40.7806 7.74642 41.1509 8.15327 41.09L8.529 41.0334L8.26044 42.1192L7.99188 43.205L8.3103 43.295L8.62871 43.3849L8.38439 43.8734C8.21371 44.2149 8.1819 44.438 8.27877 44.6143C8.35508 44.7531 8.47129 44.867 8.53709 44.8675C8.65591 44.8684 8.65632 44.8703 8.59608 45.1305C8.552 45.3203 8.65272 45.4425 8.96272 45.5751C9.34986 45.7404 9.37087 45.7727 9.18641 45.9178C9.07442 46.0059 8.98683 46.2121 8.99162 46.3757C8.99703 46.5601 9.26101 46.6252 9.6862 46.5468C10.2158 46.449 10.3518 46.4982 10.2831 46.7622C10.2316 46.9608 10.2446 47.3335 10.3142 47.6494C10.4115 48.0914 10.3586 48.3252 10.0346 48.8849C9.8148 49.2646 9.69424 49.6146 9.76659 49.6624C9.87189 49.7322 9.8942 49.8072 9.87824 50.0377C9.86362 50.2496 9.89649 50.3197 10.0028 50.3035C10.0822 50.2914 10.2131 50.4014 10.2938 50.5479C10.4566 50.8437 10.4495 50.9265 10.2245 51.3484C10.1631 51.4635 10.1419 51.7558 10.1775 51.9983C10.2314 52.3671 10.3404 52.393 10.8478 52.1567C11.2955 51.9484 11.4506 51.9674 11.442 52.2293C11.4323 52.5284 11.4467 52.5724 11.5337 52.5101C11.706 52.3859 11.7692 52.4746 11.7497 52.8128C11.737 53.032 11.8249 53.0408 12.0245 52.8405C12.3898 52.4736 12.3674 52.4753 13.4345 52.7346C14.0884 52.8935 14.964 52.749 16.8058 52.1789C18.3346 51.7054 19.8042 51.4261 20.6177 51.4539C23.2989 51.5467 23.5614 51.5367 23.4808 51.3433C23.4356 51.2349 23.1169 51.1302 22.7727 51.1108C22.4285 51.0917 22.0954 50.9581 22.0326 50.8147C21.8761 50.4568 26.7858 49.3997 28.5997 49.4008C29.6402 49.4015 37.2277 48.1731 39.8315 47.5825C40.4124 47.4507 42.8636 46.5019 42.9573 46.3727C43.0344 46.2657 43.098 46.3181 43.1171 46.5045C43.1346 46.6747 43.1745 46.808 43.2058 46.8011C43.2371 46.7942 43.2482 46.6472 43.2305 46.4746C43.1883 46.0631 43.3994 46.0211 43.488 46.4233C43.5642 46.7695 44.9139 46.4921 45.8234 45.9436C46.2398 45.6925 46.3971 45.7042 46.4825 45.9925C46.5443 46.2009 46.632 46.3632 46.6775 46.3531C46.723 46.343 46.714 46.2006 46.6576 46.0365C46.6012 45.8724 46.5962 45.7044 46.6465 45.663C46.6968 45.6217 46.7697 45.5488 46.8084 45.5007C46.8471 45.453 47.016 45.3658 47.1838 45.3071C47.3696 45.2422 47.4377 45.1074 47.358 44.9626C47.2287 44.727 47.581 44.4031 48.6402 43.7846C49.1727 43.4737 49.3213 42.9136 48.8671 42.9301C48.7221 42.9353 48.5708 42.9133 48.5308 42.881C48.4909 42.8488 48.2071 42.8417 47.9003 42.8653L47.3423 42.9077L47.66 42.5876C47.8347 42.4115 48.2201 42.1685 48.5165 42.048C48.8128 41.9271 49.044 41.7192 49.0304 41.5858C49.0167 41.4524 49.0567 41.3318 49.1194 41.318C49.182 41.3041 49.1931 41.1761 49.144 41.0332C49.0945 40.8891 48.9714 40.9103 48.8673 41.0807C48.6571 41.4245 48.4129 41.5534 48.4054 41.3246C48.3953 41.0174 49.3345 39.6633 49.4532 39.8136C49.5225 39.9012 49.5454 39.7578 49.5055 39.4851C49.4551 39.1416 49.5186 38.9673 49.7243 38.8845L50.014 38.768L49.6611 38.6568C49.3833 38.569 49.3322 38.4991 49.4212 38.3289C49.4833 38.2095 49.68 38.1871 49.858 38.2786C50.0361 38.3702 50.1815 38.416 50.1811 38.3804C50.1807 38.3446 50.0706 38.0113 49.9364 37.6395C49.7748 37.1918 49.696 37.0706 49.7029 37.2803C49.7098 37.4903 49.6292 37.5027 49.4639 37.3165C49.0204 36.8174 49.0423 36.678 49.5646 36.6795C49.9289 36.6803 50.0442 36.5851 49.9635 36.3504C49.8935 36.1469 49.8981 35.9979 49.9752 35.9632C50.0869 35.9128 49.3927 35.4254 48.8668 35.185C48.7572 35.1348 48.8547 35.0284 49.0835 34.9488C49.3123 34.869 49.5085 34.6615 49.5195 34.4879C49.5362 34.2261 49.5198 34.1749 49.4237 34.1881C49.3599 34.1968 49.2372 34.067 49.1511 33.8996C49.0366 33.6771 49.0786 33.6312 49.3075 33.7291C49.7166 33.9037 49.7324 33.6199 49.3639 32.7231C49.2008 32.3258 49.1051 32.0116 49.1447 32.0028C49.1833 31.9942 49.1687 31.853 49.1123 31.689C49.0559 31.5249 48.9018 31.4123 48.77 31.4389C48.6382 31.4652 48.4603 31.3518 48.3746 31.1866C48.2626 30.9706 48.315 30.9237 48.5618 31.0199C48.9107 31.1554 48.936 30.7222 48.5994 30.3766C48.4301 30.2029 48.427 30.1907 48.4749 29.8793C48.514 29.6267 48.4883 29.5961 48.3516 29.7329C48.1546 29.9303 47.7685 29.3237 47.8566 28.9553C47.8841 28.84 47.9527 28.7356 48.0089 28.7232C48.0652 28.7107 48.0976 28.4868 48.081 28.2257C48.0573 27.8528 48.0357 27.7542 47.9807 27.7663C47.9419 27.7749 47.8803 27.5741 47.8425 27.3154C47.7985 27.0157 47.7375 26.8491 47.6716 26.8493C47.5864 26.8492 47.5789 26.8024 47.6276 26.5733C47.682 26.3167 47.6696 26.2757 47.4511 25.9929C47.3218 25.8257 47.1792 25.6968 47.1343 25.7067C47.0894 25.7167 47.0222 25.5871 46.9852 25.4187C46.9481 25.2504 47.0621 25.0665 47.2387 25.0104L47.5596 24.9082L47.2423 24.4844C46.8983 24.0251 46.7239 23.433 46.7838 22.9276C46.8046 22.7519 47.0868 22.447 47.4109 22.25C47.7351 22.0533 47.9769 21.7857 47.9482 21.6553C47.9194 21.5249 47.795 21.2956 47.6717 21.1454C47.484 20.9173 47.5138 20.8539 47.8549 20.7572C48.0862 20.6915 48.2333 20.509 48.195 20.3354C48.158 20.1671 48.0749 20.041 48.0104 20.0553C47.9459 20.0696 47.8793 19.9463 47.8624 19.7812C47.8454 19.6161 47.8863 19.5502 47.9531 19.6349C48.0199 19.7193 48.0462 19.6593 48.0114 19.5013C47.9765 19.3431 47.7925 19.0872 47.6025 18.9325C47.3091 18.6938 47.3892 18.6376 48.1325 18.5596L49.0082 18.468L48.1447 18.0725C46.6337 17.3802 46.6625 17.4005 46.7669 17.1042C46.8519 16.8629 46.8489 16.843 46.7273 16.8404C46.5443 16.8363 46.384 16.3181 46.5049 16.1218C46.5603 16.0315 46.4952 15.9647 46.3581 15.9707C46.2226 15.9766 46.0732 15.8476 46.0262 15.684C45.9793 15.5204 45.6213 15.3391 45.2309 15.2814C44.5355 15.1786 44.5242 15.1676 44.6785 14.7473C44.7791 14.4736 45.154 14.2737 45.7139 14.195C46.5243 14.0813 46.5879 14.0245 46.5417 13.4598C46.4976 12.9216 46.5745 12.8166 47.1787 12.589C47.7265 12.3829 47.8464 12.2424 47.7702 11.8962C47.7176 11.6575 47.6523 11.4671 47.6251 11.4731C47.5451 11.4909 46.3702 10.7839 46.2221 10.6289C45.9416 10.3353 45.9717 9.91198 46.2802 9.80801C46.5965 9.70136 46.5968 9.69807 46.3164 9.4976C46.1604 9.38608 45.8238 9.32196 45.5684 9.35542C45.1134 9.41446 44.4167 9.13253 44.5521 8.94364C44.681 8.76388 44.0007 8.47125 43.6031 8.53555C43.2566 8.59145 43.1678 8.50614 42.9056 7.86376L42.6052 7.12775L42.8384 7.04719L43.0717 6.96664L42.8107 6.70888C42.6672 6.56732 42.5175 6.52793 42.4779 6.62114C42.4382 6.71434 42.3806 6.67607 42.3497 6.53588C42.3189 6.39569 42.2348 6.22779 42.1631 6.16279C42.0914 6.09809 42.1406 5.98607 42.2726 5.91445L42.5126 5.78392L42.2053 5.60866C41.2009 5.0363 35.1526 5.93719 33.3582 6.92663C32.8456 7.20934 32.1665 7.50167 31.8489 7.57618C31.4415 7.67221 31.288 7.8266 31.327 8.10109C31.3687 8.39394 31.3512 8.40454 31.2562 8.1431C31.1496 7.85019 29.8906 7.7647 29.8424 8.04695C29.7954 8.32286 14.7877 11.6122 13.7195 11.5807C13.0086 11.5597 12.1974 11.5371 11.9168 11.5306C11.6362 11.5241 10.8162 11.5741 10.0948 11.6424C9.37328 11.7104 8.5057 11.7369 8.16688 11.7015C7.18706 11.5988 5.88924 11.8545 5.919 12.1445ZM34.7758 5.55004C34.8363 5.62941 34.8831 5.6075 34.8796 5.50169C34.8761 5.39588 34.8266 5.33109 34.7695 5.35754C34.7064 5.38693 34.7089 5.46246 34.7758 5.55004ZM33.3057 6.19669C33.3663 6.27606 33.413 6.25415 33.4095 6.14835C33.406 6.04254 33.3565 5.97774 33.2994 6.0042C33.2363 6.03358 33.2388 6.10912 33.3057 6.19669ZM33.7613 6.09579C33.8218 6.17515 33.8685 6.15325 33.8651 6.04744C33.8616 5.94163 33.8121 5.87683 33.755 5.90329C33.6919 5.93268 33.6943 6.00821 33.7613 6.09579ZM15.6151 10.7647C15.7016 10.8219 15.8169 10.7964 15.8713 10.7079C15.9257 10.6192 15.8549 10.5722 15.714 10.6035C15.573 10.6347 15.5285 10.7071 15.6151 10.7647ZM27.4135 9.4193C27.3934 9.51171 27.3177 9.53394 27.2452 9.46847C27.1726 9.40299 27.1891 9.32744 27.2817 9.30051C27.3743 9.27357 27.4336 9.32689 27.4135 9.4193ZM42.0138 6.16857C42.0173 6.27438 41.9705 6.29628 41.91 6.21691C41.8431 6.12934 41.8406 6.0538 41.9037 6.02442C41.9608 5.99796 42.0103 6.06276 42.0138 6.16857ZM33.648 8.59177C33.6904 8.69185 33.5256 8.83427 33.282 8.90847C33.0382 8.98238 32.2008 9.25775 31.4209 9.52005C30.6412 9.78266 27.853 10.5848 25.2252 11.3033C22.5974 12.0219 20.3282 12.7341 20.1827 12.8867C19.9153 13.1668 19.4863 13.007 19.4738 12.6223C19.4666 12.4008 19.9931 12.2244 22.9913 11.4457C24.1356 11.1482 24.8444 10.8436 24.8053 10.6657C24.77 10.5053 24.7935 10.4404 24.8576 10.5216C25.0346 10.7456 26.9215 10.283 28.2342 9.69368C29.5176 9.11728 33.5251 8.30182 33.648 8.59177ZM35.0761 7.99326C35.0836 8.22241 34.1134 8.46524 34.0249 8.25628C33.9842 8.16032 34.2029 8.02584 34.5109 7.95763C34.8188 7.88942 35.0731 7.90531 35.0761 7.99326ZM35.3049 7.97565C35.3083 8.08145 35.2616 8.10336 35.2011 8.02399C35.1342 7.93642 35.1317 7.86089 35.1948 7.8315C35.2519 7.80504 35.3014 7.86984 35.3049 7.97565ZM31.0534 9.27146C31.1403 9.32893 31.2422 9.30347 31.2798 9.21489C31.3174 9.1263 31.2462 9.07915 31.1217 9.11027C30.9971 9.14138 30.9664 9.214 31.0534 9.27146ZM38.8338 7.56187C38.876 7.68477 38.5565 7.86405 38.1237 7.95991C37.6909 8.05577 37.2948 8.03501 37.2435 7.91411C37.1923 7.79321 37.5117 7.61394 37.9535 7.51608C38.3954 7.4182 38.7915 7.43896 38.8338 7.56187ZM39.1442 7.57336C39.0678 7.96715 39.024 7.97685 38.9449 7.6175C38.9078 7.44915 38.9501 7.3056 39.0388 7.29815C39.1818 7.2867 39.1938 7.31776 39.1442 7.57336ZM28.7874 10.0867C28.8479 10.1661 28.8946 10.1442 28.8911 10.0384C28.8877 9.93255 28.8382 9.86776 28.781 9.89421C28.7179 9.9236 28.7204 9.99913 28.7874 10.0867ZM29.1293 10.0245C29.2466 10.0697 29.4001 10.0345 29.4703 9.94571C29.5404 9.85666 29.4444 9.81951 29.2569 9.86297C29.0693 9.90612 29.0119 9.97886 29.1293 10.0245ZM17.7918 13.285C17.7808 13.4303 17.7315 13.4772 17.6825 13.3895C17.6335 13.3018 17.6024 13.1109 17.6133 12.9657C17.6244 12.8204 17.6736 12.7735 17.7226 12.8612C17.7716 12.9489 17.8027 13.1398 17.7918 13.285ZM18.7654 12.7991C18.7945 12.931 18.6289 13.0637 18.3974 13.0941C18.085 13.135 18.0076 13.0806 18.0971 12.8829C18.2513 12.5419 18.6965 12.4862 18.7654 12.7991ZM19.2882 12.4611C19.3602 12.788 19.1515 13.3045 19.0206 13.1233C18.9135 12.9749 18.9041 12.8797 18.976 12.6706C19.0871 12.3468 19.2404 12.2441 19.2882 12.4611ZM17.5388 13.3404C17.5554 13.503 17.3716 13.6779 17.1302 13.7288C16.8887 13.7794 16.6989 13.7133 16.7083 13.5815C16.7342 13.2166 17.5031 12.9933 17.5388 13.3404ZM35.7226 9.18389C35.7025 9.27629 35.6268 9.29853 35.5543 9.23305C35.4817 9.16758 35.4982 9.09203 35.5908 9.06509C35.6834 9.03816 35.7427 9.09148 35.7226 9.18389ZM39.7783 8.62259C39.7239 8.71104 39.6086 8.7366 39.5221 8.67935C39.4356 8.6218 39.48 8.54934 39.621 8.51813C39.7619 8.48691 39.8327 8.53383 39.7783 8.62259ZM5.35496 20.5152C5.39203 20.6835 5.41108 20.8238 5.39724 20.8268C5.38341 20.8299 5.32597 20.6982 5.26954 20.5341C5.21311 20.37 5.19412 20.2298 5.22726 20.2225C5.2604 20.2151 5.31789 20.3468 5.35496 20.5152ZM6.27911 32.0864C6.33965 32.1658 6.38636 32.1439 6.38289 32.0381C6.37942 31.9323 6.32992 31.8675 6.2728 31.8939C6.20969 31.9233 6.21217 31.9989 6.27911 32.0864ZM47.9017 28.2988C47.9052 28.4046 47.8585 28.4265 47.7979 28.3471C47.731 28.2595 47.7285 28.184 47.7916 28.1546C47.8488 28.1282 47.8983 28.193 47.9017 28.2988ZM8.0472 37.8959C8.08426 38.0643 8.08743 38.208 8.05429 38.2154C8.02115 38.2227 7.97949 38.0875 7.96178 37.9148C7.94407 37.7422 7.94085 37.5985 7.95469 37.5954C7.96853 37.5923 8.01013 37.7276 8.0472 37.8959ZM26.0057 38.7548C26.1844 39.2741 26.1395 39.4025 25.9499 38.9139C25.841 38.633 25.798 38.4583 25.8358 38.4499C25.869 38.4426 25.9456 38.5797 26.0057 38.7548ZM29.7826 38.7086C29.7917 38.5887 29.7561 38.3658 29.7036 38.2131C29.6487 38.0535 29.7529 37.9033 29.9484 37.86C30.1449 37.8164 30.3287 37.9247 30.3835 38.1161C30.4357 38.2984 30.6148 38.494 30.7816 38.5505C31.197 38.6916 31.2172 39.1814 30.8063 39.1502C30.5591 39.1314 30.4975 39.2304 30.5652 39.5377C30.6796 40.0575 30.4769 40.1291 30.3248 39.6225C30.2593 39.4042 30.2612 39.4793 30.3292 39.8009C30.3938 40.106 30.4102 40.2905 30.3656 40.2105C30.3211 40.1308 30.301 40.3433 30.3209 40.683C30.3636 41.408 30.1186 41.5782 29.9746 40.9241C29.9009 40.5892 29.8378 40.5383 29.7105 40.7103C29.5793 40.888 29.529 40.843 29.4768 40.5014C29.4402 40.2617 29.4498 40.0718 29.498 40.0791C29.5462 40.0864 29.5762 39.883 29.5649 39.6274C29.5468 39.2234 29.5249 39.1955 29.3971 39.4151C29.3162 39.5541 29.2215 39.7413 29.1866 39.8312C29.1517 39.9215 29.0794 39.8678 29.0261 39.7127C28.9726 39.5573 29.0374 39.3057 29.17 39.1537C29.3025 39.0014 29.4021 38.6904 29.3911 38.4624C29.3748 38.1225 29.4068 38.127 29.5686 38.4869C29.6773 38.7287 29.7736 38.8284 29.7826 38.7086ZM37.7374 36.5799C37.7927 36.8312 37.4723 37.0348 37.3914 36.7997C37.3444 36.6631 37.3972 36.531 37.5086 36.5064C37.6201 36.4817 37.723 36.5147 37.7374 36.5799ZM27.7451 40.7261C27.847 41.4223 27.6999 41.0957 27.5327 40.2544C27.3248 39.2083 27.3243 39.1995 27.5056 39.7378C27.5977 40.0111 27.7055 40.4559 27.7451 40.7261ZM31.5279 38.6838C31.5078 38.7762 31.4321 38.7984 31.3596 38.7329C31.287 38.6674 31.3035 38.5919 31.3961 38.565C31.4887 38.538 31.548 38.5913 31.5279 38.6838ZM33.4753 38.3792C33.187 38.8093 31.8862 39.0856 31.7066 38.7546C31.6066 38.5703 31.9131 38.4097 32.6167 38.2769C33.3423 38.1406 33.6136 38.1726 33.4753 38.3792ZM34.6343 38.0149C34.5636 38.1041 34.4227 38.1353 34.3211 38.0843C34.2195 38.0333 34.2774 37.9604 34.4497 37.9223C34.6219 37.8841 34.705 37.9257 34.6343 38.0149ZM35.1716 37.8786C35.1512 37.9723 35.0872 37.9865 35.0293 37.9101C34.9715 37.834 34.9882 37.7574 35.0665 37.7401C35.1448 37.7227 35.1921 37.7851 35.1716 37.8786ZM35.7411 37.7524C35.7207 37.8462 35.6566 37.8604 35.5987 37.784C35.5409 37.7078 35.5576 37.6313 35.6359 37.6139C35.7142 37.5966 35.7616 37.659 35.7411 37.7524ZM26.1021 40.153C26.2003 40.5987 26.1935 41.5793 26.0923 41.5927C25.9791 41.6075 25.9747 41.5844 25.9763 40.9953L25.978 40.3827L25.708 40.319C25.4708 40.263 25.4763 40.2399 25.7535 40.1294C25.9272 40.0601 26.084 40.0707 26.1021 40.153ZM26.3792 40.1285C26.3826 40.2344 26.3359 40.2563 26.2754 40.1769C26.2084 40.0893 26.206 40.0138 26.2691 39.9844C26.3262 39.9579 26.3757 40.0227 26.3792 40.1285ZM29.8949 39.4769C29.9319 39.6453 29.9894 39.777 30.0226 39.7697C30.0557 39.7623 30.0367 39.6221 29.9803 39.458C29.9238 39.2939 29.8664 39.1622 29.8526 39.1653C29.8387 39.1683 29.8578 39.3086 29.8949 39.4769ZM47.6761 35.4112C47.6796 35.517 47.6329 35.5389 47.5723 35.4595C47.5054 35.3719 47.5029 35.2964 47.566 35.267C47.6232 35.2405 47.6727 35.3053 47.6761 35.4112ZM48.1083 35.334C48.0879 35.4278 48.0239 35.442 47.9659 35.3656C47.9082 35.2895 47.9249 35.2129 48.0032 35.1955C48.0815 35.1782 48.1288 35.2406 48.1083 35.334ZM23.7133 41.0401C23.7167 41.1459 23.67 41.1678 23.6095 41.0884C23.5425 41.0008 23.5401 40.9253 23.6032 40.8959C23.6603 40.8695 23.7098 40.9343 23.7133 41.0401ZM25.3494 40.8651C25.381 41.0678 25.3863 41.3019 25.3611 41.3855C25.3354 41.4711 25.3005 41.3925 25.2813 41.2054C25.2622 41.019 25.1779 40.8274 25.089 40.7687C24.9762 40.6942 24.9827 40.6398 25.1112 40.5802C25.2291 40.5255 25.3119 40.6247 25.3494 40.8651ZM27.2109 40.7135C27.2675 41.0691 27.3355 41.3279 27.3704 41.3202C27.4038 41.3128 27.4564 41.4215 27.4873 41.5617C27.5748 41.9593 27.3014 41.8205 27.1542 41.3925C27.0523 41.0963 27.0126 41.0954 26.9778 41.3888C26.9531 41.5972 26.885 41.6819 26.8263 41.5768C26.708 41.3648 26.8583 40.217 27.0142 40.141C27.0884 40.105 27.1363 40.2443 27.2109 40.7135ZM37.9059 38.0235C37.9623 38.1875 37.9813 38.3278 37.9482 38.3351C37.915 38.3424 37.8576 38.2107 37.8205 38.0424C37.7834 37.874 37.7644 37.7338 37.7782 37.7307C37.792 37.7277 37.8495 37.8594 37.9059 38.0235ZM38.4092 37.7325C38.4256 37.8069 38.432 37.9583 38.4236 38.0693C38.4152 38.1803 38.3762 38.1251 38.337 37.9469C38.2977 37.7688 38.2912 37.6171 38.3225 37.6101C38.3538 37.6032 38.3928 37.6581 38.4092 37.7325ZM46.7528 35.9534C46.7327 36.0458 46.657 36.068 46.5844 36.0026C46.5119 35.9371 46.5284 35.8615 46.621 35.8346C46.7136 35.8077 46.7729 35.861 46.7528 35.9534ZM47.0602 35.8686C47.0637 35.9744 47.0169 35.9963 46.9564 35.917C46.8895 35.8294 46.887 35.7538 46.9501 35.7245C47.0072 35.698 47.0567 35.7628 47.0602 35.8686ZM24.6485 41.2811C24.7049 41.4451 24.7239 41.5854 24.6907 41.5927C24.6576 41.6001 24.6001 41.4683 24.5631 41.3C24.526 41.1316 24.5069 40.9914 24.5208 40.9883C24.5346 40.9853 24.592 41.117 24.6485 41.2811ZM31.3542 39.6686C31.3576 39.7744 31.3109 39.7963 31.2504 39.7169C31.1835 39.6294 31.181 39.5538 31.2441 39.5244C31.3012 39.498 31.3507 39.5628 31.3542 39.6686ZM31.6389 39.6055C31.6424 39.7113 31.5957 39.7332 31.5351 39.6539C31.4682 39.5663 31.4657 39.4908 31.5288 39.4614C31.5859 39.4349 31.6354 39.4997 31.6389 39.6055ZM32.2272 39.7628C32.2828 40.0154 32.3539 40.2163 32.3852 40.2094C32.4166 40.2024 32.4043 40.0247 32.3578 39.8142C32.2952 39.5301 32.4042 39.4296 32.7802 39.4234C33.0867 39.4184 33.2993 39.535 33.3181 39.7186C33.3352 39.8853 33.287 39.9547 33.2109 39.8727C33.1349 39.7907 33.0443 39.9488 33.0096 40.2236C32.9536 40.6661 32.9327 40.6714 32.8272 40.2701C32.6941 39.7634 32.4206 39.7024 32.4707 40.1904C32.5056 40.531 32.2902 40.6712 32.1695 40.3862C32.0485 40.1007 31.9609 39.3403 32.0468 39.3213C32.0904 39.3116 32.1716 39.5103 32.2272 39.7628ZM37.466 38.6024C37.4916 39.0044 37.5196 39.0721 37.649 39.0434C37.7362 39.0241 37.8154 39.144 37.8338 39.3235C37.8515 39.4961 37.812 39.6493 37.746 39.664C37.68 39.6786 37.666 39.7851 37.7149 39.9004C37.7638 40.0157 38.0018 40.0217 38.244 39.9142C38.6373 39.7391 38.6924 39.7738 38.7606 40.2392C38.8108 40.5819 38.8506 40.7066 38.8772 40.6041C38.8993 40.518 38.877 40.2943 38.8274 40.1066C38.7778 39.9189 38.803 39.7509 38.8831 39.7331C38.9657 39.7148 39.0428 39.8367 39.061 40.0147C39.0787 40.1874 39.1204 40.3226 39.1535 40.3153C39.1866 40.3079 39.1835 40.1642 39.1464 39.9958C39.0343 39.4865 39.2839 39.6058 39.4413 40.1369C39.5219 40.4093 39.5895 40.68 39.5914 40.7386C39.5933 40.797 39.3506 40.9384 39.0521 41.0526C38.6558 41.2043 38.4801 41.1588 38.4012 40.8832C38.3418 40.6758 38.2426 40.517 38.1807 40.5307C38.1188 40.5444 38.1144 40.6899 38.1708 40.8539C38.2307 41.0278 38.2008 41.1683 38.0992 41.1908C38.0034 41.212 37.8947 41.0917 37.8576 40.9233C37.8205 40.755 37.6954 40.6382 37.5795 40.6639C37.3492 40.7149 37.2709 40.219 37.4735 39.9924C37.5635 39.8915 37.5517 39.6486 37.4259 39.0126C37.3233 38.4941 37.2929 38.1592 37.3472 38.1472C37.4196 38.1312 37.4414 38.2149 37.466 38.6024ZM43.1863 37.5941C43.2682 37.6681 43.2105 37.7415 43.058 37.7577C42.9056 37.7738 42.7541 37.6654 42.7214 37.5173C42.6887 37.3688 42.737 37.3286 42.8286 37.4274C42.9558 37.5646 42.9626 37.5117 42.857 37.2019C42.7485 36.8834 42.753 36.8676 42.8781 37.1282C42.9657 37.3107 43.1043 37.5201 43.1863 37.5941ZM36.0477 39.0771C36.0654 39.2497 36.0558 39.3963 36.0263 39.4029C35.9968 39.4094 35.9424 39.277 35.9053 39.1086C35.8682 38.9403 35.8779 38.7937 35.9267 38.7829C35.9755 38.7721 36.03 38.9045 36.0477 39.0771ZM30.0506 40.7265C30.2454 41.0856 30.3058 41.0722 30.2214 40.6887C30.1843 40.5203 30.0968 40.3975 30.0269 40.4156C29.9242 40.4425 29.9286 40.5018 30.0506 40.7265ZM35.4325 39.6737C35.4872 39.9223 35.6073 40.1441 35.7094 40.1854C35.854 40.2439 35.8496 40.2975 35.6871 40.4571C35.5025 40.6383 35.471 40.5945 35.3319 39.9628C35.2473 39.5786 35.2142 39.2617 35.2576 39.2521C35.3006 39.2426 35.3793 39.4322 35.4325 39.6737ZM37.1585 39.1042C37.1923 39.2579 37.1187 39.4142 36.9949 39.4515C36.8709 39.4886 36.7591 39.4161 36.7462 39.2906C36.7112 38.9497 37.087 38.7798 37.1585 39.1042ZM19.4979 43.385C19.5544 43.5491 19.5606 43.6921 19.5118 43.703C19.463 43.7138 19.3926 43.5849 19.3556 43.4165C19.3185 43.2482 19.3123 43.1051 19.3418 43.0986C19.3713 43.092 19.4415 43.2209 19.4979 43.385ZM30.8053 40.8993C30.8445 41.0775 30.8273 41.1352 30.767 41.0272C30.7067 40.9192 30.6768 41.0257 30.7006 41.2637C30.7347 41.6061 30.7189 41.5846 30.6249 41.1611C30.5511 40.8282 30.5492 40.6161 30.62 40.6004C30.6826 40.5865 30.766 40.7212 30.8053 40.8993ZM31.5816 40.6281C31.6094 40.7542 31.5706 40.8714 31.4952 40.888C31.42 40.9047 31.3475 40.8123 31.3342 40.6829C31.3209 40.5536 31.3597 40.4365 31.4206 40.4231C31.4814 40.4096 31.5539 40.502 31.5816 40.6281ZM42.4463 38.3018C42.464 38.4745 42.4202 38.6183 42.349 38.6219C42.2241 38.6277 42.2215 38.6177 42.2754 38.3397C42.3524 37.9428 42.4082 37.9305 42.4463 38.3018ZM46.6316 37.3747C46.6687 37.5431 46.7572 37.6702 46.8282 37.657C46.8992 37.6442 47.0252 37.7585 47.1081 37.9112C47.2193 38.1161 47.1953 38.221 47.0168 38.3103C46.8837 38.377 46.6971 38.506 46.6021 38.5967C46.5071 38.6877 45.5543 38.9982 44.4846 39.2869C43.415 39.5755 42.6709 39.6748 42.8312 39.5074C42.9914 39.3403 43.2318 39.0893 43.3653 38.9499C43.8785 38.4147 44.5852 38.1484 44.6891 38.4506C44.7468 38.6182 44.801 38.6621 44.8096 38.5481C44.8183 38.4345 44.9231 38.5002 45.0427 38.6946C45.1622 38.8889 45.2846 38.9376 45.3146 38.8026C45.3445 38.6675 45.5479 38.4921 45.7665 38.4129C45.9851 38.3337 46.1608 38.175 46.157 38.0603C46.1532 37.9459 46.2544 37.909 46.3817 37.9784C46.5658 38.0789 46.5907 38.0027 46.5033 37.6057C46.4429 37.3312 46.4318 37.098 46.4788 37.0876C46.5258 37.0772 46.5946 37.2064 46.6316 37.3747ZM48.3236 37.0802C48.4175 37.3804 48.4308 37.3775 48.39 37.0655C48.3352 36.6462 48.7817 36.4099 48.9122 36.7893C48.9545 36.9122 48.8656 36.9897 48.7147 36.9612C48.5433 36.9288 48.4681 37.036 48.5144 37.2463C48.6268 37.7568 48.3354 37.709 48.1822 37.1918C48.0194 36.6423 48.1534 36.5365 48.3236 37.0802ZM35.1679 40.235C35.1856 40.4077 35.129 40.5544 35.0422 40.5614C34.9011 40.5725 34.8901 40.5428 34.9401 40.2855C35.0179 39.885 35.1295 39.8602 35.1679 40.235ZM40.5206 39.0494C40.5383 39.222 40.6056 39.3516 40.6701 39.3373C40.7345 39.323 40.757 39.1736 40.7199 39.0052C40.6403 38.6437 40.7687 38.701 40.9573 39.1112C41.1304 39.4873 40.9916 40.2497 40.7842 40.0622C40.7041 39.9898 40.6543 40.084 40.6735 40.2716C40.6928 40.4594 40.6701 40.6214 40.6231 40.6318C40.5761 40.6422 40.5221 40.4985 40.503 40.3126C40.479 40.0785 40.402 40.0573 40.2525 40.2439C40.1216 40.4074 40.011 40.3963 39.9711 40.2154C39.9351 40.0516 40.0345 39.8033 40.1922 39.664C40.3499 39.5247 40.456 39.2643 40.428 39.0853C40.4001 38.9066 40.4023 38.7546 40.4329 38.7478C40.4634 38.741 40.5029 38.8767 40.5206 39.0494ZM42.1435 38.6649C42.1325 38.8249 42.0367 38.9213 41.9307 38.8789C41.7822 38.8197 41.7616 38.9417 41.8411 39.4102C41.8979 39.7446 41.9224 40.0229 41.8958 40.0288C41.8343 40.0425 41.6811 39.0312 41.6965 38.7135C41.7028 38.5824 41.8106 38.4526 41.9359 38.4248C42.0913 38.3904 42.1573 38.4666 42.1435 38.6649ZM22.1588 43.4001C22.2391 43.7646 22.0831 44.1045 21.9771 43.7963C21.9307 43.6615 21.9097 43.4745 21.9302 43.3804C21.9912 43.1017 22.0952 43.1108 22.1588 43.4001ZM22.907 43.2719C22.9441 43.4403 22.9503 43.5833 22.9208 43.5899C22.8913 43.5964 22.8211 43.4675 22.7646 43.3034C22.7082 43.1394 22.702 42.9963 22.7508 42.9855C22.7996 42.9747 22.8699 43.1036 22.907 43.2719ZM23.9246 43.0115C24.0265 43.4743 23.6324 43.665 23.3864 43.272C23.1709 42.9278 23.18 42.8943 23.5091 42.8194C23.7047 42.7752 23.8916 42.8615 23.9246 43.0115ZM24.1256 43.0903C24.1992 43.4579 24.1055 43.4042 23.9941 43.0151C23.9371 42.8158 23.9333 42.7011 23.9857 42.7601C24.0382 42.8191 24.1011 42.9676 24.1256 43.0903ZM24.8422 43.9428C24.8786 44.0981 24.8026 43.9704 24.6732 43.6592C24.5136 43.2756 24.4426 43.0184 24.4527 42.8612C24.466 42.6502 24.6742 43.2284 24.8422 43.9428ZM25.0682 42.667C25.2367 42.8804 25.3462 43.3736 25.2308 43.3992C25.182 43.41 25.1854 43.5451 25.2384 43.699C25.2914 43.8532 25.2785 43.97 25.2097 43.9583C25.0811 43.9367 24.8988 43.1964 24.9127 42.7522C24.9218 42.4613 24.9105 42.4673 25.0682 42.667ZM47.4497 37.8356C47.4868 38.0039 47.4718 38.1494 47.4165 38.1591C47.3304 38.174 47.3187 38.1304 47.3359 37.8608C47.3611 37.4636 47.3675 37.4621 47.4497 37.8356ZM25.7759 43.1363C25.701 43.4899 25.709 43.5629 25.8344 43.6732C25.9518 43.7766 25.9538 43.8137 25.8446 43.8681C25.7667 43.9068 25.6296 43.7038 25.5208 43.3886C25.3478 42.8876 25.3543 42.837 25.5974 42.7845C25.8602 42.7275 25.8618 42.7307 25.7759 43.1363ZM26.6364 43.3158C26.8014 43.9559 26.8061 44.0416 26.6692 43.9146C26.5814 43.8333 26.4058 43.7832 26.2789 43.8036C26.0922 43.8338 26.0541 43.7761 26.0795 43.5027C26.0967 43.3169 26.0692 43.0437 26.0182 42.8954C25.9673 42.7475 26.0422 42.6134 26.1847 42.5976C26.4118 42.5723 26.4676 42.6611 26.6364 43.3158ZM28.2997 42.9002C28.4546 43.3217 28.4964 43.358 28.4867 43.0619C28.4693 42.5313 28.6021 42.5565 28.7234 43.1071C28.8022 43.4649 28.751 43.5771 28.4917 43.6146C28.3087 43.6413 28.1757 43.5864 28.1962 43.4929C28.2836 43.0925 28.0868 42.7666 27.7966 42.8309C27.4578 42.9059 27.4758 43.4217 27.8219 43.5562C27.9539 43.6073 27.9157 43.6841 27.7209 43.7593C27.5451 43.8272 27.3586 43.7378 27.2961 43.5559C27.2157 43.3223 27.1877 43.3285 27.1959 43.578C27.2022 43.7686 27.1688 43.933 27.1218 43.9434C27.0587 43.9574 27.0334 43.8689 27.0247 43.6047C27.0183 43.4081 26.9551 43.0516 26.8842 42.8124C26.7753 42.4449 26.8594 42.3762 27.4278 42.3675C27.9921 42.3587 28.1323 42.4442 28.2997 42.9002ZM29.5499 42.5228C29.6257 42.8646 29.2251 42.8862 29.1083 42.5464C29.0476 42.3702 29.1051 42.2617 29.2534 42.2735C29.3885 42.2844 29.522 42.3967 29.5499 42.5228ZM31.5794 41.974C31.6143 42.1326 31.6359 42.3525 31.6275 42.4632C31.6008 42.8152 30.0293 43.0044 29.8238 42.6804C29.7194 42.5157 30.3553 42.0442 30.9148 41.8715C31.2596 41.7652 31.543 41.8087 31.5794 41.974ZM34.1157 41.5984C34.2467 41.9077 34.1631 42.0409 33.6661 42.3137C33.1566 42.5938 32.4942 42.3316 32.378 41.8039C32.3188 41.5348 34.0044 41.3358 34.1157 41.5984ZM36.1753 41.2844C35.8468 41.5421 35.5421 41.4735 35.5661 41.1471C35.5743 41.0365 35.7834 40.9683 36.0309 40.9954L36.4809 41.0447L36.1753 41.2844ZM37.1069 40.7686C37.144 40.9369 37.163 41.0772 37.1492 41.0802C37.1353 41.0833 37.0779 40.9516 37.0215 40.7875C36.9651 40.6235 36.9461 40.4832 36.9792 40.4759C37.0123 40.4685 37.0698 40.6002 37.1069 40.7686ZM38.3881 40.4848C38.4058 40.6574 38.4603 40.7898 38.5091 40.779C38.5579 40.7682 38.5676 40.6216 38.5305 40.4533C38.4934 40.2849 38.439 40.1525 38.4095 40.159C38.38 40.1656 38.3704 40.3122 38.3881 40.4848ZM50.1719 37.7728C50.2325 37.8522 50.2792 37.8303 50.2757 37.7245C50.2722 37.6187 50.2227 37.5539 50.1656 37.5804C50.1025 37.6097 50.105 37.6853 50.1719 37.7728ZM36.915 41.1019C36.931 41.2583 36.8771 41.3257 36.7951 41.2515C36.5899 41.0661 36.5656 40.8885 36.7401 40.8498C36.8202 40.8321 36.899 40.9456 36.915 41.1019ZM39.8421 40.3752C39.8217 40.469 39.7577 40.4832 39.6997 40.4068C39.642 40.3307 39.6587 40.2541 39.737 40.2367C39.8152 40.2194 39.8626 40.2818 39.8421 40.3752ZM42.4615 39.795C42.4411 39.8888 42.3771 39.903 42.3192 39.8266C42.2614 39.7504 42.2781 39.6739 42.3564 39.6565C42.4347 39.6392 42.482 39.7016 42.4615 39.795ZM50.1139 39.4926C50.1703 39.6566 50.2277 39.7884 50.2416 39.7853C50.2554 39.7822 50.2363 39.642 50.1993 39.4737C50.1622 39.3053 50.1047 39.1736 50.0716 39.1809C50.0384 39.1883 50.0574 39.3285 50.1139 39.4926ZM51.5908 39.0636C51.6514 39.143 51.6981 39.1211 51.6946 39.0153C51.6912 38.9095 51.6417 38.8447 51.5845 38.8712C51.5214 38.9005 51.5239 38.9761 51.5908 39.0636ZM29.1584 48.0668C29.1862 48.1929 28.6844 48.3856 28.0434 48.4948C27.2364 48.6322 27.015 48.6071 27.3237 48.4135C27.9644 48.0115 29.0989 47.7972 29.1584 48.0668ZM29.7526 48.053C29.7668 48.1173 29.6532 48.181 29.5 48.194C29.2605 48.2143 29.239 48.1831 29.3465 47.9712C29.4631 47.7409 29.6942 47.7876 29.7526 48.053ZM26.8088 48.7195C26.7885 48.8133 26.7244 48.8275 26.6665 48.751C26.6087 48.6749 26.6254 48.5983 26.7037 48.581C26.782 48.5637 26.8293 48.626 26.8088 48.7195ZM21.7989 50.5136C21.8691 50.6445 21.6624 50.8184 21.3334 50.905C21.0079 50.9909 20.7322 50.9692 20.7206 50.8565C20.6891 50.5489 21.6534 50.2425 21.7989 50.5136ZM47.8859 45.0206C47.9464 45.1 47.9932 45.0781 47.9897 44.9723C47.9862 44.8665 47.9367 44.8017 47.8796 44.8281C47.8165 44.8575 47.819 44.933 47.8859 45.0206ZM43.7863 46.2244C43.7898 46.3302 43.7431 46.3521 43.6825 46.2727C43.6156 46.1851 43.6131 46.1096 43.6762 46.0802C43.7333 46.0538 43.7828 46.1186 43.7863 46.2244ZM24.1408 51.2636C24.4876 51.2433 25.0514 51.1187 25.3936 50.9864C25.7358 50.8541 25.4521 50.8707 24.763 51.023C24.0739 51.1753 23.7939 51.2836 24.1408 51.2636ZM29.2761 50.2776C29.3423 50.434 29.4323 50.4976 29.4758 50.4183C29.5345 50.3119 29.5032 50.2379 29.3553 50.1339C29.2262 50.0427 29.1982 50.0939 29.2761 50.2776ZM46.8923 46.2038C46.9528 46.2831 46.9995 46.2612 46.9961 46.1554C46.9926 46.0496 46.9431 45.9848 46.886 46.0113C46.8229 46.0407 46.8253 46.1162 46.8923 46.2038ZM29.7614 50.3271C29.8483 50.3845 29.9502 50.3591 29.9878 50.2705C30.0254 50.1819 29.9542 50.1348 29.8297 50.1659C29.7051 50.197 29.6744 50.2696 29.7614 50.3271ZM30.5586 50.1505C30.6455 50.208 30.7474 50.1825 30.785 50.0939C30.8226 50.0053 30.7514 49.9582 30.6269 49.9893C30.5024 50.0204 30.4716 50.093 30.5586 50.1505ZM32.3254 49.7649C32.4427 49.8102 32.5962 49.7749 32.6664 49.6862C32.7365 49.5971 32.6405 49.56 32.453 49.6034C32.2654 49.6466 32.208 49.7193 32.3254 49.7649ZM33.1504 49.5799C33.2524 49.6309 33.3801 49.6006 33.4342 49.5126C33.4882 49.4245 33.4047 49.3827 33.2486 49.4195C33.0925 49.4566 33.0483 49.5287 33.1504 49.5799ZM40.6073 47.9189C40.679 47.9839 40.7688 47.964 40.8066 47.8747C40.8444 47.7858 40.7857 47.7326 40.6761 47.7569C40.5665 47.7812 40.5356 47.8542 40.6073 47.9189ZM41.545 47.7025C41.6029 47.7789 41.667 47.7647 41.6874 47.671C41.7079 47.5775 41.6605 47.5151 41.5822 47.5325C41.5039 47.5498 41.4872 47.6264 41.545 47.7025Z" fill="#DF1931"/>
<path fill-rule="evenodd" clip-rule="evenodd" d="M29.7864 15.6649C28.4336 15.6649 27.3368 16.7649 27.3368 18.1218V31.7714C27.3368 33.1283 28.4336 34.2283 29.7864 34.2283C31.1393 34.2283 32.236 33.1283 32.236 31.7714V18.1218C32.236 16.7649 31.1393 15.6649 29.7864 15.6649ZM20.8046 21.9437C20.8046 20.5868 21.9013 19.4868 23.2542 19.4868C24.6071 19.4868 25.7038 20.5868 25.7038 21.9437V31.7714C25.7038 33.1283 24.6071 34.2283 23.2542 34.2283C21.9013 34.2283 20.8046 33.1283 20.8046 31.7714V21.9437ZM14.2724 23.0357C14.2724 21.6787 15.3691 20.5787 16.722 20.5787C18.0748 20.5787 19.1716 21.6787 19.1716 23.0357V30.1335C19.1716 31.4904 18.0748 32.5904 16.722 32.5904C15.3691 32.5904 14.2724 31.4904 14.2724 30.1335V23.0357ZM33.8691 20.8517C33.8691 19.4948 34.9658 18.3948 36.3187 18.3948C37.6715 18.3948 38.7682 19.4948 38.7682 20.8517V31.7714C38.7682 33.1284 37.6715 34.2284 36.3187 34.2284C34.9658 34.2284 33.8691 33.1284 33.8691 31.7714V20.8517ZM28.1534 36.4123C26.8005 36.4123 25.7038 37.5123 25.7038 38.8692C25.7038 40.2262 26.8005 41.3262 28.1534 41.3262H36.3187C37.6715 41.3262 38.7682 40.2262 38.7682 38.8692C38.7682 37.5123 37.6715 36.4123 36.3187 36.4123H28.1534Z" fill="#DF1931"/>
<path fill-rule="evenodd" clip-rule="evenodd" d="M29.7864 14.0269C31.8651 14.0269 33.581 15.5851 33.8363 17.6005C34.5241 17.0713 35.3848 16.7568 36.3186 16.7568C38.5734 16.7568 40.4013 18.5902 40.4013 20.8517V31.7714C40.4013 33.2884 39.5788 34.6127 38.3568 35.3203C39.5788 36.0279 40.4013 37.3522 40.4013 38.8692C40.4013 41.1308 38.5734 42.9641 36.3186 42.9641H28.1534C25.8986 42.9641 24.0707 41.1308 24.0707 38.8692C24.0707 36.9547 25.3807 35.347 27.1507 34.8987C26.9165 34.6999 26.7049 34.4751 26.5203 34.2287C25.7754 35.2231 24.5897 35.8663 23.2542 35.8663C21.5006 35.8663 20.0052 34.7574 19.4271 33.2005C18.7068 33.8401 17.7596 34.2283 16.722 34.2283C14.4672 34.2283 12.6393 32.395 12.6393 30.1335V23.0357C12.6393 20.7741 14.4672 18.9408 16.722 18.9408C17.8422 18.9408 18.8571 19.3933 19.5948 20.1261C20.2624 18.7765 21.6503 17.8488 23.2542 17.8488C24.1733 17.8488 25.0214 18.1534 25.7038 18.6675V18.1218C25.7038 15.8603 27.5316 14.0269 29.7864 14.0269ZM32.5621 34.7743H33.543C33.3638 34.6077 33.1996 34.425 33.0525 34.2287C32.9055 34.425 32.7413 34.6077 32.5621 34.7743ZM25.7038 31.7714C25.7038 33.1283 24.6071 34.2283 23.2542 34.2283C21.9013 34.2283 20.8046 33.1283 20.8046 31.7714V30.1424L20.8046 30.1335V23.0357L20.8046 23.0267V21.9437C20.8046 20.5868 21.9013 19.4868 23.2542 19.4868C24.6071 19.4868 25.7038 20.5868 25.7038 21.9437L25.7038 31.7714ZM27.3368 21.9437V18.1218C27.3368 16.7649 28.4336 15.6649 29.7864 15.6649C31.1393 15.6649 32.236 16.7649 32.236 18.1218V31.7714C32.236 33.1283 31.1393 34.2283 29.7864 34.2283C28.4336 34.2283 27.3368 33.1283 27.3368 31.7714V21.9437ZM19.1716 30.1407V23.0284C19.1676 21.6748 18.0724 20.5787 16.722 20.5787C15.3691 20.5787 14.2724 21.6787 14.2724 23.0357V30.1335C14.2724 31.4904 15.3691 32.5904 16.722 32.5904C18.0724 32.5904 19.1676 31.4943 19.1716 30.1407ZM36.3186 18.3948C34.9658 18.3948 33.8691 19.4948 33.8691 20.8517V31.7714C33.8691 33.1283 34.9658 34.2283 36.3186 34.2283C37.6715 34.2283 38.7682 33.1283 38.7682 31.7714V20.8517C38.7682 19.4948 37.6715 18.3948 36.3186 18.3948ZM25.7038 38.8692C25.7038 37.5123 26.8005 36.4123 28.1534 36.4123H36.3186C37.6715 36.4123 38.7682 37.5123 38.7682 38.8692C38.7682 40.2261 37.6715 41.3261 36.3186 41.3261H28.1534C26.8005 41.3261 25.7038 40.2261 25.7038 38.8692Z" fill="white"/>
<path d="M135.369 20.6243H132.808C132.514 20.6243 132.367 20.698 132.367 20.8453V37.9724H129.476C128.851 37.9724 128.438 37.8711 128.236 37.6685C128.053 37.4659 127.961 37.0424 127.961 36.3978V19.5746C127.961 18.93 128.053 18.5064 128.236 18.3039C128.438 18.1013 128.851 18 129.476 18H135.369V20.6243ZM136.47 18H139.361C139.986 18 140.39 18.1013 140.573 18.3039C140.775 18.5064 140.876 18.93 140.876 19.5746V36.3702C140.876 37.0147 140.775 37.4475 140.573 37.6685C140.371 37.8711 139.967 37.9724 139.361 37.9724H136.47V28.7182H133.469V26.0939H136.47V18Z" fill="black"/>
<path d="M159.913 18V36.3978C159.913 37.0424 159.812 37.4659 159.61 37.6685C159.427 37.8711 159.023 37.9724 158.399 37.9724H154.488C153.405 37.9724 152.689 37.8066 152.34 37.4751C152.01 37.1436 151.716 36.2873 151.459 34.9061C150.945 32.1805 150.202 27.779 149.229 21.7017C149.155 21.2413 149.045 20.9466 148.898 20.8177C148.77 20.6888 148.54 20.6151 148.21 20.5967H144.823V18H150.798C151.257 18 151.624 18.0552 151.9 18.1657C152.175 18.2762 152.396 18.5157 152.561 18.884C152.744 19.2339 152.864 19.5746 152.919 19.9061C152.992 20.2376 153.066 20.6243 153.139 21.0663C153.231 21.6004 153.359 22.3831 153.525 23.4144C153.837 25.4954 154.323 28.4328 154.984 32.2265C155.241 33.8471 155.415 34.7587 155.507 34.9613C155.617 35.1455 155.801 35.256 156.058 35.2928V19.105C156.058 18.7735 156.15 18.5064 156.333 18.3039C156.517 18.1013 156.756 18 157.049 18H159.913ZM144.823 21.5635H147.687C147.98 21.5635 148.219 21.6648 148.403 21.8674C148.586 22.07 148.678 22.337 148.678 22.6685V36.3978C148.678 37.0239 148.595 37.4475 148.43 37.6685C148.265 37.8711 147.935 37.9724 147.439 37.9724H144.823V21.5635Z" fill="black"/>
<path d="M168.598 37.9724H168.267C167.533 37.9724 166.918 37.9171 166.422 37.8066C165.945 37.6961 165.523 37.4751 165.156 37.1436C164.807 36.7937 164.532 36.407 164.33 35.9834C164.146 35.5599 163.999 34.9245 163.889 34.0773C163.724 32.8066 163.641 31.1031 163.641 28.9669C163.641 26.8122 163.65 25.2928 163.669 24.4088C163.705 23.5249 163.779 22.6685 163.889 21.8398C163.999 20.9926 164.146 20.3665 164.33 19.9613C164.532 19.5378 164.807 19.1602 165.156 18.8287C165.523 18.4788 165.945 18.2578 166.422 18.1657C166.918 18.0552 167.533 18 168.267 18H168.598V37.9724ZM169.699 18H173.197C174.537 18 175.546 18.2302 176.226 18.6906C176.923 19.151 177.272 19.9521 177.272 21.0939V23.5801C177.272 23.9669 177.143 24.1602 176.886 24.1602H173.417C173.16 24.1602 173.004 24.1234 172.949 24.0497C172.894 23.9761 172.866 23.8195 172.866 23.5801V21.4254C172.866 21.1308 172.82 20.9282 172.728 20.8177C172.655 20.6888 172.453 20.6243 172.123 20.6243H169.699V18ZM173.417 31.8122H176.886C177.143 31.8122 177.272 32.0055 177.272 32.3923V34.8785C177.272 36.0203 176.923 36.8214 176.226 37.2818C175.546 37.7422 174.537 37.9724 173.197 37.9724H169.699V35.3481H172.123C172.453 35.3481 172.655 35.2928 172.728 35.1823C172.82 35.0534 172.866 34.8416 172.866 34.547V32.3923C172.866 32.1529 172.894 31.9963 172.949 31.9227C173.004 31.849 173.16 31.8122 173.417 31.8122Z" fill="black"/>
<path d="M185.048 37.9724H182.156C181.532 37.9724 181.119 37.8711 180.917 37.6685C180.734 37.4659 180.642 37.0424 180.642 36.3978V19.5746C180.642 18.93 180.734 18.5064 180.917 18.3039C181.119 18.1013 181.532 18 182.156 18H185.048V37.9724ZM193.557 34.105V36.453C193.557 37.0792 193.456 37.4936 193.254 37.6961C193.052 37.8803 192.63 37.9724 191.987 37.9724H186.149V34.105H193.557ZM191.904 25.9558V27.6133C191.904 28.2762 191.84 28.6998 191.712 28.884C191.583 29.0497 191.216 29.1326 190.61 29.1326H186.149V25.9558H191.904ZM193.281 18V20.3481C193.281 20.9742 193.18 21.3886 192.978 21.5912C192.777 21.7753 192.354 21.8674 191.712 21.8674H186.149V18H193.281Z" fill="black"/>
<path d="M215.343 27.9448L215.37 32.6133C215.37 34.8048 215.095 36.2505 214.544 36.9503C213.993 37.6317 212.993 37.9724 211.543 37.9724H207.495V35.3481H209.533C209.991 35.3481 210.294 35.2928 210.441 35.1823C210.588 35.0718 210.662 34.86 210.662 34.547V21.453C210.662 21.1215 210.588 20.9006 210.441 20.7901C210.294 20.6796 209.991 20.6243 209.533 20.6243H207.495V18H211.818C213.158 18 214.085 18.3131 214.599 18.9392C215.132 19.547 215.398 20.744 215.398 22.5304L215.343 27.9448ZM206.669 38H203.777C203.171 38 202.768 37.8987 202.566 37.6961C202.364 37.4751 202.263 37.0516 202.263 36.4254V19.5746C202.263 18.9484 202.364 18.5341 202.566 18.3315C202.768 18.1105 203.171 18 203.777 18H206.669V38Z" fill="black"/>
<path d="M226.612 20.6243H224.051C223.757 20.6243 223.61 20.698 223.61 20.8453V37.9724H220.719C220.095 37.9724 219.682 37.8711 219.48 37.6685C219.296 37.4659 219.204 37.0424 219.204 36.3978V19.5746C219.204 18.93 219.296 18.5064 219.48 18.3039C219.682 18.1013 220.095 18 220.719 18H226.612V20.6243ZM227.713 18H230.605C231.229 18 231.633 18.1013 231.816 18.3039C232.018 18.5064 232.119 18.93 232.119 19.5746V36.3702C232.119 37.0147 232.018 37.4475 231.816 37.6685C231.614 37.8711 231.211 37.9724 230.605 37.9724H227.713V28.7182H224.712V26.0939H227.713V18Z" fill="black"/>
<path d="M240.775 18V34.547C240.775 34.8232 240.839 35.0258 240.968 35.1547C241.115 35.2836 241.427 35.3481 241.904 35.3481H243.942V37.9724H240.445C239.71 37.9724 239.095 37.9171 238.6 37.8066C238.122 37.6961 237.7 37.4751 237.333 37.1436C236.984 36.7937 236.709 36.407 236.507 35.9834C236.323 35.5599 236.176 34.9245 236.066 34.0773C235.901 32.8066 235.818 31.1031 235.818 28.9669C235.818 26.8122 235.828 25.2928 235.846 24.4088C235.883 23.5249 235.956 22.6685 236.066 21.8398C236.176 20.9926 236.323 20.3665 236.507 19.9613C236.709 19.5378 236.984 19.1602 237.333 18.8287C237.7 18.4788 238.122 18.2578 238.6 18.1657C239.095 18.0552 239.71 18 240.445 18H240.775ZM241.876 18.0276H245.374C246.108 18.0276 246.714 18.0829 247.191 18.1934C247.687 18.3039 248.109 18.5341 248.458 18.884C248.825 19.2155 249.1 19.593 249.284 20.0166C249.486 20.4401 249.642 21.0755 249.752 21.9227C249.917 23.1934 250 24.9061 250 27.0608C250 29.1971 249.982 30.7072 249.945 31.5912C249.926 32.4751 249.862 33.3407 249.752 34.1878C249.642 35.0166 249.486 35.6427 249.284 36.0663C249.1 36.4715 248.825 36.849 248.458 37.1989C248.109 37.5304 247.687 37.7514 247.191 37.8619C246.714 37.954 246.108 38 245.374 38H245.043V21.453C245.043 21.1768 244.97 20.9742 244.823 20.8453C244.694 20.7164 244.392 20.6519 243.914 20.6519H241.876V18.0276Z" fill="black"/>
<path d="M84.8648 27.9448L84.8923 32.6133C84.8923 34.8048 84.6169 36.2505 84.0662 36.9503C83.5154 37.6317 82.5149 37.9724 81.0647 37.9724H77.0167V35.3481H79.0544C79.5134 35.3481 79.8163 35.2928 79.9632 35.1823C80.11 35.0718 80.1835 34.86 80.1835 34.547V21.453C80.1835 21.1215 80.11 20.9006 79.9632 20.7901C79.8163 20.6796 79.5134 20.6243 79.0544 20.6243H77.0167V18H81.34C82.6802 18 83.6072 18.3131 84.1213 18.9392C84.6536 19.547 84.9198 20.744 84.9198 22.5304L84.8648 27.9448ZM76.1906 38H73.2992C72.6934 38 72.2895 37.8987 72.0876 37.6961C71.8856 37.4751 71.7847 37.0516 71.7847 36.4254V19.5746C71.7847 18.9484 71.8856 18.5341 72.0876 18.3315C72.2895 18.1105 72.6934 18 73.2992 18H76.1906V38Z" fill="#DF1931"/>
<path d="M93.1323 37.9724H90.2409C89.6168 37.9724 89.2037 37.8711 89.0018 37.6685C88.8182 37.4659 88.7264 37.0424 88.7264 36.3978V19.5746C88.7264 18.93 88.8182 18.5064 89.0018 18.3039C89.2037 18.1013 89.6168 18 90.2409 18H93.1323V37.9724ZM101.641 34.105V36.453C101.641 37.0792 101.54 37.4936 101.338 37.6961C101.136 37.8803 100.714 37.9724 100.072 37.9724H94.2338V34.105H101.641ZM99.989 25.9558V27.6133C99.989 28.2762 99.9248 28.6998 99.7963 28.884C99.6678 29.0497 99.3006 29.1326 98.6948 29.1326H94.2338V25.9558H99.989ZM101.366 18V20.3481C101.366 20.9742 101.265 21.3886 101.063 21.5912C100.861 21.7753 100.439 21.8674 99.7963 21.8674H94.2338V18H101.366Z" fill="#DF1931"/>
<path d="M109.079 37.9724H106.188C105.564 37.9724 105.15 37.8711 104.949 37.6685C104.765 37.4659 104.673 37.0516 104.673 36.4254V19.6022C104.673 18.9576 104.774 18.5341 104.976 18.3315C105.178 18.1105 105.582 18 106.188 18H109.079V37.9724ZM115.936 25.7072V27.3646C115.936 28.0276 115.872 28.4512 115.743 28.6354C115.615 28.8011 115.247 28.884 114.642 28.884H110.181V25.7072H115.936ZM117.037 18V20.3757C117.037 21.0018 116.936 21.4162 116.734 21.6188C116.532 21.8029 116.11 21.895 115.468 21.895H110.181V18H117.037Z" fill="#DF1931"/>
<path d="M124.031 37.9724H121.139C120.515 37.9724 120.102 37.8711 119.9 37.6685C119.717 37.4659 119.625 37.0424 119.625 36.3978V19.5746C119.625 18.93 119.717 18.5064 119.9 18.3039C120.102 18.1013 120.515 18 121.139 18H124.031V37.9724Z" fill="#DF1931"/>
</svg>
