<svg width="180" height="43" viewBox="0 0 180 43" fill="none" xmlns="http://www.w3.org/2000/svg">
<path fill-rule="evenodd" clip-rule="evenodd" d="M107.138 2.31616C105.715 2.49091 104.497 2.67242 104.432 2.71976C104.366 2.76685 105.1 2.8359 106.063 2.87294C107.808 2.94024 107.806 2.94085 105.42 3.14565C104.104 3.25864 102.212 3.48449 101.215 3.64741C99.9606 3.8525 100.683 3.83952 103.559 3.60522C110.133 3.06997 116.907 2.54582 117.8 2.50288C118.299 2.47904 118.486 2.37069 118.279 2.22661C118.055 2.07091 119.635 1.89983 122.884 1.72791C126.396 1.54212 127.865 1.54474 127.947 1.737C128.02 1.90757 128.21 1.97814 128.459 1.92724C128.675 1.88261 129.041 1.90434 129.27 1.97559C129.5 2.0466 131.074 2.15409 132.768 2.21441C134.462 2.27472 136.257 2.40368 136.756 2.50095C137.256 2.59798 137.581 2.58691 137.479 2.47626C137.224 2.20002 136.574 2.06581 133.062 1.56332C132.621 1.50042 131.773 1.35606 131.177 1.24274C129.893 0.998522 111.003 1.84213 107.138 2.31616ZM49.7026 5.62352C48.9373 5.80607 48.973 5.81566 50.2969 5.78336C51.6911 5.74912 52.0071 5.62452 51.0251 5.49592C50.7453 5.4592 50.1504 5.51669 49.7026 5.62352ZM47.7295 5.85339C47.5595 5.906 46.7396 6.05879 45.9071 6.19286C45.0749 6.32692 44.468 6.51715 44.559 6.61588C44.6498 6.71436 44.961 6.73692 45.2505 6.66575C45.6542 6.56661 45.7657 6.59972 45.7295 6.80822C45.6934 7.01467 45.8811 7.06314 46.5111 7.00966C47.2673 6.94568 47.2753 6.92587 46.6011 6.78404L45.8618 6.62856L46.5297 6.56288C46.8969 6.52687 47.3159 6.59345 47.4608 6.71101C47.6102 6.8324 48.3455 6.80931 49.1658 6.65727C50.7215 6.3694 50.6051 6.27737 48.7994 6.36755C48.1726 6.39868 47.8236 6.3595 48.0238 6.28031C48.3675 6.14429 48.5195 5.62006 48.1876 5.71465C48.1056 5.73811 47.8993 5.80054 47.7295 5.85339ZM113.067 2.43578C112.464 2.51742 111.356 2.57629 110.606 2.56678C109.855 2.55753 110.348 2.49062 111.702 2.41873C113.056 2.3466 113.67 2.3544 113.067 2.43578ZM115.693 2.27719C115.626 2.35168 115.413 2.36295 115.22 2.30224C115.028 2.24177 115.083 2.18093 115.344 2.16716C115.604 2.15338 115.762 2.20294 115.693 2.27719ZM130.312 1.75879C130.244 1.83328 130.031 1.84455 129.838 1.78384C129.646 1.72337 129.702 1.66254 129.962 1.64876C130.223 1.63498 130.38 1.68454 130.312 1.75879ZM131.64 1.687C131.573 1.76041 131.321 1.77807 131.08 1.72606C130.839 1.67404 130.893 1.61402 131.202 1.59262C131.51 1.57122 131.707 1.61358 131.64 1.687ZM50.8054 6.22725C51.0441 6.27889 51.3426 6.26309 51.4683 6.19217C51.5942 6.1215 51.399 6.07929 51.0344 6.09858C50.6698 6.11787 50.5669 6.17585 50.8054 6.22725ZM52.5986 6.12548C52.7913 6.18619 53.0043 6.17492 53.0721 6.10043C53.1403 6.02618 52.9828 5.97662 52.7224 5.9904C52.462 6.00418 52.4064 6.06501 52.5986 6.12548ZM16.7098 8.44561C16.7597 8.56182 15.8303 8.68469 14.6444 8.71862C12.4929 8.78068 9.13436 9.33378 8.80313 9.68081C8.6922 9.79685 8.84943 10.0874 9.23241 10.4745C9.8843 11.1332 9.9354 11.1552 11.2098 11.326C12.2529 11.4659 12.6858 11.8556 11.7931 11.8511C11.1988 11.8481 11.2007 11.9036 11.8156 12.5137C12.4031 13.0968 12.4213 13.1836 11.9619 13.2112C11.3041 13.2511 11.27 13.4796 11.8239 14.1399C12.1843 14.5695 12.4144 14.6792 13.1531 14.7737C14.3489 14.927 14.6046 15.2662 13.6826 15.4764C12.9543 15.6424 12.7168 16.5736 13.2997 16.9784C13.4446 17.0791 13.374 17.2474 13.1427 17.3522C12.779 17.5168 12.8017 17.5875 13.3099 17.8741C13.6333 18.0564 14.0123 18.2013 14.1518 18.196C14.3431 18.1889 14.3883 18.2455 14.3358 18.4263C14.2869 18.5941 14.5911 18.6721 15.3528 18.6872C16.4265 18.7084 16.4482 18.7179 17.1853 19.4981C17.5958 19.9324 17.8672 20.2909 17.7892 20.295C17.7112 20.2992 17.8489 20.5214 18.0955 20.7889C18.4277 21.1493 18.4168 21.2909 18.0534 21.3359C17.6261 21.3888 17.6309 21.4072 18.0921 21.48C18.7658 21.5861 20.3745 22.195 20.0344 22.215C19.8906 22.2234 19.9641 22.3794 20.2024 22.5716C20.832 23.0792 20.7134 23.3772 19.7387 23.7379C18.8665 24.0605 18.6129 24.332 19.2134 24.3002C19.3871 24.291 19.6805 24.4477 19.8654 24.6483C20.127 24.9321 19.9492 25.0264 19.0653 25.0732C17.8399 25.138 17.8869 25.6226 19.1179 25.6151C19.5764 25.6123 19.7333 25.6593 19.5298 25.7387C19.3487 25.809 19.2877 25.9609 19.3942 26.0764C19.5007 26.1919 19.4804 26.3654 19.3495 26.4621C19.2183 26.5586 19.2481 26.7327 19.4149 26.8486C19.5821 26.9647 19.5344 27.1781 19.3089 27.3229C18.9548 27.5506 19.0958 27.5801 20.3465 27.5404C21.8328 27.4934 22.123 27.7466 21.0331 28.1394C20.5497 28.3134 20.5493 28.3981 21.0303 28.6942C21.4871 28.9756 21.5728 28.9805 21.4695 28.7197C21.3695 28.4677 21.5025 28.4989 22.0671 28.8597C22.7326 29.2849 22.7756 29.3456 22.5832 29.5853C22.4033 29.809 22.5409 29.8579 23.5378 29.925C24.5829 29.9952 24.689 30.0357 24.5729 30.3206C24.5018 30.4952 24.1379 30.7308 23.7641 30.8439C22.6023 31.1956 22.7879 31.4898 24.1411 31.4414L25.3908 31.3964L24.4975 32.259L23.6043 33.1216L24.6634 33.1931L25.7224 33.2646L24.9098 33.6527C24.3421 33.924 24.2363 34.1012 24.5585 34.2413C24.8123 34.3515 25.1988 34.442 25.4177 34.4424C25.8129 34.4432 25.8142 34.4446 25.6139 34.6514C25.4673 34.8022 25.8023 34.8992 26.8334 35.0046C28.121 35.1359 28.1909 35.1615 27.5774 35.2769C27.2049 35.3468 26.9135 35.5107 26.9295 35.6407C26.9475 35.7871 27.8255 35.8389 29.2397 35.7765C31.0013 35.6989 31.4535 35.7379 31.2249 35.9477C31.0537 36.1054 31.0971 36.4015 31.3284 36.6525C31.6521 37.0036 31.4761 37.1894 30.3985 37.6341C29.6674 37.9357 29.2664 38.2137 29.5071 38.2518C29.8573 38.3072 29.9315 38.3668 29.8784 38.5499C29.8298 38.7182 29.9391 38.7739 30.2926 38.7611C30.5568 38.7514 30.9923 38.8388 31.2605 38.9552C31.8022 39.1903 31.7784 39.256 31.03 39.5912C30.8259 39.6826 30.7555 39.9148 30.8737 40.1075C31.0532 40.4005 31.4154 40.4211 33.1032 40.2334C34.5924 40.0679 35.1082 40.0829 35.0797 40.291C35.0475 40.5286 35.0954 40.5636 35.3847 40.5141C35.9576 40.4154 36.1679 40.4859 36.103 40.7546C36.0609 40.9287 36.3531 40.9357 37.0171 40.7766C38.2322 40.4851 38.1576 40.4865 41.7068 40.6925C43.8818 40.8187 46.7938 40.7039 52.92 40.2509C58.0049 39.8748 62.8926 39.6529 65.5984 39.675C74.5165 39.7487 75.3895 39.7408 75.1214 39.5871C74.971 39.501 73.9111 39.4178 72.7661 39.4024C71.6215 39.3872 70.5134 39.2811 70.3047 39.1672C69.7839 38.8828 86.1139 38.0431 92.1471 38.0439C95.6078 38.0444 120.844 37.0686 129.505 36.5994C131.437 36.4946 139.59 35.7409 139.901 35.6382C140.158 35.5532 140.369 35.5948 140.433 35.743C140.491 35.8781 140.624 35.9841 140.728 35.9786C140.832 35.9731 140.869 35.8563 140.81 35.7192C140.67 35.3923 141.372 35.3589 141.666 35.6785C141.92 35.9535 146.409 35.7331 149.434 35.2973C150.819 35.0978 151.342 35.1071 151.626 35.3361C151.832 35.5018 152.124 35.6307 152.275 35.6227C152.426 35.6147 152.396 35.5015 152.209 35.3711C152.021 35.2408 152.004 35.1073 152.172 35.0744C152.339 35.0416 152.582 34.9837 152.71 34.9455C152.839 34.9075 153.401 34.8383 153.959 34.7917C154.577 34.7401 154.803 34.633 154.538 34.518C154.108 34.3308 155.28 34.0735 158.803 33.5821C160.574 33.3351 161.068 32.8902 159.558 32.9033C159.075 32.9074 158.572 32.8899 158.439 32.8643C158.306 32.8387 157.363 32.833 156.342 32.8518L154.486 32.8855L155.543 32.6311C156.124 32.4912 157.406 32.2982 158.391 32.2024C159.377 32.1064 160.146 31.9413 160.101 31.8353C160.055 31.7293 160.188 31.6335 160.397 31.6225C160.605 31.6115 160.642 31.5098 160.479 31.3963C160.314 31.2818 159.905 31.2986 159.558 31.434C158.859 31.7072 158.047 31.8095 158.022 31.6277C157.988 31.3837 161.112 30.3079 161.507 30.4273C161.738 30.497 161.814 30.383 161.681 30.1664C161.514 29.8934 161.725 29.755 162.409 29.6892L163.372 29.5967L162.199 29.5083C161.275 29.4386 161.105 29.3831 161.401 29.2478C161.607 29.1529 162.261 29.1352 162.854 29.2079C163.446 29.2806 163.93 29.317 163.928 29.2888C163.927 29.2603 163.561 28.9955 163.114 28.7001C162.577 28.3445 162.315 28.2481 162.338 28.4148C162.361 28.5816 162.092 28.5915 161.543 28.4435C160.067 28.047 160.141 27.9363 161.878 27.9374C163.089 27.9381 163.473 27.8625 163.204 27.676C162.972 27.5144 162.987 27.396 163.243 27.3684C163.615 27.3283 161.306 26.9412 159.557 26.7501C159.192 26.7102 159.517 26.6257 160.278 26.5625C161.038 26.4991 161.691 26.3342 161.728 26.1963C161.783 25.9884 161.729 25.9476 161.409 25.9582C161.197 25.9651 160.789 25.8619 160.502 25.7289C160.122 25.5522 160.261 25.5157 161.023 25.5935C162.383 25.7322 162.436 25.5068 161.21 24.7943C160.668 24.4787 160.349 24.229 160.481 24.222C160.609 24.2152 160.561 24.103 160.373 23.9727C160.186 23.8424 159.673 23.7529 159.235 23.7741C158.796 23.795 158.205 23.7049 157.92 23.5736C157.547 23.402 157.722 23.3647 158.542 23.4412C159.703 23.5489 159.787 23.2047 158.667 22.9301C158.104 22.7921 158.094 22.7824 158.253 22.535C158.383 22.3343 158.298 22.31 157.843 22.4187C157.188 22.5756 155.904 22.0937 156.197 21.8009C156.288 21.7094 156.516 21.6264 156.703 21.6165C156.89 21.6066 156.998 21.4288 156.943 21.2213C156.864 20.925 156.793 20.8467 156.61 20.8564C156.48 20.8632 156.276 20.7037 156.15 20.4982C156.004 20.26 155.801 20.1277 155.581 20.1278C155.298 20.1278 155.273 20.0906 155.435 19.9086C155.616 19.7047 155.575 19.6722 154.848 19.4474C154.418 19.3146 153.944 19.2122 153.794 19.2201C153.645 19.228 153.422 19.125 153.298 18.9913C153.175 18.8576 153.554 18.7115 154.141 18.6669L155.209 18.5857L154.154 18.249C153.01 17.8842 152.429 17.4137 152.628 17.0122C152.698 16.8726 153.636 16.6304 154.714 16.4739C155.793 16.3177 156.597 16.105 156.501 16.0014C156.406 15.8978 155.992 15.7157 155.582 15.5964C154.957 15.4152 155.057 15.3648 156.191 15.2879C156.96 15.2357 157.45 15.0908 157.322 14.9529C157.199 14.8191 156.923 14.719 156.708 14.7303C156.494 14.7417 156.272 14.6437 156.216 14.5126C156.16 14.3814 156.295 14.3291 156.518 14.3964C156.74 14.4634 156.827 14.4157 156.712 14.2902C156.596 14.1645 155.984 13.9612 155.352 13.8383C154.376 13.6487 154.642 13.604 157.114 13.5421L160.027 13.4693L157.155 13.1551C152.129 12.6051 152.225 12.6212 152.572 12.3858C152.855 12.1941 152.845 12.1783 152.441 12.1762C151.832 12.173 151.299 11.7613 151.701 11.6053C151.885 11.5336 151.669 11.4805 151.213 11.4853C150.762 11.49 150.265 11.3875 150.109 11.2576C149.953 11.1276 148.762 10.9835 147.463 10.9377C145.151 10.856 145.113 10.8473 145.626 10.5133C145.961 10.296 147.208 10.1371 149.07 10.0746C151.766 9.98424 151.977 9.93913 151.823 9.4905C151.677 9.06292 151.932 8.9795 153.942 8.79872C155.764 8.63497 156.163 8.52335 155.909 8.24832C155.734 8.05864 155.517 7.90741 155.427 7.9122C155.161 7.92629 151.253 7.36461 150.76 7.24149C149.827 7.00826 149.927 6.67194 150.954 6.58934C152.005 6.50461 152.007 6.502 151.074 6.34273C150.555 6.25414 149.436 6.2032 148.586 6.22978C147.073 6.27669 144.755 6.0527 145.206 5.90264C145.635 5.75983 143.372 5.52735 142.049 5.57843C140.897 5.62284 140.601 5.55507 139.729 5.04473L138.73 4.46001L139.506 4.39601L140.282 4.33201L139.414 4.12723C138.936 4.01477 138.438 3.98348 138.307 4.05752C138.175 4.13157 137.983 4.10116 137.881 3.98979C137.778 3.87842 137.498 3.74503 137.26 3.69339C137.021 3.64199 137.185 3.55299 137.624 3.49609L138.422 3.3924L137.4 3.25316C134.059 2.79845 113.943 3.51416 107.974 4.30023C106.269 4.52483 104.01 4.75707 102.954 4.81626C101.599 4.89255 101.088 5.01521 101.218 5.23327C101.357 5.46593 101.299 5.47435 100.983 5.26665C100.628 5.03395 96.4407 4.96603 96.2805 5.19027C96.1241 5.40946 46.2076 8.02265 42.6546 7.99767C40.2903 7.98096 37.5922 7.96304 36.6588 7.95785C35.7254 7.95266 32.998 7.99239 30.5987 8.04666C28.1989 8.10068 25.3133 8.12176 24.1863 8.09365C20.9274 8.01206 16.6108 8.2152 16.7098 8.44561ZM112.689 3.20659C112.891 3.26964 113.046 3.25224 113.034 3.16818C113.023 3.08412 112.858 3.03264 112.668 3.05366C112.458 3.07701 112.467 3.13702 112.689 3.20659ZM107.8 3.72032C108.001 3.78338 108.156 3.76598 108.145 3.68191C108.133 3.59785 107.969 3.54638 107.779 3.5674C107.569 3.59074 107.577 3.65075 107.8 3.72032ZM109.315 3.64016C109.516 3.70321 109.672 3.68581 109.66 3.60175C109.649 3.51769 109.484 3.46621 109.294 3.48723C109.084 3.51058 109.092 3.57058 109.315 3.64016ZM48.9596 7.34938C49.2474 7.39485 49.6307 7.37457 49.8119 7.30428C49.9928 7.23376 49.7572 7.19649 49.2884 7.22129C48.8197 7.24609 48.6715 7.30366 48.9596 7.34938ZM88.2018 6.28053C88.135 6.35395 87.8831 6.37161 87.6419 6.31959C87.4006 6.26758 87.4554 6.20755 87.7634 6.18616C88.0714 6.16476 88.2686 6.20712 88.2018 6.28053ZM136.763 3.69798C136.775 3.78204 136.619 3.79944 136.418 3.73639C136.195 3.66681 136.187 3.60681 136.397 3.58346C136.587 3.56244 136.752 3.61392 136.763 3.69798ZM108.938 5.6231C109.079 5.70261 108.531 5.81575 107.721 5.8747C106.91 5.93342 104.124 6.15219 101.531 6.36058C98.9372 6.56921 89.6636 7.2065 80.9234 7.77731C72.1831 8.34814 64.6357 8.91399 64.1518 9.03523C63.2624 9.25775 61.8353 9.13076 61.7937 8.82513C61.7698 8.64915 63.5209 8.50906 73.4932 7.8904C77.2991 7.6541 79.6569 7.41204 79.5266 7.27075C79.4092 7.14333 79.4874 7.09176 79.7005 7.15622C80.2893 7.3342 86.5655 6.96669 90.9315 6.49851C95.2 6.04059 108.529 5.39275 108.938 5.6231ZM113.688 5.14761C113.713 5.32966 110.486 5.52258 110.192 5.35656C110.056 5.28033 110.784 5.1735 111.808 5.1193C112.832 5.06511 113.678 5.07774 113.688 5.14761ZM114.449 5.13362C114.461 5.21768 114.305 5.23508 114.104 5.17203C113.881 5.10245 113.873 5.04245 114.083 5.0191C114.273 4.99808 114.437 5.04956 114.449 5.13362ZM100.308 6.16308C100.597 6.20873 100.936 6.18851 101.061 6.11813C101.186 6.04776 100.95 6.0103 100.535 6.03502C100.121 6.05974 100.019 6.11743 100.308 6.16308ZM126.186 4.80489C126.327 4.90253 125.264 5.04496 123.825 5.12112C122.385 5.19728 121.068 5.18078 120.897 5.08473C120.727 4.98868 121.789 4.84626 123.259 4.76851C124.728 4.69075 126.046 4.70725 126.186 4.80489ZM127.219 4.81402C126.965 5.12687 126.819 5.13458 126.556 4.84909C126.433 4.71534 126.573 4.6013 126.868 4.59538C127.344 4.58628 127.384 4.61096 127.219 4.81402ZM92.7713 6.81076C92.9727 6.87381 93.128 6.85641 93.1165 6.77235C93.105 6.68828 92.9403 6.63681 92.7503 6.65783C92.5404 6.68117 92.5487 6.74118 92.7713 6.81076ZM93.9086 6.7613C94.2987 6.79727 94.8092 6.76925 95.0427 6.69874C95.2761 6.62799 94.9567 6.59848 94.333 6.633C93.7091 6.66729 93.5183 6.72508 93.9086 6.7613ZM56.1993 9.35167C56.1627 9.4671 55.9989 9.50433 55.836 9.43465C55.673 9.36498 55.5694 9.21336 55.6059 9.09794C55.6425 8.98252 55.8062 8.94529 55.9691 9.01496C56.1321 9.08464 56.2357 9.23626 56.1993 9.35167ZM59.4377 8.9656C59.5343 9.07041 58.9835 9.1758 58.2136 9.19996C57.1748 9.23248 56.9172 9.18923 57.2148 9.0322C57.7276 8.76126 59.2086 8.71707 59.4377 8.9656ZM61.1766 8.69711C61.416 8.95682 60.7218 9.36718 60.2865 9.22316C59.9304 9.1053 59.899 9.02969 60.1381 8.8635C60.5076 8.60626 61.0176 8.5247 61.1766 8.69711ZM55.3579 9.39568C55.4132 9.52486 54.8018 9.66382 53.9988 9.70426C53.1957 9.74446 52.5642 9.69192 52.5955 9.58723C52.6818 9.29728 55.2393 9.11988 55.3579 9.39568ZM115.838 6.09351C115.772 6.16692 115.52 6.18458 115.278 6.13257C115.037 6.08055 115.092 6.02053 115.4 5.99913C115.708 5.97773 115.905 6.02009 115.838 6.09351ZM129.328 5.64758C129.147 5.71785 128.763 5.73815 128.476 5.69268C128.188 5.64695 128.336 5.58939 128.805 5.56459C129.273 5.53979 129.509 5.57707 129.328 5.64758ZM14.8337 15.0957C14.957 15.2294 15.0204 15.3408 14.9744 15.3433C14.9283 15.3457 14.7373 15.2411 14.5496 15.1107C14.3619 14.9804 14.2988 14.869 14.409 14.8631C14.5192 14.8573 14.7104 14.9619 14.8337 15.0957ZM17.9075 24.2885C18.1089 24.3515 18.2642 24.3341 18.2527 24.2501C18.2411 24.166 18.0765 24.1145 17.8865 24.1355C17.6766 24.1589 17.6849 24.2189 17.9075 24.2885ZM156.347 21.2794C156.358 21.3634 156.203 21.3808 156.002 21.3178C155.779 21.2482 155.771 21.1882 155.981 21.1648C156.171 21.1438 156.335 21.1953 156.347 21.2794ZM23.7883 28.9038C23.9116 29.0376 23.9221 29.1518 23.8119 29.1576C23.7016 29.1635 23.5631 29.056 23.5042 28.9189C23.4453 28.7817 23.4346 28.6675 23.4806 28.6651C23.5266 28.6626 23.665 28.7701 23.7883 28.9038ZM83.5195 29.5862C84.1135 29.9988 83.9642 30.1008 83.3339 29.7126C82.9715 29.4894 82.8284 29.3506 82.9542 29.344C83.0648 29.3381 83.3193 29.4471 83.5195 29.5862ZM96.0815 29.5494C96.1117 29.4542 95.9935 29.2771 95.8187 29.1558C95.6363 29.029 95.9826 28.9097 96.633 28.8753C97.2866 28.8407 97.898 28.9267 98.0801 29.0787C98.2537 29.2236 98.8495 29.379 99.4041 29.4239C100.786 29.5359 100.853 29.9251 99.4863 29.9003C98.6642 29.8854 98.4594 29.964 98.6844 30.2082C99.0651 30.6211 98.3907 30.678 97.8848 30.2755C97.667 30.1021 97.6733 30.1617 97.8997 30.4173C98.1146 30.6597 98.169 30.8062 98.0207 30.7427C97.8725 30.6794 97.8057 30.8482 97.8721 31.118C98.0141 31.694 97.1992 31.8292 96.7202 31.3096C96.4749 31.0435 96.2653 31.0031 95.8418 31.1398C95.4054 31.2809 95.238 31.2452 95.0645 30.9738C94.9428 30.7834 94.9745 30.6325 95.1348 30.6383C95.2953 30.6441 95.3952 30.4825 95.3574 30.2794C95.2973 29.9584 95.2242 29.9363 94.7993 30.1108C94.5304 30.2211 94.2152 30.3699 94.0991 30.4414C93.9833 30.513 93.7428 30.4704 93.5652 30.3472C93.3874 30.2237 93.6029 30.0239 94.0439 29.9031C94.4848 29.7821 94.8158 29.535 94.7793 29.3539C94.7251 29.0838 94.8314 29.0874 95.3698 29.3734C95.7311 29.5654 96.0515 29.6446 96.0815 29.5494ZM122.54 27.8583C122.724 28.058 121.658 28.2197 121.389 28.033C121.233 27.9244 121.408 27.8195 121.779 27.7999C122.149 27.7803 122.492 27.8065 122.54 27.8583ZM89.3045 31.1523C89.6438 31.7054 89.1545 31.4459 88.5984 30.7775C87.9068 29.9465 87.9051 29.9394 88.5082 30.3671C88.8145 30.5843 89.1728 30.9377 89.3045 31.1523ZM101.887 29.5297C101.82 29.6031 101.568 29.6208 101.327 29.5688C101.085 29.5168 101.14 29.4568 101.448 29.4354C101.756 29.414 101.953 29.4563 101.887 29.5297ZM108.364 29.2878C107.405 29.6295 103.078 29.849 102.481 29.586C102.148 29.4396 103.168 29.312 105.508 29.2065C107.921 29.0982 108.824 29.1237 108.364 29.2878ZM112.219 28.9984C111.983 29.0692 111.515 29.094 111.177 29.0535C110.839 29.013 111.032 28.9551 111.604 28.9248C112.177 28.8945 112.454 28.9275 112.219 28.9984ZM114.006 28.8901C113.938 28.9645 113.725 28.9758 113.532 28.9151C113.34 28.8546 113.396 28.7938 113.656 28.78C113.916 28.7662 114.074 28.8158 114.006 28.8901ZM115.9 28.7898C115.832 28.8643 115.619 28.8756 115.426 28.8149C115.234 28.7544 115.29 28.6936 115.55 28.6798C115.81 28.666 115.968 28.7156 115.9 28.7898ZM83.8401 30.697C84.1665 31.051 84.1441 31.8301 83.8075 31.8407C83.431 31.8525 83.4161 31.8342 83.4216 31.3661L83.4273 30.8795L82.5291 30.8288C81.7402 30.7844 81.7587 30.766 82.6806 30.6782C83.2582 30.6232 83.7798 30.6316 83.8401 30.697ZM84.7615 30.6776C84.7731 30.7616 84.6177 30.779 84.4163 30.716C84.1937 30.6464 84.1854 30.5864 84.3953 30.563C84.5853 30.542 84.75 30.5935 84.7615 30.6776ZM96.4549 30.1599C96.5782 30.2936 96.7694 30.3983 96.8796 30.3924C96.9899 30.3866 96.9267 30.2752 96.739 30.1448C96.5513 30.0145 96.3603 29.9098 96.3143 29.9123C96.2682 29.9147 96.3316 30.0261 96.4549 30.1599ZM155.596 26.9298C155.608 27.0139 155.453 27.0313 155.251 26.9682C155.029 26.8986 155.02 26.8386 155.23 26.8153C155.42 26.7943 155.585 26.8458 155.596 26.9298ZM157.034 26.8686C156.966 26.943 156.753 26.9543 156.56 26.8936C156.368 26.8331 156.424 26.7723 156.684 26.7585C156.945 26.7447 157.102 26.7943 157.034 26.8686ZM75.8946 31.4017C75.9061 31.4858 75.7507 31.5032 75.5494 31.4401C75.3267 31.3706 75.3185 31.3105 75.5284 31.2872C75.7184 31.2662 75.883 31.3177 75.8946 31.4017ZM81.3366 31.2627C81.4417 31.4237 81.4592 31.6097 81.3754 31.6761C81.2899 31.7442 81.174 31.6817 81.11 31.5331C81.0464 31.3849 80.7659 31.2327 80.4703 31.1862C80.0953 31.1269 80.1166 31.0837 80.5443 31.0364C80.9363 30.9929 81.2117 31.0717 81.3366 31.2627ZM87.528 31.1422C87.7162 31.4248 87.9423 31.6304 88.0584 31.6243C88.1695 31.6184 88.3445 31.7048 88.4472 31.8161C88.7383 32.132 87.8291 32.0217 87.3394 31.6817C87.0005 31.4464 86.8682 31.4457 86.7527 31.6788C86.6705 31.8443 86.444 31.9117 86.2488 31.8281C85.8552 31.6597 86.3552 30.7478 86.8738 30.6874C87.1205 30.6588 87.2798 30.7695 87.528 31.1422ZM123.1 29.0052C123.288 29.1355 123.351 29.2469 123.241 29.2527C123.131 29.2586 122.939 29.1539 122.816 29.0202C122.693 28.8864 122.629 28.775 122.675 28.7726C122.721 28.7702 122.912 28.8748 123.1 29.0052ZM124.774 28.774C124.829 28.8331 124.85 28.9534 124.822 29.0416C124.794 29.1298 124.664 29.0859 124.534 28.9444C124.403 28.8028 124.382 28.6823 124.486 28.6768C124.59 28.6713 124.72 28.7149 124.774 28.774ZM152.525 27.3606C152.459 27.434 152.207 27.4517 151.965 27.3997C151.724 27.3476 151.779 27.2876 152.087 27.2662C152.395 27.2448 152.592 27.2872 152.525 27.3606ZM153.548 27.2932C153.559 27.3773 153.404 27.3947 153.203 27.3316C152.98 27.2621 152.972 27.2021 153.182 27.1787C153.372 27.1577 153.536 27.2092 153.548 27.2932ZM79.0051 31.5932C79.1928 31.7235 79.256 31.8349 79.1457 31.8408C79.0355 31.8466 78.8443 31.742 78.721 31.6082C78.5977 31.4745 78.5343 31.3631 78.5804 31.3606C78.6264 31.3582 78.8174 31.4628 79.0051 31.5932ZM101.309 30.3121C101.32 30.3962 101.165 30.4136 100.964 30.3506C100.741 30.281 100.733 30.221 100.943 30.1976C101.132 30.1766 101.297 30.2281 101.309 30.3121ZM102.256 30.262C102.267 30.3461 102.112 30.3635 101.911 30.3004C101.688 30.2309 101.68 30.1709 101.89 30.1475C102.079 30.1265 102.244 30.178 102.256 30.262ZM104.212 30.387C104.397 30.5876 104.634 30.7473 104.738 30.7418C104.842 30.7363 104.801 30.5951 104.647 30.4278C104.439 30.2021 104.801 30.1223 106.052 30.1173C107.071 30.1134 107.778 30.206 107.841 30.3519C107.898 30.4843 107.737 30.5395 107.484 30.4743C107.232 30.4091 106.93 30.5347 106.815 30.753C106.629 31.1046 106.559 31.1088 106.208 30.79C105.765 30.3875 104.856 30.339 105.022 30.7267C105.139 30.9973 104.422 31.1086 104.021 30.8822C103.618 30.6554 103.327 30.0513 103.612 30.0362C103.757 30.0285 104.028 30.1864 104.212 30.387ZM121.637 29.4651C121.722 29.7845 121.815 29.8382 122.246 29.8155C122.536 29.8001 122.799 29.8953 122.86 30.038C122.919 30.1751 122.788 30.2968 122.568 30.3085C122.349 30.3201 122.302 30.4047 122.465 30.4963C122.627 30.5879 123.419 30.5927 124.225 30.5072C125.533 30.3682 125.716 30.3957 125.943 30.7655C126.11 31.0377 126.242 31.1368 126.331 31.0553C126.404 30.9869 126.33 30.8093 126.165 30.6601C126 30.511 126.084 30.3775 126.35 30.3634C126.625 30.3489 126.881 30.4457 126.942 30.5871C127.001 30.7243 127.14 30.8317 127.25 30.8259C127.36 30.8201 127.349 30.7058 127.226 30.5721C126.853 30.1675 127.683 30.2623 128.207 30.6842C128.475 30.9006 128.7 31.1156 128.706 31.1622C128.712 31.2086 127.905 31.3209 126.912 31.4117C125.594 31.5322 125.01 31.496 124.748 31.2771C124.55 31.1123 124.22 30.9862 124.014 30.9971C123.808 31.008 123.794 31.1235 123.981 31.2538C124.18 31.392 124.081 31.5036 123.743 31.5215C123.424 31.5383 123.063 31.4427 122.94 31.309C122.816 31.1752 122.4 31.0825 122.015 31.1029C121.248 31.1434 120.988 30.7494 121.662 30.5694C121.961 30.4893 121.922 30.2962 121.504 29.791C121.162 29.379 121.061 29.113 121.242 29.1035C121.482 29.0907 121.555 29.1573 121.637 29.4651ZM140.663 28.6641C140.936 28.7228 140.743 28.7812 140.236 28.794C139.729 28.8068 139.225 28.7207 139.117 28.603C139.008 28.4851 139.169 28.4531 139.473 28.5316C139.896 28.6406 139.919 28.5986 139.568 28.3525C139.207 28.0994 139.222 28.0869 139.638 28.2939C139.929 28.4389 140.39 28.6053 140.663 28.6641ZM116.92 29.8422C116.978 29.9794 116.947 30.0958 116.848 30.101C116.75 30.1062 116.569 30.001 116.446 29.8673C116.323 29.7335 116.355 29.6171 116.517 29.6085C116.679 29.5999 116.861 29.7051 116.92 29.8422ZM96.9728 31.1526C97.6209 31.4379 97.8218 31.4272 97.541 31.1225C97.4177 30.9888 97.1265 30.8912 96.894 30.9056C96.5524 30.927 96.5673 30.9741 96.9728 31.1526ZM114.873 30.3162C115.056 30.5137 115.455 30.6899 115.794 30.7227C116.275 30.7692 116.261 30.8118 115.72 30.9386C115.106 31.0825 115.002 31.0477 114.539 30.5458C114.258 30.2407 114.147 29.9889 114.292 29.9813C114.435 29.9737 114.697 30.1243 114.873 30.3162ZM120.614 29.8638C120.727 29.9859 120.482 30.11 120.07 30.1397C119.658 30.1692 119.286 30.1116 119.243 30.0118C119.127 29.741 120.377 29.606 120.614 29.8638ZM61.8741 33.2646C62.0618 33.395 62.0824 33.5087 61.9201 33.5173C61.7578 33.5258 61.5239 33.4234 61.4006 33.2897C61.2774 33.156 61.2566 33.0423 61.3547 33.0371C61.4528 33.0319 61.6865 33.1343 61.8741 33.2646ZM99.4829 31.2899C99.6134 31.4314 99.5564 31.4773 99.3557 31.3915C99.1553 31.3057 99.0558 31.3903 99.1348 31.5794C99.2483 31.8514 99.1956 31.8343 98.8831 31.4978C98.6375 31.2334 98.6311 31.0649 98.8667 31.0524C99.0751 31.0414 99.3525 31.1484 99.4829 31.2899ZM102.065 31.0745C102.158 31.1746 102.028 31.2677 101.778 31.2809C101.527 31.2942 101.286 31.2207 101.242 31.118C101.198 31.0153 101.327 30.9222 101.53 30.9115C101.732 30.9008 101.973 30.9743 102.065 31.0745ZM138.202 29.2263C138.261 29.3635 138.115 29.4778 137.878 29.4806C137.463 29.4852 137.454 29.4773 137.633 29.2564C137.889 28.9411 138.075 28.9313 138.202 29.2263ZM152.122 28.4898C152.246 28.6235 152.54 28.7245 152.776 28.7141C153.012 28.7038 153.431 28.7947 153.707 28.916C154.077 29.0788 153.997 29.1621 153.403 29.233C152.961 29.286 152.34 29.3885 152.024 29.4605C151.708 29.5328 148.539 29.7796 144.981 30.0089C141.424 30.2382 138.949 30.3171 139.482 30.1841C140.015 30.0513 140.814 29.8519 141.259 29.7412C142.965 29.316 145.316 29.1044 145.662 29.3445C145.853 29.4777 146.033 29.5125 146.062 29.422C146.091 29.3317 146.44 29.3839 146.838 29.5383C147.235 29.6928 147.642 29.7314 147.742 29.6241C147.841 29.5168 148.518 29.3775 149.245 29.3145C149.972 29.2516 150.556 29.1256 150.544 29.0344C150.531 28.9435 150.868 28.9142 151.291 28.9694C151.904 29.0492 151.986 28.9887 151.696 28.6733C151.495 28.4552 151.458 28.2699 151.614 28.2616C151.77 28.2534 151.999 28.356 152.122 28.4898ZM157.75 28.2558C158.062 28.4943 158.107 28.492 157.971 28.2441C157.788 27.911 159.274 27.7233 159.708 28.0247C159.848 28.1223 159.553 28.1839 159.051 28.1612C158.481 28.1355 158.231 28.2207 158.385 28.3877C158.759 28.7933 157.789 28.7554 157.28 28.3444C156.738 27.9079 157.184 27.8239 157.75 28.2558ZM113.993 30.7621C114.052 30.8993 113.864 31.0159 113.575 31.0215C113.106 31.0302 113.07 31.0066 113.236 30.8022C113.494 30.484 113.866 30.4644 113.993 30.7621ZM131.797 29.8202C131.856 29.9574 132.08 30.0603 132.294 30.0489C132.508 30.0376 132.583 29.9189 132.46 29.7851C132.195 29.4979 132.622 29.5434 133.249 29.8693C133.825 30.1681 133.363 30.7738 132.674 30.6249C132.407 30.5673 132.241 30.6421 132.305 30.7912C132.369 30.9404 132.294 31.0691 132.138 31.0773C131.981 31.0856 131.802 30.9714 131.738 30.8238C131.658 30.6378 131.402 30.621 130.905 30.7692C130.47 30.8991 130.102 30.8902 129.969 30.7465C129.849 30.6164 130.18 30.4191 130.704 30.3085C131.229 30.1979 131.582 29.991 131.489 29.8487C131.396 29.7067 131.403 29.586 131.505 29.5806C131.607 29.5752 131.738 29.683 131.797 29.8202ZM137.194 29.5147C137.158 29.6419 136.839 29.7184 136.487 29.6848C135.993 29.6377 135.925 29.7347 136.189 30.1068C136.378 30.3725 136.459 30.5937 136.371 30.5983C136.166 30.6092 135.657 29.8057 135.708 29.5534C135.729 29.4492 136.087 29.3461 136.504 29.324C137.021 29.2967 137.24 29.3572 137.194 29.5147ZM70.7245 33.2766C70.9914 33.5662 70.4724 33.8362 70.1198 33.5914C69.9657 33.4843 69.8957 33.3358 69.964 33.261C70.1667 33.0396 70.5126 33.0468 70.7245 33.2766ZM73.2129 33.1748C73.3362 33.3086 73.3569 33.4222 73.2588 33.4274C73.1607 33.4326 72.9271 33.3302 72.7394 33.1999C72.5517 33.0695 72.5311 32.9558 72.6934 32.9473C72.8558 32.9387 73.0896 33.0411 73.2129 33.1748ZM76.5976 32.9679C76.9365 33.3356 75.6257 33.4871 74.8074 33.1749C74.0905 32.9014 74.1208 32.8748 75.2155 32.8153C75.866 32.7802 76.4878 32.8488 76.5976 32.9679ZM77.2661 33.0305C77.5107 33.3226 77.199 33.2799 76.8286 32.9707C76.639 32.8125 76.6265 32.7213 76.8008 32.7682C76.9751 32.8151 77.1844 32.9331 77.2661 33.0305ZM79.6493 33.7078C79.7706 33.8312 79.5178 33.7298 79.0873 33.4825C78.5567 33.1777 78.3203 32.9734 78.3539 32.8485C78.3982 32.6809 79.0908 33.1403 79.6493 33.7078ZM80.4011 32.6943C80.9616 32.8638 81.326 33.2556 80.9419 33.2759C80.7795 33.2845 80.7908 33.3918 80.9671 33.5141C81.1434 33.6366 81.1007 33.7294 80.8718 33.7201C80.444 33.7029 79.8377 33.1148 79.8838 32.7619C79.9141 32.5308 79.8766 32.5356 80.4011 32.6943ZM154.844 28.8559C154.967 28.9896 154.917 29.1053 154.733 29.1129C154.447 29.1248 154.408 29.0901 154.465 28.8759C154.549 28.5603 154.57 28.5592 154.844 28.8559ZM82.7551 33.067C82.506 33.348 82.5325 33.406 82.9497 33.4936C83.3402 33.5757 83.3466 33.6052 82.9835 33.6484C82.7243 33.6792 82.2685 33.5179 81.9064 33.2675C81.3311 32.8695 81.3527 32.8293 82.1612 32.7876C83.0354 32.7423 83.0407 32.7449 82.7551 33.067ZM85.617 33.2097C86.1659 33.7182 86.1815 33.7863 85.7262 33.6854C85.4342 33.6208 84.85 33.581 84.4279 33.5972C83.807 33.6212 83.6803 33.5753 83.7648 33.3582C83.8221 33.2105 83.7305 32.9935 83.561 32.8757C83.3917 32.7582 83.6409 32.6516 84.1147 32.6391C84.8699 32.619 85.0557 32.6895 85.617 33.2097ZM91.1494 32.8795C91.6644 33.2144 91.8037 33.2432 91.7714 33.008C91.7135 32.5864 92.1552 32.6064 92.5585 33.0439C92.8205 33.3282 92.6504 33.4172 91.788 33.4471C91.1793 33.4683 90.737 33.4246 90.805 33.3504C91.0957 33.0323 90.4413 32.7733 89.476 32.8244C88.3492 32.884 88.4091 33.2938 89.5602 33.4007C89.999 33.4412 89.872 33.5023 89.2241 33.562C88.6393 33.6159 88.0193 33.5449 87.8112 33.4004C87.544 33.2148 87.4508 33.2198 87.478 33.418C87.4988 33.5694 87.388 33.7 87.2317 33.7083C87.0217 33.7194 86.9374 33.6491 86.9086 33.4392C86.8872 33.283 86.677 32.9998 86.4412 32.8098C86.0791 32.5178 86.3587 32.4632 88.2495 32.4563C90.1261 32.4493 90.5925 32.5172 91.1494 32.8795ZM95.3077 32.5796C95.5596 32.8512 94.2273 32.8684 93.8386 32.5984C93.6368 32.4584 93.8282 32.3723 94.3213 32.3816C94.7708 32.3902 95.2148 32.4795 95.3077 32.5796ZM102.058 32.1437C102.174 32.2697 102.246 32.4444 102.218 32.5323C102.129 32.8119 96.9021 32.9622 96.2187 32.7049C95.8712 32.574 97.9864 32.1995 99.8473 32.0622C100.994 31.9778 101.937 32.0124 102.058 32.1437ZM110.494 31.8453C110.929 32.091 110.651 32.1968 108.998 32.4136C107.304 32.6361 105.1 32.4278 104.714 32.0085C104.517 31.7948 110.123 31.6366 110.494 31.8453ZM117.344 31.5958C116.252 31.8005 115.238 31.746 115.318 31.4868C115.345 31.3989 116.041 31.3447 116.864 31.3662L118.36 31.4054L117.344 31.5958ZM120.443 31.186C120.566 31.3198 120.629 31.4312 120.583 31.4336C120.537 31.4361 120.346 31.3314 120.158 31.2011C119.971 31.0707 119.908 30.9593 120.018 30.9535C120.128 30.9476 120.319 31.0523 120.443 31.186ZM124.704 30.9606C124.763 31.0977 124.944 31.2029 125.106 31.1943C125.269 31.1857 125.301 31.0693 125.178 30.9355C125.054 30.8018 124.873 30.6966 124.775 30.7018C124.677 30.707 124.645 30.8234 124.704 30.9606ZM163.898 28.8061C164.099 28.8691 164.254 28.8517 164.243 28.7677C164.231 28.6836 164.067 28.6321 163.877 28.6531C163.667 28.6765 163.675 28.7365 163.898 28.8061ZM119.804 31.4509C119.858 31.5751 119.678 31.6287 119.406 31.5696C118.723 31.4224 118.642 31.2813 119.223 31.2506C119.489 31.2365 119.751 31.3267 119.804 31.4509ZM129.54 30.8735C129.472 30.948 129.259 30.9593 129.067 30.8986C128.874 30.8381 128.93 30.7773 129.19 30.7635C129.451 30.7497 129.608 30.7993 129.54 30.8735ZM138.252 30.4126C138.185 30.4871 137.971 30.4984 137.779 30.4376C137.587 30.3772 137.642 30.3163 137.903 30.3026C138.163 30.2888 138.321 30.3383 138.252 30.4126ZM163.704 30.1723C163.892 30.3026 164.083 30.4073 164.129 30.4049C164.175 30.4024 164.112 30.291 163.989 30.1573C163.865 30.0235 163.674 29.9189 163.564 29.9247C163.454 29.9305 163.517 30.042 163.704 30.1723ZM168.617 29.8315C168.818 29.8946 168.974 29.8772 168.962 29.7931C168.951 29.7091 168.786 29.6576 168.596 29.6786C168.386 29.702 168.394 29.762 168.617 29.8315ZM94.0053 36.9841C94.0978 37.0843 92.429 37.2374 90.2968 37.3242C87.6129 37.4333 86.8762 37.4133 87.9032 37.2595C90.0342 36.9402 93.8074 36.7699 94.0053 36.9841ZM95.9819 36.9731C96.029 37.0242 95.6511 37.0748 95.1417 37.0852C94.3451 37.1013 94.2736 37.0765 94.6309 36.9082C95.019 36.7252 95.7876 36.7623 95.9819 36.9731ZM86.1906 37.5027C86.1228 37.5771 85.9098 37.5884 85.7171 37.5277C85.5249 37.4672 85.5805 37.4064 85.8409 37.3926C86.1013 37.3788 86.2588 37.4284 86.1906 37.5027ZM69.5274 38.928C69.7609 39.032 69.0732 39.1701 67.9791 39.239C66.8964 39.3072 65.9793 39.2899 65.9409 39.2004C65.836 38.956 69.0432 38.7126 69.5274 38.928ZM156.294 34.5641C156.496 34.6271 156.651 34.6097 156.639 34.5257C156.628 34.4416 156.463 34.3901 156.273 34.4111C156.063 34.4345 156.072 34.4945 156.294 34.5641ZM142.659 35.5204C142.67 35.6044 142.515 35.6218 142.314 35.5588C142.091 35.4892 142.083 35.4292 142.293 35.4059C142.483 35.3849 142.647 35.4363 142.659 35.5204ZM77.3165 39.5238C78.47 39.5077 80.3453 39.4087 81.4835 39.3036C82.6217 39.1985 81.6779 39.2117 79.3859 39.3327C77.094 39.4537 76.1628 39.5397 77.3165 39.5238ZM94.3968 38.7405C94.6172 38.8648 94.9164 38.9152 95.0611 38.8522C95.2563 38.7677 95.1521 38.7089 94.6602 38.6263C94.2309 38.5539 94.1379 38.5945 94.3968 38.7405ZM152.989 35.504C153.191 35.5671 153.346 35.5497 153.335 35.4656C153.323 35.3816 153.158 35.3301 152.968 35.3511C152.758 35.3744 152.767 35.4345 152.989 35.504ZM96.011 38.7798C96.3001 38.8255 96.639 38.8052 96.7641 38.7349C96.8891 38.6645 96.6523 38.627 96.2381 38.6517C95.8239 38.6765 95.7218 38.7342 96.011 38.7798ZM98.6625 38.6395C98.9517 38.6852 99.2906 38.6649 99.4156 38.5946C99.5407 38.5242 99.3039 38.4867 98.8897 38.5115C98.4755 38.5362 98.3733 38.5939 98.6625 38.6395ZM104.539 38.3332C104.929 38.3692 105.44 38.3411 105.673 38.2706C105.907 38.1999 105.587 38.1704 104.963 38.2049C104.34 38.2392 104.149 38.297 104.539 38.3332ZM107.283 38.1862C107.622 38.2267 108.047 38.2027 108.227 38.1327C108.407 38.0628 108.129 38.0295 107.61 38.0588C107.091 38.0883 106.944 38.1455 107.283 38.1862ZM132.085 36.8666C132.324 36.9182 132.622 36.9024 132.748 36.8315C132.874 36.7609 132.679 36.7186 132.314 36.7379C131.949 36.7572 131.847 36.8152 132.085 36.8666ZM135.204 36.6947C135.397 36.7554 135.61 36.7441 135.678 36.6696C135.746 36.5954 135.588 36.5458 135.328 36.5596C135.067 36.5734 135.012 36.6342 135.204 36.6947Z" fill="white"/>
</svg>
